<svg xmlns="http://www.w3.org/2000/svg" viewBox="0 0 350 350"><title>chart-donut</title><path d="M74.54,175a100,100,0,0,1,12.35-48.28L20.48,92.79A174.24,174.24,0,0,0,0,172.33c0,.53,0,1.06,0,1.59,0,.36,0,.72,0,1.08a174.23,174.23,0,0,0,18.53,78.43c.24.48.47,1,.71,1.43l65.18-36.38A100,100,0,0,1,74.54,175Z" fill="#00796b"/><path d="M324.73,84.37,323.89,83h0a175.43,175.43,0,0,0-99.61-76l-1.53-.45a175.89,175.89,0,0,0-102.18,2l-1.51.49a175.34,175.34,0,0,0-16.41,6.48l-1.45.68L132,84.18a100.44,100.44,0,0,1,126.66,35.23h0A100,100,0,0,1,275,165.74L349.64,164A173.89,173.89,0,0,0,324.73,84.37Z" fill="#004d40"/><path d="M349.74,165.55c0-.53-.06-1.06-.1-1.59L275,165.74c.28,3,.43,6.14.43,9.26a100.47,100.47,0,0,1-191,43.48L19.24,254.86a175.66,175.66,0,0,0,96.51,84.85l1.5.53a175.82,175.82,0,0,0,109.16,2.08l1.52-.48a170.82,170.82,0,0,0,18-6.81l1.45-.65a174.31,174.31,0,0,0,31.7-18.67l1.28-.95a175.76,175.76,0,0,0,51.82-62.7c.24-.48.48-1,.71-1.44A174.36,174.36,0,0,0,350,175Q350,170.25,349.74,165.55Z" fill="#81c784"/><path d="M101.2,16.29A175.19,175.19,0,0,0,72,33.49l-1.29.94a175.91,175.91,0,0,0-49.52,57l-.75,1.41,66.41,33.93a101,101,0,0,1,28.23-32.38c.66-.49,1.33-1,2-1.46l0,0h0q3-2.1,6.12-4h0l2.13-1.25h0c.7-.4,1.42-.79,2.14-1.18h0q2.17-1.17,4.41-2.23h0Z" fill="#4caf50"/></svg>