<?xml version="1.0" encoding="utf-8"?>
<!-- Generated by IcoMoon.io -->
<!DOCTYPE svg PUBLIC "-//W3C//DTD SVG 1.1//EN" "http://www.w3.org/Graphics/SVG/1.1/DTD/svg11.dtd">
<svg version="1.1" xmlns="http://www.w3.org/2000/svg" xmlns:xlink="http://www.w3.org/1999/xlink" width="1024" height="1024" viewBox="0 0 1024 1024">
<g id="icomoon-ignore">
</g>
<path fill="#777" d="M1000.414 774.808c-34.294-15.818-69.188-30.394-103.35-46.46-28.23-13.278-43.802-37.192-53.708-66.174-8.456-24.746-5.424-46.476 8.4-68.698 11.582-18.606 19.51-39.452 29.622-59.020 4.67-9.020 8.72-20.47 16.496-25.442 27.702-17.664 27.532-44.442 19.452-68.698-8.154-24.538-6.496-46.326-1.638-70.356 12.428-61.524-20.754-122.972-78.924-146.306-21.846-8.758-43.764-13.784-65.706-15.442v-0.736c-2.844-0.020-5.706 0.264-8.548 0.378-2.864-0.094-5.706-0.396-8.548-0.378v0.736c-21.938 1.658-43.86 6.684-65.706 15.442-58.172 23.35-91.354 84.78-78.924 146.306 4.86 24.030 6.516 45.818-1.638 70.356-8.078 24.254-8.25 51.034 19.452 68.698 7.778 4.952 11.826 16.402 16.496 25.442 10.114 19.566 18.042 40.414 29.622 59.020 13.822 22.222 16.854 43.952 8.4 68.698-2.918 8.548-6.572 16.478-10.678 24.010l0.904 0.414c35.894 16.496 73.030 33.538 109.376 53.010 63.35 33.99 76.532 81.9 76.418 116.116l-0.020 92.52c58.038 0 116.306 0 174.46 0v-158.81c-10.564-4.84-21.13-9.754-31.712-14.634zM746.598 804.278c-40.884-21.938-83.424-40.866-125.61-60.318-4.596-2.11-9.246-4.106-13.842-6.196-35.932-16.252-72.202-31.75-107.888-48.53-33.238-15.63-51.598-43.822-63.258-77.926-9.962-29.152-6.404-54.726 9.888-80.922 13.634-21.92 22.976-46.476 34.894-69.526 5.5-10.64 10.284-24.124 19.436-29.962 32.618-20.81 32.41-52.352 22.918-80.92-9.624-28.89-7.646-54.574-1.922-82.86 14.634-72.466-24.426-144.836-92.954-172.332-25.726-10.32-51.542-16.232-77.38-18.192v-0.866c-3.37-0.020-6.724 0.32-10.074 0.432-3.354-0.112-6.724-0.452-10.074-0.432v0.866c-25.856 1.958-51.656 7.872-77.38 18.192-68.528 27.494-107.606 99.866-92.954 172.332 5.706 28.304 7.682 53.972-1.92 82.86-9.51 28.568-9.698 60.11 22.918 80.92 9.152 5.838 13.918 19.322 19.436 29.962 11.92 23.050 21.26 47.588 34.896 69.526 16.29 26.196 19.848 51.77 9.888 80.922-11.658 34.124-30.018 62.294-63.258 77.926-40.262 18.926-81.334 36.082-121.728 54.726-23.466 10.828-46.986 21.636-70.318 32.75v171.578c117.004 0 233.724 0 350.29 0 0.17 0 0.338 0 0.51 0 14.952 0 29.98 0 44.914 0 126.098 0 251.122 0 376.356 0 0.15 0 0.284 0 0.432 0 7.194 0 14.406 0 21.6 0 0-32.88-0.058-62.804 0.020-92.73-0.020-26.384-18.662-40.996-37.834-51.278z"></path>
</svg>
