<svg id="Home" xmlns="http://www.w3.org/2000/svg" viewBox="0 0 144 17"><title>logo-fluff-logic</title><path d="M1.15,15.45V1.37h9v3H4.61V7.05H9V10H4.61v5.46Z" style="fill:#f2f2f2;opacity:0.7000000000000001"/><path d="M12.29,15.45V1.37h3.45v11.1h5.07v3Z" style="fill:#f2f2f2;opacity:0.7000000000000001"/><path d="M22.52,10.32V1.37H26v9a2.13,2.13,0,0,0,4.25,0V1.37h3.43v9a5.32,5.32,0,0,1-5.55,5.31A5.32,5.32,0,0,1,22.52,10.32Z" style="fill:#f2f2f2;opacity:0.7000000000000001"/><path d="M36.61,15.45V1.37h9.06v3h-5.6V7.05H44.5V10H40.07v5.46Z" style="fill:#f2f2f2;opacity:0.7000000000000001"/><path d="M47.75,15.45V1.37h9v3H51.2V7.05h4.43V10H51.2v5.46Z" style="fill:#f2f2f2;opacity:0.7000000000000001"/><path d="M82.15,15.45V1.37h3.46v11.1h5.06v3Z" style="fill:#f2f2f2;opacity:0.7000000000000001"/><path d="M98.8,1.19a7.22,7.22,0,1,1-7.17,7.23A7.18,7.18,0,0,1,98.8,1.19Zm0,11a3.79,3.79,0,0,0,0-7.58,3.74,3.74,0,0,0-3.72,3.8A3.72,3.72,0,0,0,98.8,12.2Z" style="fill:#f2f2f2;opacity:0.7000000000000001"/><path d="M117.76,5.83a3.82,3.82,0,0,0-3-1.47A3.9,3.9,0,0,0,111,8.42a4,4,0,0,0,3.8,4.11c1.65,0,2.92-.57,3.22-1.88h-3.94V7.91h7.66c0,5.39-2.9,7.72-6.94,7.72a7.22,7.22,0,1,1,0-14.44,7,7,0,0,1,5.49,2.49Z" style="fill:#f2f2f2;opacity:0.7000000000000001"/><path d="M123.78,1.37h3.41V15.45h-3.41Z" style="fill:#f2f2f2;opacity:0.7000000000000001"/><path d="M142.7,12.41a7.17,7.17,0,0,1-13.16-4,7.18,7.18,0,0,1,13.18-4c.25-.19-2.84,2-2.84,2a3.71,3.71,0,0,0-6.88,2,3.73,3.73,0,0,0,6.9,2Z" style="fill:#f2f2f2;opacity:0.7000000000000001"/><polygon points="75.66 5.43 73.25 3.02 69.99 6.27 66.73 3.02 64.32 5.43 67.58 8.69 64.32 11.94 66.73 14.36 69.99 11.1 73.25 14.36 75.66 11.94 72.4 8.69 75.66 5.43" style="fill:#f2f2f2;opacity:0.7000000000000001"/></svg>