<svg xmlns="http://www.w3.org/2000/svg" viewBox="0 0 1050 279"><title>Ratings2</title><rect width="350" height="282" fill="#b0bec5"/><path d="M149,159.8c-3.56.06-7,.17-10.27.3s-6.43.33-9.45.57-5.88.56-8.62,1-5.31.89-7.7,1.44l-1.59.41-1.59.41q.81-4.2,1.79-9.14t2.11-9.54q1.13-4.62,2.31-8.53a43.93,43.93,0,0,1,2.31-6.26c.75-1.5,2.51-3,5.29-4.57a50.11,50.11,0,0,1,11-4.16,115.73,115.73,0,0,1,16.12-3,171,171,0,0,1,20.69-1.13,171.1,171.1,0,0,1,20.69,1.13,116.29,116.29,0,0,1,16.12,3,50.11,50.11,0,0,1,11,4.16c2.77,1.54,4.53,3.07,5.29,4.57a46.53,46.53,0,0,1,2.31,6.26c.78,2.61,1.56,5.45,2.31,8.53s1.45,6.26,2.1,9.54,1.25,6.34,1.8,9.14c-.55-.13-1.08-.27-1.59-.41l-1.59-.41c-1.44-.34-2.91-.65-4.42-.92s-3.08-.52-4.72-.72Z" fill="#cfd8dc"/><path d="M103.77,218.67a5.21,5.21,0,0,1-5.18-5.18v-26q0-7.22,4.12-11.33t13.35-6.34A77.77,77.77,0,0,1,127,168q6.09-.62,13.09-.91c4.68-.21,9.63-.32,14.88-.36s10.71,0,16.4,0,11.15,0,16.4,0,10.2.15,14.87.36,9,.5,13.1.91a78,78,0,0,1,11,1.83q9.24,2.23,13.35,6.34t4.11,11.33v26a5.19,5.19,0,0,1-5.18,5.18Z" fill="#607d8b"/><circle cx="125.7" cy="192.5" r="8.5" fill="#fff9c4"/><circle cx="216.7" cy="192.5" r="8.5" fill="#fff9c4"/><path d="M216.37,187.7a5,5,0,1,0,3.51,1.46A4.82,4.82,0,0,0,216.37,187.7Z" fill="none"/><path d="M115.89,161q3.4-.78,7.32-1.37t8.19-.92q4.29-.35,9-.54t9.75-.29l-16.49-10.93a5.1,5.1,0,0,1-2.09-3.22,4.5,4.5,0,0,1,.73-3.71,4.79,4.79,0,0,1,3.17-2.14,4.88,4.88,0,0,1,3.76.78l28.68,19.12h3.51q7.41,0,14.39.05t13.31.24l-15.6-11.22a5.13,5.13,0,0,1-1.17-7,4.72,4.72,0,0,1,3.21-2,4.6,4.6,0,0,1,3.71.93l29,20.68c1.56.19,3.05.42,4.48.68s2.83.55,4.2.88l1.51.39,1.51.39q-.78-4-1.7-8.68c-.62-3.13-1.29-6.15-2-9.08s-1.45-5.62-2.2-8.09a43.53,43.53,0,0,0-2.19-6c-.72-1.43-2.39-2.88-5-4.35a47.28,47.28,0,0,0-10.44-3.95,110.88,110.88,0,0,0-15.31-2.83,165.15,165.15,0,0,0-19.66-1.07,165.15,165.15,0,0,0-19.66,1.07,111,111,0,0,0-15.32,2.83A47.37,47.37,0,0,0,126,125.6c-2.64,1.47-4.31,2.92-5,4.35a42.23,42.23,0,0,0-2.19,6q-1.12,3.71-2.2,8.09c-.71,2.93-1.38,5.95-2,9.08s-1.19,6-1.71,8.68l1.52-.39Z" fill="none"/><path d="M171.4,87.8a10,10,0,0,0,9.95-10,10,10,0,0,0-1.71-5.61,56,56,0,0,0-4.73-6c-.52-.65-1.09-1.33-1.71-2S172,62.73,171.4,62c-.59.78-1.19,1.53-1.81,2.24s-1.18,1.4-1.7,2a54.78,54.78,0,0,0-4.73,6,10,10,0,0,0-1.71,5.61,10,10,0,0,0,10,10Z" fill="none"/><path d="M126.42,187.7a5,5,0,1,0,3.52,1.46A4.82,4.82,0,0,0,126.42,187.7Z" fill="none"/><path d="M241.35,212.67v-25q0-6.93-3.95-10.88t-12.83-6.1A74.16,74.16,0,0,0,214,169q-5.85-.58-12.58-.88t-14.3-.34q-7.56,0-15.75-.05t-15.76.05q-7.56,0-14.29.34t-12.58.88a73.92,73.92,0,0,0-10.54,1.75q-8.88,2.16-12.83,6.1t-4,10.88v25a5,5,0,0,0,5,5H236.37a5,5,0,0,0,5-5Zm-104.29-9.36a15,15,0,1,1,4.39-10.64A14.48,14.48,0,0,1,137.06,203.31Zm89.85,0a15,15,0,1,1,4.39-10.64A14.37,14.37,0,0,1,226.91,203.31Z" fill="none"/><path d="M221.35,87.8a10,10,0,0,0,10-10,10,10,0,0,0-1.71-5.61,56,56,0,0,0-4.73-6c-.52-.65-1.09-1.33-1.71-2s-1.22-1.46-1.8-2.24c-.59.78-1.19,1.53-1.81,2.24s-1.18,1.4-1.7,2a56.29,56.29,0,0,0-4.74,6,10,10,0,0,0-1.7,5.61,10,10,0,0,0,9.95,10Z" fill="none"/><rect x="221.35" y="227.7" width="9.95" height="9.95" fill="none"/><rect x="111.5" y="227.7" width="9.95" height="9.95" fill="none"/><path d="M163.14,84a11.9,11.9,0,0,0,3.75,2.5,11.88,11.88,0,0,0,9.12,0,11.9,11.9,0,0,0,3.75-2.5,11.5,11.5,0,0,0,3.44-8.28,10.53,10.53,0,0,0-1.66-6A46.72,46.72,0,0,0,178,65.09q-1.1-1.26-2.13-2.55a15.42,15.42,0,0,1-1.77-2.78,3.24,3.24,0,0,0-1.09-1.2,2.84,2.84,0,0,0-3.1,0,3.24,3.24,0,0,0-1.09,1.2A15.47,15.47,0,0,1,167,62.54c-.68.86-1.39,1.71-2.12,2.55a46.72,46.72,0,0,0-3.55,4.68,10.53,10.53,0,0,0-1.66,6A11.5,11.5,0,0,0,163.14,84Z" fill="#90a4ae"/><path d="M171.45,87.8a10,10,0,0,0,10-10,10,10,0,0,0-1.71-5.61,56,56,0,0,0-4.73-6c-.52-.65-1.09-1.33-1.71-2S172,62.73,171.45,62c-.59.78-1.19,1.53-1.81,2.24s-1.18,1.4-1.7,2a54.78,54.78,0,0,0-4.73,6,10,10,0,0,0-1.71,5.61,10,10,0,0,0,9.95,10Z" fill="none"/><path d="M157.3,92a20.44,20.44,0,0,0,6.39,4.24,20.08,20.08,0,0,0,15.52,0A20.51,20.51,0,0,0,185.59,92a19.72,19.72,0,0,0,5.86-14.1,18,18,0,0,0-2.83-10.19,79.64,79.64,0,0,0-6.05-8c-1.24-1.43-2.44-2.87-3.61-4.34a26.19,26.19,0,0,1-3-4.73,5.73,5.73,0,0,0-1.86-2.05,4.82,4.82,0,0,0-5.26,0A5.73,5.73,0,0,0,167,50.63a26.19,26.19,0,0,1-3,4.73c-1.17,1.47-2.38,2.91-3.61,4.34a79.64,79.64,0,0,0-6.05,8,17.88,17.88,0,0,0-2.83,10.19A19.76,19.76,0,0,0,157.3,92Zm5.91-19.71a54.78,54.78,0,0,1,4.73-6c.52-.65,1.09-1.33,1.7-2s1.22-1.46,1.81-2.24c.59.78,1.19,1.53,1.8,2.24s1.19,1.4,1.71,2a56,56,0,0,1,4.73,6,10,10,0,0,1,1.71,5.61,10,10,0,0,1-19.9,0A10,10,0,0,1,163.21,72.24Z" fill="#607d8b"/><path d="M213.14,84a11.9,11.9,0,0,0,3.75,2.5,11.88,11.88,0,0,0,9.12,0,11.9,11.9,0,0,0,3.75-2.5,11.5,11.5,0,0,0,3.44-8.28,10.53,10.53,0,0,0-1.66-6A46.72,46.72,0,0,0,228,65.09q-1.1-1.26-2.13-2.55a15.42,15.42,0,0,1-1.77-2.78,3.24,3.24,0,0,0-1.09-1.2,2.84,2.84,0,0,0-3.1,0,3.24,3.24,0,0,0-1.09,1.2A15.47,15.47,0,0,1,217,62.54c-.68.86-1.39,1.71-2.12,2.55a46.72,46.72,0,0,0-3.55,4.68,10.53,10.53,0,0,0-1.66,6A11.5,11.5,0,0,0,213.14,84Z" fill="#90a4ae"/><path d="M221.45,87.8a10,10,0,0,0,10-10,10,10,0,0,0-1.71-5.61,56,56,0,0,0-4.73-6c-.52-.65-1.09-1.33-1.71-2S222,62.73,221.45,62c-.59.78-1.19,1.53-1.81,2.24s-1.18,1.4-1.7,2a54.78,54.78,0,0,0-4.73,6,10,10,0,0,0-1.71,5.61,10,10,0,0,0,9.95,10Z" fill="none"/><path d="M207.3,92a20.44,20.44,0,0,0,6.39,4.24,20.08,20.08,0,0,0,15.52,0A20.51,20.51,0,0,0,235.59,92a19.72,19.72,0,0,0,5.86-14.1,18,18,0,0,0-2.83-10.19,79.64,79.64,0,0,0-6.05-8c-1.24-1.43-2.44-2.87-3.61-4.34a26.19,26.19,0,0,1-3-4.73,5.73,5.73,0,0,0-1.86-2.05,4.82,4.82,0,0,0-5.26,0A5.73,5.73,0,0,0,217,50.63a26.19,26.19,0,0,1-3,4.73c-1.17,1.47-2.38,2.91-3.61,4.34a79.64,79.64,0,0,0-6.05,8,17.88,17.88,0,0,0-2.83,10.19A19.76,19.76,0,0,0,207.3,92Zm5.91-19.71a54.78,54.78,0,0,1,4.73-6c.52-.65,1.09-1.33,1.7-2s1.22-1.46,1.81-2.24c.59.78,1.19,1.53,1.8,2.24s1.19,1.4,1.71,2a56,56,0,0,1,4.73,6,10,10,0,0,1,1.71,5.61,10,10,0,0,1-19.9,0A10,10,0,0,1,213.21,72.24Z" fill="#607d8b"/><path d="M241.35,227.82a15.1,15.1,0,0,0,7.12-5.41,14.43,14.43,0,0,0,2.83-8.74v-25a27,27,0,0,0-2.59-12.15,22.61,22.61,0,0,0-7.75-8.73c-.33-2-.83-4.86-1.51-8.53s-1.47-7.57-2.35-11.66-1.85-8.07-2.92-11.9a50.74,50.74,0,0,0-3.37-9.18c-1.5-3-4.19-5.73-8.1-8a57.48,57.48,0,0,0-15.12-5.81c-2.53-.65-5.22-1.22-8.05-1.7s-5.77-.9-8.83-1.22-6.21-.57-9.46-.74-6.53-.24-9.85-.24-6.6.08-9.86.24-6.4.41-9.46.74-6,.73-8.83,1.22-5.51,1-8,1.7a57.7,57.7,0,0,0-15.13,5.81q-5.85,3.46-8.09,8a50,50,0,0,0-3.37,9.18q-1.61,5.75-2.93,11.9t-2.34,11.66c-.68,3.67-1.18,6.52-1.51,8.53a22.64,22.64,0,0,0-7.76,8.73A27.1,27.1,0,0,0,91.5,188.7v25a14.37,14.37,0,0,0,2.83,8.74,15.05,15.05,0,0,0,7.12,5.41V228h139.9ZM114.57,154.07c.62-3.13,1.29-6.15,2-9.08s1.45-5.62,2.2-8.09a42.23,42.23,0,0,1,2.19-6c.72-1.43,2.39-2.88,5-4.35a47.37,47.37,0,0,1,10.43-3.95,111,111,0,0,1,15.32-2.83,165.15,165.15,0,0,1,19.66-1.07,165.15,165.15,0,0,1,19.66,1.07,110.88,110.88,0,0,1,15.31,2.83,47.28,47.28,0,0,1,10.44,3.95c2.64,1.47,4.31,2.92,5,4.35a43.53,43.53,0,0,1,2.19,6q1.13,3.71,2.2,8.09c.71,2.93,1.38,5.95,2,9.08s1.18,6,1.7,8.68l-1.51-.39-1.51-.39c-1.37-.33-2.77-.62-4.2-.88s-2.92-.49-4.48-.68l-29-20.68a4.6,4.6,0,0,0-3.71-.93,4.72,4.72,0,0,0-3.21,2,5.13,5.13,0,0,0,1.17,7L199.1,159q-6.33-.19-13.31-.24t-14.39-.05h-3.51l-28.68-19.12a4.88,4.88,0,0,0-3.76-.78,4.79,4.79,0,0,0-3.17,2.14,4.5,4.5,0,0,0-.73,3.71,5.1,5.1,0,0,0,2.09,3.22l16.49,10.93q-5.07.09-9.75.29t-9,.54q-4.29.33-8.19.92T115.89,162l-1.51.39-1.52.39Q113.64,158.75,114.57,154.07Zm-8.14,64.58a5,5,0,0,1-5-5v-25q0-6.93,4-10.88t12.83-6.1A73.92,73.92,0,0,1,128.77,170q5.85-.58,12.58-.88t14.29-.34q7.56,0,15.76-.05t15.75.05q7.56,0,14.3.34T214,170a74.16,74.16,0,0,1,10.54,1.75q8.88,2.16,12.83,6.1t3.95,10.88v25a5,5,0,0,1-5,5Z" fill="#455a64"/><path d="M113.14,84a11.9,11.9,0,0,0,3.75,2.5,11.88,11.88,0,0,0,9.12,0,11.9,11.9,0,0,0,3.75-2.5,11.5,11.5,0,0,0,3.44-8.28,10.53,10.53,0,0,0-1.66-6A46.72,46.72,0,0,0,128,65.09q-1.09-1.26-2.13-2.55a15.42,15.42,0,0,1-1.77-2.78,3.24,3.24,0,0,0-1.09-1.2,2.84,2.84,0,0,0-3.1,0,3.24,3.24,0,0,0-1.09,1.2A15.47,15.47,0,0,1,117,62.54c-.68.86-1.39,1.71-2.12,2.55a46.72,46.72,0,0,0-3.55,4.68,10.53,10.53,0,0,0-1.66,6A11.5,11.5,0,0,0,113.14,84Z" fill="#90a4ae"/><path d="M121.45,87.8a10,10,0,0,0,10-10,10,10,0,0,0-1.71-5.61,56,56,0,0,0-4.73-6c-.52-.65-1.09-1.33-1.71-2S122,62.73,121.45,62c-.59.78-1.19,1.53-1.81,2.24s-1.18,1.4-1.7,2a54.78,54.78,0,0,0-4.73,6,10,10,0,0,0-1.71,5.61,10,10,0,0,0,10,10Z" fill="none"/><path d="M107.3,92a20.44,20.44,0,0,0,6.39,4.24,20.08,20.08,0,0,0,15.52,0A20.51,20.51,0,0,0,135.59,92a19.72,19.72,0,0,0,5.86-14.1,18,18,0,0,0-2.83-10.19,79.64,79.64,0,0,0-6.05-8c-1.24-1.43-2.44-2.87-3.61-4.34a26.19,26.19,0,0,1-3-4.73,5.73,5.73,0,0,0-1.86-2.05,4.82,4.82,0,0,0-5.26,0A5.73,5.73,0,0,0,117,50.63a26.19,26.19,0,0,1-3,4.73c-1.17,1.47-2.38,2.91-3.61,4.34a79.64,79.64,0,0,0-6,8,17.88,17.88,0,0,0-2.83,10.19A19.76,19.76,0,0,0,107.3,92Zm5.91-19.71a54.78,54.78,0,0,1,4.73-6c.52-.65,1.09-1.33,1.7-2s1.22-1.46,1.81-2.24c.59.78,1.19,1.53,1.8,2.24s1.19,1.4,1.71,2a56,56,0,0,1,4.73,6,10,10,0,0,1,1.71,5.61,10,10,0,0,1-19.9,0A10,10,0,0,1,113.21,72.24Z" fill="#607d8b"/><path d="M101.45,228v9.65a9.58,9.58,0,0,0,2.93,7,9.69,9.69,0,0,0,7.12,2.93h10a10,10,0,0,0,10-9.95V228Z" fill="#424242"/><path d="M211.45,228v9.65a9.58,9.58,0,0,0,2.93,7,9.69,9.69,0,0,0,7.12,2.93h9.95a10,10,0,0,0,10-9.95V228Z" fill="#424242"/><rect x="1.4" y="244" width="348.6" height="38" fill="#455a64"/><rect x="350" width="350" height="282" fill="#80deea"/><path d="M660.54,117.16a32.53,32.53,0,0,0-62.3-18.29c-.65,0-1.31-.06-2-.06a34.77,34.77,0,0,0-9.78,68.13,10.76,10.76,0,0,0,10,9.75,23.54,23.54,0,0,0,39.16,4.46,9.94,9.94,0,0,0,13.54-7.26c.66,0,1.32.08,2,.08a29.17,29.17,0,0,0,9.3-56.81Z" fill="#1b5e20"/><rect x="634" y="169" width="27" height="83" fill="#1b5e20"/><path d="M642.82,224.7v-.25a22.95,22.95,0,0,0-44.06-9c-.51-.05-1-.08-1.55-.08a16,16,0,0,0-14,8.26,12.16,12.16,0,0,0-4.49-.86,12.31,12.31,0,1,0,8.56,21.13,16,16,0,0,0,20.15-.2,22.94,22.94,0,0,0,25.49-.38,11.38,11.38,0,1,0,9.91-18.64Z" fill="#43a047"/><polygon points="545.66 87.5 561.02 87.5 460.87 12.5 360.72 87.5 376.07 87.5 460.87 24 545.66 87.5" fill="#1b5e20"/><polygon points="460.87 24 376.07 87.5 545.66 87.5 460.87 24" fill="#66bb6a"/><rect x="377.87" y="87" width="166" height="155" fill="#66bb6a"/><path d="M702.45,156.85a28.62,28.62,0,0,0,5.2-3.39,28.14,28.14,0,0,0-27.26-48.25c-.33-.45-.68-.9-1-1.34a30.07,30.07,0,0,0-50.85,30.94,9.33,9.33,0,0,0-1,12.07,20.36,20.36,0,0,0,18.57,28.58,8.45,8.45,0,0,0,1.59,3,8.57,8.57,0,0,0,10.7,2.09c.33.46.68.93,1,1.37a25.22,25.22,0,0,0,43-25Z" fill="#2e7d32"/><rect x="365.87" y="232" width="190" height="20" fill="#388e3c"/><path d="M685.88,73a37.7,37.7,0,0,0-72.2-21.2c-.76,0-1.52-.07-2.28-.07a40.29,40.29,0,0,0-11.34,79A12.49,12.49,0,0,0,611.71,142a27.27,27.27,0,0,0,45.38,5.16,11.38,11.38,0,0,0,4.41.88,11.5,11.5,0,0,0,11.28-9.29c.77,0,1.54.09,2.32.09A33.8,33.8,0,0,0,685.88,73Z" fill="#388e3c"/><rect x="390.87" y="101" width="34" height="34" fill="#1b5e20"/><rect x="494.87" y="101" width="34" height="34" fill="#1b5e20"/><rect x="442" y="101" width="34" height="34" fill="#1b5e20"/><rect x="393" y="167" width="34" height="34" fill="#1b5e20"/><rect x="495" y="167" width="34" height="34" fill="#1b5e20"/><rect x="350" y="244" width="350" height="38" fill="#1b5e20"/><rect x="700" width="350" height="282" fill="#f4511e"/><rect x="781.6" y="-48" width="209" height="110" fill="#5d4037"/><rect x="789.8" y="-42" width="192.6" height="74" fill="#ff7043"/><rect x="444" y="167" width="34" height="65" fill="#1b5e20"/><rect x="794" y="167" width="34" height="65" fill="#f9a825"/><line x1="156" y1="184" x2="191" y2="184" fill="none" stroke="#212121" stroke-linecap="round" stroke-miterlimit="10" stroke-width="9"/><line x1="156" y1="196.5" x2="191" y2="196.5" fill="none" stroke="#212121" stroke-linecap="round" stroke-miterlimit="10" stroke-width="9"/><line x1="156" y1="209" x2="191" y2="209" fill="none" stroke="#212121" stroke-linecap="round" stroke-miterlimit="10" stroke-width="9"/><rect x="789.8" y="25" width="192.6" height="27" fill="#ff5722"/><path d="M787.87,272.45S720,235,753.33,149.92C762.28,243,893.8,238.2,787.87,272.45Z" fill="#f57f17"/><path d="M970.9,277.1s96.33-53.12,49-174C1007.22,235.22,820.51,228.48,970.9,277.1Z" fill="#f57f17"/><path d="M823.85,41.12c-9.33,44.67,66,33.69,13.8,83.1l-.78,1.18c-3.53-45.49-48.23-39.61-12.94-84.31Z" fill="#ffeb3b"/><path d="M804,259.73S713,191.48,812.29,106C777.82,216.3,995,259.73,804,259.73Z" fill="#fbc02d"/><path d="M948,259s129.19-96.89-11.75-218.24C985.17,197.39,676.88,259,948,259Z" fill="#fbc02d"/><path d="M824.4,250.64s-52-67.66,37-109.19C814.22,214,962.55,289.33,824.4,250.64Z" fill="#ffeb3b"/><path d="M917.19,246.65s78.3-97.29-53-154.89C932.91,194.29,711.81,304.18,917.19,246.65Z" fill="#ffeb3b"/><rect x="700" y="244" width="350" height="38" fill="#bf360c"/></svg>