<svg id="Home" xmlns="http://www.w3.org/2000/svg" viewBox="0 0 378.19 304.21"><title>why-people</title><g style="opacity:0.28"><path d="M281.1,15.77c-37.69-8-79.53-16.91-126.7-.81C120.19,26.64,72,26.3,48.7,45.92c-42.13,35.42-46,87-33.08,124.81C24.78,197.58,32,224.35,65.19,233.9c16.84,4.84,24.34,14.36,40.44,8.5,12.78,13.23,5.18,13.9,11.12,31.31,2.56,7.5,15.1,1.91,22.61-.66,2.84-1,3.54,1.06,6.38.09,7.51-2.56,22.76-8.71,20.2-16.22-6.43-18.82-13.62-15.49-16.12-35.22,7.62-3.59,17.82-10.82,26.4-14.39C190.83,235.78,181.65,240.7,192,271c2.76,8.08,4.91,3.91,13,1.15,1.8-.61,4.1,6.13,5.89,5.52,8.08-2.76,21-11.27,18.29-19.36C219,228.45,211,231.24,202.93,200.73c4.48-.72,7.56-.85,12.77-1.4,8.24,16.56,12.14,15.4,18.11,32.91,2.82,8.26,4.1,9.81,12.35,7,1.48-.5,4.1,7.16,5.58,6.65,8.25-2.81,9.58-13.81,6.76-22.07-4.57-13.41,3.56-15.19.82-29.09,3.82-.3,7.52-2.05,11.31-2.37,15.89,40.92,4.74,45.13,18.92,86.68,2,5.86,12.43,14.85,18.29,12.85s11.37-16.43,9.37-22.29c-13.34-39.1-15.24-38.16-25.93-78.07,5.54-.71,4.42.4,9.27-.56,9.68,20.93,6.07,22.16,13.52,44,1.6,4.69,9.63,7.58,14.32,6s14.09-10.44,12.49-15.13c-7.31-21.4-19.83-17.43-25.82-39.24,2.55-1.09,9.67-2.09,11.43-3.44,31.61-24.12,23.92-60.55,30.85-89.05,3.54-14.56,16.24-30.29,11.59-43.9C358.75,20.31,320.08,24,281.1,15.77Z" style="fill:#45c48b"/></g><path d="M284.13,10.78c-37.68-8-84.78-12.89-132,3.21C118,25.66,73.42,34.36,50.09,54,8,89.4,7.44,138.51,20.33,176.29c9.16,26.85,11.21,58.24,44.44,67.79,16.84,4.84,29.44,7.14,45.53,1.28,12.79,13.23,4.44,16.76,10.38,34.17,2.56,7.51,15.81,15.21,23.31,12.65,2.85-1,2.74-1.3,5.58-2.27,7.51-2.56,3.4-13,.84-20.52-6.43-18.82-5.75-19.92-8.26-39.66,7.62-3.59,24-10.82,32.57-14.4,14.62,28.47,8.68,31.94,19,62.23,2.76,8.09,10.13,23.3,18.22,20.54,1.79-.61,1.76-.71,3.55-1.32,8.08-2.76,19.37-24.23,16.61-32.32-10.18-29.85-19.84-26.44-27.86-56.94,4.48-.73,15.94-5.22,21.15-5.77,8.24,16.56,4,19.61,10,37.12,2.81,8.26,7.35,22.89,15.61,20.07,1.48-.5-1.08-8,.4-8.5,8.26-2.82,7.44-10.35,4.62-18.61-4.58-13.41-.47-14.83-3.21-28.73,3.82-.3,0,2.22,3.77,1.89,15.9,40.93,14.54,41.1,28.72,82.65,2,5.87,12.82.49,18.69-1.51s4.74.07,2.74-5.8c-13.35-39.1-16.84-38.54-27.53-78.44,5.54-.71,20.48-4.58,25.32-5.54,9.68,20.93,15.12,19.5,22.57,41.32,1.6,4.69-2.91,11.81,1.78,10.21s3.33-6.71,1.73-11.4c-7.31-21.4-4.55-22.35-10.53-44.16a23.89,23.89,0,0,0,5.69-3.81c31.61-24.12,27.54-58.36,34.47-86.86,3.53-14.56,3.37-27.3-1.27-40.91C348.77,30.89,323.12,19,284.13,10.78Z" style="fill:none;stroke:#227272;stroke-miterlimit:10"/></svg>