<svg xmlns="http://www.w3.org/2000/svg" viewBox="0 0 81.37 48.75"><title>time</title><g id="Layer_2" data-name="Layer 2"><g id="Home"><g style="opacity:0.66"><polygon points="79.36 20.83 77.65 22.13 77.65 17.78 80.27 18.58 79.36 20.83" style="fill:#c100f7"/><polygon points="38.38 34.43 4.34 46.72 4.34 0 38.38 8.61 38.38 34.43" style="fill:#c100f7"/><polygon points="61.94 26.67 46.23 32.35 46.23 10.78 61.94 14.76 61.94 26.67" style="fill:#c100f7"/><polygon points="60.63 26.44 44.92 31.35 47.54 10.45 60.63 14.14 60.63 26.44" style="fill:none;stroke:#8006fb;stroke-miterlimit:10"/><polygon points="74.83 23.06 67.18 25.82 67.18 15.32 74.83 17.26 74.83 23.06" style="fill:#c100f7"/><polygon points="73.72 22.75 68.49 25.21 68.49 16.6 73.72 17.83 73.72 22.75" style="fill:none;stroke:#8006fb;stroke-miterlimit:10"/><polygon points="79.82 21.28 77.1 22.19 77.65 17.78 80.72 18.57 79.82 21.28" style="fill:none;stroke:#8006fb;stroke-miterlimit:10"/><polygon points="37.07 33.81 3.33 48 2.73 1.28 39.69 9.22 37.07 33.81" style="fill:none;stroke:#8006fb;stroke-miterlimit:10"/></g><rect x="0.01" y="23.03" width="1.56" height="17.95" transform="translate(-0.05 0) rotate(-0.09)" style="fill:#fcaf1c;opacity:0.88"/><rect x="27.33" y="22.99" width="1.56" height="17.95" transform="translate(-0.05 0.04) rotate(-0.09)" style="fill:#fcaf1c;opacity:0.88"/><rect x="5.47" y="23.03" width="1.56" height="11.7" transform="translate(-0.04 0.01) rotate(-0.09)" style="fill:#fcaf1c;opacity:0.88"/><rect x="10.93" y="23.02" width="1.56" height="11.7" transform="translate(-0.04 0.02) rotate(-0.09)" style="fill:#fcaf1c;opacity:0.88"/><rect x="16.4" y="23.01" width="1.56" height="11.7" transform="translate(-0.04 0.03) rotate(-0.09)" style="fill:#fcaf1c;opacity:0.88"/><rect x="21.86" y="23" width="1.56" height="11.7" transform="translate(-0.04 0.03) rotate(-0.09)" style="fill:#fcaf1c;opacity:0.88"/><rect x="54.64" y="22.95" width="1.56" height="17.95" transform="translate(-0.05 0.08) rotate(-0.09)" style="fill:#fcaf1c;opacity:0.88"/><rect x="32.78" y="22.99" width="1.56" height="11.7" transform="translate(-0.04 0.05) rotate(-0.09)" style="fill:#fcaf1c;opacity:0.88"/><rect x="38.25" y="22.98" width="1.56" height="11.7" transform="translate(-0.04 0.06) rotate(-0.09)" style="fill:#fcaf1c;opacity:0.88"/><rect x="43.71" y="22.97" width="1.56" height="11.7" transform="translate(-0.04 0.07) rotate(-0.09)" style="fill:#fcaf1c;opacity:0.88"/><rect x="49.17" y="22.96" width="1.56" height="11.7" transform="translate(-0.04 0.08) rotate(-0.09)" style="fill:#fcaf1c;opacity:0.88"/><rect x="59.31" y="22.95" width="1.56" height="11.7" transform="translate(-0.04 0.09) rotate(-0.09)" style="fill:#fcaf1c;opacity:0.88"/><rect x="64.78" y="22.94" width="1.56" height="11.7" transform="translate(-0.04 0.1) rotate(-0.09)" style="fill:#fcaf1c;opacity:0.88"/></g></g></svg>