<svg xmlns="http://www.w3.org/2000/svg" xmlns:xlink="http://www.w3.org/1999/xlink" viewBox="0 0 288.19 286.21"><defs><clipPath id="clip-path"><path d="M-10.56,217.09C-244.25,108.27-444.94,275.64-613.12,180l.69-73.51C-427.76,164.22-267.21-42-15.73,14.73Z" style="fill:none"/></clipPath></defs><title>Artboard 11</title><g style="isolation:isolate"><g id="Home"><g style="opacity:0.5700000000000001"><g style="clip-path:url(#clip-path)"><image width="2738" height="3650" transform="matrix(0.23, 0, 0, 0.23, -632.7, -309.07)" xlink:href="../../../../Downloads/deva-darshan-1103427-unsplash.jpg"/></g></g><g style="opacity:0.52"><circle cx="271.92" cy="54.32" r="8" style="fill:#ffd039;stroke:#ffd039;stroke-miterlimit:10;mix-blend-mode:color"/><circle cx="250.14" cy="76.1" r="8" style="fill:#ffd039;stroke:#ffd039;stroke-miterlimit:10;mix-blend-mode:color"/><circle cx="228.36" cy="97.88" r="8" style="fill:#ffd039;stroke:#ffd039;stroke-miterlimit:10;mix-blend-mode:color"/><circle cx="206.59" cy="119.66" r="8" style="fill:#ffd039;stroke:#ffd039;stroke-miterlimit:10;mix-blend-mode:color"/><circle cx="184.81" cy="141.43" r="8" style="fill:#ffd039;stroke:#ffd039;stroke-miterlimit:10;mix-blend-mode:color"/><circle cx="163.03" cy="163.21" r="8" style="fill:#ffd039;stroke:#ffd039;stroke-miterlimit:10;mix-blend-mode:color"/><circle cx="141.25" cy="184.99" r="8" style="fill:#ffd039;stroke:#ffd039;stroke-miterlimit:10;mix-blend-mode:color"/><circle cx="119.47" cy="206.77" r="8" style="fill:#ffd039;stroke:#ffd039;stroke-miterlimit:10;mix-blend-mode:color"/><circle cx="97.69" cy="228.55" r="8" style="fill:#ffd039;stroke:#ffd039;stroke-miterlimit:10;mix-blend-mode:color"/><circle cx="75.91" cy="250.33" r="8" style="fill:#ffd039;stroke:#ffd039;stroke-miterlimit:10;mix-blend-mode:color"/><circle cx="54.13" cy="272.11" r="8" style="fill:#ffd039;stroke:#ffd039;stroke-miterlimit:10;mix-blend-mode:color"/><circle cx="229.5" cy="11.89" r="8" style="fill:#ffd039;stroke:#ffd039;stroke-miterlimit:10;mix-blend-mode:color"/><circle cx="207.72" cy="33.67" r="8" style="fill:#ffd039;stroke:#ffd039;stroke-miterlimit:10;mix-blend-mode:color"/><circle cx="185.94" cy="55.45" r="8" style="fill:#ffd039;stroke:#ffd039;stroke-miterlimit:10;mix-blend-mode:color"/><circle cx="164.16" cy="77.23" r="8" style="fill:#ffd039;stroke:#ffd039;stroke-miterlimit:10;mix-blend-mode:color"/><circle cx="142.38" cy="99.01" r="8" style="fill:#ffd039;stroke:#ffd039;stroke-miterlimit:10;mix-blend-mode:color"/><circle cx="120.6" cy="120.79" r="8" style="fill:#ffd039;stroke:#ffd039;stroke-miterlimit:10;mix-blend-mode:color"/><circle cx="98.82" cy="142.57" r="8" style="fill:#ffd039;stroke:#ffd039;stroke-miterlimit:10;mix-blend-mode:color"/><circle cx="77.04" cy="164.34" r="8" style="fill:#ffd039;stroke:#ffd039;stroke-miterlimit:10;mix-blend-mode:color"/><circle cx="55.27" cy="186.12" r="8" style="fill:#ffd039;stroke:#ffd039;stroke-miterlimit:10;mix-blend-mode:color"/><circle cx="33.49" cy="207.9" r="8" style="fill:#ffd039;stroke:#ffd039;stroke-miterlimit:10;mix-blend-mode:color"/><circle cx="11.71" cy="229.68" r="8" style="fill:#ffd039;stroke:#ffd039;stroke-miterlimit:10;mix-blend-mode:color"/><circle cx="250.71" cy="33.11" r="8" style="fill:#ffd039;stroke:#ffd039;stroke-miterlimit:10;mix-blend-mode:color"/><circle cx="228.93" cy="54.88" r="8" style="fill:#ffd039;stroke:#ffd039;stroke-miterlimit:10;mix-blend-mode:color"/><circle cx="207.15" cy="76.66" r="8" style="fill:#ffd039;stroke:#ffd039;stroke-miterlimit:10;mix-blend-mode:color"/><circle cx="185.37" cy="98.44" r="8" style="fill:#ffd039;stroke:#ffd039;stroke-miterlimit:10;mix-blend-mode:color"/><circle cx="163.59" cy="120.22" r="8" style="fill:#ffd039;stroke:#ffd039;stroke-miterlimit:10;mix-blend-mode:color"/><circle cx="141.81" cy="142" r="8" style="fill:#ffd039;stroke:#ffd039;stroke-miterlimit:10;mix-blend-mode:color"/><circle cx="120.04" cy="163.78" r="8" style="fill:#ffd039;stroke:#ffd039;stroke-miterlimit:10;mix-blend-mode:color"/><circle cx="98.26" cy="185.56" r="8" style="fill:#ffd039;stroke:#ffd039;stroke-miterlimit:10;mix-blend-mode:color"/><circle cx="76.48" cy="207.34" r="8" style="fill:#ffd039;stroke:#ffd039;stroke-miterlimit:10;mix-blend-mode:color"/><circle cx="54.7" cy="229.12" r="8" style="fill:#ffd039;stroke:#ffd039;stroke-miterlimit:10;mix-blend-mode:color"/><circle cx="32.92" cy="250.89" r="8" style="fill:#ffd039;stroke:#ffd039;stroke-miterlimit:10;mix-blend-mode:color"/></g></g></g></svg>