<svg id="Home" xmlns="http://www.w3.org/2000/svg" xmlns:xlink="http://www.w3.org/1999/xlink" viewBox="0 0 100 82"><defs><clipPath id="clip-path"><path d="M-20.75,37c-1.14,5.62-2.65,20.12-6,25.12-5.65,8.34-22.56,6.65-32.47,11.53-7.7,3.75-10.48,17.71-18.9,18.26-26.09,1.68-48.74-23.18-38.33-46.11,2.87-6.33,6.39-17.22,11.21-22.71C-98.33,15.14-82.43,14-74,9.52-67.33,5.9-62.85,1.32-56.33,1-42.45.42-32.44,8.41-28.8,20.64-27,26.17-19.34,30.09-20.75,37Z" style="fill:none"/></clipPath></defs><title>collaborate</title><g style="clip-path:url(#clip-path)"><image width="3264" height="4928" transform="translate(-167.14 18.66) rotate(-22.16) scale(0.04)" xlink:href="../../../../Downloads/nikita-katsevich-1103745-unsplash.jpg"/></g><rect width="100" height="82" style="fill:#5a493d"/><ellipse cx="33.4" cy="32.31" rx="33.4" ry="32.31" style="fill:#a4a4dc"/><ellipse cx="82.96" cy="64.63" rx="17.04" ry="16.48" style="fill:#a4a4dc"/></svg>