<?xml version="1.0" encoding="utf-8"?>
<!-- Generated by IcoMoon.io -->
<!DOCTYPE svg PUBLIC "-//W3C//DTD SVG 1.1//EN" "http://www.w3.org/Graphics/SVG/1.1/DTD/svg11.dtd">
<svg version="1.1" xmlns="http://www.w3.org/2000/svg" xmlns:xlink="http://www.w3.org/1999/xlink" width="512" height="448" viewBox="0 0 512 448">
<g id="icomoon-ignore">
</g>
<path fill="#777" d="M120 272q0-16.5-11.75-28.25t-28.25-11.75-28.25 11.75-11.75 28.25 11.75 28.25 28.25 11.75 28.25-11.75 11.75-28.25zM129 192h254l-22.25-89.25q-0.5-2-3.5-4.375t-5.25-2.375h-192q-2.25 0-5.25 2.375t-3.5 4.375zM472 272q0-16.5-11.75-28.25t-28.25-11.75-28.25 11.75-11.75 28.25 11.75 28.25 28.25 11.75 28.25-11.75 11.75-28.25zM512 248v96q0 3.5-2.25 5.75t-5.75 2.25h-24v32q0 20-14 34t-34 14-34-14-14-34v-32h-256v32q0 20-14 34t-34 14-34-14-14-34v-32h-24q-3.5 0-5.75-2.25t-2.25-5.75v-96q0-23.25 16.375-39.625t39.625-16.375h7l26.25-104.75q5.75-23.5 26-39.375t44.75-15.875h192q24.5 0 44.75 15.875t26 39.375l26.25 104.75h7q23.25 0 39.625 16.375t16.375 39.625z"></path>
</svg>
