<?xml version="1.0" encoding="utf-8"?>
<!-- Generated by IcoMoon.io -->
<!DOCTYPE svg PUBLIC "-//W3C//DTD SVG 1.1//EN" "http://www.w3.org/Graphics/SVG/1.1/DTD/svg11.dtd">
<svg version="1.1" xmlns="http://www.w3.org/2000/svg" xmlns:xlink="http://www.w3.org/1999/xlink" width="1024" height="1024" viewBox="0 0 1024 1024">
<g id="icomoon-ignore">
</g>
<path fill="#777" d="M649.858 232.904c-29.342-29.342-67.866-38.24-86.438-19.65l-3.744 3.744c-18.572 18.572-9.674 57.096 19.65 86.438l3.442 3.442-131.070 131.052c-43.626-40.272-97.156-52.63-122.93-26.834-26.906 26.888-12.976 84.372 31.514 128.88l28.39 42.514-160.942 176.16-2.172 17.778 17.778-2.172 190.266-160.942 28.406 28.39c44.49 44.49 101.976 58.42 128.862 31.532 25.864-25.864 13.382-79.588-27.154-123.266l131.052-131.052 3.744 3.744c29.342 29.342 67.848 38.24 86.438 19.65l3.744-3.742c18.572-18.572 9.674-57.096-19.668-86.438l-119.17-119.224zM961.678 827.342v-805.308h-899.374v979.952h724.75l174.624-174.642zM890.14 777.36h-146.236v153.068h-610.064v-836.594h756.298v683.526z"></path>
</svg>
