<svg xmlns="http://www.w3.org/2000/svg" viewBox="0 0 481.75 629.69"><defs><style>.cls-1{fill:#efefef;}.cls-2{fill:#fff;}.cls-3{fill:#f2bbbb;}.cls-4,.cls-6{fill:#ef5149;}.cls-4{opacity:0.52;}.cls-5{opacity:0.58;}.cls-11,.cls-7{fill:none;stroke-miterlimit:10;}.cls-7{stroke:#919191;stroke-width:4px;}.cls-8{fill:#ddd;}.cls-9{fill:#919191;}.cls-10{opacity:0.49;}.cls-11{stroke:#ef5149;stroke-width:9px;stroke-dasharray:40;}.cls-12{fill:#bab9b9;}</style></defs><title>MAP Compass Logo</title><g id="Layer_2" data-name="Layer 2"><g id="Layer_1-2" data-name="Layer 1"><path class="cls-1" d="M241,2a65.39,65.39,0,1,0,65.39,65.39A65.39,65.39,0,0,0,241,2Zm0,119.33a53.94,53.94,0,1,1,53.94-53.94A53.94,53.94,0,0,1,241,121.33Z"/><path class="cls-2" d="M244.24,4.07A16.51,16.51,0,0,0,239.33,4c-.47.05-.91.1-1.46.13a2.24,2.24,0,0,0-1.66.9,2.89,2.89,0,0,0-.57,2l.23,2.86a2.75,2.75,0,0,0,.93,1.88,2.12,2.12,0,0,0,1.85.48,10.49,10.49,0,0,1,4.68,0,2.06,2.06,0,0,0,.46.05,2.16,2.16,0,0,0,1.42-.55,2.77,2.77,0,0,0,.91-1.94l.16-2.94A2.58,2.58,0,0,0,244.24,4.07Z"/><circle class="cls-3" cx="242.07" cy="386.42" r="210.21" transform="translate(-202.34 284.35) rotate(-45)"/><polygon class="cls-4" points="277.77 408.44 370.46 393.16 277.77 377.88 332.5 301.53 256.15 356.26 240.87 263.57 225.59 356.26 149.24 301.53 203.98 377.88 111.29 393.16 203.98 408.44 149.24 484.79 225.59 430.05 240.87 522.74 256.15 430.05 332.5 484.79 277.77 408.44"/><g class="cls-5"><path class="cls-6" d="M449.16,370.72c-18-99.19-105-173.61-208.28-173.61S50.6,271.52,32.59,370.71c7-108.82,97.73-195.21,208.28-195.21S442.17,261.9,449.16,370.72Z"/><path class="cls-6" d="M240.87,177A207.19,207.19,0,0,1,444.44,345.25C417.3,258.21,336,195.61,240.87,195.61S64.44,258.21,37.3,345.26A207.08,207.08,0,0,1,240.87,177m0-3h0c-116.1,0-210.21,94.12-210.21,210.21,0,4.13.13,8.23.37,12.3,6.37-110.37,97.88-197.91,209.85-197.91s203.48,87.54,209.85,197.91c.24-4.07.37-8.17.37-12.3C451.09,268.13,357,174,240.87,174Z"/></g><path class="cls-7" d="M241,2a65.39,65.39,0,1,0,65.39,65.39A65.39,65.39,0,0,0,241,2Zm0,119.33a53.94,53.94,0,1,1,53.94-53.94A53.94,53.94,0,0,1,241,121.33Z"/><rect class="cls-8" x="213.88" y="89.59" width="53.99" height="86.39" rx="12" ry="12"/><path class="cls-2" d="M265.75,109.92c0-11.62-1.37-17.43-13.53-17.43H228.53c-9.42,0-13.53,5.81-13.53,17.43v4.36h50.75Z"/><path class="cls-9" d="M255.87,93.59a8,8,0,0,1,8,8V164a8,8,0,0,1-8,8h-30a8,8,0,0,1-8-8V101.59a8,8,0,0,1,8-8h30m0-4h-30a12,12,0,0,0-12,12V164a12,12,0,0,0,12,12h30a12,12,0,0,0,12-12V101.59a12,12,0,0,0-12-12Z"/><g class="cls-10"><polygon class="cls-6" points="227.97 377.05 345.32 284.53 276.46 417.16 159.11 509.68 227.97 377.05"/><path class="cls-6" d="M340.78,290l-65.5,126.16-111.63,88L229.15,378l111.63-88m9.08-11L227,375.89l-.09-.08-.13.26-.23.18.09.08L154.57,515.17l122.85-96.85.09.08.13-.26.23-.18-.09-.08L349.86,279Z"/></g><polygon class="cls-2" points="219.81 362.26 341.84 283.49 263.06 405.52 219.81 362.26"/><path class="cls-6" d="M335.12,290.2l-72.4,112.15L223,362.6l112.15-72.4m13.43-13.43L216.64,361.93l46.75,46.75,85.16-131.91Z"/><polygon class="cls-6" points="217.29 363.9 261.42 408.03 136.92 488.4 217.29 363.9"/><path class="cls-6" d="M217.55,366.28l41.5,41.5L142,483.37l75.59-117.09m-.51-4.75L131.88,493.44,263.8,408.28,217,361.53Z"/><line class="cls-11" x1="241.18" y1="180.78" x2="241.18" y2="240.77"/><line class="cls-11" x1="241.18" y1="544.34" x2="241.18" y2="604.33"/><line class="cls-11" x1="34.2" y1="392.56" x2="94.2" y2="392.56"/><line class="cls-11" x1="397.77" y1="392.56" x2="473.94" y2="392.56"/><path class="cls-8" d="M240.87,627.69a238.87,238.87,0,1,1,168.91-70A237.31,237.31,0,0,1,240.87,627.69Zm0-442.21A202,202,0,0,0,97.09,245c-79.28,79.28-79.28,208.28,0,287.56a203.33,203.33,0,0,0,287.56,0c79.28-79.28,79.28-208.28,0-287.56A202,202,0,0,0,240.87,185.48Z"/><path class="cls-9" d="M240.87,151.94a236.12,236.12,0,1,1-89.14,17.34,236.09,236.09,0,0,1,89.14-17.34m0,442.21A205.33,205.33,0,1,0,95.68,243.62C15.62,323.68,15.62,454,95.68,534a204,204,0,0,0,145.19,60.14m0-446.21A240.12,240.12,0,0,0,70.55,218.49c-94.07,94.07-94.07,246.58,0,340.65a240.87,240.87,0,0,0,340.65,0c94.07-94.07,94.07-246.58,0-340.65a240.12,240.12,0,0,0-170.32-70.55Zm0,442.21a200.7,200.7,0,0,1-142.36-59c-78.63-78.63-78.63-206.1,0-284.73a201.33,201.33,0,0,1,284.73,0c78.63,78.63,78.63,206.1,0,284.73a200.7,200.7,0,0,1-142.36,59Z"/><g class="cls-5"><path class="cls-2" d="M468.25,383.86c.34,3.31.61,6.63.81,10,.06-1,.09-2.09.14-3.14C468.91,388.41,468.61,386.12,468.25,383.86Z"/></g><g class="cls-5"><path class="cls-2" d="M12.55,380.46c0,3,.08,5.94.2,8.9,1.66-125.12,103.59-226,229.1-226,114.54,0,209.44,84,226.43,193.81C456.6,241.92,359.3,152,241,152,114.83,152,12.55,254.29,12.55,380.46Z"/></g><g class="cls-5"><path class="cls-12" d="M468.86,396.93c0-3-.08-5.94-.2-8.9-1.66,125.12-103.59,226-229.1,226C125,614.07,30.12,530,13.13,420.26c11.69,115.21,109,205.13,227.28,205.13C366.58,625.39,468.86,523.1,468.86,396.93Z"/></g><polygon class="cls-6" points="409.57 169.26 459.84 168.04 458.62 218.31 409.57 169.26"/><path class="cls-6" d="M458.3,169.58l-1.1,45.19-44.09-44.09,45.19-1.1m3.08-3.08L406,167.85l54,54,1.35-55.34Z"/></g></g></svg>