<svg xmlns="http://www.w3.org/2000/svg" viewBox="0 0 130 69.58"><defs><style>.cls-1{fill:#FFFFFF;}</style></defs><title>Asset 1</title><g id="Layer_2" data-name="Layer 2"><g id="Layer_1-2" data-name="Layer 1"><path class="cls-1" d="M128.25,58.91a.8.8,0,0,0,.14-.46.79.79,0,0,0-.28-.67,1.44,1.44,0,0,0-.88-.22h-.85v3H127V59.38h.33l.7,1.14h.69l-.86-1.29a.93.93,0,0,0,.4-.32m-.62-.14a.76.76,0,0,1-.43.1H127v-.8h.19a.86.86,0,0,1,.44.09.33.33,0,0,1,.14.3.36.36,0,0,1-.14.31"/><path class="cls-1" d="M36.17,61.56H54.66L55,59.33H42.88l3.85-22.27a16.62,16.62,0,0,0,.34-3.13,3.29,3.29,0,0,0-.86-2.61,4.27,4.27,0,0,0-2.77-.72H37.57l-.25,1.49h.49A2.74,2.74,0,0,1,40,32.8a3,3,0,0,1,.61,2,13.76,13.76,0,0,1-.24,2.24Zm82.07-5-3.33-7.87,10-10.35h-3.28l-7.78,8-1.66-4a7.41,7.41,0,0,0-2-2.91,5.44,5.44,0,0,0-3.66-1.07H101.9l-.15,1a4.18,4.18,0,0,1,2.1,1.19,8.11,8.11,0,0,1,1.76,2.79l3.28,8-5.95,6.08c-2.9,2.94-4.77,2.46-4.38-.09.13-.86,1.65-10.13,1.65-10.13.07-.47.12-.7.17-1.13a9.46,9.46,0,0,0,.07-1.14c0-2.29-.67-3.85-2-4.9s-3.33-1.57-6-1.57a12.58,12.58,0,0,0-4.77.75A10.39,10.39,0,0,0,85,40.78,4.42,4.42,0,0,0,83.68,39a4.08,4.08,0,0,0-2.54-.76H75.57c-.53,0-1,.82-1.15,1.14l-8.19,15L62.59,43.35a6.87,6.87,0,0,0-2-3.46,6.46,6.46,0,0,0-3.67-1.62H52.61l-.15,1.57a4.48,4.48,0,0,1,2.37,1.43,7,7,0,0,1,1.49,3l5.55,18.25-1.47,2.72c-1.44,2.38-3.07,3.2-6.93,2.51l-.33,1.58a13.85,13.85,0,0,0,5.33,0,8.14,8.14,0,0,0,4.58-4.23c1.07-2,13.12-23.9,13.27-24.22s.31-.4.69-.4a2.12,2.12,0,0,1,1.68.68,2.93,2.93,0,0,1,.59,1.94A9.94,9.94,0,0,1,79,45L76.31,61.52h6.36l2.82-16.91a7.44,7.44,0,0,0,.1-2.44,6,6,0,0,1,2-1,8.12,8.12,0,0,1,2.79-.4,3.76,3.76,0,0,1,2.69,1,4.55,4.55,0,0,1,1,3.38,9.3,9.3,0,0,1-.2,1.88L91.48,61.52h9.83c.91,0,1.94-1.11,2.67-1.85,1.56-1.58,5.94-6,5.94-6l1.71,3.84a7.43,7.43,0,0,0,2,2.91,5.44,5.44,0,0,0,3.66,1.07H122l.15-1a4.14,4.14,0,0,1-2.1-1.19,8.1,8.1,0,0,1-1.76-2.79"/><path class="cls-1" d="M120.38,27.83c-2-.07-6.62-3.35-8.65-4-1.19-.35-13.65-4.83-14.82-5.25a3.14,3.14,0,0,1-2.17-2.56,2.33,2.33,0,1,1,4.66,0c0,.67.07.79,3.75-.63,1.22-.47,2.45,1.11,3.72.91s2.84-2.28,3.33-3.08,1.31-.92-.58-3c-1.37-1.49-.86-2-1.82-3.58a11.25,11.25,0,0,0-3.1-2.63h0c-1.44-.6-1.68-.74-1.56-1.34.43-2.24-1.06-3-1.53-2.66S99,2.14,93.06,3.13c-3.07.51-8.38.46-12.92,2.27-9.84,3.92-26.58-.75-43.33-.75-2.51,0-8.13-.83-11-2.23C23.76,1.39,22.05,0,21.55,0c-1.09,0-1.27,2.08.89,4.39,2.57,2.76,9.46,3.39,8.72,4a12.16,12.16,0,0,0-2.1,2.75,12.49,12.49,0,0,1-8.33,5.76c-1.57.2-3.92-.82-4.6.1s-3.36,6.39-12.3,9.86c-3,1.18-4.1,3.7-3.78,5.39s3.41,1.11,4.71,1c2.84-.27,6.74-3.92,7.75-4.69,6.36-4.88,4.89-4.54,9.6-5,8.1-.75,15.19,1.12,21.92-3.67,9.88-7,17.54,3.41,29.26,4.28,4.78.36,8.94.62,12.36-.21.64-.16.75,0,.85.06,3.48,2.43,4.92,2.26,7.59,2.26,3.3,0,15.84,2,20.09,4.13,1.42.72,1.34,2,2.74,2.35a9.85,9.85,0,0,0,3.61.58c2.36,0,4.47-1.19,4.47-3.67,0-1.17-1.2-1.79-4.62-1.91"/><path class="cls-1" d="M127.36,56.42A2.68,2.68,0,1,0,130,59.1a2.66,2.66,0,0,0-2.64-2.68m0,4.8a2.12,2.12,0,1,1,2.08-2.12,2.1,2.1,0,0,1-2.08,2.12"/><path class="cls-1" d="M.55,61.64H13.22l.41-2.25H3V50.47h9.38l.38-2.24H3V40.58H13.22l.41-2.18H.55Zm17-23.24-.41,2.18H29.58v.11l-12,18.7-.41,2.25H32.79l.37-2.25H20.77v-.1l12-18.7.37-2.18Z"/></g></g></svg>