<?xml version="1.0" encoding="utf-8"?>
<!-- Generator: Adobe Illustrator 18.1.0, SVG Export Plug-In . SVG Version: 6.00 Build 0)  -->
<!DOCTYPE svg PUBLIC "-//W3C//DTD SVG 1.1//EN" "http://www.w3.org/Graphics/SVG/1.1/DTD/svg11.dtd">
<svg version="1.1" id="Layer_1" xmlns="http://www.w3.org/2000/svg" xmlns:xlink="http://www.w3.org/1999/xlink" x="0px" y="0px"
	 viewBox="0 0 640 640" enable-background="new 0 0 640 640" xml:space="preserve">
<path fill="none" stroke="#000000" stroke-width="20" stroke-linecap="round" stroke-linejoin="round" stroke-miterlimit="10" d="
	M98,37.6c0,0,66.5,57.8,96.2,82.6c13.5,11.3-24.7,39.6-24.7,62.6c0,22.8,97.6,99.1,97.6,99.1s6.4,28.2-10.6,28.2
	c-17.1,0-39.5,0-39.5,0v34.9l-95.9,47.9l86.9,28.7c0,0,0,33.9,0,74.3c0,44.7-130,1.4-130,39.7c0,86.4,0,67.5,0,67.5"/>
<path fill="none" stroke="#000000" stroke-width="20" stroke-linecap="round" stroke-linejoin="bevel" stroke-miterlimit="10" d="
	M459.1,466.6"/>
<path fill="none" stroke="#000000" stroke-width="30" stroke-linecap="round" stroke-linejoin="bevel" stroke-miterlimit="10" d="
	M327.1,443.2c10.7-10,17.4-24.3,17.4-40.1c0-15.8-6.7-30.1-17.4-40.1"/>
<path fill="none" stroke="#000000" stroke-width="30" stroke-linecap="round" stroke-linejoin="bevel" stroke-miterlimit="10" d="
	M396.7,479.3c20.3-19.1,33-46.2,33-76.3c0-30.1-12.7-57.2-33-76.3"/>
<path fill="none" stroke="#000000" stroke-width="30" stroke-linecap="round" stroke-linejoin="bevel" stroke-miterlimit="10" d="
	M468.5,505.8c27.4-25.7,44.5-62.2,44.5-102.7s-17.1-77-44.5-102.7"/>
</svg>
