<svg xmlns="http://www.w3.org/2000/svg" viewBox="0 0 1050 279"><title>ratings</title><rect width="350" height="282" fill="#b2dfdb"/><path d="M149,159.8c-3.56.06-7,.17-10.27.3s-6.43.33-9.45.57-5.88.56-8.62,1-5.31.89-7.7,1.44l-1.59.41-1.59.41q.81-4.2,1.79-9.14t2.11-9.54q1.13-4.62,2.31-8.53a43.93,43.93,0,0,1,2.31-6.26c.75-1.5,2.51-3,5.29-4.57a50.11,50.11,0,0,1,11-4.16,115.73,115.73,0,0,1,16.12-3,171,171,0,0,1,20.69-1.13,171.1,171.1,0,0,1,20.69,1.13,116.29,116.29,0,0,1,16.12,3,50.11,50.11,0,0,1,11,4.16c2.77,1.54,4.53,3.07,5.29,4.57a46.53,46.53,0,0,1,2.31,6.26c.78,2.61,1.56,5.45,2.31,8.53s1.45,6.26,2.1,9.54,1.25,6.34,1.8,9.14c-.55-.13-1.08-.27-1.59-.41l-1.59-.41c-1.44-.34-2.91-.65-4.42-.92s-3.08-.52-4.72-.72Z" fill="#80cbc4"/><polygon points="34.6 0 0 34.6 0 132.18 132.18 0 34.6 0" fill="#37474f"/><path d="M103.77,218.67a5.21,5.21,0,0,1-5.18-5.18v-26q0-7.22,4.12-11.33t13.35-6.34A77.77,77.77,0,0,1,127,168q6.09-.62,13.09-.91c4.68-.21,9.63-.32,14.88-.36s10.71,0,16.4,0,11.15,0,16.4,0,10.2.15,14.87.36,9,.5,13.1.91a78,78,0,0,1,11,1.83q9.24,2.23,13.35,6.34t4.11,11.33v26a5.19,5.19,0,0,1-5.18,5.18Z" fill="#d32f2f"/><circle cx="216.7" cy="192.5" r="8.5" fill="#ffe082"/><path d="M110.87,184.28q4-4,13.06-6.2a75,75,0,0,1,10.72-1.79c4-.4,8.25-.69,12.81-.89s9.42-.32,14.55-.35,10.48-.05,16-.05,10.91,0,16,.05,10,.15,14.55.35,8.84.49,12.81.89a74.73,74.73,0,0,1,10.72,1.79,37.51,37.51,0,0,1,8.83,3.18,12.77,12.77,0,0,0-2.61-3.82q-4-4-13.06-6.21a76.3,76.3,0,0,0-10.73-1.79q-6-.58-12.81-.89t-14.55-.35q-7.69,0-16,0t-16,0q-7.69.06-14.55.35t-12.81.89a76.3,76.3,0,0,0-10.73,1.79q-9,2.19-13.06,6.21t-4,11.07v25.43a5.09,5.09,0,0,0,5.06,5.06h1.79V195.36Q106.85,188.31,110.87,184.28Z" fill="#c62828"/><circle cx="125.7" cy="192.5" r="8.5" fill="#ffe082"/><circle cx="126.6" cy="193.4" r="6.6" fill="#fff9c4"/><circle cx="217.6" cy="193.4" r="6.6" fill="#fff9c4"/><path d="M115.89,161q3.4-.78,7.32-1.37t8.19-.92q4.29-.35,9-.54t9.75-.29l-16.49-10.93a5.1,5.1,0,0,1-2.09-3.22,4.5,4.5,0,0,1,.73-3.71,4.79,4.79,0,0,1,3.17-2.14,4.88,4.88,0,0,1,3.76.78l28.68,19.12h3.51q7.41,0,14.39.05t13.31.24l-15.6-11.22a5.13,5.13,0,0,1-1.17-7,4.72,4.72,0,0,1,3.21-2,4.6,4.6,0,0,1,3.71.93l29,20.68c1.56.19,3.05.42,4.48.68s2.83.55,4.2.88l1.51.39,1.51.39q-.78-4-1.7-8.68c-.62-3.13-1.29-6.15-2-9.08s-1.45-5.62-2.2-8.09a43.53,43.53,0,0,0-2.19-6c-.72-1.43-2.39-2.88-5-4.35a47.28,47.28,0,0,0-10.44-3.95,110.88,110.88,0,0,0-15.31-2.83,165.15,165.15,0,0,0-19.66-1.07,165.15,165.15,0,0,0-19.66,1.07,111,111,0,0,0-15.32,2.83A47.37,47.37,0,0,0,126,125.6c-2.64,1.47-4.31,2.92-5,4.35a42.23,42.23,0,0,0-2.19,6q-1.12,3.71-2.2,8.09c-.71,2.93-1.38,5.95-2,9.08s-1.19,6-1.71,8.68l1.52-.39Z" fill="none"/><path d="M171.4,87.8a10,10,0,0,0,9.95-10,10,10,0,0,0-1.71-5.61,56,56,0,0,0-4.73-6c-.52-.65-1.09-1.33-1.71-2S172,62.73,171.4,62c-.59.78-1.19,1.53-1.81,2.24s-1.18,1.4-1.7,2a54.78,54.78,0,0,0-4.73,6,10,10,0,0,0-1.71,5.61,10,10,0,0,0,10,10Z" fill="none"/><path d="M241.35,212.67v-25q0-6.93-3.95-10.88t-12.83-6.1A74.16,74.16,0,0,0,214,169q-5.85-.58-12.58-.88t-14.3-.34q-7.56,0-15.75-.05t-15.76.05q-7.56,0-14.29.34t-12.58.88a73.92,73.92,0,0,0-10.54,1.75q-8.88,2.16-12.83,6.1t-4,10.88v25a5,5,0,0,0,5,5H236.37a5,5,0,0,0,5-5Zm-104.29-9.36a15,15,0,1,1,4.39-10.64A14.48,14.48,0,0,1,137.06,203.31Zm89.85,0a15,15,0,1,1,4.39-10.64A14.37,14.37,0,0,1,226.91,203.31Z" fill="none"/><path d="M120.38,166.36l-1.52.39q.78-4,1.71-8.68c.62-3.13,1.29-6.15,2-9.08s1.45-5.62,2.2-8.09a42.23,42.23,0,0,1,2.19-6c.72-1.43,2.39-2.88,5-4.35a47.37,47.37,0,0,1,10.43-3.95,111,111,0,0,1,15.32-2.83,181.15,181.15,0,0,1,39.32,0,110.88,110.88,0,0,1,15.31,2.83,47.28,47.28,0,0,1,10.44,3.95,13.37,13.37,0,0,1,4.74,3.85L227,126c-1.51-1.76-2.53-3.54-5-5-3.9-2.31-2.23-2.74-8.41-4.3-2.53-.65-5.22-1.22-8.05-1.7s-5.77-.9-8.83-1.22-6.21-.57-9.46-.74-6.53-.24-9.85-.24-6.6.08-9.86.24-6.4.41-9.46.74-6,.73-8.83,1.22-5.51,1-8,1.7a57.7,57.7,0,0,0-15.13,5.81q-5.85,3.46-8.09,8a50,50,0,0,0-3.37,9.18q-1.61,5.75-2.93,11.9t-2.34,11.66c-.68,3.67-1.18,6.52-1.51,8.53" fill="#4db6ac"/><rect x="443.87" y="101" width="34" height="34" fill="#80cbc4"/><rect x="447" y="104.13" width="30.87" height="30.87" fill="#b2dfdb"/><path d="M221.35,87.8a10,10,0,0,0,10-10,10,10,0,0,0-1.71-5.61,56,56,0,0,0-4.73-6c-.52-.65-1.09-1.33-1.71-2s-1.22-1.46-1.8-2.24c-.59.78-1.19,1.53-1.81,2.24s-1.18,1.4-1.7,2a56.29,56.29,0,0,0-4.74,6,10,10,0,0,0-1.7,5.61,10,10,0,0,0,9.95,10Z" fill="none"/><rect x="221.35" y="227.7" width="9.95" height="9.95" fill="none"/><rect x="111.5" y="227.7" width="9.95" height="9.95" fill="none"/><path d="M163.14,84a11.9,11.9,0,0,0,3.75,2.5,11.88,11.88,0,0,0,9.12,0,11.9,11.9,0,0,0,3.75-2.5,11.5,11.5,0,0,0,3.44-8.28,10.53,10.53,0,0,0-1.66-6A46.72,46.72,0,0,0,178,65.09q-1.1-1.26-2.13-2.55a15.42,15.42,0,0,1-1.77-2.78,3.24,3.24,0,0,0-1.09-1.2,2.84,2.84,0,0,0-3.1,0,3.24,3.24,0,0,0-1.09,1.2A15.47,15.47,0,0,1,167,62.54c-.68.86-1.39,1.71-2.12,2.55a46.72,46.72,0,0,0-3.55,4.68,10.53,10.53,0,0,0-1.66,6A11.5,11.5,0,0,0,163.14,84Z" fill="#80cbc4"/><path d="M171.45,87.8a10,10,0,0,0,10-10,10,10,0,0,0-1.71-5.61,56,56,0,0,0-4.73-6c-.52-.65-1.09-1.33-1.71-2S172,62.73,171.45,62c-.59.78-1.19,1.53-1.81,2.24s-1.18,1.4-1.7,2a54.78,54.78,0,0,0-4.73,6,10,10,0,0,0-1.71,5.61,10,10,0,0,0,9.95,10Z" fill="none"/><path d="M213.14,84a11.9,11.9,0,0,0,3.75,2.5,11.88,11.88,0,0,0,9.12,0,11.9,11.9,0,0,0,3.75-2.5,11.5,11.5,0,0,0,3.44-8.28,10.53,10.53,0,0,0-1.66-6A46.72,46.72,0,0,0,228,65.09q-1.1-1.26-2.13-2.55a15.42,15.42,0,0,1-1.77-2.78,3.24,3.24,0,0,0-1.09-1.2,2.84,2.84,0,0,0-3.1,0,3.24,3.24,0,0,0-1.09,1.2A15.47,15.47,0,0,1,217,62.54c-.68.86-1.39,1.71-2.12,2.55a46.72,46.72,0,0,0-3.55,4.68,10.53,10.53,0,0,0-1.66,6A11.5,11.5,0,0,0,213.14,84Z" fill="#80cbc4"/><path d="M221.45,87.8a10,10,0,0,0,10-10,10,10,0,0,0-1.71-5.61,56,56,0,0,0-4.73-6c-.52-.65-1.09-1.33-1.71-2S222,62.73,221.45,62c-.59.78-1.19,1.53-1.81,2.24s-1.18,1.4-1.7,2a54.78,54.78,0,0,0-4.73,6,10,10,0,0,0-1.71,5.61,10,10,0,0,0,9.95,10Z" fill="none"/><path d="M241.35,227.82a15.1,15.1,0,0,0,7.12-5.41,14.43,14.43,0,0,0,2.83-8.74v-25a27,27,0,0,0-2.59-12.15,22.61,22.61,0,0,0-7.75-8.73c-.33-2-.83-4.86-1.51-8.53s-1.47-7.57-2.35-11.66-1.85-8.07-2.92-11.9a50.74,50.74,0,0,0-3.37-9.18c-1.5-3-4.19-5.73-8.1-8a57.48,57.48,0,0,0-15.12-5.81c-2.53-.65-5.22-1.22-8.05-1.7s-5.77-.9-8.83-1.22-6.21-.57-9.46-.74-6.53-.24-9.85-.24-6.6.08-9.86.24-6.4.41-9.46.74-6,.73-8.83,1.22-5.51,1-8,1.7a57.7,57.7,0,0,0-15.13,5.81q-5.85,3.46-8.09,8a50,50,0,0,0-3.37,9.18q-1.61,5.75-2.93,11.9t-2.34,11.66c-.68,3.67-1.18,6.52-1.51,8.53a22.64,22.64,0,0,0-7.76,8.73A27.1,27.1,0,0,0,91.5,188.7v25a14.37,14.37,0,0,0,2.83,8.74,15.05,15.05,0,0,0,7.12,5.41V228h139.9ZM114.57,154.07c.62-3.13,1.29-6.15,2-9.08s1.45-5.62,2.2-8.09a42.23,42.23,0,0,1,2.19-6c.72-1.43,2.39-2.88,5-4.35a47.37,47.37,0,0,1,10.43-3.95,111,111,0,0,1,15.32-2.83,165.15,165.15,0,0,1,19.66-1.07,165.15,165.15,0,0,1,19.66,1.07,110.88,110.88,0,0,1,15.31,2.83,47.28,47.28,0,0,1,10.44,3.95c2.64,1.47,4.31,2.92,5,4.35a43.53,43.53,0,0,1,2.19,6q1.13,3.71,2.2,8.09c.71,2.93,1.38,5.95,2,9.08s1.18,6,1.7,8.68l-1.51-.39-1.51-.39c-1.37-.33-2.77-.62-4.2-.88s-2.92-.49-4.48-.68l-29-20.68a4.6,4.6,0,0,0-3.71-.93,4.72,4.72,0,0,0-3.21,2,5.13,5.13,0,0,0,1.17,7L199.1,159q-6.33-.19-13.31-.24t-14.39-.05h-3.51l-28.68-19.12a4.88,4.88,0,0,0-3.76-.78,4.79,4.79,0,0,0-3.17,2.14,4.5,4.5,0,0,0-.73,3.71,5.1,5.1,0,0,0,2.09,3.22l16.49,10.93q-5.07.09-9.75.29t-9,.54q-4.29.33-8.19.92T115.89,162l-1.51.39-1.52.39Q113.64,158.75,114.57,154.07Zm-8.14,64.58a5,5,0,0,1-5-5v-25q0-6.93,4-10.88t12.83-6.1A73.92,73.92,0,0,1,128.77,170q5.85-.58,12.58-.88t14.29-.34q7.56,0,15.76-.05t15.75.05q7.56,0,14.3.34T214,170a74.16,74.16,0,0,1,10.54,1.75q8.88,2.16,12.83,6.1t3.95,10.88v25a5,5,0,0,1-5,5Z" fill="#f44336"/><path d="M113.14,84a11.9,11.9,0,0,0,3.75,2.5,11.88,11.88,0,0,0,9.12,0,11.9,11.9,0,0,0,3.75-2.5,11.5,11.5,0,0,0,3.44-8.28,10.53,10.53,0,0,0-1.66-6A46.72,46.72,0,0,0,128,65.09q-1.09-1.26-2.13-2.55a15.42,15.42,0,0,1-1.77-2.78,3.24,3.24,0,0,0-1.09-1.2,2.84,2.84,0,0,0-3.1,0,3.24,3.24,0,0,0-1.09,1.2A15.47,15.47,0,0,1,117,62.54c-.68.86-1.39,1.71-2.12,2.55a46.72,46.72,0,0,0-3.55,4.68,10.53,10.53,0,0,0-1.66,6A11.5,11.5,0,0,0,113.14,84Z" fill="#80cbc4"/><path d="M121.45,87.8a10,10,0,0,0,10-10,10,10,0,0,0-1.71-5.61,56,56,0,0,0-4.73-6c-.52-.65-1.09-1.33-1.71-2S122,62.73,121.45,62c-.59.78-1.19,1.53-1.81,2.24s-1.18,1.4-1.7,2a54.78,54.78,0,0,0-4.73,6,10,10,0,0,0-1.71,5.61,10,10,0,0,0,10,10Z" fill="none"/><path d="M101.45,228v9.65a9.58,9.58,0,0,0,2.93,7,9.69,9.69,0,0,0,7.12,2.93h10a10,10,0,0,0,10-9.95V228Z" fill="#455a64"/><path d="M211.45,228v9.65a9.58,9.58,0,0,0,2.93,7,9.69,9.69,0,0,0,7.12,2.93h9.95a10,10,0,0,0,10-9.95V228Z" fill="#455a64"/><rect x="1.4" y="244" width="348.6" height="38" fill="#37474f"/><rect x="350" y="1" width="350" height="279" fill="#80cbc4"/><rect x="634" y="169" width="27" height="83" fill="#5d4037"/><path d="M642.82,224.7v-.25a22.95,22.95,0,0,0-44.06-9c-.51-.05-1-.08-1.55-.08a16,16,0,0,0-14,8.26,12.16,12.16,0,0,0-4.49-.86,12.31,12.31,0,1,0,8.56,21.13,16,16,0,0,0,20.15-.2,22.94,22.94,0,0,0,25.49-.38,11.38,11.38,0,1,0,9.91-18.64Z" fill="#bf360c"/><polygon points="377.87 93.66 377.87 240 543.87 240 543.87 93.66 460.87 31.5 377.87 93.66" fill="#d32f2f"/><polygon points="545.66 85.5 460.87 22 376.07 85.5 377.87 85.5 377.87 93.66 460.87 31.5 543.87 93.66 543.87 85.5 545.66 85.5" fill="#c62828"/><path d="M702.45,156.85a28.62,28.62,0,0,0,5.2-3.39,28.14,28.14,0,0,0-27.26-48.25c-.33-.45-.68-.9-1-1.34a30.07,30.07,0,0,0-50.85,30.94,9.33,9.33,0,0,0-1,12.07,20.36,20.36,0,0,0,18.57,28.58,8.45,8.45,0,0,0,1.59,3,8.57,8.57,0,0,0,10.7,2.09c.33.46.68.93,1,1.37a25.22,25.22,0,0,0,43-25Z" fill="#bf360c"/><rect x="392.87" y="101" width="34" height="34" fill="#80cbc4"/><rect x="444" y="101" width="34" height="34" fill="#80cbc4"/><rect x="396" y="104.13" width="30.87" height="30.87" fill="#b2dfdb"/><rect x="392.87" y="167" width="34" height="34" fill="#80cbc4"/><rect x="396" y="170.13" width="30.87" height="30.87" fill="#b2dfdb"/><rect x="447" y="104.13" width="30.87" height="30.87" fill="#b2dfdb"/><rect x="495" y="101" width="34" height="34" fill="#80cbc4"/><rect x="498" y="104.13" width="30.87" height="30.87" fill="#b2dfdb"/><rect x="495" y="167" width="34" height="34" fill="#80cbc4"/><rect x="498" y="170.13" width="30.87" height="30.87" fill="#b2dfdb"/><rect x="444" y="167" width="34" height="65" fill="#c62828"/><rect x="448" y="170.09" width="30" height="62" fill="#f44336"/><line x1="156" y1="184" x2="191" y2="184" fill="none" stroke="#263238" stroke-linecap="round" stroke-miterlimit="10" stroke-width="9"/><line x1="156" y1="196.5" x2="191" y2="196.5" fill="none" stroke="#263238" stroke-linecap="round" stroke-miterlimit="10" stroke-width="9"/><line x1="156" y1="209" x2="191" y2="209" fill="none" stroke="#263238" stroke-linecap="round" stroke-miterlimit="10" stroke-width="9"/><path d="M666.05,147.05a11.48,11.48,0,0,1-15,6.07A27.27,27.27,0,0,1,605.71,148a12.49,12.49,0,0,1-11.65-11.3,40.38,40.38,0,0,1-26-23.43,34.75,34.75,0,0,0,18.4,53.71,10.76,10.76,0,0,0,10,9.75,23.54,23.54,0,0,0,39.16,4.46,9.94,9.94,0,0,0,13.54-7.26c.66,0,1.32.08,2,.08A29.17,29.17,0,0,0,680.4,144.8c0-.64,0-1.28-.08-1.92a33.67,33.67,0,0,1-10.86,1.91A11.33,11.33,0,0,1,666.05,147.05Z" fill="#e64a19"/><path d="M680.32,142.88a33.88,33.88,0,0,0,15.49-11.17,33.71,33.71,0,0,1-16.12,6.77A29,29,0,0,1,680.32,142.88Z" fill="#b71c1c"/><path d="M594.06,136.66A12.49,12.49,0,0,0,605.71,148a27.27,27.27,0,0,0,45.38,5.16,11.48,11.48,0,0,0,15-6.07,11.43,11.43,0,0,1-9,.07A27.27,27.27,0,0,1,611.71,142a12.49,12.49,0,0,1-11.65-11.3A40.41,40.41,0,0,1,574,106.92a34.79,34.79,0,0,0-5.87,6.31A40.38,40.38,0,0,0,594.06,136.66Z" fill="#d84315"/><path d="M675.1,138.8c-.78,0-1.55,0-2.32-.09a11.48,11.48,0,0,1-3.32,6.08,33.67,33.67,0,0,0,10.86-1.91,29,29,0,0,0-.63-4.4A33.07,33.07,0,0,1,675.1,138.8Z" fill="#d84315"/><path d="M666.78,144.71a11.38,11.38,0,0,1-.73,2.34,11.33,11.33,0,0,0,3.41-2.26h-.36C668.32,144.8,667.55,144.76,666.78,144.71Z" fill="#fb8c00"/><path d="M685.88,73a37.69,37.69,0,0,0-66.26-31.76,38,38,0,0,0-9.09,10.51,40.29,40.29,0,0,0-10.47,78.94A12.49,12.49,0,0,0,611.71,142a27.27,27.27,0,0,0,45.38,5.16,11.43,11.43,0,0,0,9-.07,11.38,11.38,0,0,0,.73-2.34c.77,0,1.54.09,2.32.09h.36a11.48,11.48,0,0,0,3.32-6.08c.77,0,1.54.09,2.32.09a33.07,33.07,0,0,0,4.59-.32A33.79,33.79,0,0,0,685.88,73Z" fill="#fb8c00"/><rect x="365.87" y="232" width="190" height="20" fill="#b71c1c"/><rect x="350" y="244" width="350" height="38" fill="#455a64"/><polygon points="545.66 87.5 561.02 87.5 460.87 12.5 360.72 87.5 376.07 87.5 460.87 24 545.66 87.5" fill="#b71c1c"/><polygon points="350 147.18 496.18 1 398.6 1 350 49.6 350 147.18" fill="#37474f"/><path d="M34.72,57.85l-3.61-1.92-4.24,4.24,1.93,3.61-2.66,2.65L18.57,50.66l3-3,15.8,7.56Zm-6.26-3.4-5.58-2.94q-.63-.34-1-.57.76,1.29,3.54,6.54Z" fill="#fff"/><path d="M36.68,32.64l7.52,7.53A6.1,6.1,0,0,1,45.88,43a5.21,5.21,0,0,1-.18,3.16,8.29,8.29,0,0,1-2.06,3.09A7,7,0,0,1,39,51.58a5.72,5.72,0,0,1-4.38-1.9l-7.49-7.49,2.45-2.46,7.12,7.12a4.26,4.26,0,0,0,2.51,1.43,3.18,3.18,0,0,0,2.42-1.16,3.09,3.09,0,0,0,1.12-2.39,4.27,4.27,0,0,0-1.44-2.53l-7.1-7.1Z" fill="#fff"/><path d="M55.64,36.94,53.17,39.4,43.6,29.83,40.44,33l-2-2.05,8.78-8.78,2,2.05-3.16,3.15Z" fill="#fff"/><path d="M65.31,15.61a8.92,8.92,0,0,1,3,5.87,7.49,7.49,0,0,1-2.55,5.65,7.48,7.48,0,0,1-5.65,2.56,9,9,0,0,1-5.89-3,8.88,8.88,0,0,1-3-5.86,7.61,7.61,0,0,1,2.59-5.65,7.48,7.48,0,0,1,5.64-2.56A9,9,0,0,1,65.31,15.61ZM56.82,24.1a6.87,6.87,0,0,0,3.68,2.19,3.66,3.66,0,0,0,3.19-1.22q3-3-1-6.88c-2.62-2.61-4.9-3-6.86-1a3.69,3.69,0,0,0-1.23,3.21A6.83,6.83,0,0,0,56.82,24.1Z" fill="#fff"/><path d="M389.13,68.44l-2.46,2.46-5-5-4.61,4.61,5,5L379.6,78,368,66.34l2.46-2.46L375,68.44l4.6-4.61-4.55-4.56,2.45-2.45Z" fill="#fff"/><path d="M396.79,49.13a8.94,8.94,0,0,1,3,5.87,7.52,7.52,0,0,1-2.56,5.65,7.49,7.49,0,0,1-5.65,2.55,9,9,0,0,1-5.89-3,8.81,8.81,0,0,1-3-5.87,7.52,7.52,0,0,1,2.58-5.64,7.49,7.49,0,0,1,5.64-2.56A8.93,8.93,0,0,1,396.79,49.13Zm-8.49,8.48a6.93,6.93,0,0,0,3.68,2.2,3.67,3.67,0,0,0,3.19-1.23q3-2.94-1-6.87t-6.87-1a3.69,3.69,0,0,0-1.23,3.21A6.87,6.87,0,0,0,388.3,57.61Z" fill="#fff"/><path d="M410,47.62,398,41.3l-.07.07c2,1.76,3.24,3,3.86,3.57l5.41,5.4L405,52.55,393.4,40.92l3.36-3.36L408.4,43.7l.05,0-6-11.81,3.35-3.36,11.63,11.63-2.3,2.3-5.5-5.51c-.26-.26-.56-.56-.89-.91s-1.2-1.28-2.6-2.81l-.07.07,6.11,12.11Z" fill="#fff"/><path d="M427.08,30.5l-6.7,6.69L408.76,25.56l6.69-6.69,2,2-4.23,4.23,2.56,2.55,3.93-3.93,2,2-3.93,3.93,3,3L425,28.46Z" fill="#fff"/><polygon points="0 0 0 34.6 34.6 0 0 0" fill="none"/><rect x="700" width="350" height="282" fill="#4db6ac"/><rect x="775" y="-50.89" width="221" height="117.79" fill="#26a69a"/><rect x="781.6" y="-48" width="209" height="110" fill="#3e2723"/><rect x="789.8" y="-42" width="192.6" height="74" fill="#ef6c00"/><rect x="794" y="-42" width="188.4" height="74" fill="#fb8c00"/><rect x="789.8" y="25" width="192.6" height="27" fill="#bf360c"/><rect x="794" y="25" width="188.4" height="23" fill="#e64a19"/><path d="M787.87,272.45S720,235,753.33,149.92C762.28,243,893.8,238.2,787.87,272.45Z" fill="#e64a19"/><path d="M970.9,277.1s96.33-53.12,49-174C1007.22,235.22,820.51,228.48,970.9,277.1Z" fill="#bf360c"/><path d="M822.85,52.12c-9.33,44.67,66,33.69,13.8,83.1l-.78,1.18c-3.53-45.49-48.23-39.61-12.94-84.31Z" fill="#26a69a"/><path d="M804,259.73S713,191.48,812.29,106C777.82,216.3,995,259.73,804,259.73Z" fill="#fb8c00"/><path d="M948,259s129.19-96.89-11.75-218.24C985.17,197.39,676.88,259,948,259Z" fill="#fb8c00"/><path d="M824.4,250.64s-52-67.66,37-109.19C814.22,214,962.55,289.33,824.4,250.64Z" fill="#ffcc80"/><path d="M821,170.81l-.34-.58q-1.53,2.09-2.83,4.18Q819.33,172.59,821,170.81Z" fill="#f57c00"/><path d="M824.4,248.64s-29.07-37.8-6.56-74.23c-31.37,38.41,1.56,81.23,1.56,81.23,2.33.65,4.57,1.27,6.74,1.85,10.89-.25,20-.72,27.45-1.41C845.71,254.36,836.09,251.91,824.4,248.64Z" fill="#f57c00"/><path d="M936,109c-19,48-39.23,65.2-56,87-1.8,3-10.32,21.23-12,24-6,15.15-7.56,23.68,64.54,24.88C936.53,239.45,983.88,169.83,936,109Z" fill="#f57c00"/><path d="M917.19,246.65s78.3-97.29-53-154.89C932.91,194.29,711.81,304.18,917.19,246.65Z" fill="#ffa726"/><path d="M827.84,251.59c2.52-10.79,16.73-28.86,29.39-51a96,96,0,0,1-3.15-9.87C843.4,213,828.82,232.35,821.33,246c1.8,3,3.07,4.6,3.07,4.6Z" fill="#ffb74d"/><path d="M864.21,265.76l.86,1.32" fill="#ffb74d"/><path d="M865.07,267.08c-1-.59-2-1.18-2.94-1.76" fill="#ffb74d"/><rect x="700" y="244" width="350" height="38" fill="#607d8b"/><path d="M823.85,41.12c-9.33,44.67,66,33.69,13.8,83.1l-.78,1.18c-3.53-45.49-48.23-39.61-12.94-84.31Z" fill="#ffcc80"/><polygon points="700 209.18 909.18 0 811.6 0 700 111.6 700 209.18" fill="#37474f"/><path d="M728.83,129.9a8.11,8.11,0,0,1,2.76,6c-.07,2.11-1.14,4.19-3.19,6.25l-3.3,3.29-11.62-11.63,3.65-3.65a8.68,8.68,0,0,1,5.92-2.91A7.81,7.81,0,0,1,728.83,129.9Zm-2.5,2.62q-3.75-3.74-7.05-.43L718,133.4l7.57,7.57,1.06-1.06Q730.16,136.35,726.33,132.52Z" fill="#fff"/><path d="M748.49,122.09l-2.81,2.81L738,120.37q-.42-.24-1.65-1.05c-.82-.55-1.36-.92-1.61-1.13q.38.47,1.14,1.62c.5.76.86,1.31,1.06,1.64l4.52,7.66-2.8,2.8-14.59-8.66,2.43-2.42,7.83,4.86c1.43.91,2.63,1.73,3.61,2.48-.27-.34-.67-.88-1.19-1.63s-.9-1.34-1.15-1.79l-4.82-8.21,2.33-2.33,8.21,4.82c.37.22.9.57,1.61,1.06s1.31.91,1.8,1.29c-.36-.47-.79-1.07-1.29-1.81s-.9-1.34-1.18-1.81l-4.87-7.83,2.43-2.42Z" fill="#fff"/><path d="M759.6,111l-6.69,6.7L741.28,106l6.7-6.69,2,2-4.24,4.23,2.56,2.55,3.93-3.94,2,2-3.93,3.94,3,3,4.24-4.23Z" fill="#fff"/><path d="M762,108.55,750.4,96.92l2.47-2.46,9.59,9.59,4.71-4.72,2,2Z" fill="#fff"/><path d="M771.23,99.35,759.6,87.72l2.47-2.46,9.59,9.59,4.71-4.72,2,2Z" fill="#fff"/><path d="M780.43,90.15,768.8,78.52l2.47-2.47,11.62,11.63Z" fill="#fff"/><path d="M796.14,74.44,793,77.57l-13.85-3.73-.07.07q2.48,2.18,3.47,3.17L788,82.55l-2.2,2.2L774.19,73.13,777.3,70l13.76,3.66.06-.06q-2.39-2.15-3.33-3.08L782.29,65l2.22-2.22Z" fill="#fff"/><path d="M797,60.57,801.56,56l6,6a19.32,19.32,0,0,1-1.6,2.62,19.1,19.1,0,0,1-1.88,2.17,7.25,7.25,0,0,1-5.57,2.48,9.12,9.12,0,0,1-5.82-3.06,8.26,8.26,0,0,1-2.78-6,8.6,8.6,0,0,1,2.89-6A12.23,12.23,0,0,1,797,51.43l1.16,2.79a8.25,8.25,0,0,0-3.29,2,4.61,4.61,0,0,0-1.48,3.63,5.86,5.86,0,0,0,1.92,3.85A6.57,6.57,0,0,0,799,65.83a3.78,3.78,0,0,0,3.25-1.26,12,12,0,0,0,1.41-1.72l-2.43-2.43-2.2,2.2Z" fill="#fff"/><path d="M817.51,53.06l-2.42,2.43L803.46,43.86l6.66-6.66,2,2-4.23,4.24,3,3,4-4,2,2-3.94,3.95Z" fill="#fff"/><path d="M824,46.55,812.4,34.92l2.46-2.46,11.63,11.63Z" fill="#fff"/><path d="M827.42,34.23l4.46,4.46-2.46,2.47L817.79,29.53l3.39-3.38a8.11,8.11,0,0,1,4.37-2.65A4.38,4.38,0,0,1,829.31,25a4.43,4.43,0,0,1,1.26,2.39,5.31,5.31,0,0,1-.35,2.85q6.54,1.3,8.48,1.65L836,34.61l-7.24-1.69Zm-2-2,.79-.8a4.3,4.3,0,0,0,1.34-2.11,2,2,0,0,0-.67-1.78,1.8,1.8,0,0,0-1.75-.61A4.81,4.81,0,0,0,823,28.34l-.74.75Z" fill="#fff"/><path d="M846.86,23.71l-6.69,6.7L828.54,18.78l6.7-6.7,2,2L833,18.34l2.55,2.55L839.52,17l2,2-3.94,3.94,3,3,4.23-4.23Z" fill="#fff"/></svg>