<svg xmlns="http://www.w3.org/2000/svg" xmlns:xlink="http://www.w3.org/1999/xlink" viewBox="0 0 621 400"><defs><style>.cls-1{isolation:isolate;}.cls-2{fill:#ededed;}.cls-3{fill:#755e3f;}.cls-4{fill:#63af12;}.cls-5{fill:#42210b;}.cls-6{fill:#2d2923;}.cls-26,.cls-7,.cls-8{mix-blend-mode:multiply;}.cls-7{fill:url(#linear-gradient);}.cls-8{fill:url(#linear-gradient-2);}.cls-9{fill:url(#linear-gradient-3);}.cls-10{fill:#ede8e4;}.cls-11{fill:#ccb7a3;}.cls-12{fill:#1e1e1e;}.cls-13{fill:#c6c0b9;}.cls-14{fill:#f4f4f4;}.cls-15{fill:#e6e6e6;}.cls-16{fill:#a3a3a3;}.cls-17{fill:#cecece;}.cls-18{fill:#c1272d;}.cls-19{fill:#1f527c;}.cls-19,.cls-20{stroke:#1f527c;stroke-miterlimit:10;stroke-width:0.75px;}.cls-20,.cls-25{fill:none;}.cls-21{fill:#fff;}.cls-22{fill:#444;}.cls-23{fill:#fbb03b;}.cls-24{fill:#f2ddc4;}.cls-26{fill:url(#linear-gradient-4);}.cls-27{fill:#3a3a3a;}.cls-28{fill:#191919;}.cls-29{fill:#565656;}.cls-30{fill:#e2e2e2;}.cls-31{fill:#ed8c98;}.cls-32{fill:#d3a159;}.cls-33{fill:#78eac1;}</style><linearGradient id="linear-gradient" x1="399" y1="320.5" x2="497" y2="320.5" gradientUnits="userSpaceOnUse"><stop offset="0" stop-color="#fff" stop-opacity="0"/><stop offset="1" stop-color="#878787"/></linearGradient><linearGradient id="linear-gradient-2" x1="22" y1="322" x2="121" y2="322" gradientUnits="userSpaceOnUse"><stop offset="0.38" stop-color="#fff" stop-opacity="0"/><stop offset="1" stop-color="#878787"/></linearGradient><linearGradient id="linear-gradient-3" x1="22.13" y1="219" x2="113" y2="219" gradientUnits="userSpaceOnUse"><stop offset="0" stop-color="#fff" stop-opacity="0"/><stop offset="0.49" stop-color="#878787"/></linearGradient><linearGradient id="linear-gradient-4" x1="344" y1="264.5" x2="505" y2="264.5" xlink:href="#linear-gradient"/></defs><title>turbocharge</title><g class="cls-1"><g id="bg"><path class="cls-2" d="M539,228c15.29,16.36,42.07,0,37,14-34.07,94-116.45,122.65-241,70-52.93-22.38-101.42-5-136,3-6.79,1.11-92.62,8.9-100,9-142,2-61.12-39.74-63.86-65.68-24.72-19.76,12.57-32.24,13.09-56.49.41-19.1,42.31-36,58.77-51.83,17-15-74-24.23-73.68-39.3.57-26.58,52-47,114.89-45.68,11.31.25,14.22,6.44,32.5,2.71s58.45-28.27,103-27.31c28.91.63,43.11,4.18,73.19,5.38s28.58-3.18,45.58-2.82C428.92,43.55,446,53,459,65s-24,55,18,44c80.17-21,151,8,131,56C584.28,221.94,570.87,220.18,539,228Z"/></g><g id="person_back" data-name="person back"><path class="cls-3" d="M294,115c-7,7-9.95,20-29,20s-33-5-33-26,15.45-38,34.5-38C280,71,294.07,78.57,296,94c1,8-1.8,9.27-4,15C291.32,110.77,295.39,113.61,294,115Z"/><ellipse class="cls-4" cx="285.84" cy="104.99" rx="2.65" ry="1.28" transform="translate(125.8 364.06) rotate(-78.46)"/><ellipse class="cls-5" cx="273.84" cy="80.99" rx="2.65" ry="1.28" transform="translate(98.08 306.07) rotate(-68.49)"/><path class="cls-6" d="M296,89c-1-7-19-36-60-27-33.41,7.33-42.64,20.22-67,23-35,4-52,4-68-6,21,27,56,21,57,23-13,7-23,9-47,9,17,5,42,5,53,4-13,9-9,11-35,11,21,8,39,16,96,9,44.84-51.13,42-44,59-38S297,96,296,89Z"/><path class="cls-6" d="M282,103s2-3,4-3,0,1,0,1S283,102,282,103Z"/><polygon class="cls-7" points="495.27 309 497 332 412.83 332 399 312 495.27 309"/><polygon class="cls-8" points="99.94 307 121 337 49.38 337 22 307 99.94 307"/><polygon class="cls-9" points="113 210 94.63 230 22.13 230 28.45 208 113 210"/></g><g id="car"><path class="cls-10" d="M160.27,175.82a10,10,0,0,1-5.74,3c-6.95.86-76,5.9-86,11.89-.7.42-1.75,2.25-3,5.08,4.91-2,12.48-4.1,23.49-4.75C104.16,190.11,146.35,190,160.27,175.82Z"/><path class="cls-11" d="M597.32,251.93c-.89-5.14-4.14-8.57-10.88-8.58-.1,0-.14-.09-.11-.27-102.19,35.29-480.66,6.59-536.49,2.11-3.26,13-5.25,23.94-4.06,26.6-.59,4.53-.49,7.39.62,7.62,5,1,7,3.31,7.66,6-.05.57-.09,1.11-.1,1.63H579.72C587.22,279.53,595.72,263.88,597.32,251.93Z"/><path class="cls-12" d="M54,287a6.45,6.45,0,0,0,.34,2.65c.51,1.23,1.67,2,4.08,2,11,0,506-.33,514-.32,2.07,0,4.64-1.63,7.34-4.33Z"/><path class="cls-13" d="M594.72,213.41c-1-5.59-4.89-10.12-14.22-11.52-18.36-2.75-117-7.7-117-7.7S387.62,112.09,349.62,109s-158,20.79-171,26.77c-.92.42-1.73,1.71-2.51,3.62l1.42.44a12,12,0,0,1,7.84,15l0,.09-2.72,8.58a12,12,0,0,1-15.06,7.81l-1.91-.6a11.31,11.31,0,0,1-1.3-.51,22.75,22.75,0,0,1-4,5.6C146.35,190,104.16,190.11,89,191c-11,.65-18.58,2.74-23.49,4.75-4.32,9.77-11.19,31.58-15.67,49.44,55.83,4.48,434.3,33.18,536.49-2.11.11-.78,1.39-3.19,2.94-6.49C592.2,230.35,596.07,220.93,594.72,213.41Z"/><path class="cls-14" d="M564.11,149.5c19.62,0,45,2.66,51.37,7.58,9.08-8.1-25.17-12.58-50-12.58-53.25,0-74.43,17.39-82.87,31.27h0C493.24,163,515.84,149.5,564.11,149.5Z"/><path class="cls-15" d="M571,174c12,0,20.77,2.23,26.22,5.73,5.44-4.34,9.74-17.3,16.28-21.23a13.63,13.63,0,0,0,2-1.42c-6.37-4.92-31.75-7.58-51.37-7.58-48.27,0-70.87,13.54-81.48,26.27A227.74,227.74,0,0,1,514,174Z"/><path class="cls-16" d="M584.34,180.6c1.76-.27,4.4,0,8.8.52a5.42,5.42,0,0,0,4.08-1.39C591.77,176.23,583,174,571,174H514a227.74,227.74,0,0,0-31.37,1.77c-.44.73-.83,1.44-1.21,2.14C500.9,177.71,554.08,177.51,584.34,180.6Z"/><path class="cls-17" d="M481.42,177.91l-.25.47A35.2,35.2,0,0,0,477,192.69s58.54,3.41,86.42,3.88c4.91.09,11.43-.13,13.59-4.55,1.88-3.86,2.79-6.53,3.65-8.32s1.78-2.81,3.68-3.1C554.08,177.51,500.9,177.71,481.42,177.91Z"/><path class="cls-10" d="M178.5,136c13-6,133-30,171-27s114,85,114,85,98.64,4.82,117,7.55c9.33,1.38,13.23,5.91,14.24,11.5,1.23-8.51-1.22-16.57-14.24-18.5-18.36-2.73-117-7.55-117-7.55s-76-82-114-85-158,21-171,27c-1.74.8-3.12,4.75-4.54,10.1a12.39,12.39,0,0,1,1.55.36l.49.16C176.77,137.72,177.59,136.42,178.5,136Z"/><rect class="cls-15" x="29.5" y="254.5" width="48" height="29" rx="12" ry="12"/><path class="cls-18" d="M58.44,233.58l-5.11-.4a8,8,0,0,1-7.3-8.52l3-12.94a8,8,0,0,1,8.53-7.3l5.11.4a8,8,0,0,1,7.3,8.52l-3,12.94A8,8,0,0,1,58.44,233.58Z"/><path class="cls-19" d="M184,163.59l2.16-8.74a12,12,0,0,0-8.78-14.52l-1.94-.48a12.27,12.27,0,0,0-1.57-.27C172,149,164.5,170.5,157.5,178.5,157.93,178.66,176.5,179.5,184,163.59Z"/><path class="cls-20" d="M230,129.55c-6.54.95-12.86,9.52-10.7,15.73s14.57,49.41,14.57,49.41c16.59,44.81-25.41,85.81-1.41,86.81H416.82c13.28,0,32.68-83,25.54-91.91-9.86-11.09-70-76.59-96.86-76.09S236.57,128.6,230,129.55Z"/><rect class="cls-15" x="567.5" y="254.5" width="48" height="29" rx="12" ry="12"/><rect class="cls-21" x="577" y="257.94" width="30" height="7.05" rx="3.13" ry="3.13"/><rect class="cls-21" x="39" y="257.94" width="30" height="7.05" rx="3.13" ry="3.13"/><rect class="cls-21" x="37" y="257.94" width="30" height="7.05" rx="3.13" ry="3.13"/><path class="cls-19" d="M345,124.28c-24,.45-97.31,13.49-103.15,14.34s-11.49,8.51-9.56,14.06c1.21,3.48,6,20,9.45,31.77.53,1.82,3,5.05,6.21,5.05H416.47s13.77.52,8.2-5.05C406.76,166.53,365.05,123.91,345,124.28Z"/><path class="cls-22" d="M258.22,217h22.5a9.7,9.7,0,0,0,8.69-6.75h-36C252.35,214,254.51,217,258.22,217Z"/><path class="cls-21" d="M284.6,203.5H262.1a9.7,9.7,0,0,0-8.69,6.75h36C290.47,206.54,288.31,203.5,284.6,203.5Z"/><path class="cls-23" d="M590.44,233.58l-5.11-.4a8,8,0,0,1-7.3-8.52l3-12.94a8,8,0,0,1,8.53-7.3l5.11.4a8,8,0,0,1,7.3,8.52l-3,12.94A8,8,0,0,1,590.44,233.58Z"/><path class="cls-24" d="M592.82,230l-1.17-.23c-1-.19-1.32-2.94-.7-6.1l2.3-9.42c.61-3.17,1.93-5.6,2.93-5.4l1.17.22c1,.2,1.32,2.94.71,6.11l-2.3,9.42C595.14,227.8,593.82,230.23,592.82,230Z"/><line class="cls-25" x1="449" y1="292" x2="541" y2="288"/><path class="cls-22" d="M531.26,243.11c-27.5-15.61-62.44,6.81-79.11,48.89H559.6C556.37,270.07,546.53,251.78,531.26,243.11Z"/><polygon class="cls-26" points="505 253 474 276 364.19 276 344 256 505 253"/><path class="cls-27" d="M481.2,339.82c21.83,10,49.75-4.37,62.38-32a68.4,68.4,0,0,0,5.25-17.05c-11-11.35-29-18.76-49.33-18.76-14.77,0-28.31,3.9-38.81,10.37C454.06,306.8,462.16,331.12,481.2,339.82Z"/><path class="cls-28" d="M548.83,290.76c3.73-22.17-4.53-43.12-21.9-51.06-21.83-10-49.76,4.36-62.39,32a70.36,70.36,0,0,0-3.85,10.66c10.5-6.47,24-10.37,38.81-10.37C519.87,272,537.87,279.41,548.83,290.76Z"/><path d="M495.27,339.4a32.38,32.38,0,0,1-13.55-2.91c-20.19-9.22-27-37.68-15.26-63.45,9-19.69,26.83-32.93,44.39-32.93A32.43,32.43,0,0,1,524.41,243c20.18,9.22,27,37.69,15.26,63.46C530.67,326.17,512.83,339.4,495.27,339.4Z"/><path d="M510.86,238.61v3h0a30.9,30.9,0,0,1,12.92,2.78c9.29,4.24,16,12.88,18.75,24.33,2.86,11.71,1.36,24.9-4.23,37.13-8.75,19.17-26,32-43,32a30.9,30.9,0,0,1-12.93-2.77c-9.29-4.25-15.94-12.89-18.74-24.34-2.87-11.7-1.37-24.89,4.22-37.13,8.76-19.17,26.05-32,43-32.05v-3m0,0c-17.68,0-36.24,13-45.76,33.81-12.13,26.56-5,55.86,16,65.44a34,34,0,0,0,14.17,3c17.68,0,36.25-13,45.76-33.8,12.14-26.57,5-55.86-16-65.44a33.83,33.83,0,0,0-14.18-3Z"/><ellipse class="cls-29" cx="503.06" cy="289.76" rx="32.79" ry="25.89" transform="translate(30.5 626.98) rotate(-65.45)"/><ellipse class="cls-21" cx="503.02" cy="290.05" rx="29.55" ry="23.49" transform="translate(30.21 627.11) rotate(-65.45)"/><path class="cls-15" d="M505,299a23,23,0,0,1-21.58-15c-4.44,12.23-.72,25.06,8.91,29.46,10.27,4.69,23.39-2,29.29-14.9a31.34,31.34,0,0,0,2.71-10.09A23,23,0,0,1,505,299Z"/><path class="cls-14" d="M505,299a23,23,0,0,0,19.33-10.55c.9-9.56-3-18.31-10.63-21.79-10.27-4.7-23.39,2-29.29,14.89-.36.81-.69,1.61-1,2.43A23,23,0,0,0,505,299Z"/><path class="cls-22" d="M162.26,243.11c-27.5-15.61-62.44,6.81-79.11,48.89H190.6C187.37,270.07,177.53,251.78,162.26,243.11Z"/><path class="cls-27" d="M112.2,336.82c21.83,10,49.75-4.37,62.38-32a68.4,68.4,0,0,0,5.25-17.05c-11-11.35-29-18.76-49.33-18.76-14.77,0-28.31,3.9-38.81,10.37C85.06,303.8,93.16,328.12,112.2,336.82Z"/><path class="cls-28" d="M179.83,287.76c3.73-22.17-4.53-43.12-21.9-51.06-21.83-10-49.76,4.36-62.39,32a70.36,70.36,0,0,0-3.85,10.66c10.5-6.47,24-10.37,38.81-10.37C150.87,269,168.87,276.41,179.83,287.76Z"/><path d="M126.27,336.4a32.41,32.41,0,0,1-13.55-2.91c-9.72-4.44-16.67-13.44-19.58-25.34S91.73,282.58,97.46,270c9-19.69,26.83-32.93,44.39-32.93A32.43,32.43,0,0,1,155.41,240c20.18,9.22,27,37.69,15.26,63.46C161.67,323.17,143.83,336.4,126.27,336.4Z"/><path d="M141.86,235.61v3h0a30.9,30.9,0,0,1,12.92,2.78c9.29,4.24,15.95,12.88,18.75,24.33,2.86,11.71,1.36,24.9-4.23,37.13-8.75,19.17-26,32-43,32a30.9,30.9,0,0,1-12.93-2.77c-19.43-8.88-25.94-36.45-14.52-61.47,8.76-19.17,26.05-32,43-32.05v-3m0,0c-17.68,0-36.24,13-45.76,33.81-12.13,26.56-5,55.86,16,65.44a34,34,0,0,0,14.17,3c17.68,0,36.25-13,45.76-33.8,12.14-26.57,5-55.86-16-65.44a33.83,33.83,0,0,0-14.18-3Z"/><ellipse class="cls-29" cx="134.06" cy="286.76" rx="32.79" ry="25.89" transform="translate(-182.47 289.58) rotate(-65.45)"/><ellipse class="cls-21" cx="134.02" cy="287.05" rx="29.55" ry="23.49" transform="translate(-182.77 289.7) rotate(-65.45)"/><path class="cls-15" d="M136,296a23,23,0,0,1-21.58-15c-4.44,12.23-.72,25.06,8.91,29.46,10.27,4.69,23.39-2,29.29-14.9a31.34,31.34,0,0,0,2.71-10.09A23,23,0,0,1,136,296Z"/><path class="cls-14" d="M136,296a23,23,0,0,0,19.33-10.55c.9-9.56-3-18.31-10.63-21.79-10.27-4.7-23.39,2-29.29,14.89-.36.81-.69,1.61-1,2.43A23,23,0,0,0,136,296Z"/><path class="cls-30" d="M284.6,205H262.1c-3.72,0-7.63,2.36-8.69,5.25h36C290.47,207.36,288.31,205,284.6,205Z"/><path class="cls-31" d="M51.82,228l-1.17-.23c-1-.19-1.32-2.94-.7-6.1l2.3-9.42c.61-3.17,1.93-5.6,2.93-5.4l1.17.22c1,.2,1.32,2.94.71,6.11l-2.3,9.42C54.14,225.8,52.82,228.23,51.82,228Z"/></g><g id="person_front" data-name="person front"><path class="cls-32" d="M394,102s18,9,9,26c0,0-1,8.5,6,8.5s-2,6-2,6l-3,5s-17,3.5-20-2.5c-1.24,5.32,1.76,13.32,7,15.5,5.91,2.46-6,6.5-8,6.5s-11,0-15,6-25-12-25-12l4-5.5s-23-13-12-35S367,90,394,102Z"/><path class="cls-5" d="M407,112s-19,30-29,14-22,3-17,14-28,19-46,14,12-6,14-9-25-5-30-10,12-6,17-11,1-4-9-11-3-11,12-11,15-10,9-14-16-11-6-11,35,6,47,3S416,76,407,112Z"/><ellipse class="cls-5" cx="398.84" cy="128.99" rx="2.65" ry="1.28" transform="translate(132.6 452.76) rotate(-68.49)"/><path class="cls-21" d="M375.08,173.37C373,171.32,345.19,159,343.1,159a5.1,5.1,0,0,0-2.42.55l.09-.05,27.08,22.38c1.82-1,7.23-5.43,7.23-5.43S377.15,175.42,375.08,173.37Z"/><path class="cls-33" d="M368,182l-.15-.12L340.77,159.5l-.09.05c-20.78,9.56-27.2,23.34-29.18,31.45H369C372,185,368,182,368,182Z"/></g></g></svg>