<svg xmlns="http://www.w3.org/2000/svg" xmlns:xlink="http://www.w3.org/1999/xlink" xmlns:lucid="lucid" width="3340" height="2260"><g transform="translate(0 910)" lucid:page-tab-id="0_0"><path d="M0-1296h3456v2656H0z" fill="#fff"/><path d="M1546 359v553h-40V359zM616 360v810h-40V360z" stroke="#000" stroke-opacity="0" stroke-width="2" fill="#b2b2b2"/><path d="M506 230h200v150c-33.4-25.05-54.2-25.05-66.8-25.05-20 0-46.6 25.05-66.6 25.05-12.4 0-33.4 0-66.6-25.05z" stroke="#000" stroke-width="2" fill="#fff"/><use xlink:href="#a" transform="matrix(1,0,0,1,511,235) translate(20.025000000000006 61.1)"/><use xlink:href="#b" transform="matrix(1,0,0,1,511,235) translate(99.97500000000001 61.1)"/><path d="M406 270h84v-20l36 40-36 40v-20h-84zM2260-635h200v150c-33.4-25.05-54.2-25.05-66.8-25.05-20 0-46.6 25.05-66.6 25.05-12.4 0-33.4 0-66.6-25.05z" stroke="#000" stroke-width="2" fill="#fff"/><use xlink:href="#a" transform="matrix(1,0,0,1,2265,-630) translate(30.525000000000006 50.3)"/><use xlink:href="#c" transform="matrix(1,0,0,1,2265,-630) translate(110.47500000000001 50.3)"/><use xlink:href="#d" transform="matrix(1,0,0,1,2265,-630) translate(59.55 71.9)"/><path d="M2652.25-657h83.1v50.4h-83.1V-657zM2629.75-604.92h130.65c9.75 0 9.75 0 9.75 18.6s0 18.6-9.75 18.6h-130.65c-9.75 0-9.75 0-9.75-18.6s0-18.6 9.75-18.6zM2647-566.04h95.55V-537H2647v-29.04z" fill="#29aae1"/><path d="M2620-588.12h24.9v35.16H2620v-35.16zM2745.1-587.88h25.05v36.12h-25.05v-36.12z" fill="#29aae1"/><path d="M2665.9-552.12h57.9c.9 0 .9 0 .9.72 0 .84 0 .84-.9.84h-57.9c-.9 0-.9 0-.9-.84 0-.72 0-.72.9-.72zM2717.8-584.76c0 3-3 5.52-6.9 5.52-3.75 0-6.9-2.52-6.9-5.52 0-3 3.15-5.52 6.9-5.52 3.9 0 6.9 2.52 6.9 5.52zM2739.7-584.76c0 3-3 5.52-6.9 5.52-3.9 0-6.9-2.52-6.9-5.52 0-3 3-5.52 6.9-5.52 3.9 0 6.9 2.52 6.9 5.52zM2761-584.76c0 3-3.15 5.52-6.9 5.52-3.9 0-6.9-2.52-6.9-5.52 0-3 3-5.52 6.9-5.52 3.75 0 6.9 2.52 6.9 5.52z" fill="#fff"/><path d="M2714.95-584.76c0 1.8-1.8 3.24-4.05 3.24-2.4 0-4.2-1.44-4.2-3.24 0-1.92 1.8-3.36 4.2-3.36 2.25 0 4.05 1.44 4.05 3.36zM2737-584.64c0 1.8-1.8 3.36-4.05 3.36-2.4 0-4.2-1.56-4.2-3.36 0-1.8 1.8-3.24 4.2-3.24 2.25 0 4.05 1.44 4.05 3.24zM2758.3-584.76c0 1.8-1.8 3.36-4.2 3.36-2.25 0-4.05-1.56-4.05-3.36 0-1.8 1.8-3.24 4.05-3.24 2.4 0 4.2 1.44 4.2 3.24z" fill="#54bbe7"/><use xlink:href="#e" transform="matrix(1,0,0,1,2590,-537) translate(78.575 18.6)"/><path d="M2580-500h240v60h-240z" stroke="#000" stroke-opacity="0" stroke-width="2" fill="#fff" fill-opacity="0"/><use xlink:href="#f" transform="matrix(1,0,0,1,2585,-495) translate(13.649999999999991 17.799999999999997)"/><use xlink:href="#g" transform="matrix(1,0,0,1,2585,-495) translate(55.54999999999999 17.799999999999997)"/><use xlink:href="#h" transform="matrix(1,0,0,1,2585,-495) translate(90.55 17.799999999999997)"/><use xlink:href="#i" transform="matrix(1,0,0,1,2585,-495) translate(122.45 17.799999999999997)"/><use xlink:href="#j" transform="matrix(1,0,0,1,2585,-495) translate(201.35000000000002 17.799999999999997)"/><use xlink:href="#k" transform="matrix(1,0,0,1,2585,-495) translate(61.574999999999996 39.4)"/><use xlink:href="#l" transform="matrix(1,0,0,1,2585,-495) translate(94.525 39.4)"/><use xlink:href="#m" transform="matrix(1,0,0,1,2585,-495) translate(113.475 39.4)"/><path d="M3006.45-637.13c0 7.12-8.7 12.87-19.4 12.87-10.77 0-19.45-5.75-19.45-12.87 0-7.12 8.68-12.87 19.45-12.87 10.7 0 19.4 5.75 19.4 12.87zM2970.38-623h33.72c10.38 0 10.38 0 10.38 6.93 0 6.92 0 6.92-10.38 6.92h-33.72c-10.38 0-10.38 0-10.38-6.92s0-6.92 10.38-6.92z" fill="#29aae1"/><path d="M2972.68-611.4h28.68v28.58h-28.68v-28.57z" fill="#29aae1"/><path d="M2972.68-583.9h12.95v31.5h-12.95v-31.5zM2989.34-583.6h12.02v31h-12.02v-31zM2960.1-617.82h9.85v27.6h-9.84v-27.6zM3004.48-617.43h9.94v27.6h-9.94v-27.6z" fill="#29aae1"/><use xlink:href="#n" transform="matrix(1,0,0,1,2930,-552.4999999999995) translate(18.574999999999996 18.6)"/><path d="M2712.25-813.78c0 6.2-7.84 11.22-17.5 11.22-9.7 0-17.54-5-17.54-11.22 0-6.2 7.84-11.22 17.55-11.22 9.66 0 17.5 5.02 17.5 11.22zM2679.72-801.45h30.4c9.38 0 9.38 0 9.38 6.03s0 6.03-9.37 6.03h-30.4c-9.37 0-9.37 0-9.37-6.02 0-6.03 0-6.03 9.36-6.03z" fill="#29aae1"/><path d="M2681.8-791.34h25.87v24.9h-25.88v-24.9z" fill="#29aae1"/><path d="M2681.8-767.37h11.67v27.45h-11.68v-27.45zM2696.82-767.1h10.85v27h-10.85v-27zM2670.46-796.95h8.87v24.06h-8.87v-24.05zM2710.48-796.6h8.97v24.05h-8.97v-24.06z" fill="#29aae1"/><use xlink:href="#o" transform="matrix(1,0,0,1,2640.357142857143,-740) translate(31.5 18.6)"/><path d="M1780-730h400v340h-400z" stroke="#000" stroke-width="2" fill="#fff"/><path d="M1800-723.6h360v53.2h-360z" stroke="#000" stroke-opacity="0" stroke-width="2" fill="#fff" fill-opacity="0"/><use xlink:href="#p" transform="matrix(1,0,0,1,1805,-718.5999999999999) translate(0 25.6)"/><use xlink:href="#q" transform="matrix(1,0,0,1,1805,-718.5999999999999) translate(59.75000000000001 25.6)"/><use xlink:href="#r" transform="matrix(1,0,0,1,1805,-718.5999999999999) translate(113.75 25.6)"/><path d="M1800-670h120v260h-120zM1920-670h120v260h-120zM2040-670h120v260h-120z" stroke="#000" stroke-width="2" fill="#fff"/><path d="M1820-650h61.1v60H1820z" fill="#fff" fill-opacity="0"/><use xlink:href="#s" transform="matrix(1,0,0,1,1825,-645) translate(0 42.66666666666667)"/><path d="M1819.9-590h61.1v60h-61.1z" fill="#fff" fill-opacity="0"/><use xlink:href="#s" transform="matrix(1,0,0,1,1824.8888888888887,-585) translate(0 42.66666666666667)"/><path d="M1949.44-590h61.12v60h-61.12z" fill="#fff" fill-opacity="0"/><use xlink:href="#s" transform="matrix(1,0,0,1,1954.4444444444443,-585) translate(0 42.66666666666667)"/><path d="M1949-530h61.1v60H1949z" fill="#fff" fill-opacity="0"/><use xlink:href="#s" transform="matrix(1,0,0,1,1954.000000000001,-525) translate(0 42.66666666666667)"/><path d="M2069.44-650h61.12v60h-61.12z" fill="#fff" fill-opacity="0"/><use xlink:href="#s" transform="matrix(1,0,0,1,2074.4444444444443,-645) translate(0 42.66666666666667)"/><path d="M2069-600h61.1v60H2069z" fill="#fff" fill-opacity="0"/><use xlink:href="#s" transform="matrix(1,0,0,1,2074.0000000000005,-595) translate(0 42.66666666666667)"/><path d="M2068.9-540h61.1v60h-61.1z" fill="#fff" fill-opacity="0"/><use xlink:href="#s" transform="matrix(1,0,0,1,2073.8888888888887,-535) translate(0 42.66666666666667)"/><path d="M1016-730h400v340h-400z" stroke="#000" stroke-width="2" fill="#fff"/><path d="M1084-640h-42c-3.3 0-6-8.95-6-20s2.7-20 6-20h42l12 20z" stroke="#000" stroke-width="2" fill="#fff"/><path d="M1124-640h-42c-3.3 0-6-8.95-6-20s2.7-20 6-20h42l12 20z" stroke="#000" stroke-width="2" fill="#fff"/><path d="M1164-640h-42c-3.3 0-6-8.95-6-20s2.7-20 6-20h42l12 20z" stroke="#000" stroke-width="2" fill="#fff"/><path d="M1204-640h-42c-3.3 0-6-8.95-6-20s2.7-20 6-20h42l12 20z" stroke="#000" stroke-width="2" fill="#fff"/><path d="M1036-717h140v40h-140z" stroke="#000" stroke-opacity="0" stroke-width="2" fill="#fff" fill-opacity="0"/><use xlink:href="#t" transform="matrix(1,0,0,1,1041,-712) translate(0 18.6)"/><path d="M1036-630h180v40h-180z" stroke="#000" stroke-opacity="0" stroke-width="2" fill="#fff" fill-opacity="0"/><use xlink:href="#u" transform="matrix(1,0,0,1,1041,-625) translate(0 18.6)"/><path d="M1236-630h180v40h-180z" stroke="#000" stroke-opacity="0" stroke-width="2" fill="#fff" fill-opacity="0"/><use xlink:href="#v" transform="matrix(1,0,0,1,1241,-625) translate(0 18.6)"/><path d="M1036-590h180v40h-180z" stroke="#000" stroke-opacity="0" stroke-width="2" fill="#fff" fill-opacity="0"/><use xlink:href="#w" transform="matrix(1,0,0,1,1041,-585) translate(0 18.6)"/><path d="M1036-560h180v40h-180z" stroke="#000" stroke-opacity="0" stroke-width="2" fill="#fff" fill-opacity="0"/><use xlink:href="#o" transform="matrix(1,0,0,1,1041,-555) translate(0 18.6)"/><path d="M1036-530h180v40h-180z" stroke="#000" stroke-opacity="0" stroke-width="2" fill="#fff" fill-opacity="0"/><use xlink:href="#n" transform="matrix(1,0,0,1,1041,-525) translate(0 18.6)"/><path d="M1236-590h180v40h-180z" stroke="#000" stroke-opacity="0" stroke-width="2" fill="#fff" fill-opacity="0"/><use xlink:href="#x" transform="matrix(1,0,0,1,1241,-585) translate(0 18.6)"/><path d="M1236-560h180v40h-180z" stroke="#000" stroke-opacity="0" stroke-width="2" fill="#fff" fill-opacity="0"/><use xlink:href="#y" transform="matrix(1,0,0,1,1241,-555) translate(0 18.6)"/><use xlink:href="#z" transform="matrix(1,0,0,1,1241,-555) translate(41.95 18.6)"/><path d="M1236-530h180v40h-180z" stroke="#000" stroke-opacity="0" stroke-width="2" fill="#fff" fill-opacity="0"/><use xlink:href="#A" transform="matrix(1,0,0,1,1241,-525) translate(0 18.6)"/><use xlink:href="#z" transform="matrix(1,0,0,1,1241,-525) translate(41.95 18.6)"/><path d="M1016-470h400v80h-400z" stroke="#000" stroke-width="2" fill="#fff"/><path d="M1036-450h140v40h-140z" stroke="#000" stroke-opacity="0" stroke-width="2" fill="#fff" fill-opacity="0"/><use xlink:href="#B" transform="matrix(1,0,0,1,1041,-445) translate(0 18.6)"/><path d="M1256-450h140v40h-140z" stroke="#000" stroke-opacity="0" stroke-width="2" fill="#fff" fill-opacity="0"/><use xlink:href="#C" transform="matrix(1,0,0,1,1261,-445) translate(99.05 18.6)"/><path d="M536-730h400v340H536z" stroke="#000" stroke-width="2" fill="#fff"/><path d="M556-650h360v60H556z" stroke="#000" stroke-width="2" fill="#fff"/><use xlink:href="#D" transform="matrix(1,0,0,1,561,-645) translate(0 28.6)"/><use xlink:href="#E" transform="matrix(1,0,0,1,561,-645) translate(78.9 28.6)"/><use xlink:href="#F" transform="matrix(1,0,0,1,561,-645) translate(93.9 28.6)"/><use xlink:href="#G" transform="matrix(1,0,0,1,561,-645) translate(104.85000000000001 28.6)"/><use xlink:href="#H" transform="matrix(1,0,0,1,561,-645) translate(202.70000000000002 28.6)"/><path d="M556-570h360v60H556z" stroke="#000" stroke-width="2" fill="#fff"/><use xlink:href="#D" transform="matrix(1,0,0,1,561,-565) translate(0 28.6)"/><use xlink:href="#I" transform="matrix(1,0,0,1,561,-565) translate(78.9 28.6)"/><use xlink:href="#F" transform="matrix(1,0,0,1,561,-565) translate(93.9 28.6)"/><use xlink:href="#G" transform="matrix(1,0,0,1,561,-565) translate(104.85000000000001 28.6)"/><use xlink:href="#J" transform="matrix(1,0,0,1,561,-565) translate(202.70000000000002 28.6)"/><path d="M754.67-507.33V-450H716v-57.33z" stroke="#000" stroke-opacity="0" stroke-width="2" fill="#fff" fill-opacity="0"/><use xlink:href="#K" transform="matrix(6.123233995736766e-17,1,-1,6.123233995736766e-17,749.6666666666667,-502.3333333333335) translate(16.5 18.1)"/><path d="M556-715h140v40H556z" stroke="#000" stroke-opacity="0" stroke-width="2" fill="#fff" fill-opacity="0"/><use xlink:href="#t" transform="matrix(1,0,0,1,561,-710) translate(0 18.6)"/><path d="M826.5-715c-5.8 0-10.5 4.7-10.5 10.5v14c0 5.8 4.7 10.5 10.5 10.5h84c5.8 0 10.5-4.7 10.5-10.5v-14c0-5.8-4.7-10.5-10.5-10.5z" stroke="#000" stroke-width="2" fill="#fff"/><use xlink:href="#L" transform="matrix(1,0,0,1,826,-711.5) translate(24.549999999999997 17.6)"/><path d="M56-730h400v340H56z" stroke="#000" stroke-width="2" fill="#fff"/><path d="M76-710h360v60H76z" stroke="#000" stroke-width="2" fill="#fff"/><use xlink:href="#D" transform="matrix(1,0,0,1,81,-705) translate(0 28.6)"/><use xlink:href="#E" transform="matrix(1,0,0,1,81,-705) translate(78.9 28.6)"/><use xlink:href="#F" transform="matrix(1,0,0,1,81,-705) translate(93.9 28.6)"/><use xlink:href="#G" transform="matrix(1,0,0,1,81,-705) translate(104.85000000000001 28.6)"/><use xlink:href="#H" transform="matrix(1,0,0,1,81,-705) translate(202.70000000000002 28.6)"/><path d="M76-630h360v60H76z" stroke="#000" stroke-width="2" fill="#fff"/><use xlink:href="#D" transform="matrix(1,0,0,1,81,-625) translate(0 28.6)"/><use xlink:href="#I" transform="matrix(1,0,0,1,81,-625) translate(78.9 28.6)"/><use xlink:href="#F" transform="matrix(1,0,0,1,81,-625) translate(93.9 28.6)"/><use xlink:href="#G" transform="matrix(1,0,0,1,81,-625) translate(104.85000000000001 28.6)"/><use xlink:href="#J" transform="matrix(1,0,0,1,81,-625) translate(202.70000000000002 28.6)"/><path d="M276-570v80h-40v-80z" stroke="#000" stroke-opacity="0" stroke-width="2" fill="#fff" fill-opacity="0"/><use xlink:href="#K" transform="matrix(6.123233995736766e-17,1,-1,6.123233995736766e-17,271,-565) translate(27.5 18.6)"/><path d="M456-590h44v-20l36 40-36 40v-20h-44z" stroke="#000" stroke-width="2" fill="#fff"/><path d="M136-795h240v60H136z" stroke="#000" stroke-opacity="0" stroke-width="2" fill="#fff" fill-opacity="0"/><use xlink:href="#M" transform="matrix(1,0,0,1,141,-790) translate(14.012345679012341 29.444444444444443)"/><use xlink:href="#N" transform="matrix(1,0,0,1,141,-790) translate(100.24691358024691 29.444444444444443)"/><path d="M916-632.25h78.4v-12.25l22.04 24.5-22.05 24.5v-12.25H916zM1416-590h328v-20l36 40-36 40v-20h-328zM2180-590h44v-20l36 40-36 40v-20h-44zM2460-590h84v-20l36 40-36 40v-20h-84zM2820-590h84v-20l36 40-36 40v-20h-84zM3140-617h180v107h-180z" stroke="#000" stroke-width="2" fill="#fff"/><use xlink:href="#O" transform="matrix(1,0,0,1,3145,-612) translate(12.099999999999994 52.6)"/><use xlink:href="#P" transform="matrix(1,0,0,1,3145,-612) translate(81 52.6)"/><path d="M20 150h400v340H20z" stroke="#000" stroke-width="2" fill="#fff"/><path d="M40 210h247v60H40z" stroke="#000" stroke-width="2" fill="#fff"/><use xlink:href="#Q" transform="matrix(1,0,0,1,44.99999999999997,215) translate(0 28.6)"/><use xlink:href="#R" transform="matrix(1,0,0,1,44.99999999999997,215) translate(41 28.6)"/><path d="M40 310h360v60H40z" stroke="#000" stroke-width="2" fill="#fff"/><use xlink:href="#p" transform="matrix(1,0,0,1,45,315) translate(0 28.6)"/><use xlink:href="#H" transform="matrix(1,0,0,1,45,315) translate(59.75000000000001 28.6)"/><path d="M240 370v41.33h-40V370z" stroke="#000" stroke-opacity="0" stroke-width="2" fill="#fff" fill-opacity="0"/><use xlink:href="#K" transform="matrix(6.123233995736766e-17,1,-1,6.123233995736766e-17,234.9999999999999,375.0000000000003) translate(8.5 18.6)"/><path d="M40 165h140v40H40z" stroke="#000" stroke-opacity="0" stroke-width="2" fill="#fff" fill-opacity="0"/><use xlink:href="#S" transform="matrix(1,0,0,1,44.99999999999997,170) translate(0 18.6)"/><path d="M616-795h240v60H616z" stroke="#000" stroke-opacity="0" stroke-width="2" fill="#fff" fill-opacity="0"/><use xlink:href="#T" transform="matrix(1,0,0,1,621,-790) translate(3.5802469135802397 29.444444444444443)"/><use xlink:href="#N" transform="matrix(1,0,0,1,621,-790) translate(110.67901234567901 29.444444444444443)"/><path d="M1096-795h240v60h-240z" stroke="#000" stroke-opacity="0" stroke-width="2" fill="#fff" fill-opacity="0"/><use xlink:href="#U" transform="matrix(1,0,0,1,1101,-790) translate(42.90123456790124 29.444444444444443)"/><use xlink:href="#V" transform="matrix(1,0,0,1,1101,-790) translate(174.7530864197531 29.444444444444443)"/><path d="M106 90h240v60H106z" stroke="#000" stroke-opacity="0" stroke-width="2" fill="#fff" fill-opacity="0"/><use xlink:href="#W" transform="matrix(1,0,0,1,110.99999999999997,95) translate(26.26543209876543 29.444444444444443)"/><use xlink:href="#X" transform="matrix(1,0,0,1,110.99999999999997,95) translate(78.05555555555554 29.444444444444443)"/><path d="M126 165h140v40H126z" stroke="#000" stroke-opacity="0" stroke-width="2" fill="#fff" fill-opacity="0"/><use xlink:href="#Y" transform="matrix(1,0,0,1,130.99999999999997,170) translate(0 18.6)"/><use xlink:href="#Z" transform="matrix(1,0,0,1,130.99999999999997,170) translate(52.9 18.6)"/><path d="M280 320h120v40H280z" stroke="#000" stroke-opacity="0" stroke-width="2" fill="#fff" fill-opacity="0"/><use xlink:href="#aa" transform="matrix(1,0,0,1,285,325) translate(29.5 18.6)"/><path d="M39 410h360v60H39z" stroke="#000" stroke-width="2" fill="#fff"/><use xlink:href="#p" transform="matrix(1,0,0,1,43.99999999999997,414.9999999999999) translate(0 28.6)"/><use xlink:href="#ab" transform="matrix(1,0,0,1,43.99999999999997,414.9999999999999) translate(59.75000000000001 28.6)"/><path d="M279 420h120v40H279z" stroke="#000" stroke-opacity="0" stroke-width="2" fill="#fff" fill-opacity="0"/><use xlink:href="#aa" transform="matrix(1,0,0,1,284,424.9999999999999) translate(29.5 18.6)"/><path d="M26 600h400v340H26z" stroke="#000" stroke-width="2" fill="#fff"/><path d="M46 660h360v60H46z" stroke="#000" stroke-width="2" fill="#fff"/><use xlink:href="#ac" transform="matrix(1,0,0,1,50.99999999999997,665) translate(0 28.6)"/><use xlink:href="#ad" transform="matrix(1,0,0,1,50.99999999999997,665) translate(36.95 28.6)"/><use xlink:href="#ae" transform="matrix(1,0,0,1,50.99999999999997,665) translate(104.85000000000001 28.6)"/><path d="M46 615h140v40H46z" stroke="#000" stroke-opacity="0" stroke-width="2" fill="#fff" fill-opacity="0"/><use xlink:href="#p" transform="matrix(1,0,0,1,50.99999999999997,620) translate(0 18.6)"/><use xlink:href="#af" transform="matrix(1,0,0,1,50.99999999999997,620) translate(59.75000000000001 18.6)"/><path d="M112 540h240v60H112z" stroke="#000" stroke-opacity="0" stroke-width="2" fill="#fff" fill-opacity="0"/><use xlink:href="#ag" transform="matrix(1,0,0,1,116.99999999999997,545) translate(69.35185185185185 29.444444444444443)"/><use xlink:href="#V" transform="matrix(1,0,0,1,116.99999999999997,545) translate(148.30246913580245 29.444444444444443)"/><path d="M259 615h140v40H259z" stroke="#000" stroke-opacity="0" stroke-width="2" fill="#fff" fill-opacity="0"/><use xlink:href="#ah" transform="matrix(1,0,0,1,264,620) translate(0 18.6)"/><path d="M40 735h120v40H40z" stroke="#000" stroke-opacity="0" stroke-width="2" fill="#fff" fill-opacity="0"/><use xlink:href="#ai" transform="matrix(1,0,0,1,44.99999999999997,740) translate(0 18.6)"/><path d="M182.5 735h87v40h-87z" stroke="#000" stroke-opacity="0" stroke-width="2" fill="#fff" fill-opacity="0"/><use xlink:href="#aa" transform="matrix(1,0,0,1,187.49999999999997,740) translate(0 18.6)"/><path d="M319 735h87v40h-87z" stroke="#000" stroke-opacity="0" stroke-width="2" fill="#fff" fill-opacity="0"/><use xlink:href="#aj" transform="matrix(1,0,0,1,324,740) translate(0 18.6)"/><path d="M46 880h120v40H46z" stroke="#000" stroke-opacity="0" stroke-width="2" fill="#fff" fill-opacity="0"/><use xlink:href="#Y" transform="matrix(1,0,0,1,50.99999999999997,885.0000000000001) translate(1.125 18.6)"/><use xlink:href="#ak" transform="matrix(1,0,0,1,50.99999999999997,885.0000000000001) translate(54.025 18.6)"/><path d="M94 847.5H52c-3.3 0-6-8.95-6-20s2.7-20 6-20h42l12 20z" stroke="#000" stroke-width="2" fill="#fff"/><path d="M134 847.5H92c-3.3 0-6-8.95-6-20s2.7-20 6-20h42l12 20z" stroke="#000" stroke-width="2" fill="#fff"/><path d="M174 847.5h-42c-3.3 0-6-8.95-6-20s2.7-20 6-20h42l12 20z" stroke="#000" stroke-width="2" fill="#fff"/><path d="M214 847.5h-42c-3.3 0-6-8.95-6-20s2.7-20 6-20h42l12 20z" stroke="#000" stroke-width="2" fill="#fff"/><path d="M55.44 807.5h41.12v40H55.44z" fill="#fff" fill-opacity="0"/><use xlink:href="#al" transform="matrix(1,0,0,1,60.44444444444443,812.5) translate(0 17.77777777777778)"/><path d="M95.44 807.5h41.12v40H95.44z" fill="#fff" fill-opacity="0"/><use xlink:href="#al" transform="matrix(1,0,0,1,100.44444444444443,812.5) translate(0 17.77777777777778)"/><path d="M199 540v-44h-20l40-36 40 36h-20v44zM26 990h400v340H26z" stroke="#000" stroke-width="2" fill="#fff"/><path d="M46 1032.5h353v40H46z" stroke="#000" stroke-opacity="0" stroke-width="2" fill="#fff" fill-opacity="0"/><use xlink:href="#am" transform="matrix(1,0,0,1,50.99999999999997,1037.5) translate(0 18.6)"/><use xlink:href="#l" transform="matrix(1,0,0,1,50.99999999999997,1037.5) translate(34.9 18.6)"/><use xlink:href="#an" transform="matrix(1,0,0,1,50.99999999999997,1037.5) translate(53.849999999999994 18.6)"/><use xlink:href="#ao" transform="matrix(1,0,0,1,50.99999999999997,1037.5) translate(110.75 18.6)"/><use xlink:href="#ap" transform="matrix(1,0,0,1,50.99999999999997,1037.5) translate(136.7 18.6)"/><use xlink:href="#aq" transform="matrix(1,0,0,1,50.99999999999997,1037.5) translate(201.6 18.6)"/><path d="M199 1000v-44h-20l40-36 40 36h-20v44zM46 1073h80v60H46z" stroke="#000" stroke-width="2" fill="#fff"/><use xlink:href="#ar" transform="matrix(1,0,0,1,50.99999999999997,1078) translate(0 28.6)"/><path d="M156 1072.5h131v60H156z" stroke="#000" stroke-width="2" fill="#fff"/><use xlink:href="#as" transform="matrix(1,0,0,1,160.99999999999997,1077.5) translate(0 28.6)"/><path d="M44.5 1150h131v60h-131z" stroke="#000" stroke-width="2" fill="#fff"/><use xlink:href="#at" transform="matrix(1,0,0,1,49.49999999999997,1155) translate(0 28.6)"/><path d="M45 1227h186v60H45z" stroke="#000" stroke-width="2" fill="#fff"/><use xlink:href="#au" transform="matrix(1,0,0,1,50,1232) translate(0 28.6)"/><path d="M826 150h400v340H826z" stroke="#000" stroke-width="2" fill="#fff"/><path d="M706 270h84v-20l36 40-36 40v-20h-84z" stroke="#000" stroke-opacity="0" stroke-width="2" fill="#b2b2b2"/><path d="M826 60h400v90H826z" stroke="#000" stroke-opacity="0" stroke-width="2" fill="#fff" fill-opacity="0"/><use xlink:href="#av" transform="matrix(1,0,0,1,831,65) translate(60.64814814814815 31.111111111111114)"/><use xlink:href="#aw" transform="matrix(1,0,0,1,831,65) translate(126.08024691358025 31.111111111111114)"/><use xlink:href="#ax" transform="matrix(1,0,0,1,831,65) translate(222.31481481481484 31.111111111111114)"/><use xlink:href="#ay" transform="matrix(1,0,0,1,831,65) translate(308.48765432098764 31.111111111111114)"/><use xlink:href="#az" transform="matrix(1,0,0,1,831,65) translate(130.4320987654321 57.77777777777778)"/><path d="M846 165h360v40H846z" stroke="#000" stroke-opacity="0" stroke-width="2" fill="#fff" fill-opacity="0"/><use xlink:href="#aA" transform="matrix(1,0,0,1,851,170) translate(0 18.6)"/><use xlink:href="#aB" transform="matrix(1,0,0,1,851,170) translate(28.950000000000003 18.6)"/><use xlink:href="#aC" transform="matrix(1,0,0,1,851,170) translate(88.70000000000002 18.6)"/><path d="M846 200h360v40H846z" stroke="#000" stroke-opacity="0" stroke-width="2" fill="#fff" fill-opacity="0"/><use xlink:href="#aD" transform="matrix(1,0,0,1,851,205) translate(0 18.6)"/><use xlink:href="#aE" transform="matrix(1,0,0,1,851,205) translate(51.85 18.6)"/><path d="M846 240h360v170H846zM1186 430c11.05 0 20 8.95 20 20s-8.95 20-20 20h-60c-11.05 0-20-8.95-20-20s8.95-20 20-20z" stroke="#000" stroke-width="2" fill="#fff"/><use xlink:href="#aF" transform="matrix(1,0,0,1,1111,435.00000000000006) translate(24 18.6)"/><path d="M866 427.5h80V510c-13.36-13.78-21.68-13.78-26.72-13.78-8 0-18.64 13.78-26.64 13.78-4.96 0-13.36 0-26.64-13.78z" stroke="#000" stroke-width="2" fill="#fff"/><use xlink:href="#aG" transform="matrix(1,0,0,1,871,432.5) translate(17.049999999999997 33.1)"/><path d="M866 1073h320v90H866z" stroke="#000" stroke-opacity="0" stroke-width="2" fill="#fff" fill-opacity="0"/><use xlink:href="#aH" transform="matrix(1,0,0,1,871,1078) translate(28.117283950617264 44.44444444444444)"/><use xlink:href="#aI" transform="matrix(1,0,0,1,871,1078) translate(100.8333333333333 44.44444444444444)"/><use xlink:href="#aJ" transform="matrix(1,0,0,1,871,1078) translate(150.1543209876543 44.44444444444444)"/><use xlink:href="#aK" transform="matrix(1,0,0,1,871,1078) translate(207.99382716049382 44.44444444444444)"/><path d="M925 1143.33h69.96v55.54H925zM994.96 1198.87H1045v-22.2h-9.96l-10.08-22.2h-30v44.4m10.08-38.87h15l7.44 16.67h-22.44V1160m-10.08 38.87z" stroke="#000" stroke-width="2"/><path d="M994.96 1198.87H1045v-22.2h-9.96l-10.08-22.2h-30z" fill="none"/><path d="M958 1198.87c0 6.13-4.44 11.13-9.96 11.13-5.52 0-10.08-5-10.08-11.13 0-6.14 4.56-11.07 10.08-11.07 5.52 0 9.96 4.93 9.96 11.07zM1024.96 1198.87c0 6.13-4.44 11.13-9.96 11.13-5.52 0-9.96-5-9.96-11.13 0-6.14 4.44-11.07 9.96-11.07 5.52 0 9.96 4.93 9.96 11.07z" stroke="#000" stroke-width="2"/><path d="M786 525h400v90H786z" stroke="#000" stroke-opacity="0" stroke-width="2" fill="#fff" fill-opacity="0"/><use xlink:href="#aL" transform="matrix(1,0,0,1,790.9999999999998,530) translate(108.76543209876543 44.44444444444444)"/><use xlink:href="#aM" transform="matrix(1,0,0,1,790.9999999999998,530) translate(153.14814814814815 44.44444444444444)"/><path d="M939.2 597.5h73.05v48.12H939.2V597.5zM919.55 647.18h114.6c4.65 0 8.4 7.92 8.4 17.76 0 9.84-3.75 17.76-8.4 17.76h-114.6c-4.8 0-8.55-7.92-8.55-17.76 0-9.84 3.75-17.76 8.55-17.76zM934.7 684.26h83.7v27.72h-83.7v-27.72z"/><path d="M911 663.26h21.9v33.6H911v-33.6z"/><path d="M1039.7 683.3c-4.2 18.72 1.5 22.56 1.2 25.32-.15 2.76 15.45 19.44 15.9-4.44.6-23.88-2.25-23.4-2.25-23.4l-1.35-.48s.15 0 .3 3.84c.3 3.96 1.8 6.12 1.65 13.32-.15 7.32 1.2 10.32 0 12.84-1.05 2.52-2.4 6.72-6 4.2-3.6-2.52-6-3.6-7.65-10.32-1.65-6.72-.75-20.28-.75-20.28l-1.05-.6z" fill="#333"/><path d="M1020.8 663.5h21.75v34.44h-21.75V663.5z"/><path d="M951.2 697.58h50.85l.75.72-51.6.84-.75-.84z" fill="#fff"/><path d="M1054.7 649.94c3.45 0 6.3 2.4 6.3 5.4v25.8c0 3-2.85 5.4-6.3 5.4-3.45 0-6.3-2.4-6.3-5.4v-25.8c0-3 2.85-5.4 6.3-5.4z"/><path d="M1020.95 653.42c0 .84-.75 1.44-1.65 1.44-.9 0-1.5-.6-1.5-1.44 0-.72.6-1.32 1.5-1.32s1.65.6 1.65 1.32zM1026.95 653.42c0 .84-.75 1.44-1.65 1.44-.75 0-1.5-.6-1.5-1.44 0-.72.75-1.32 1.5-1.32.9 0 1.65.6 1.65 1.32zM1033.25 653.42c0 .84-.75 1.44-1.65 1.44-.9 0-1.5-.6-1.5-1.44 0-.72.6-1.32 1.5-1.32s1.65.6 1.65 1.32zM1020.95 657.62c0 .84-.75 1.44-1.5 1.44-.9 0-1.65-.6-1.65-1.44 0-.72.75-1.32 1.65-1.32.75 0 1.5.6 1.5 1.32zM1026.95 657.62c0 .84-.6 1.44-1.5 1.44s-1.65-.6-1.65-1.44c0-.72.75-1.32 1.65-1.32.9 0 1.5.6 1.5 1.32zM1033.25 657.62c0 .84-.75 1.44-1.5 1.44-.9 0-1.65-.6-1.65-1.44 0-.72.75-1.32 1.65-1.32.75 0 1.5.6 1.5 1.32zM1020.95 661.82c0 .72-.75 1.32-1.65 1.32-.9 0-1.5-.6-1.5-1.32 0-.72.6-1.32 1.5-1.32s1.65.6 1.65 1.32zM1026.95 661.82c0 .72-.75 1.32-1.65 1.32-.75 0-1.5-.6-1.5-1.32 0-.72.75-1.32 1.5-1.32.9 0 1.65.6 1.65 1.32zM1033.25 661.82c0 .72-.75 1.32-1.65 1.32-.9 0-1.5-.6-1.5-1.32 0-.72.6-1.32 1.5-1.32s1.65.6 1.65 1.32zM1020.95 666.14c0 .72-.75 1.32-1.65 1.32-.9 0-1.5-.6-1.5-1.32 0-.84.6-1.44 1.5-1.44s1.65.6 1.65 1.44zM1026.95 666.14c0 .72-.75 1.32-1.65 1.32-.75 0-1.5-.6-1.5-1.32 0-.84.75-1.44 1.5-1.44.9 0 1.65.6 1.65 1.44zM1033.25 666.14c0 .72-.75 1.32-1.65 1.32-.9 0-1.5-.6-1.5-1.32 0-.84.6-1.44 1.5-1.44s1.65.6 1.65 1.44z" fill="#fff"/><g><use xlink:href="#aN" transform="matrix(1,0,0,1,880.9999999999998,717.5) translate(53.574999999999996 18.6)"/><use xlink:href="#aO" transform="matrix(1,0,0,1,880.9999999999998,717.5) translate(88.525 18.6)"/></g><path d="M886 848h320v157H886z" stroke="#000" stroke-width="2" fill="#fff"/><g><use xlink:href="#aP" transform="matrix(1,0,0,1,891,853) translate(76.14999999999999 66.3)"/><use xlink:href="#aQ" transform="matrix(1,0,0,1,891,853) translate(140.1 66.3)"/><use xlink:href="#aR" transform="matrix(1,0,0,1,891,853) translate(63.474999999999994 87.9)"/><use xlink:href="#aS" transform="matrix(1,0,0,1,891,853) translate(134.725 87.9)"/><use xlink:href="#aT" transform="matrix(1,0,0,1,891,853) translate(173.725 87.9)"/></g><path d="M605 650h245v-20l36 40-36 40v-20H605zM585 900h265v-20l36 40-36 40v-20H585zM585 1130h265v-20l36 40-36 40v-20H585z" stroke="#000" stroke-opacity="0" stroke-width="2" fill="#b2b2b2"/><path d="M1485 331c-21.54 0-39-16.12-39-36 0-15.9 10.56-29.32 26.95-34.24C1472 214 1537 205 1563 223c13-27 78-18 78 9 39-9 78 27 52 72 26 36 0 81-52 63-13 23.4-65 23.4-78 0-26 18-78 9-78-36z" stroke="#000" stroke-width="2" fill="#fff"/><g><use xlink:href="#w" transform="matrix(1,0,0,1,1451,210) translate(97.625 88.60000000000001)"/></g><path d="M1936 240h200v140h-200z" stroke="#000" stroke-width="2" fill="#fff"/><g><use xlink:href="#aU" transform="matrix(1,0,0,1,1941.0000000000002,244.99999999999994) translate(36.574999999999996 68.60000000000001)"/><use xlink:href="#aV" transform="matrix(1,0,0,1,1941.0000000000002,244.99999999999994) translate(103.525 68.60000000000001)"/></g><path d="M1226 270h184v-20l36 40-36 40v-20h-184z" stroke="#000" stroke-opacity="0" stroke-width="2" fill="#b2b2b2"/><g><path d="M1852.66 325H1732v20l-36-40 36-40v20h120.66z" stroke="#000" stroke-opacity="0" stroke-width="2" fill="#b2b2b2"/></g><path d="M1792.34 285H1913v-20l36 40-36 40v-20h-120.66z" stroke="#000" stroke-opacity="0" stroke-width="2" fill="#b2b2b2"/><g><path d="M1366 285.5v367h-40v-367z" stroke="#000" stroke-opacity="0" stroke-width="2" fill="#b2b2b2"/></g><g><path d="M1366 690h-280v-40h280z" stroke="#000" stroke-opacity="0" stroke-width="2" fill="#b2b2b2"/></g><g><path d="M1546 940h-304v20l-36-40 36-40v20h304z" stroke="#000" stroke-opacity="0" stroke-width="2" fill="#b2b2b2"/></g><path d="M1306 850h140v40h-140z" stroke="#000" stroke-opacity="0" stroke-width="2" fill="#fff" fill-opacity="0"/><g><use xlink:href="#aW" transform="matrix(1,0,0,1,1311,855) translate(46.51234567901234 19.444444444444443)"/></g><g><path d="M1675 572v571h-40V572z" stroke="#000" stroke-opacity="0" stroke-width="2" fill="#b2b2b2"/></g><g><path d="M1675 1179.5h-489v-40h489z" stroke="#000" stroke-opacity="0" stroke-width="2" fill="#b2b2b2"/></g><g><path d="M1636 579V395h-20l40-36 40 36h-20v184z" stroke="#000" stroke-opacity="0" stroke-width="2" fill="#b2b2b2"/></g><g><path d="M3260-509v829h-40v-829z" stroke="#000" stroke-opacity="0" stroke-width="2" fill="#b2b2b2"/></g><g><path d="M3260 325H2172v20l-36-40 36-40v20h1088z" stroke="#000" stroke-opacity="0" stroke-width="2" fill="#b2b2b2"/></g><g><path d="M2056 380v184h20l-40 36-40-36h20V380z" stroke="#000" stroke-opacity="0" stroke-width="2" fill="#b2b2b2"/></g><path d="M2066 630c0 16.57-13.43 30-30 30s-30-13.43-30-30 13.43-30 30-30 30 13.43 30 30z" stroke="#000" stroke-width="2" fill="#fff"/><g><use xlink:href="#aX" transform="matrix(1,0,0,1,2011.0000000000002,605) translate(19 28.6)"/></g><path d="M95 580c0 16.57-13.43 30-30 30s-30-13.43-30-30 13.43-30 30-30 30 13.43 30 30z" stroke="#000" stroke-width="2" fill="#fff"/><g><use xlink:href="#aX" transform="matrix(1,0,0,1,39.99999999999997,555) translate(19 28.6)"/></g><path d="M2260-890h200v67h-200z" stroke="#000" stroke-width="2" fill="#fff"/><g><use xlink:href="#aY" transform="matrix(1,0,0,1,2265,-885) translate(63.05 32.6)"/></g><path d="M2260-823.5h200v67h-200z" stroke="#000" stroke-width="2" fill="#fff"/><g><use xlink:href="#aZ" transform="matrix(1,0,0,1,2265,-818.5) translate(52.05 32.6)"/></g><path d="M2707.67-767.5H3230v131.26" stroke="#000" stroke-width="2" fill="none"/><path/><path d="M3230-621.24l-4.64-14.26h9.28z"/><path d="M3230-618l-6-18.5h12zm-3.26-16.5l3.26 10.03 3.26-10.03z"/><path d="M2461-856.5h798v220.26" stroke="#000" stroke-width="2" fill="none"/><path d="M2461-855.5h-1v-2h1zM3259-621.24l-4.64-14.26h9.28z"/><path d="M3259-618l-6-18.5h12zm-3.26-16.5l3.26 10.03 3.26-10.03z"/><path d="M1576 209.93V130h1600v-620.76" stroke="#000" stroke-width="2" fill="none"/><path d="M1577 210.6l-.48.2-1.52.72v-1.6h2zM3180.64-491.5h-9.28l4.64-14.26z"/><path d="M3182-490.5h-12l6-18.5zm-9.26-2h6.52l-3.26-10.03z"/><defs><path d="M143 4C61 4 22-44 18-125c-5-107 100-154 193-111 17 8 29 25 37 43l-32 9c-13-25-37-40-76-40-61 0-88 39-88 99 0 61 29 100 91 101 35 0 62-11 79-27v-45h-74v-28h105v86C228-13 192 4 143 4" id="ba"/><path d="M100-194c63 0 86 42 84 106H49c0 40 14 67 53 68 26 1 43-12 49-29l28 8c-11 28-37 45-77 45C44 4 14-33 15-96c1-61 26-98 85-98zm52 81c6-60-76-77-97-28-3 7-6 17-6 28h103" id="bb"/><path d="M117-194c89-4 53 116 60 194h-32v-121c0-31-8-49-39-48C34-167 62-67 57 0H25l-1-190h30c1 10-1 24 2 32 11-22 29-35 61-36" id="bc"/><path d="M114-163C36-179 61-72 57 0H25l-1-190h30c1 12-1 29 2 39 6-27 23-49 58-41v29" id="bd"/><path d="M141-36C126-15 110 5 73 4 37 3 15-17 15-53c-1-64 63-63 125-63 3-35-9-54-41-54-24 1-41 7-42 31l-33-3c5-37 33-52 76-52 45 0 72 20 72 64v82c-1 20 7 32 28 27v20c-31 9-61-2-59-35zM48-53c0 20 12 33 32 33 41-3 63-29 60-74-43 2-92-5-92 41" id="be"/><path d="M59-47c-2 24 18 29 38 22v24C64 9 27 4 27-40v-127H5v-23h24l9-43h21v43h35v23H59v120" id="bf"/><g id="a"><use transform="matrix(0.05,0,0,0.05,0,0)" xlink:href="#ba"/><use transform="matrix(0.05,0,0,0.05,14,0)" xlink:href="#bb"/><use transform="matrix(0.05,0,0,0.05,24,0)" xlink:href="#bc"/><use transform="matrix(0.05,0,0,0.05,34,0)" xlink:href="#bb"/><use transform="matrix(0.05,0,0,0.05,44,0)" xlink:href="#bd"/><use transform="matrix(0.05,0,0,0.05,49.95,0)" xlink:href="#be"/><use transform="matrix(0.05,0,0,0.05,59.95,0)" xlink:href="#bf"/><use transform="matrix(0.05,0,0,0.05,64.95,0)" xlink:href="#bb"/></g><path d="M30-248c87 1 191-15 191 75 0 78-77 80-158 76V0H30v-248zm33 125c57 0 124 11 124-50 0-59-68-47-124-48v98" id="bg"/><path d="M96-169c-40 0-48 33-48 73s9 75 48 75c24 0 41-14 43-38l32 2c-6 37-31 61-74 61-59 0-76-41-82-99-10-93 101-131 147-64 4 7 5 14 7 22l-32 3c-4-21-16-35-41-35" id="bh"/><path d="M143 0L79-87 56-68V0H24v-261h32v163l83-92h37l-77 82L181 0h-38" id="bi"/><path d="M177-190C167-65 218 103 67 71c-23-6-38-20-44-43l32-5c15 47 100 32 89-28v-30C133-14 115 1 83 1 29 1 15-40 15-95c0-56 16-97 71-98 29-1 48 16 59 35 1-10 0-23 2-32h30zM94-22c36 0 50-32 50-73 0-42-14-75-50-75-39 0-46 34-46 75s6 73 46 73" id="bj"/><g id="b"><use transform="matrix(0.05,0,0,0.05,0,0)" xlink:href="#bg"/><use transform="matrix(0.05,0,0,0.05,12,0)" xlink:href="#be"/><use transform="matrix(0.05,0,0,0.05,22,0)" xlink:href="#bh"/><use transform="matrix(0.05,0,0,0.05,31,0)" xlink:href="#bi"/><use transform="matrix(0.05,0,0,0.05,40,0)" xlink:href="#be"/><use transform="matrix(0.05,0,0,0.05,50,0)" xlink:href="#bj"/><use transform="matrix(0.05,0,0,0.05,60,0)" xlink:href="#bb"/></g><path d="M140-251c81 0 123 46 123 126C263-53 228-8 163 1c7 30 30 48 69 40v23c-55 16-95-15-103-61C56-3 17-48 17-125c0-80 42-126 123-126zm0 227c63 0 89-41 89-101s-29-99-89-99c-61 0-89 39-89 99S79-25 140-24" id="bk"/><path d="M84 4C-5 8 30-112 23-190h32v120c0 31 7 50 39 49 72-2 45-101 50-169h31l1 190h-30c-1-10 1-25-2-33-11 22-28 36-60 37" id="bl"/><path d="M100-194c62-1 85 37 85 99 1 63-27 99-86 99S16-35 15-95c0-66 28-99 85-99zM99-20c44 1 53-31 53-75 0-43-8-75-51-75s-53 32-53 75 10 74 51 75" id="bm"/><g id="c"><use transform="matrix(0.05,0,0,0.05,0,0)" xlink:href="#bk"/><use transform="matrix(0.05,0,0,0.05,14,0)" xlink:href="#bl"/><use transform="matrix(0.05,0,0,0.05,24,0)" xlink:href="#bm"/><use transform="matrix(0.05,0,0,0.05,34,0)" xlink:href="#bf"/><use transform="matrix(0.05,0,0,0.05,39,0)" xlink:href="#bb"/></g><path d="M115-194c55 1 70 41 70 98S169 2 115 4C84 4 66-9 55-30l1 105H24l-1-265h31l2 30c10-21 28-34 59-34zm-8 174c40 0 45-34 45-75s-6-73-45-74c-42 0-51 32-51 76 0 43 10 73 51 73" id="bn"/><path d="M135-143c-3-34-86-38-87 0 15 53 115 12 119 90S17 21 10-45l28-5c4 36 97 45 98 0-10-56-113-15-118-90-4-57 82-63 122-42 12 7 21 19 24 35" id="bo"/><path d="M24 0v-261h32V0H24" id="bp"/><g id="d"><use transform="matrix(0.05,0,0,0.05,0,0)" xlink:href="#bg"/><use transform="matrix(0.05,0,0,0.05,12,0)" xlink:href="#bd"/><use transform="matrix(0.05,0,0,0.05,17.95,0)" xlink:href="#bm"/><use transform="matrix(0.05,0,0,0.05,27.950000000000003,0)" xlink:href="#bn"/><use transform="matrix(0.05,0,0,0.05,37.95,0)" xlink:href="#bm"/><use transform="matrix(0.05,0,0,0.05,47.95,0)" xlink:href="#bo"/><use transform="matrix(0.05,0,0,0.05,56.95,0)" xlink:href="#be"/><use transform="matrix(0.05,0,0,0.05,66.95,0)" xlink:href="#bp"/></g><path d="M24-231v-30h32v30H24zM24 0v-190h32V0H24" id="bq"/><g id="e"><use transform="matrix(0.05,0,0,0.05,0,0)" xlink:href="#bg"/><use transform="matrix(0.05,0,0,0.05,12,0)" xlink:href="#bd"/><use transform="matrix(0.05,0,0,0.05,17.95,0)" xlink:href="#bq"/><use transform="matrix(0.05,0,0,0.05,21.9,0)" xlink:href="#bc"/><use transform="matrix(0.05,0,0,0.05,31.899999999999995,0)" xlink:href="#bf"/><use transform="matrix(0.05,0,0,0.05,36.9,0)" xlink:href="#bb"/><use transform="matrix(0.05,0,0,0.05,46.9,0)" xlink:href="#bd"/></g><g id="f"><use transform="matrix(0.05,0,0,0.05,0,0)" xlink:href="#bg"/><use transform="matrix(0.05,0,0,0.05,12,0)" xlink:href="#bd"/><use transform="matrix(0.05,0,0,0.05,17.95,0)" xlink:href="#bq"/><use transform="matrix(0.05,0,0,0.05,21.9,0)" xlink:href="#bc"/><use transform="matrix(0.05,0,0,0.05,31.899999999999995,0)" xlink:href="#bf"/></g><path d="M85-194c31 0 48 13 60 33l-1-100h32l1 261h-30c-2-10 0-23-3-31C134-8 116 4 85 4 32 4 16-35 15-94c0-66 23-100 70-100zm9 24c-40 0-46 34-46 75 0 40 6 74 45 74 42 0 51-32 51-76 0-42-9-74-50-73" id="br"/><g id="g"><use transform="matrix(0.05,0,0,0.05,0,0)" xlink:href="#be"/><use transform="matrix(0.05,0,0,0.05,10,0)" xlink:href="#bc"/><use transform="matrix(0.05,0,0,0.05,20,0)" xlink:href="#br"/></g><g id="h"><use transform="matrix(0.05,0,0,0.05,0,0)" xlink:href="#bh"/><use transform="matrix(0.05,0,0,0.05,9,0)" xlink:href="#be"/><use transform="matrix(0.05,0,0,0.05,19,0)" xlink:href="#bp"/><use transform="matrix(0.05,0,0,0.05,22.95,0)" xlink:href="#bp"/></g><path d="M210-169c-67 3-38 105-44 169h-31v-121c0-29-5-50-35-48C34-165 62-65 56 0H25l-1-190h30c1 10-1 24 2 32 10-44 99-50 107 0 11-21 27-35 58-36 85-2 47 119 55 194h-31v-121c0-29-5-49-35-48" id="bs"/><g id="i"><use transform="matrix(0.05,0,0,0.05,0,0)" xlink:href="#bh"/><use transform="matrix(0.05,0,0,0.05,9,0)" xlink:href="#bl"/><use transform="matrix(0.05,0,0,0.05,19,0)" xlink:href="#bo"/><use transform="matrix(0.05,0,0,0.05,28,0)" xlink:href="#bf"/><use transform="matrix(0.05,0,0,0.05,33,0)" xlink:href="#bm"/><use transform="matrix(0.05,0,0,0.05,43,0)" xlink:href="#bs"/><use transform="matrix(0.05,0,0,0.05,57.95,0)" xlink:href="#bb"/><use transform="matrix(0.05,0,0,0.05,67.95,0)" xlink:href="#bd"/></g><g id="j"><use transform="matrix(0.05,0,0,0.05,0,0)" xlink:href="#bf"/><use transform="matrix(0.05,0,0,0.05,5,0)" xlink:href="#bm"/></g><g id="k"><use transform="matrix(0.05,0,0,0.05,0,0)" xlink:href="#bf"/><use transform="matrix(0.05,0,0,0.05,5,0)" xlink:href="#be"/><use transform="matrix(0.05,0,0,0.05,15,0)" xlink:href="#bp"/><use transform="matrix(0.05,0,0,0.05,18.95,0)" xlink:href="#bi"/></g><g id="l"><use transform="matrix(0.05,0,0,0.05,0,0)" xlink:href="#bq"/><use transform="matrix(0.05,0,0,0.05,3.95,0)" xlink:href="#bc"/></g><g id="m"><use transform="matrix(0.05,0,0,0.05,0,0)" xlink:href="#bn"/><use transform="matrix(0.05,0,0,0.05,10,0)" xlink:href="#bb"/><use transform="matrix(0.05,0,0,0.05,20,0)" xlink:href="#bd"/><use transform="matrix(0.05,0,0,0.05,25.950000000000003,0)" xlink:href="#bo"/><use transform="matrix(0.05,0,0,0.05,34.95,0)" xlink:href="#bm"/><use transform="matrix(0.05,0,0,0.05,44.95,0)" xlink:href="#bc"/></g><path d="M212-179c-10-28-35-45-73-45-59 0-87 40-87 99 0 60 29 101 89 101 43 0 62-24 78-52l27 14C228-24 195 4 139 4 59 4 22-46 18-125c-6-104 99-153 187-111 19 9 31 26 39 46" id="bt"/><g id="n"><use transform="matrix(0.05,0,0,0.05,0,0)" xlink:href="#bt"/><use transform="matrix(0.05,0,0,0.05,12.950000000000001,0)" xlink:href="#bl"/><use transform="matrix(0.05,0,0,0.05,22.950000000000003,0)" xlink:href="#bo"/><use transform="matrix(0.05,0,0,0.05,31.950000000000003,0)" xlink:href="#bf"/><use transform="matrix(0.05,0,0,0.05,36.95,0)" xlink:href="#bm"/><use transform="matrix(0.05,0,0,0.05,46.95,0)" xlink:href="#bs"/><use transform="matrix(0.05,0,0,0.05,61.900000000000006,0)" xlink:href="#bb"/><use transform="matrix(0.05,0,0,0.05,71.9,0)" xlink:href="#bd"/></g><path d="M205 0l-28-72H64L36 0H1l101-248h38L239 0h-34zm-38-99l-47-123c-12 45-31 82-46 123h93" id="bu"/><g id="o"><use transform="matrix(0.05,0,0,0.05,0,0)" xlink:href="#bu"/><use transform="matrix(0.05,0,0,0.05,12,0)" xlink:href="#bj"/><use transform="matrix(0.05,0,0,0.05,22,0)" xlink:href="#bb"/><use transform="matrix(0.05,0,0,0.05,32,0)" xlink:href="#bc"/><use transform="matrix(0.05,0,0,0.05,42,0)" xlink:href="#bf"/></g><g id="p"><use transform="matrix(0.05,0,0,0.05,0,0)" xlink:href="#bt"/><use transform="matrix(0.05,0,0,0.05,12.950000000000001,0)" xlink:href="#be"/><use transform="matrix(0.05,0,0,0.05,22.950000000000003,0)" xlink:href="#bd"/><use transform="matrix(0.05,0,0,0.05,28.900000000000002,0)" xlink:href="#bd"/><use transform="matrix(0.05,0,0,0.05,34.85,0)" xlink:href="#bq"/><use transform="matrix(0.05,0,0,0.05,38.800000000000004,0)" xlink:href="#bb"/><use transform="matrix(0.05,0,0,0.05,48.800000000000004,0)" xlink:href="#bd"/></g><g id="q"><use transform="matrix(0.05,0,0,0.05,0,0)" xlink:href="#bk"/><use transform="matrix(0.05,0,0,0.05,14,0)" xlink:href="#bl"/><use transform="matrix(0.05,0,0,0.05,24,0)" xlink:href="#bm"/><use transform="matrix(0.05,0,0,0.05,34,0)" xlink:href="#bf"/><use transform="matrix(0.05,0,0,0.05,39,0)" xlink:href="#bb"/></g><g id="r"><use transform="matrix(0.05,0,0,0.05,0,0)" xlink:href="#bt"/><use transform="matrix(0.05,0,0,0.05,12.950000000000001,0)" xlink:href="#bm"/><use transform="matrix(0.05,0,0,0.05,22.950000000000003,0)" xlink:href="#bs"/><use transform="matrix(0.05,0,0,0.05,37.900000000000006,0)" xlink:href="#bn"/><use transform="matrix(0.05,0,0,0.05,47.900000000000006,0)" xlink:href="#be"/><use transform="matrix(0.05,0,0,0.05,57.900000000000006,0)" xlink:href="#bd"/><use transform="matrix(0.05,0,0,0.05,63.85,0)" xlink:href="#bq"/><use transform="matrix(0.05,0,0,0.05,67.80000000000001,0)" xlink:href="#bo"/><use transform="matrix(0.05,0,0,0.05,76.80000000000001,0)" xlink:href="#bm"/><use transform="matrix(0.05,0,0,0.05,86.80000000000001,0)" xlink:href="#bc"/><use transform="matrix(0.05,0,0,0.05,96.80000000000001,0)" xlink:href="#bo"/></g><path fill="#191e3f" d="M42-118c-1-13 29-22 38-22 14 0 13 48 25 29 32-49 64-81 91-103 16-13 43-14 62-12 3 3 3 9-2 13-75 86-121 142-135 168-5 9-16 14-34 14-34 0-42-60-45-87" id="bv"/><use transform="matrix(0.14814814814814817,0,0,0.14814814814814817,0,0)" xlink:href="#bv" id="s"/><path d="M185-189c-5-48-123-54-124 2 14 75 158 14 163 119 3 78-121 87-175 55-17-10-28-26-33-46l33-7c5 56 141 63 141-1 0-78-155-14-162-118-5-82 145-84 179-34 5 7 8 16 11 25" id="bw"/><g id="t"><use transform="matrix(0.05,0,0,0.05,0,0)" xlink:href="#bw"/><use transform="matrix(0.05,0,0,0.05,12,0)" xlink:href="#bf"/><use transform="matrix(0.05,0,0,0.05,17,0)" xlink:href="#be"/><use transform="matrix(0.05,0,0,0.05,27,0)" xlink:href="#bf"/><use transform="matrix(0.05,0,0,0.05,32,0)" xlink:href="#bl"/><use transform="matrix(0.05,0,0,0.05,42,0)" xlink:href="#bo"/><use transform="matrix(0.05,0,0,0.05,51,0)" xlink:href="#bb"/><use transform="matrix(0.05,0,0,0.05,61,0)" xlink:href="#bo"/></g><g id="u"><use transform="matrix(0.05,0,0,0.05,0,0)" xlink:href="#bt"/><use transform="matrix(0.05,0,0,0.05,12.950000000000001,0)" xlink:href="#bm"/><use transform="matrix(0.05,0,0,0.05,22.950000000000003,0)" xlink:href="#bs"/><use transform="matrix(0.05,0,0,0.05,37.900000000000006,0)" xlink:href="#bs"/><use transform="matrix(0.05,0,0,0.05,52.85,0)" xlink:href="#bl"/><use transform="matrix(0.05,0,0,0.05,62.85,0)" xlink:href="#bc"/><use transform="matrix(0.05,0,0,0.05,72.85000000000001,0)" xlink:href="#bq"/><use transform="matrix(0.05,0,0,0.05,76.80000000000001,0)" xlink:href="#bh"/><use transform="matrix(0.05,0,0,0.05,85.80000000000001,0)" xlink:href="#be"/><use transform="matrix(0.05,0,0,0.05,95.80000000000001,0)" xlink:href="#bf"/><use transform="matrix(0.05,0,0,0.05,100.80000000000001,0)" xlink:href="#bq"/><use transform="matrix(0.05,0,0,0.05,104.75,0)" xlink:href="#bm"/><use transform="matrix(0.05,0,0,0.05,114.75,0)" xlink:href="#bc"/><path d="M-.9 1.25h126.55v1.32H-.9z"/></g><path d="M127-220V0H93v-220H8v-28h204v28h-85" id="bx"/><g id="v"><use transform="matrix(0.05,0,0,0.05,0,0)" xlink:href="#bx"/><use transform="matrix(0.05,0,0,0.05,8.950000000000001,0)" xlink:href="#be"/><use transform="matrix(0.05,0,0,0.05,18.950000000000003,0)" xlink:href="#bo"/><use transform="matrix(0.05,0,0,0.05,27.950000000000003,0)" xlink:href="#bi"/><use transform="matrix(0.05,0,0,0.05,36.95,0)" xlink:href="#bo"/><path d="M-.9 1.25h47.75v1.32H-.9z"/></g><g id="w"><use transform="matrix(0.05,0,0,0.05,0,0)" xlink:href="#bt"/><use transform="matrix(0.05,0,0,0.05,12.950000000000001,0)" xlink:href="#be"/><use transform="matrix(0.05,0,0,0.05,22.950000000000003,0)" xlink:href="#bd"/><use transform="matrix(0.05,0,0,0.05,28.900000000000002,0)" xlink:href="#bd"/><use transform="matrix(0.05,0,0,0.05,34.85,0)" xlink:href="#bq"/><use transform="matrix(0.05,0,0,0.05,38.800000000000004,0)" xlink:href="#bb"/><use transform="matrix(0.05,0,0,0.05,48.800000000000004,0)" xlink:href="#bd"/></g><g id="x"><use transform="matrix(0.05,0,0,0.05,0,0)" xlink:href="#bt"/><use transform="matrix(0.05,0,0,0.05,12.950000000000001,0)" xlink:href="#bl"/><use transform="matrix(0.05,0,0,0.05,22.950000000000003,0)" xlink:href="#bd"/><use transform="matrix(0.05,0,0,0.05,28.900000000000002,0)" xlink:href="#bd"/><use transform="matrix(0.05,0,0,0.05,34.85,0)" xlink:href="#bb"/><use transform="matrix(0.05,0,0,0.05,44.85,0)" xlink:href="#bc"/><use transform="matrix(0.05,0,0,0.05,54.85,0)" xlink:href="#bf"/></g><path d="M190 0L58-211 59 0H30v-248h39L202-35l-2-213h31V0h-41" id="by"/><path d="M141 0L90-78 38 0H4l68-98-65-92h35l48 74 47-74h35l-64 92 68 98h-35" id="bz"/><g id="y"><use transform="matrix(0.05,0,0,0.05,0,0)" xlink:href="#by"/><use transform="matrix(0.05,0,0,0.05,12.950000000000001,0)" xlink:href="#bb"/><use transform="matrix(0.05,0,0,0.05,22.950000000000003,0)" xlink:href="#bz"/><use transform="matrix(0.05,0,0,0.05,31.950000000000003,0)" xlink:href="#bf"/></g><g id="z"><use transform="matrix(0.05,0,0,0.05,0,0)" xlink:href="#bw"/><use transform="matrix(0.05,0,0,0.05,12,0)" xlink:href="#bf"/><use transform="matrix(0.05,0,0,0.05,17,0)" xlink:href="#bb"/><use transform="matrix(0.05,0,0,0.05,27,0)" xlink:href="#bn"/><use transform="matrix(0.05,0,0,0.05,37,0)" xlink:href="#bo"/></g><path d="M108 0H70L1-190h34L89-25l56-165h34" id="bA"/><g id="A"><use transform="matrix(0.05,0,0,0.05,0,0)" xlink:href="#bg"/><use transform="matrix(0.05,0,0,0.05,12,0)" xlink:href="#bd"/><use transform="matrix(0.05,0,0,0.05,17.95,0)" xlink:href="#bb"/><use transform="matrix(0.05,0,0,0.05,27.950000000000003,0)" xlink:href="#bA"/></g><path d="M30-248c118-7 216 8 213 122C240-48 200 0 122 0H30v-248zM63-27c89 8 146-16 146-99s-60-101-146-95v194" id="bB"/><g id="B"><use transform="matrix(0.05,0,0,0.05,0,0)" xlink:href="#bB"/><use transform="matrix(0.05,0,0,0.05,12.950000000000001,0)" xlink:href="#bb"/><use transform="matrix(0.05,0,0,0.05,22.950000000000003,0)" xlink:href="#bf"/><use transform="matrix(0.05,0,0,0.05,27.950000000000003,0)" xlink:href="#be"/><use transform="matrix(0.05,0,0,0.05,37.95,0)" xlink:href="#bq"/><use transform="matrix(0.05,0,0,0.05,41.900000000000006,0)" xlink:href="#bp"/><use transform="matrix(0.05,0,0,0.05,45.85000000000001,0)" xlink:href="#bo"/></g><path d="M30 0v-248h187v28H63v79h144v27H63v87h162V0H30" id="bC"/><g id="C"><use transform="matrix(0.05,0,0,0.05,0,0)" xlink:href="#bC"/><use transform="matrix(0.05,0,0,0.05,12,0)" xlink:href="#br"/><use transform="matrix(0.05,0,0,0.05,22,0)" xlink:href="#bq"/><use transform="matrix(0.05,0,0,0.05,25.950000000000003,0)" xlink:href="#bf"/></g><g id="D"><use transform="matrix(0.05,0,0,0.05,0,0)" xlink:href="#bu"/><use transform="matrix(0.05,0,0,0.05,12,0)" xlink:href="#bn"/><use transform="matrix(0.05,0,0,0.05,22,0)" xlink:href="#bn"/><use transform="matrix(0.05,0,0,0.05,32,0)" xlink:href="#bp"/><use transform="matrix(0.05,0,0,0.05,35.95,0)" xlink:href="#bq"/><use transform="matrix(0.05,0,0,0.05,39.900000000000006,0)" xlink:href="#bh"/><use transform="matrix(0.05,0,0,0.05,48.900000000000006,0)" xlink:href="#be"/><use transform="matrix(0.05,0,0,0.05,58.900000000000006,0)" xlink:href="#bc"/><use transform="matrix(0.05,0,0,0.05,68.9,0)" xlink:href="#bf"/></g><path d="M27 0v-27h64v-190l-56 39v-29l58-41h29v221h61V0H27" id="bD"/><use transform="matrix(0.05,0,0,0.05,0,0)" xlink:href="#bD" id="E"/><path d="M16-82v-28h88v28H16" id="bE"/><use transform="matrix(0.05,0,0,0.05,0,0)" xlink:href="#bE" id="F"/><path d="M115-194c53 0 69 39 70 98 0 66-23 100-70 100C84 3 66-7 56-30L54 0H23l1-261h32v101c10-23 28-34 59-34zm-8 174c40 0 45-34 45-75 0-40-5-75-45-74-42 0-51 32-51 76 0 43 10 73 51 73" id="bF"/><g id="G"><use transform="matrix(0.05,0,0,0.05,0,0)" xlink:href="#bw"/><use transform="matrix(0.05,0,0,0.05,12,0)" xlink:href="#bl"/><use transform="matrix(0.05,0,0,0.05,22,0)" xlink:href="#bF"/><use transform="matrix(0.05,0,0,0.05,32,0)" xlink:href="#bs"/><use transform="matrix(0.05,0,0,0.05,46.95,0)" xlink:href="#bq"/><use transform="matrix(0.05,0,0,0.05,50.900000000000006,0)" xlink:href="#bo"/><use transform="matrix(0.05,0,0,0.05,59.900000000000006,0)" xlink:href="#bo"/><use transform="matrix(0.05,0,0,0.05,68.9,0)" xlink:href="#bq"/><use transform="matrix(0.05,0,0,0.05,72.85000000000001,0)" xlink:href="#bm"/><use transform="matrix(0.05,0,0,0.05,82.85000000000001,0)" xlink:href="#bc"/></g><use transform="matrix(0.05,0,0,0.05,0,0)" xlink:href="#bD" id="H"/><path d="M101-251c82-7 93 87 43 132L82-64C71-53 59-42 53-27h129V0H18c2-99 128-94 128-182 0-28-16-43-45-43s-46 15-49 41l-32-3c6-41 34-60 81-64" id="bG"/><use transform="matrix(0.05,0,0,0.05,0,0)" xlink:href="#bG" id="I"/><use transform="matrix(0.05,0,0,0.05,0,0)" xlink:href="#bG" id="J"/><path d="M33 0v-38h34V0H33" id="bH"/><g id="K"><use transform="matrix(0.05,0,0,0.05,0,0)" xlink:href="#bH"/><use transform="matrix(0.05,0,0,0.05,5,0)" xlink:href="#bH"/><use transform="matrix(0.05,0,0,0.05,10,0)" xlink:href="#bH"/></g><path d="M206 0h-36l-40-164L89 0H53L-1-190h32L70-26l43-164h34l41 164 42-164h31" id="bI"/><g id="L"><use transform="matrix(0.05,0,0,0.05,0,0)" xlink:href="#by"/><use transform="matrix(0.05,0,0,0.05,12.950000000000001,0)" xlink:href="#bb"/><use transform="matrix(0.05,0,0,0.05,22.950000000000003,0)" xlink:href="#bI"/></g><path d="M199 0l-22-63H83L61 0H9l90-248h61L250 0h-51zm-33-102l-36-108c-10 38-24 72-36 108h72" id="bJ"/><path d="M195-6C206 82 75 100 31 46c-4-6-6-13-8-21l49-6c3 16 16 24 34 25 40 0 42-37 40-79-11 22-30 35-61 35-53 0-70-43-70-97 0-56 18-96 73-97 30 0 46 14 59 34l2-30h47zm-90-29c32 0 41-27 41-63 0-35-9-62-40-62-32 0-39 29-40 63 0 36 9 62 39 62" id="bK"/><path d="M185-48c-13 30-37 53-82 52C43 2 14-33 14-96s30-98 90-98c62 0 83 45 84 108H66c0 31 8 55 39 56 18 0 30-7 34-22zm-45-69c5-46-57-63-70-21-2 6-4 13-4 21h74" id="bL"/><path d="M135-194c87-1 58 113 63 194h-50c-7-57 23-157-34-157-59 0-34 97-39 157H25l-1-190h47c2 12-1 28 3 38 12-26 28-41 61-42" id="bM"/><path d="M190-63c-7 42-38 67-86 67-59 0-84-38-90-98-12-110 154-137 174-36l-49 2c-2-19-15-32-35-32-30 0-35 28-38 64-6 74 65 87 74 30" id="bN"/><path d="M123 10C108 53 80 86 19 72V37c35 8 53-11 59-39L3-190h52l48 148c12-52 28-100 44-148h51" id="bO"/><g id="M"><use transform="matrix(0.06172839506172839,0,0,0.06172839506172839,0,0)" xlink:href="#bJ"/><use transform="matrix(0.06172839506172839,0,0,0.06172839506172839,15.987654320987653,0)" xlink:href="#bK"/><use transform="matrix(0.06172839506172839,0,0,0.06172839506172839,29.50617283950617,0)" xlink:href="#bL"/><use transform="matrix(0.06172839506172839,0,0,0.06172839506172839,41.85185185185185,0)" xlink:href="#bM"/><use transform="matrix(0.06172839506172839,0,0,0.06172839506172839,55.37037037037037,0)" xlink:href="#bN"/><use transform="matrix(0.06172839506172839,0,0,0.06172839506172839,67.71604938271605,0)" xlink:href="#bO"/></g><path d="M24-248c120-7 223 5 221 122C244-46 201 0 124 0H24v-248zM76-40c74 7 117-18 117-86 0-67-45-88-117-82v168" id="bP"/><path d="M133-34C117-15 103 5 69 4 32 3 11-16 11-54c-1-60 55-63 116-61 1-26-3-47-28-47-18 1-26 9-28 27l-52-2c7-38 36-58 82-57s74 22 75 68l1 82c-1 14 12 18 25 15v27c-30 8-71 5-69-32zm-48 3c29 0 43-24 42-57-32 0-66-3-65 30 0 17 8 27 23 27" id="bQ"/><path d="M137-138c1-29-70-34-71-4 15 46 118 7 119 86 1 83-164 76-172 9l43-7c4 19 20 25 44 25 33 8 57-30 24-41C81-84 22-81 20-136c-2-80 154-74 161-7" id="bR"/><path d="M114-157C55-157 80-60 75 0H25v-261h50l-1 109c12-26 28-41 61-42 86-1 58 113 63 194h-50c-7-57 23-157-34-157" id="bS"/><path d="M135-194c52 0 70 43 70 98 0 56-19 99-73 100-30 1-46-15-58-35L72 0H24l1-261h50v104c11-23 29-37 60-37zM114-30c31 0 40-27 40-66 0-37-7-63-39-63s-41 28-41 65c0 36 8 64 40 64" id="bT"/><path d="M110-194c64 0 96 36 96 99 0 64-35 99-97 99-61 0-95-36-95-99 0-62 34-99 96-99zm-1 164c35 0 45-28 45-65 0-40-10-65-43-65-34 0-45 26-45 65 0 36 10 65 43 65" id="bU"/><path d="M135-150c-39-12-60 13-60 57V0H25l-1-190h47c2 13-1 29 3 40 6-28 27-53 61-41v41" id="bV"/><path d="M88-194c31-1 46 15 58 34l-1-101h50l1 261h-48c-2-10 0-23-3-31C134-8 116 4 84 4 32 4 16-41 15-95c0-56 19-97 73-99zm17 164c33 0 40-30 41-66 1-37-9-64-41-64s-38 30-39 65c0 43 13 65 39 65" id="bW"/><g id="N"><use transform="matrix(0.06172839506172839,0,0,0.06172839506172839,0,0)" xlink:href="#bP"/><use transform="matrix(0.06172839506172839,0,0,0.06172839506172839,15.987654320987653,0)" xlink:href="#bQ"/><use transform="matrix(0.06172839506172839,0,0,0.06172839506172839,28.333333333333332,0)" xlink:href="#bR"/><use transform="matrix(0.06172839506172839,0,0,0.06172839506172839,40.67901234567901,0)" xlink:href="#bS"/><use transform="matrix(0.06172839506172839,0,0,0.06172839506172839,54.19753086419753,0)" xlink:href="#bT"/><use transform="matrix(0.06172839506172839,0,0,0.06172839506172839,67.71604938271605,0)" xlink:href="#bU"/><use transform="matrix(0.06172839506172839,0,0,0.06172839506172839,81.23456790123457,0)" xlink:href="#bQ"/><use transform="matrix(0.06172839506172839,0,0,0.06172839506172839,93.58024691358025,0)" xlink:href="#bV"/><use transform="matrix(0.06172839506172839,0,0,0.06172839506172839,102.22222222222223,0)" xlink:href="#bW"/></g><path d="M63-220v92h138v28H63V0H30v-248h175v28H63" id="bX"/><g id="O"><use transform="matrix(0.05,0,0,0.05,0,0)" xlink:href="#bX"/><use transform="matrix(0.05,0,0,0.05,10.950000000000001,0)" xlink:href="#bq"/><use transform="matrix(0.05,0,0,0.05,14.9,0)" xlink:href="#bc"/><use transform="matrix(0.05,0,0,0.05,24.900000000000002,0)" xlink:href="#be"/><use transform="matrix(0.05,0,0,0.05,34.900000000000006,0)" xlink:href="#bc"/><use transform="matrix(0.05,0,0,0.05,44.900000000000006,0)" xlink:href="#bh"/><use transform="matrix(0.05,0,0,0.05,53.900000000000006,0)" xlink:href="#bb"/></g><path d="M179-190L93 31C79 59 56 82 12 73V49c39 6 53-20 64-50L1-190h34L92-34l54-156h33" id="bY"/><g id="P"><use transform="matrix(0.05,0,0,0.05,0,0)" xlink:href="#bt"/><use transform="matrix(0.05,0,0,0.05,12.950000000000001,0)" xlink:href="#bm"/><use transform="matrix(0.05,0,0,0.05,22.950000000000003,0)" xlink:href="#bs"/><use transform="matrix(0.05,0,0,0.05,37.900000000000006,0)" xlink:href="#bn"/><use transform="matrix(0.05,0,0,0.05,47.900000000000006,0)" xlink:href="#be"/><use transform="matrix(0.05,0,0,0.05,57.900000000000006,0)" xlink:href="#bc"/><use transform="matrix(0.05,0,0,0.05,67.9,0)" xlink:href="#bY"/></g><g id="Q"><use transform="matrix(0.05,0,0,0.05,0,0)" xlink:href="#bu"/><use transform="matrix(0.05,0,0,0.05,12,0)" xlink:href="#bg"/><use transform="matrix(0.05,0,0,0.05,24,0)" xlink:href="#bC"/></g><g id="R"><use transform="matrix(0.05,0,0,0.05,0,0)" xlink:href="#bu"/><use transform="matrix(0.05,0,0,0.05,12,0)" xlink:href="#bn"/><use transform="matrix(0.05,0,0,0.05,22,0)" xlink:href="#bn"/><use transform="matrix(0.05,0,0,0.05,32,0)" xlink:href="#bp"/><use transform="matrix(0.05,0,0,0.05,35.95,0)" xlink:href="#bq"/><use transform="matrix(0.05,0,0,0.05,39.900000000000006,0)" xlink:href="#bh"/><use transform="matrix(0.05,0,0,0.05,48.900000000000006,0)" xlink:href="#be"/><use transform="matrix(0.05,0,0,0.05,58.900000000000006,0)" xlink:href="#bf"/><use transform="matrix(0.05,0,0,0.05,63.900000000000006,0)" xlink:href="#bq"/><use transform="matrix(0.05,0,0,0.05,67.85000000000001,0)" xlink:href="#bm"/><use transform="matrix(0.05,0,0,0.05,77.85000000000001,0)" xlink:href="#bc"/></g><path d="M30 0v-248h33v221h125V0H30" id="bZ"/><path d="M140-251c81 0 123 46 123 126C263-46 219 4 140 4 59 4 17-45 17-125s42-126 123-126zm0 227c63 0 89-41 89-101s-29-99-89-99c-61 0-89 39-89 99S79-25 140-24" id="ca"/><path d="M160-131c35 5 61 23 61 61C221 17 115-2 30 0v-248c76 3 177-17 177 60 0 33-19 50-47 57zm-97-11c50-1 110 9 110-42 0-47-63-36-110-37v79zm0 115c55-2 124 14 124-45 0-56-70-42-124-44v89" id="cb"/><g id="S"><use transform="matrix(0.05,0,0,0.05,0,0)" xlink:href="#bZ"/><use transform="matrix(0.05,0,0,0.05,10,0)" xlink:href="#ca"/><use transform="matrix(0.05,0,0,0.05,24,0)" xlink:href="#cb"/></g><path d="M135-194c53 0 70 44 70 98 0 56-19 98-73 100-31 1-45-17-59-34 3 33 2 69 2 105H25l-1-265h48c2 10 0 23 3 31 11-24 29-35 60-35zM114-30c33 0 39-31 40-66 0-38-9-64-40-64-56 0-55 130 0 130" id="cc"/><path d="M25 0v-261h50V0H25" id="cd"/><path d="M25-224v-37h50v37H25zM25 0v-190h50V0H25" id="ce"/><path d="M115-3C79 11 28 4 28-45v-112H4v-33h27l15-45h31v45h36v33H77v99c-1 23 16 31 38 25v30" id="cf"/><g id="T"><use transform="matrix(0.06172839506172839,0,0,0.06172839506172839,0,0)" xlink:href="#bJ"/><use transform="matrix(0.06172839506172839,0,0,0.06172839506172839,15.987654320987653,0)" xlink:href="#cc"/><use transform="matrix(0.06172839506172839,0,0,0.06172839506172839,29.50617283950617,0)" xlink:href="#cc"/><use transform="matrix(0.06172839506172839,0,0,0.06172839506172839,43.02469135802469,0)" xlink:href="#cd"/><use transform="matrix(0.06172839506172839,0,0,0.06172839506172839,49.19753086419753,0)" xlink:href="#ce"/><use transform="matrix(0.06172839506172839,0,0,0.06172839506172839,55.370370370370374,0)" xlink:href="#bN"/><use transform="matrix(0.06172839506172839,0,0,0.06172839506172839,67.71604938271605,0)" xlink:href="#bQ"/><use transform="matrix(0.06172839506172839,0,0,0.06172839506172839,80.06172839506173,0)" xlink:href="#bM"/><use transform="matrix(0.06172839506172839,0,0,0.06172839506172839,93.58024691358025,0)" xlink:href="#cf"/></g><path d="M169-182c-1-43-94-46-97-3 18 66 151 10 154 114 3 95-165 93-204 36-6-8-10-19-12-30l50-8c3 46 112 56 116 5-17-69-150-10-154-114-4-87 153-88 188-35 5 8 8 18 10 28" id="cg"/><path d="M85 4C-2 5 27-109 22-190h50c7 57-23 150 33 157 60-5 35-97 40-157h50l1 190h-47c-2-12 1-28-3-38-12 25-28 42-61 42" id="ch"/><path d="M220-157c-53 9-28 100-34 157h-49v-107c1-27-5-49-29-50C55-147 81-57 75 0H25l-1-190h47c2 12-1 28 3 38 10-53 101-56 108 0 13-22 24-43 59-42 82 1 51 116 57 194h-49v-107c-1-25-5-48-29-50" id="ci"/><g id="U"><use transform="matrix(0.06172839506172839,0,0,0.06172839506172839,0,0)" xlink:href="#cg"/><use transform="matrix(0.06172839506172839,0,0,0.06172839506172839,14.814814814814813,0)" xlink:href="#ch"/><use transform="matrix(0.06172839506172839,0,0,0.06172839506172839,28.33333333333333,0)" xlink:href="#bT"/><use transform="matrix(0.06172839506172839,0,0,0.06172839506172839,41.85185185185185,0)" xlink:href="#ci"/><use transform="matrix(0.06172839506172839,0,0,0.06172839506172839,61.60493827160494,0)" xlink:href="#ce"/><use transform="matrix(0.06172839506172839,0,0,0.06172839506172839,67.77777777777777,0)" xlink:href="#bR"/><use transform="matrix(0.06172839506172839,0,0,0.06172839506172839,80.12345679012346,0)" xlink:href="#bR"/><use transform="matrix(0.06172839506172839,0,0,0.06172839506172839,92.46913580246914,0)" xlink:href="#ce"/><use transform="matrix(0.06172839506172839,0,0,0.06172839506172839,98.64197530864197,0)" xlink:href="#bU"/><use transform="matrix(0.06172839506172839,0,0,0.06172839506172839,112.1604938271605,0)" xlink:href="#bM"/></g><path d="M23 0v-37h61v-169l-59 37v-38l62-41h46v211h57V0H23" id="cj"/><use transform="matrix(0.06172839506172839,0,0,0.06172839506172839,0,0)" xlink:href="#cj" id="V"/><path d="M175 0L67-191c6 58 2 128 3 191H24v-248h59L193-55c-6-58-2-129-3-193h46V0h-61" id="ck"/><path d="M231 0h-52l-39-155L100 0H48L-1-190h46L77-45c9-52 24-97 36-145h53l37 145 32-145h46" id="cl"/><g id="W"><use transform="matrix(0.06172839506172839,0,0,0.06172839506172839,0,0)" xlink:href="#ck"/><use transform="matrix(0.06172839506172839,0,0,0.06172839506172839,15.987654320987653,0)" xlink:href="#bL"/><use transform="matrix(0.06172839506172839,0,0,0.06172839506172839,28.333333333333332,0)" xlink:href="#cl"/></g><g id="X"><use transform="matrix(0.06172839506172839,0,0,0.06172839506172839,0,0)" xlink:href="#cg"/><use transform="matrix(0.06172839506172839,0,0,0.06172839506172839,14.814814814814813,0)" xlink:href="#ch"/><use transform="matrix(0.06172839506172839,0,0,0.06172839506172839,28.33333333333333,0)" xlink:href="#bT"/><use transform="matrix(0.06172839506172839,0,0,0.06172839506172839,41.85185185185185,0)" xlink:href="#ci"/><use transform="matrix(0.06172839506172839,0,0,0.06172839506172839,61.60493827160494,0)" xlink:href="#ce"/><use transform="matrix(0.06172839506172839,0,0,0.06172839506172839,67.77777777777777,0)" xlink:href="#bR"/><use transform="matrix(0.06172839506172839,0,0,0.06172839506172839,80.12345679012346,0)" xlink:href="#bR"/><use transform="matrix(0.06172839506172839,0,0,0.06172839506172839,92.46913580246914,0)" xlink:href="#ce"/><use transform="matrix(0.06172839506172839,0,0,0.06172839506172839,98.64197530864197,0)" xlink:href="#bU"/><use transform="matrix(0.06172839506172839,0,0,0.06172839506172839,112.1604938271605,0)" xlink:href="#bM"/></g><g id="Y"><use transform="matrix(0.05,0,0,0.05,0,0)" xlink:href="#bg"/><use transform="matrix(0.05,0,0,0.05,12,0)" xlink:href="#bm"/><use transform="matrix(0.05,0,0,0.05,22,0)" xlink:href="#bp"/><use transform="matrix(0.05,0,0,0.05,25.950000000000003,0)" xlink:href="#bq"/><use transform="matrix(0.05,0,0,0.05,29.899999999999995,0)" xlink:href="#bh"/><use transform="matrix(0.05,0,0,0.05,38.9,0)" xlink:href="#bY"/></g><g id="Z"><use transform="matrix(0.05,0,0,0.05,0,0)" xlink:href="#bB"/><use transform="matrix(0.05,0,0,0.05,12.950000000000001,0)" xlink:href="#be"/><use transform="matrix(0.05,0,0,0.05,22.950000000000003,0)" xlink:href="#bf"/><use transform="matrix(0.05,0,0,0.05,27.950000000000003,0)" xlink:href="#bb"/></g><g id="aa"><use transform="matrix(0.05,0,0,0.05,0,0)" xlink:href="#bw"/><use transform="matrix(0.05,0,0,0.05,12,0)" xlink:href="#bf"/><use transform="matrix(0.05,0,0,0.05,17,0)" xlink:href="#be"/><use transform="matrix(0.05,0,0,0.05,27,0)" xlink:href="#bf"/><use transform="matrix(0.05,0,0,0.05,32,0)" xlink:href="#bl"/><use transform="matrix(0.05,0,0,0.05,42,0)" xlink:href="#bo"/></g><use transform="matrix(0.05,0,0,0.05,0,0)" xlink:href="#bc" id="ab"/><g id="ac"><use transform="matrix(0.05,0,0,0.05,0,0)" xlink:href="#bB"/><use transform="matrix(0.05,0,0,0.05,12.950000000000001,0)" xlink:href="#bm"/><use transform="matrix(0.05,0,0,0.05,22.950000000000003,0)" xlink:href="#bh"/></g><g id="ad"><use transform="matrix(0.05,0,0,0.05,0,0)" xlink:href="#bo"/><use transform="matrix(0.05,0,0,0.05,9,0)" xlink:href="#bb"/><use transform="matrix(0.05,0,0,0.05,19,0)" xlink:href="#bp"/><use transform="matrix(0.05,0,0,0.05,22.95,0)" xlink:href="#bb"/><use transform="matrix(0.05,0,0,0.05,32.95,0)" xlink:href="#bh"/><use transform="matrix(0.05,0,0,0.05,41.95,0)" xlink:href="#bf"/><use transform="matrix(0.05,0,0,0.05,46.95,0)" xlink:href="#bm"/><use transform="matrix(0.05,0,0,0.05,56.95,0)" xlink:href="#bd"/></g><g id="ae"><use transform="matrix(0.05,0,0,0.05,0,0)" xlink:href="#bs"/><use transform="matrix(0.05,0,0,0.05,14.950000000000001,0)" xlink:href="#bm"/><use transform="matrix(0.05,0,0,0.05,24.950000000000003,0)" xlink:href="#br"/><use transform="matrix(0.05,0,0,0.05,34.95,0)" xlink:href="#be"/><use transform="matrix(0.05,0,0,0.05,44.95,0)" xlink:href="#bp"/></g><g id="af"><use transform="matrix(0.05,0,0,0.05,0,0)" xlink:href="#by"/><use transform="matrix(0.05,0,0,0.05,12.950000000000001,0)" xlink:href="#be"/><use transform="matrix(0.05,0,0,0.05,22.950000000000003,0)" xlink:href="#bs"/><use transform="matrix(0.05,0,0,0.05,37.900000000000006,0)" xlink:href="#bb"/></g><path d="M67-125c0 53 21 87 73 88 37 1 54-22 65-47l45 17C233-25 199 4 140 4 58 4 20-42 15-125 8-235 124-281 211-232c18 10 29 29 36 50l-46 12c-8-25-30-41-62-41-52 0-71 34-72 86" id="cm"/><g id="ag"><use transform="matrix(0.06172839506172839,0,0,0.06172839506172839,0,0)" xlink:href="#cm"/><use transform="matrix(0.06172839506172839,0,0,0.06172839506172839,15.987654320987653,0)" xlink:href="#bQ"/><use transform="matrix(0.06172839506172839,0,0,0.06172839506172839,28.333333333333332,0)" xlink:href="#bV"/><use transform="matrix(0.06172839506172839,0,0,0.06172839506172839,36.9753086419753,0)" xlink:href="#bV"/><use transform="matrix(0.06172839506172839,0,0,0.06172839506172839,45.61728395061728,0)" xlink:href="#ce"/><use transform="matrix(0.06172839506172839,0,0,0.06172839506172839,51.79012345679012,0)" xlink:href="#bL"/><use transform="matrix(0.06172839506172839,0,0,0.06172839506172839,64.1358024691358,0)" xlink:href="#bV"/></g><path d="M232-93c-1 65-40 97-104 97C67 4 28-28 28-90v-158h33c8 89-33 224 67 224 102 0 64-133 71-224h33v155" id="cn"/><g id="ah"><use transform="matrix(0.05,0,0,0.05,0,0)" xlink:href="#cn"/><use transform="matrix(0.05,0,0,0.05,12.950000000000001,0)" xlink:href="#bc"/><use transform="matrix(0.05,0,0,0.05,22.950000000000003,0)" xlink:href="#br"/><use transform="matrix(0.05,0,0,0.05,32.95,0)" xlink:href="#bb"/><use transform="matrix(0.05,0,0,0.05,42.95,0)" xlink:href="#bd"/><use transform="matrix(0.05,0,0,0.05,48.900000000000006,0)" xlink:href="#bI"/><use transform="matrix(0.05,0,0,0.05,61.85,0)" xlink:href="#bd"/><use transform="matrix(0.05,0,0,0.05,67.80000000000001,0)" xlink:href="#bq"/><use transform="matrix(0.05,0,0,0.05,71.75000000000001,0)" xlink:href="#bf"/><use transform="matrix(0.05,0,0,0.05,76.75000000000001,0)" xlink:href="#bb"/><use transform="matrix(0.05,0,0,0.05,86.75000000000001,0)" xlink:href="#bd"/></g><g id="ai"><use transform="matrix(0.05,0,0,0.05,0,0)" xlink:href="#by"/><use transform="matrix(0.05,0,0,0.05,12.950000000000001,0)" xlink:href="#bm"/><use transform="matrix(0.05,0,0,0.05,22.950000000000003,0)" xlink:href="#bf"/><use transform="matrix(0.05,0,0,0.05,27.950000000000003,0)" xlink:href="#bb"/><use transform="matrix(0.05,0,0,0.05,37.95,0)" xlink:href="#bo"/></g><g id="aj"><use transform="matrix(0.05,0,0,0.05,0,0)" xlink:href="#bx"/><use transform="matrix(0.05,0,0,0.05,8.950000000000001,0)" xlink:href="#be"/><use transform="matrix(0.05,0,0,0.05,18.950000000000003,0)" xlink:href="#bo"/><use transform="matrix(0.05,0,0,0.05,27.950000000000003,0)" xlink:href="#bi"/><use transform="matrix(0.05,0,0,0.05,36.95,0)" xlink:href="#bo"/></g><g id="ak"><use transform="matrix(0.05,0,0,0.05,0,0)" xlink:href="#bB"/><use transform="matrix(0.05,0,0,0.05,12.950000000000001,0)" xlink:href="#bb"/><use transform="matrix(0.05,0,0,0.05,22.950000000000003,0)" xlink:href="#bf"/><use transform="matrix(0.05,0,0,0.05,27.950000000000003,0)" xlink:href="#be"/><use transform="matrix(0.05,0,0,0.05,37.95,0)" xlink:href="#bq"/><use transform="matrix(0.05,0,0,0.05,41.900000000000006,0)" xlink:href="#bp"/><use transform="matrix(0.05,0,0,0.05,45.85000000000001,0)" xlink:href="#bo"/></g><use transform="matrix(0.06172839506172839,0,0,0.06172839506172839,0,0)" xlink:href="#bv" id="al"/><g id="am"><use transform="matrix(0.05,0,0,0.05,0,0)" xlink:href="#bg"/><use transform="matrix(0.05,0,0,0.05,12,0)" xlink:href="#bl"/><use transform="matrix(0.05,0,0,0.05,22,0)" xlink:href="#bp"/><use transform="matrix(0.05,0,0,0.05,25.950000000000003,0)" xlink:href="#bp"/></g><g id="an"><use transform="matrix(0.05,0,0,0.05,0,0)" xlink:href="#br"/><use transform="matrix(0.05,0,0,0.05,10,0)" xlink:href="#bb"/><use transform="matrix(0.05,0,0,0.05,20,0)" xlink:href="#bf"/><use transform="matrix(0.05,0,0,0.05,25,0)" xlink:href="#be"/><use transform="matrix(0.05,0,0,0.05,35,0)" xlink:href="#bq"/><use transform="matrix(0.05,0,0,0.05,38.95,0)" xlink:href="#bp"/><use transform="matrix(0.05,0,0,0.05,42.900000000000006,0)" xlink:href="#bo"/></g><path d="M101-234c-31-9-42 10-38 44h38v23H63V0H32v-167H5v-23h27c-7-52 17-82 69-68v24" id="co"/><g id="ao"><use transform="matrix(0.05,0,0,0.05,0,0)" xlink:href="#co"/><use transform="matrix(0.05,0,0,0.05,5,0)" xlink:href="#bm"/><use transform="matrix(0.05,0,0,0.05,15,0)" xlink:href="#bd"/></g><g id="ap"><use transform="matrix(0.05,0,0,0.05,0,0)" xlink:href="#bo"/><use transform="matrix(0.05,0,0,0.05,9,0)" xlink:href="#bn"/><use transform="matrix(0.05,0,0,0.05,19,0)" xlink:href="#bb"/><use transform="matrix(0.05,0,0,0.05,29,0)" xlink:href="#bh"/><use transform="matrix(0.05,0,0,0.05,38,0)" xlink:href="#bq"/><use transform="matrix(0.05,0,0,0.05,41.95,0)" xlink:href="#co"/><use transform="matrix(0.05,0,0,0.05,46.95,0)" xlink:href="#bq"/><use transform="matrix(0.05,0,0,0.05,50.900000000000006,0)" xlink:href="#bh"/></g><g id="aq"><use transform="matrix(0.05,0,0,0.05,0,0)" xlink:href="#bh"/><use transform="matrix(0.05,0,0,0.05,9,0)" xlink:href="#be"/><use transform="matrix(0.05,0,0,0.05,19,0)" xlink:href="#bd"/><use transform="matrix(0.05,0,0,0.05,24.95,0)" xlink:href="#bd"/><use transform="matrix(0.05,0,0,0.05,30.899999999999995,0)" xlink:href="#bq"/><use transform="matrix(0.05,0,0,0.05,34.85,0)" xlink:href="#bb"/><use transform="matrix(0.05,0,0,0.05,44.85,0)" xlink:href="#bd"/></g><g id="ar"><use transform="matrix(0.05,0,0,0.05,0,0)" xlink:href="#br"/><use transform="matrix(0.05,0,0,0.05,10,0)" xlink:href="#bm"/><use transform="matrix(0.05,0,0,0.05,20,0)" xlink:href="#bh"/><use transform="matrix(0.05,0,0,0.05,29,0)" xlink:href="#bo"/></g><g id="as"><use transform="matrix(0.05,0,0,0.05,0,0)" xlink:href="#bl"/><use transform="matrix(0.05,0,0,0.05,10,0)" xlink:href="#bc"/><use transform="matrix(0.05,0,0,0.05,20,0)" xlink:href="#br"/><use transform="matrix(0.05,0,0,0.05,30,0)" xlink:href="#bb"/><use transform="matrix(0.05,0,0,0.05,40,0)" xlink:href="#bd"/><use transform="matrix(0.05,0,0,0.05,45.95,0)" xlink:href="#bI"/><use transform="matrix(0.05,0,0,0.05,58.900000000000006,0)" xlink:href="#bd"/><use transform="matrix(0.05,0,0,0.05,64.85000000000001,0)" xlink:href="#bq"/><use transform="matrix(0.05,0,0,0.05,68.80000000000001,0)" xlink:href="#bf"/><use transform="matrix(0.05,0,0,0.05,73.80000000000001,0)" xlink:href="#bb"/><use transform="matrix(0.05,0,0,0.05,83.80000000000001,0)" xlink:href="#bd"/></g><path d="M145-31C134-9 116 4 85 4 32 4 16-35 15-94c0-59 17-99 70-100 32-1 48 14 60 33 0-11-1-24 2-32h30l-1 268h-32zM93-21c41 0 51-33 51-76s-8-73-50-73c-40 0-46 35-46 75s5 74 45 74" id="cp"/><g id="at"><use transform="matrix(0.05,0,0,0.05,0,0)" xlink:href="#bd"/><use transform="matrix(0.05,0,0,0.05,5.95,0)" xlink:href="#bb"/><use transform="matrix(0.05,0,0,0.05,15.949999999999998,0)" xlink:href="#cp"/><use transform="matrix(0.05,0,0,0.05,25.950000000000003,0)" xlink:href="#bl"/><use transform="matrix(0.05,0,0,0.05,35.95,0)" xlink:href="#bq"/><use transform="matrix(0.05,0,0,0.05,39.900000000000006,0)" xlink:href="#bd"/><use transform="matrix(0.05,0,0,0.05,45.85000000000001,0)" xlink:href="#bb"/><use transform="matrix(0.05,0,0,0.05,55.85,0)" xlink:href="#bs"/><use transform="matrix(0.05,0,0,0.05,70.80000000000001,0)" xlink:href="#bb"/><use transform="matrix(0.05,0,0,0.05,80.80000000000001,0)" xlink:href="#bc"/><use transform="matrix(0.05,0,0,0.05,90.80000000000001,0)" xlink:href="#bf"/><use transform="matrix(0.05,0,0,0.05,95.80000000000001,0)" xlink:href="#bo"/></g><g id="au"><use transform="matrix(0.05,0,0,0.05,0,0)" xlink:href="#cp"/><use transform="matrix(0.05,0,0,0.05,10,0)" xlink:href="#bl"/><use transform="matrix(0.05,0,0,0.05,20,0)" xlink:href="#bb"/><use transform="matrix(0.05,0,0,0.05,30,0)" xlink:href="#bo"/><use transform="matrix(0.05,0,0,0.05,39,0)" xlink:href="#bf"/><use transform="matrix(0.05,0,0,0.05,44,0)" xlink:href="#bq"/><use transform="matrix(0.05,0,0,0.05,47.95,0)" xlink:href="#bm"/><use transform="matrix(0.05,0,0,0.05,57.95,0)" xlink:href="#bc"/><use transform="matrix(0.05,0,0,0.05,67.95,0)" xlink:href="#bc"/><use transform="matrix(0.05,0,0,0.05,77.95,0)" xlink:href="#be"/><use transform="matrix(0.05,0,0,0.05,87.95,0)" xlink:href="#bq"/><use transform="matrix(0.05,0,0,0.05,91.9,0)" xlink:href="#bd"/><use transform="matrix(0.05,0,0,0.05,97.85000000000001,0)" xlink:href="#bb"/><use transform="matrix(0.05,0,0,0.05,107.85000000000001,0)" xlink:href="#bo"/></g><path d="M24 0v-248h195v40H76v63h132v40H76v65h150V0H24" id="cq"/><g id="av"><use transform="matrix(0.06172839506172839,0,0,0.06172839506172839,0,0)" xlink:href="#cq"/><use transform="matrix(0.06172839506172839,0,0,0.06172839506172839,14.814814814814813,0)" xlink:href="#ci"/><use transform="matrix(0.06172839506172839,0,0,0.06172839506172839,34.5679012345679,0)" xlink:href="#bQ"/><use transform="matrix(0.06172839506172839,0,0,0.06172839506172839,46.913580246913575,0)" xlink:href="#ce"/><use transform="matrix(0.06172839506172839,0,0,0.06172839506172839,53.08641975308642,0)" xlink:href="#cd"/></g><path d="M67-93c0 74 22 123 53 168H70C40 30 18-18 18-93s22-123 52-168h50c-32 44-53 94-53 168" id="cr"/><path d="M24-248c93 1 206-16 204 79-1 75-69 88-152 82V0H24v-248zm52 121c47 0 100 7 100-41 0-47-54-39-100-39v80" id="cs"/><g id="aw"><use transform="matrix(0.06172839506172839,0,0,0.06172839506172839,0,0)" xlink:href="#cr"/><use transform="matrix(0.06172839506172839,0,0,0.06172839506172839,7.345679012345679,0)" xlink:href="#cs"/><use transform="matrix(0.06172839506172839,0,0,0.06172839506172839,22.160493827160494,0)" xlink:href="#bV"/><use transform="matrix(0.06172839506172839,0,0,0.06172839506172839,30.80246913580247,0)" xlink:href="#ce"/><use transform="matrix(0.06172839506172839,0,0,0.06172839506172839,36.97530864197531,0)" xlink:href="#ci"/><use transform="matrix(0.06172839506172839,0,0,0.06172839506172839,56.72839506172839,0)" xlink:href="#bQ"/><use transform="matrix(0.06172839506172839,0,0,0.06172839506172839,69.07407407407408,0)" xlink:href="#bV"/><use transform="matrix(0.06172839506172839,0,0,0.06172839506172839,77.71604938271605,0)" xlink:href="#bO"/></g><g id="ax"><use transform="matrix(0.06172839506172839,0,0,0.06172839506172839,0,0)" xlink:href="#ci"/><use transform="matrix(0.06172839506172839,0,0,0.06172839506172839,19.753086419753085,0)" xlink:href="#bL"/><use transform="matrix(0.06172839506172839,0,0,0.06172839506172839,32.098765432098766,0)" xlink:href="#cf"/><use transform="matrix(0.06172839506172839,0,0,0.06172839506172839,39.44444444444444,0)" xlink:href="#bS"/><use transform="matrix(0.06172839506172839,0,0,0.06172839506172839,52.96296296296296,0)" xlink:href="#bU"/><use transform="matrix(0.06172839506172839,0,0,0.06172839506172839,66.48148148148148,0)" xlink:href="#bW"/></g><path d="M121-226c-27-7-43 5-38 36h38v33H83V0H34v-157H6v-33h28c-9-59 32-81 87-68v32" id="ct"/><g id="ay"><use transform="matrix(0.06172839506172839,0,0,0.06172839506172839,0,0)" xlink:href="#bU"/><use transform="matrix(0.06172839506172839,0,0,0.06172839506172839,13.518518518518517,0)" xlink:href="#ct"/></g><path d="M102-93c0 74-22 123-52 168H0C30 29 54-18 53-93c0-74-22-123-53-168h50c30 45 52 94 52 168" id="cu"/><g id="az"><use transform="matrix(0.06172839506172839,0,0,0.06172839506172839,0,0)" xlink:href="#bW"/><use transform="matrix(0.06172839506172839,0,0,0.06172839506172839,13.518518518518517,0)" xlink:href="#ce"/><use transform="matrix(0.06172839506172839,0,0,0.06172839506172839,19.691358024691358,0)" xlink:href="#bR"/><use transform="matrix(0.06172839506172839,0,0,0.06172839506172839,32.03703703703704,0)" xlink:href="#cf"/><use transform="matrix(0.06172839506172839,0,0,0.06172839506172839,39.382716049382715,0)" xlink:href="#bV"/><use transform="matrix(0.06172839506172839,0,0,0.06172839506172839,48.02469135802469,0)" xlink:href="#ce"/><use transform="matrix(0.06172839506172839,0,0,0.06172839506172839,54.19753086419753,0)" xlink:href="#bT"/><use transform="matrix(0.06172839506172839,0,0,0.06172839506172839,67.71604938271605,0)" xlink:href="#ch"/><use transform="matrix(0.06172839506172839,0,0,0.06172839506172839,81.23456790123457,0)" xlink:href="#cf"/><use transform="matrix(0.06172839506172839,0,0,0.06172839506172839,88.58024691358025,0)" xlink:href="#ce"/><use transform="matrix(0.06172839506172839,0,0,0.06172839506172839,94.75308641975309,0)" xlink:href="#bU"/><use transform="matrix(0.06172839506172839,0,0,0.06172839506172839,108.27160493827161,0)" xlink:href="#bM"/><use transform="matrix(0.06172839506172839,0,0,0.06172839506172839,121.79012345679013,0)" xlink:href="#cu"/></g><path d="M33-154v-36h34v36H33zM33 0v-36h34V0H33" id="cv"/><g id="aA"><use transform="matrix(0.05,0,0,0.05,0,0)" xlink:href="#bx"/><use transform="matrix(0.05,0,0,0.05,8.950000000000001,0)" xlink:href="#bm"/><use transform="matrix(0.05,0,0,0.05,18.950000000000003,0)" xlink:href="#cv"/></g><g id="aB"><use transform="matrix(0.05,0,0,0.05,0,0)" xlink:href="#bt"/><use transform="matrix(0.05,0,0,0.05,12.950000000000001,0)" xlink:href="#be"/><use transform="matrix(0.05,0,0,0.05,22.950000000000003,0)" xlink:href="#bd"/><use transform="matrix(0.05,0,0,0.05,28.900000000000002,0)" xlink:href="#bd"/><use transform="matrix(0.05,0,0,0.05,34.85,0)" xlink:href="#bq"/><use transform="matrix(0.05,0,0,0.05,38.800000000000004,0)" xlink:href="#bb"/><use transform="matrix(0.05,0,0,0.05,48.800000000000004,0)" xlink:href="#bd"/></g><g id="aC"><use transform="matrix(0.05,0,0,0.05,0,0)" xlink:href="#cn"/><use transform="matrix(0.05,0,0,0.05,12.950000000000001,0)" xlink:href="#bc"/><use transform="matrix(0.05,0,0,0.05,22.950000000000003,0)" xlink:href="#br"/><use transform="matrix(0.05,0,0,0.05,32.95,0)" xlink:href="#bb"/><use transform="matrix(0.05,0,0,0.05,42.95,0)" xlink:href="#bd"/><use transform="matrix(0.05,0,0,0.05,48.900000000000006,0)" xlink:href="#bI"/><use transform="matrix(0.05,0,0,0.05,61.85,0)" xlink:href="#bd"/><use transform="matrix(0.05,0,0,0.05,67.80000000000001,0)" xlink:href="#bq"/><use transform="matrix(0.05,0,0,0.05,71.75000000000001,0)" xlink:href="#bf"/><use transform="matrix(0.05,0,0,0.05,76.75000000000001,0)" xlink:href="#bb"/><use transform="matrix(0.05,0,0,0.05,86.75000000000001,0)" xlink:href="#bd"/></g><g id="aD"><use transform="matrix(0.05,0,0,0.05,0,0)" xlink:href="#bX"/><use transform="matrix(0.05,0,0,0.05,10.950000000000001,0)" xlink:href="#bd"/><use transform="matrix(0.05,0,0,0.05,16.900000000000002,0)" xlink:href="#bm"/><use transform="matrix(0.05,0,0,0.05,26.900000000000002,0)" xlink:href="#bs"/><use transform="matrix(0.05,0,0,0.05,41.85,0)" xlink:href="#cv"/></g><g id="aE"><use transform="matrix(0.05,0,0,0.05,0,0)" xlink:href="#bu"/><use transform="matrix(0.05,0,0,0.05,12,0)" xlink:href="#bj"/><use transform="matrix(0.05,0,0,0.05,22,0)" xlink:href="#bb"/><use transform="matrix(0.05,0,0,0.05,32,0)" xlink:href="#bc"/><use transform="matrix(0.05,0,0,0.05,42,0)" xlink:href="#bf"/></g><g id="aF"><use transform="matrix(0.05,0,0,0.05,0,0)" xlink:href="#bw"/><use transform="matrix(0.05,0,0,0.05,12,0)" xlink:href="#bb"/><use transform="matrix(0.05,0,0,0.05,22,0)" xlink:href="#bc"/><use transform="matrix(0.05,0,0,0.05,32,0)" xlink:href="#br"/></g><g id="aG"><use transform="matrix(0.05,0,0,0.05,0,0)" xlink:href="#bg"/><use transform="matrix(0.05,0,0,0.05,12,0)" xlink:href="#bB"/><use transform="matrix(0.05,0,0,0.05,24.950000000000003,0)" xlink:href="#bX"/></g><g id="aH"><use transform="matrix(0.06172839506172839,0,0,0.06172839506172839,0,0)" xlink:href="#cs"/><use transform="matrix(0.06172839506172839,0,0,0.06172839506172839,14.814814814814813,0)" xlink:href="#bU"/><use transform="matrix(0.06172839506172839,0,0,0.06172839506172839,28.33333333333333,0)" xlink:href="#bR"/><use transform="matrix(0.06172839506172839,0,0,0.06172839506172839,40.679012345679006,0)" xlink:href="#cf"/><use transform="matrix(0.06172839506172839,0,0,0.06172839506172839,48.02469135802468,0)" xlink:href="#bQ"/><use transform="matrix(0.06172839506172839,0,0,0.06172839506172839,60.37037037037036,0)" xlink:href="#cd"/></g><path d="M230 0l2-204L168 0h-37L68-204 70 0H24v-248h70l56 185 57-185h69V0h-46" id="cw"/><g id="aI"><use transform="matrix(0.06172839506172839,0,0,0.06172839506172839,0,0)" xlink:href="#cw"/><use transform="matrix(0.06172839506172839,0,0,0.06172839506172839,18.456790123456788,0)" xlink:href="#bQ"/><use transform="matrix(0.06172839506172839,0,0,0.06172839506172839,30.80246913580247,0)" xlink:href="#ce"/><use transform="matrix(0.06172839506172839,0,0,0.06172839506172839,36.97530864197531,0)" xlink:href="#cd"/></g><path d="M24 0v-248h52v208h133V0H24" id="cx"/><g id="aJ"><use transform="matrix(0.06172839506172839,0,0,0.06172839506172839,0,0)" xlink:href="#cr"/><use transform="matrix(0.06172839506172839,0,0,0.06172839506172839,7.345679012345679,0)" xlink:href="#cx"/><use transform="matrix(0.06172839506172839,0,0,0.06172839506172839,20.864197530864196,0)" xlink:href="#bU"/><use transform="matrix(0.06172839506172839,0,0,0.06172839506172839,34.382716049382715,0)" xlink:href="#cl"/></g><path d="M238-95c0 69-44 99-111 99C63 4 22-25 22-93v-155h51v151c-1 38 19 59 55 60 90 1 49-130 58-211h52v153" id="cy"/><g id="aK"><use transform="matrix(0.06172839506172839,0,0,0.06172839506172839,0,0)" xlink:href="#cy"/><use transform="matrix(0.06172839506172839,0,0,0.06172839506172839,15.987654320987653,0)" xlink:href="#bR"/><use transform="matrix(0.06172839506172839,0,0,0.06172839506172839,28.333333333333332,0)" xlink:href="#bQ"/><use transform="matrix(0.06172839506172839,0,0,0.06172839506172839,40.67901234567901,0)" xlink:href="#bK"/><use transform="matrix(0.06172839506172839,0,0,0.06172839506172839,54.19753086419753,0)" xlink:href="#bL"/><use transform="matrix(0.06172839506172839,0,0,0.06172839506172839,66.54320987654322,0)" xlink:href="#cu"/></g><path d="M76-208v77h127v40H76V0H24v-248h183v40H76" id="cz"/><path d="M144 0l-44-69L55 0H2l70-98-66-92h53l41 62 40-62h54l-67 91 71 99h-54" id="cA"/><g id="aL"><use transform="matrix(0.06172839506172839,0,0,0.06172839506172839,0,0)" xlink:href="#cz"/><use transform="matrix(0.06172839506172839,0,0,0.06172839506172839,13.518518518518517,0)" xlink:href="#bQ"/><use transform="matrix(0.06172839506172839,0,0,0.06172839506172839,25.864197530864196,0)" xlink:href="#cA"/></g><g id="aM"><use transform="matrix(0.06172839506172839,0,0,0.06172839506172839,0,0)" xlink:href="#cr"/><use transform="matrix(0.06172839506172839,0,0,0.06172839506172839,7.345679012345679,0)" xlink:href="#cg"/><use transform="matrix(0.06172839506172839,0,0,0.06172839506172839,22.160493827160494,0)" xlink:href="#bL"/><use transform="matrix(0.06172839506172839,0,0,0.06172839506172839,34.50617283950617,0)" xlink:href="#bN"/><use transform="matrix(0.06172839506172839,0,0,0.06172839506172839,46.85185185185185,0)" xlink:href="#bU"/><use transform="matrix(0.06172839506172839,0,0,0.06172839506172839,60.37037037037037,0)" xlink:href="#bM"/><use transform="matrix(0.06172839506172839,0,0,0.06172839506172839,73.88888888888889,0)" xlink:href="#bW"/><use transform="matrix(0.06172839506172839,0,0,0.06172839506172839,87.4074074074074,0)" xlink:href="#bQ"/><use transform="matrix(0.06172839506172839,0,0,0.06172839506172839,99.75308641975309,0)" xlink:href="#bV"/><use transform="matrix(0.06172839506172839,0,0,0.06172839506172839,108.39506172839506,0)" xlink:href="#bO"/><use transform="matrix(0.06172839506172839,0,0,0.06172839506172839,120.74074074074075,0)" xlink:href="#cu"/></g><g id="aN"><use transform="matrix(0.05,0,0,0.05,0,0)" xlink:href="#bX"/><use transform="matrix(0.05,0,0,0.05,10.950000000000001,0)" xlink:href="#be"/><use transform="matrix(0.05,0,0,0.05,20.950000000000003,0)" xlink:href="#bz"/></g><path d="M240 0l2-218c-23 76-54 145-80 218h-23L58-218 59 0H30v-248h44l77 211c21-75 51-140 76-211h43V0h-30" id="cB"/><path d="M106-169C34-169 62-67 57 0H25v-261h32l-1 103c12-21 28-36 61-36 89 0 53 116 60 194h-32v-121c2-32-8-49-39-48" id="cC"/><g id="aO"><use transform="matrix(0.05,0,0,0.05,0,0)" xlink:href="#cB"/><use transform="matrix(0.05,0,0,0.05,14.950000000000001,0)" xlink:href="#be"/><use transform="matrix(0.05,0,0,0.05,24.950000000000003,0)" xlink:href="#bh"/><use transform="matrix(0.05,0,0,0.05,33.95,0)" xlink:href="#cC"/><use transform="matrix(0.05,0,0,0.05,43.95,0)" xlink:href="#bq"/><use transform="matrix(0.05,0,0,0.05,47.900000000000006,0)" xlink:href="#bc"/><use transform="matrix(0.05,0,0,0.05,57.900000000000006,0)" xlink:href="#bb"/></g><g id="aP"><use transform="matrix(0.05,0,0,0.05,0,0)" xlink:href="#cm"/><use transform="matrix(0.05,0,0,0.05,12.950000000000001,0)" xlink:href="#bQ"/><use transform="matrix(0.05,0,0,0.05,22.950000000000003,0)" xlink:href="#bV"/><use transform="matrix(0.05,0,0,0.05,29.950000000000003,0)" xlink:href="#bV"/><use transform="matrix(0.05,0,0,0.05,36.95,0)" xlink:href="#ce"/><use transform="matrix(0.05,0,0,0.05,41.95,0)" xlink:href="#bL"/><use transform="matrix(0.05,0,0,0.05,51.95,0)" xlink:href="#bV"/></g><g id="aQ"><use transform="matrix(0.05,0,0,0.05,0,0)" xlink:href="#bP"/><use transform="matrix(0.05,0,0,0.05,12.950000000000001,0)" xlink:href="#bQ"/><use transform="matrix(0.05,0,0,0.05,22.950000000000003,0)" xlink:href="#bR"/><use transform="matrix(0.05,0,0,0.05,32.95,0)" xlink:href="#bS"/><use transform="matrix(0.05,0,0,0.05,43.900000000000006,0)" xlink:href="#bT"/><use transform="matrix(0.05,0,0,0.05,54.85,0)" xlink:href="#bU"/><use transform="matrix(0.05,0,0,0.05,65.80000000000001,0)" xlink:href="#bQ"/><use transform="matrix(0.05,0,0,0.05,75.80000000000001,0)" xlink:href="#bV"/><use transform="matrix(0.05,0,0,0.05,82.80000000000001,0)" xlink:href="#bW"/></g><path d="M87 75C49 33 22-17 22-94c0-76 28-126 65-167h31c-38 41-64 92-64 168S80 34 118 75H87" id="cD"/><path d="M209 0H11v-25l151-195H24v-28h176v25L50-27h159V0" id="cE"/><g id="aR"><use transform="matrix(0.05,0,0,0.05,0,0)" xlink:href="#cD"/><use transform="matrix(0.05,0,0,0.05,5.95,0)" xlink:href="#bC"/><use transform="matrix(0.05,0,0,0.05,17.95,0)" xlink:href="#cE"/><use transform="matrix(0.05,0,0,0.05,28.899999999999995,0)" xlink:href="#bZ"/><use transform="matrix(0.05,0,0,0.05,38.25,0)" xlink:href="#bY"/><use transform="matrix(0.05,0,0,0.05,47.25,0)" xlink:href="#bc"/><use transform="matrix(0.05,0,0,0.05,57.25,0)" xlink:href="#bz"/></g><g id="aS"><use transform="matrix(0.05,0,0,0.05,0,0)" xlink:href="#ca"/><use transform="matrix(0.05,0,0,0.05,14,0)" xlink:href="#bc"/><use transform="matrix(0.05,0,0,0.05,24,0)" xlink:href="#bb"/></g><path d="M33-261c38 41 65 92 65 168S71 34 33 75H2C39 34 66-17 66-93S39-220 2-261h31" id="cF"/><g id="aT"><use transform="matrix(0.05,0,0,0.05,0,0)" xlink:href="#bg"/><use transform="matrix(0.05,0,0,0.05,12,0)" xlink:href="#bp"/><use transform="matrix(0.05,0,0,0.05,15.949999999999998,0)" xlink:href="#be"/><use transform="matrix(0.05,0,0,0.05,25.950000000000003,0)" xlink:href="#bf"/><use transform="matrix(0.05,0,0,0.05,30.950000000000003,0)" xlink:href="#co"/><use transform="matrix(0.05,0,0,0.05,35.95,0)" xlink:href="#bm"/><use transform="matrix(0.05,0,0,0.05,45.95,0)" xlink:href="#bd"/><use transform="matrix(0.05,0,0,0.05,51.900000000000006,0)" xlink:href="#bs"/><use transform="matrix(0.05,0,0,0.05,66.85000000000001,0)" xlink:href="#cF"/></g><g id="aU"><use transform="matrix(0.05,0,0,0.05,0,0)" xlink:href="#ca"/><use transform="matrix(0.05,0,0,0.05,14,0)" xlink:href="#bl"/><use transform="matrix(0.05,0,0,0.05,24,0)" xlink:href="#bf"/><use transform="matrix(0.05,0,0,0.05,29,0)" xlink:href="#bp"/><use transform="matrix(0.05,0,0,0.05,32.95,0)" xlink:href="#bm"/><use transform="matrix(0.05,0,0,0.05,42.95,0)" xlink:href="#bm"/><use transform="matrix(0.05,0,0,0.05,52.95,0)" xlink:href="#bi"/></g><g id="aV"><use transform="matrix(0.05,0,0,0.05,0,0)" xlink:href="#bg"/><use transform="matrix(0.05,0,0,0.05,12,0)" xlink:href="#bp"/><use transform="matrix(0.05,0,0,0.05,15.949999999999998,0)" xlink:href="#bl"/><use transform="matrix(0.05,0,0,0.05,25.950000000000003,0)" xlink:href="#bj"/><use transform="matrix(0.05,0,0,0.05,35.95,0)" xlink:href="#bq"/><use transform="matrix(0.05,0,0,0.05,39.900000000000006,0)" xlink:href="#bc"/></g><path d="M24 0v-248h52V0H24" id="cG"/><g id="aW"><use transform="matrix(0.06172839506172839,0,0,0.06172839506172839,0,0)" xlink:href="#bJ"/><use transform="matrix(0.06172839506172839,0,0,0.06172839506172839,15.987654320987653,0)" xlink:href="#cs"/><use transform="matrix(0.06172839506172839,0,0,0.06172839506172839,30.80246913580247,0)" xlink:href="#cG"/></g><use transform="matrix(0.05,0,0,0.05,0,0)" xlink:href="#bu" id="aX"/><g id="aY"><use transform="matrix(0.05,0,0,0.05,0,0)" xlink:href="#bX"/><use transform="matrix(0.05,0,0,0.05,10.950000000000001,0)" xlink:href="#bq"/><use transform="matrix(0.05,0,0,0.05,14.9,0)" xlink:href="#bc"/><use transform="matrix(0.05,0,0,0.05,24.900000000000002,0)" xlink:href="#be"/><use transform="matrix(0.05,0,0,0.05,34.900000000000006,0)" xlink:href="#bc"/><use transform="matrix(0.05,0,0,0.05,44.900000000000006,0)" xlink:href="#bh"/><use transform="matrix(0.05,0,0,0.05,53.900000000000006,0)" xlink:href="#bb"/></g><g id="aZ"><use transform="matrix(0.05,0,0,0.05,0,0)" xlink:href="#bw"/><use transform="matrix(0.05,0,0,0.05,12,0)" xlink:href="#bq"/><use transform="matrix(0.05,0,0,0.05,15.949999999999998,0)" xlink:href="#bj"/><use transform="matrix(0.05,0,0,0.05,25.950000000000003,0)" xlink:href="#bc"/><use transform="matrix(0.05,0,0,0.05,35.95,0)" xlink:href="#be"/><use transform="matrix(0.05,0,0,0.05,45.95,0)" xlink:href="#bf"/><use transform="matrix(0.05,0,0,0.05,50.95,0)" xlink:href="#bl"/><use transform="matrix(0.05,0,0,0.05,60.95,0)" xlink:href="#bd"/><use transform="matrix(0.05,0,0,0.05,66.9,0)" xlink:href="#bb"/><use transform="matrix(0.05,0,0,0.05,76.9,0)" xlink:href="#bo"/></g></defs></g></svg>