<svg xmlns="http://www.w3.org/2000/svg" xmlns:xlink="http://www.w3.org/1999/xlink" xmlns:lucid="lucid" width="1752" height="3247.4"><g transform="translate(-8.000000000000114 -40)" lucid:page-tab-id="0_0"><path d="M0 0h1760v3952H0z" fill="#fff"/><path d="M475 260h353v160H475z" stroke="#000" stroke-width="2" fill="#fff"/><use xlink:href="#a" transform="matrix(1,0,0,1,480,265) translate(95.19999999999999 78.60000000000001)"/><use xlink:href="#b" transform="matrix(1,0,0,1,480,265) translate(154.95 78.60000000000001)"/><path d="M447 240h361v160H447z" stroke="#000" stroke-width="2" fill="#fff"/><use xlink:href="#a" transform="matrix(1,0,0,1,452,245) translate(99.19999999999999 78.60000000000001)"/><use xlink:href="#b" transform="matrix(1,0,0,1,452,245) translate(158.95 78.60000000000001)"/><path d="M220 260h140v80H220z" stroke="#000" stroke-width="2" fill="#fff"/><use xlink:href="#c" transform="matrix(1,0,0,1,225,265) translate(11.599999999999994 27.799999999999997)"/><use xlink:href="#d" transform="matrix(1,0,0,1,225,265) translate(70.5 27.799999999999997)"/><use xlink:href="#e" transform="matrix(1,0,0,1,225,265) translate(41.5 49.4)"/><path d="M420 220h368v160H420z" stroke="#000" stroke-width="2" fill="#fff"/><use xlink:href="#a" transform="matrix(1,0,0,1,425,225) translate(102.69999999999999 78.60000000000001)"/><use xlink:href="#b" transform="matrix(1,0,0,1,425,225) translate(162.45 78.60000000000001)"/><path d="M396 60h112v60H396z" stroke="#000" stroke-width="2" fill="#fff"/><use xlink:href="#f" transform="matrix(1,0,0,1,401,65) translate(23.624999999999996 28.6)"/><path d="M523.5 60h141v60h-141z" stroke="#000" stroke-width="2" fill="#fff"/><use xlink:href="#g" transform="matrix(1,0,0,1,528.5,65) translate(19.64999999999999 28.6)"/><path d="M688 60h100v60H688z" stroke="#000" stroke-width="2" fill="#fff"/><use xlink:href="#h" transform="matrix(1,0,0,1,693,65) translate(27 28.6)"/><path d="M292 60h88v60h-88z" stroke="#000" stroke-width="2" fill="#fff"/><use xlink:href="#i" transform="matrix(1,0,0,1,297,65) translate(18.525 28.6)"/><path d="M452 121v39h129.78v40.76" stroke="#000" stroke-width="2" fill="none"/><path d="M453 121h-2v-1h2zM581.78 215.76l-4.64-14.26h9.27z"/><path d="M581.78 219l-6-18.5h12zm-3.26-16.5l3.26 10.03 3.26-10.03z"/><path d="M336 121v59h174.22v20.76" stroke="#000" stroke-width="2" fill="none"/><path d="M337 121h-2v-1h2zM510.22 215.76l-4.63-14.26h9.26z"/><path d="M510.22 219l-6-18.5h12zm-3.26-16.5l3.26 10.03 3.26-10.03z"/><path d="M932.67 220h104l34.66 80-34.66 80h-104L898 300z" stroke="#000" stroke-width="2" fill="#fff"/><use xlink:href="#j" transform="matrix(1,0,0,1,903.0000000000001,225) translate(47 78.60000000000001)"/><path d="M789 300h89.67" stroke="#000" stroke-width="2" fill="none"/><path d="M789 301h-1v-2h1zM893.67 300l-14.26 4.64v-9.28z"/><path d="M896.9 300l-18.5 6v-12zm-16.5 3.26l10.04-3.26-10.03-3.26z"/><path d="M1158 259.92L1318 240v120h-160z" stroke="#000" stroke-width="2" fill="#fff"/><use xlink:href="#k" transform="matrix(1,0,0,1,1163,265) translate(52.574999999999996 48.6)"/><path d="M1148 80h180v60h-180z" stroke="#000" stroke-width="2" fill="#fff"/><use xlink:href="#g" transform="matrix(1,0,0,1,1153,85) translate(38.64999999999999 28.6)"/><path d="M1058 460h180v60h-180z" stroke="#000" stroke-width="2" fill="#fff"/><use xlink:href="#l" transform="matrix(1,0,0,1,1063,465) translate(39 28.6)"/><use xlink:href="#m" transform="matrix(1,0,0,1,1063,465) translate(91 28.6)"/><path d="M1258 460h180v60h-180z" stroke="#000" stroke-width="2" fill="#fff"/><use xlink:href="#n" transform="matrix(1,0,0,1,1263,465) translate(23.64999999999999 28.6)"/><use xlink:href="#o" transform="matrix(1,0,0,1,1263,465) translate(73.5 28.6)"/><path d="M1238 141v92.76" stroke="#000" stroke-width="2" fill="none"/><path d="M1239 141h-2v-1h2z"/><path d="M1238 248.76l-4.64-14.26h9.28z" stroke="#000" stroke-width="2"/><path d="M1148 459v-49h47.33v-30.76" stroke="#000" stroke-width="2" fill="none"/><path d="M1149 460h-2v-1h2zM1199.97 378.5h-9.27l4.63-14.26z"/><path d="M1201.35 379.5h-12.03l6-18.5zm-9.28-2h6.52l-3.27-10.03z"/><path d="M1348 459v-49h-74v-30.76" stroke="#000" stroke-width="2" fill="none"/><path d="M1349 460h-2v-1h2zM1278.64 378.5h-9.28l4.64-14.26z"/><path d="M1280 379.5h-12l6-18.5zm-9.26-2h6.52l-3.26-10.03z"/><path d="M1072.42 300h66.34" stroke="#000" stroke-width="2" fill="none"/><path d="M1072.42 301h-1.52l.43-1-.43-1h1.52zM1153.76 300l-14.26 4.64v-9.28z"/><path d="M1157 300l-18.5 6v-12zm-16.5 3.26l10.03-3.26-10.03-3.26z"/><path d="M1703.6 320c20.1 0 36.4 17.9 36.4 40s-16.3 40-36.4 40h-109.2c-20.1 0-36.4-17.9-36.4-40s16.3-40 36.4-40z" stroke="#000" stroke-width="2"/><use xlink:href="#p" transform="matrix(1,0,0,1,1563,325) translate(22.777777777777786 27)"/><use xlink:href="#q" transform="matrix(1,0,0,1,1563,325) translate(21.194444444444443 51)"/><path d="M361 300h39.76" stroke="#000" stroke-width="2" fill="none"/><path d="M361 301h-1v-2h1zM415.76 300l-14.26 4.64v-9.28z"/><path d="M419 300l-18.5 6v-12zm-16.5 3.26l10.03-3.26-10.03-3.26z"/><path d="M244 779c-13.25 0-24-10.75-24-24 0-10.6 6.5-19.55 16.58-22.83C236 701 276 695 292 707c8-18 48-12 48 6 24-6 48 18 32 48 16 24 0 54-32 42-8 15.6-40 15.6-48 0-16 12-48 6-48-24z" stroke="#000" stroke-width="2" fill="#fff"/><use xlink:href="#f" transform="matrix(1,0,0,1,225,700) translate(47.625 58.6)"/><path d="M590 680l90 75-90 75-90-75z" stroke="#000" stroke-width="2" fill="#fff"/><use xlink:href="#r" transform="matrix(1,0,0,1,505,685) translate(78 52)"/><use xlink:href="#s" transform="matrix(1,0,0,1,505,685) translate(48.05 73.60000000000001)"/><use xlink:href="#t" transform="matrix(1,0,0,1,505,685) translate(53.025 95.20000000000002)"/><path d="M220 1065h164v80H220z" stroke="#000" stroke-width="2" fill="#fff"/><use xlink:href="#u" transform="matrix(1,0,0,1,225,1070) translate(57.525 38.6)"/><path d="M508 925h164v80H508z" stroke="#000" stroke-width="2" fill="#fff"/><use xlink:href="#v" transform="matrix(1,0,0,1,513,929.9999999999995) translate(41.55 38.6)"/><path d="M508 1065h164v80H508z" stroke="#000" stroke-width="2" fill="#fff"/><use xlink:href="#w" transform="matrix(1,0,0,1,513,1070) translate(47 38.6)"/><path d="M645.6 1205c19 0 34.4 17.9 34.4 40s-15.4 40-34.4 40H542.4c-19 0-34.4-17.9-34.4-40s15.4-40 34.4-40z" stroke="#000" stroke-width="2"/><use xlink:href="#x" transform="matrix(1,0,0,1,513,1210) translate(38.969135802469125 39.888888888888886)"/><path d="M1431.33 337.5h-15.83c-20.7 0-37.5-16.8-37.5-37.5s16.8-37.5 37.5-37.5h15.83z" stroke="#000" stroke-width="2" fill="#fff"/><path d="M1319 300h39.76" stroke="#000" stroke-width="2" fill="none"/><path d="M1319 301h-1v-2h1zM1373.76 300l-14.26 4.64v-9.28z"/><path d="M1377 300l-18.5 6v-12zm-16.5 3.26l10.03-3.26-10.03-3.26z"/><path d="M1432.33 276.22h62.34V240h44.1" stroke="#000" stroke-width="2" fill="none"/><path d="M1432.33 277.22h-1v-2h1zM1553.76 240l-14.26 4.64v-9.28z"/><path d="M1557 240l-18.5 6v-12zm-16.5 3.26l10.03-3.26-10.03-3.26z"/><path d="M1432.33 324.22h62.34V360h44.1" stroke="#000" stroke-width="2" fill="none"/><path d="M1432.33 325.22h-1v-2h1zM1553.76 360l-14.26 4.64v-9.28z"/><path d="M1557 360l-18.5 6v-12zm-16.5 3.26l10.03-3.26-10.03-3.26z"/><path d="M800 705h208v100H800z" stroke="#000" stroke-width="2" fill="#fff"/><use xlink:href="#y" transform="matrix(1,0,0,1,804.9999999999999,710) translate(41.525 37.8)"/><use xlink:href="#z" transform="matrix(1,0,0,1,804.9999999999999,710) translate(106.525 37.8)"/><use xlink:href="#A" transform="matrix(1,0,0,1,804.9999999999999,710) translate(32.125 59.4)"/><use xlink:href="#B" transform="matrix(1,0,0,1,804.9999999999999,710) translate(113.97500000000001 59.4)"/><path d="M486.73 1363.73l100 90-100 90-100-90z" stroke="#000" stroke-width="2" fill="#fff"/><use xlink:href="#C" transform="matrix(1,0,0,1,391.73251028806584,1368.732510288066) translate(74.525 45.39999999999999)"/><use xlink:href="#D" transform="matrix(1,0,0,1,391.73251028806584,1368.732510288066) translate(48.099999999999994 67)"/><use xlink:href="#E" transform="matrix(1,0,0,1,391.73251028806584,1368.732510288066) translate(103.9 67)"/><use xlink:href="#F" transform="matrix(1,0,0,1,391.73251028806584,1368.732510288066) translate(36.074999999999996 88.6)"/><use xlink:href="#G" transform="matrix(1,0,0,1,391.73251028806584,1368.732510288066) translate(101.025 88.6)"/><use xlink:href="#H" transform="matrix(1,0,0,1,391.73251028806584,1368.732510288066) translate(126.975 88.6)"/><use xlink:href="#s" transform="matrix(1,0,0,1,391.73251028806584,1368.732510288066) translate(58.55 110.20000000000002)"/><use xlink:href="#I" transform="matrix(1,0,0,1,391.73251028806584,1368.732510288066) translate(73.5 131.8)"/><path d="M1638 240c0 22.1-17.9 40-40 40s-40-17.9-40-40 17.9-40 40-40 40 17.9 40 40z" stroke="#000" stroke-width="2"/><use xlink:href="#J" transform="matrix(1,0,0,1,1563,205.00000000000006) translate(27.59259259259259 40.333333333333336)"/><path d="M122 755c0 22.1-17.9 40-40 40s-40-17.9-40-40 17.9-40 40-40 40 17.9 40 40z" stroke="#000" stroke-width="2"/><use xlink:href="#J" transform="matrix(1,0,0,1,47,720) translate(27.59259259259259 40.333333333333336)"/><path d="M123 755h77.76" stroke="#000" stroke-width="2" fill="none"/><path d="M123 756h-1.06l.06-1-.04-1H123zM215.76 755l-14.26 4.64v-9.28z"/><path d="M219 755l-18.5 6v-12zm-16.5 3.26l10.03-3.26-10.03-3.26z"/><path d="M302 1064V831.18" stroke="#000" stroke-width="2" fill="none"/><path d="M303 1065h-2v-1h2zM306.64 830.44h-9.28l4.64-14.26z"/><path d="M308 831.44h-12l6-18.5zm-9.26-2h6.52L302 819.4z"/><path d="M375.73 755H480.2" stroke="#000" stroke-width="2" fill="none"/><path d="M375.73 756h-1.42l.14-.28.57-1.72h.73zM495.2 755l-14.26 4.64v-9.28z"/><path d="M498.44 755l-18.5 6v-12zm-16.5 3.26l10.03-3.26-10.03-3.26zM725.6 756h-44.04v-2h44.05zm55.16 0h-25.8v-2h25.8zM681.56 756h-2.76l1.2-1-1.2-1h2.76zM795.76 755l-14.26 4.64v-9.28z"/><path d="M799 755l-18.5 6v-12zm-16.5 3.26l10.03-3.26-10.03-3.26z"/><use xlink:href="#K" transform="matrix(1,0,0,1,725.606025,744.2) translate(0 14.4)"/><path d="M591 905.76h-2v-17.3h2zm0-38.9h-2V831.3h2zM591 831.3h-2v-2.13l1 .83 1-.83zM590 920.76l-4.64-14.26h9.28z"/><path d="M590 924l-6-18.5h12zm-3.26-16.5l3.26 10.03 3.26-10.03z"/><use xlink:href="#L" transform="matrix(1,0,0,1,578.525,866.8508539999998) translate(0 14.4)"/><path d="M590 1006v39.76" stroke="#000" stroke-width="2" fill="none"/><path d="M591 1006h-2v-1h2zM590 1060.76l-4.64-14.26h9.28z"/><path d="M590 1064l-6-18.5h12zm-3.26-16.5l3.26 10.03 3.26-10.03z"/><path d="M590 1146v39.76" stroke="#000" stroke-width="2" fill="none"/><path d="M591 1146h-2v-1h2zM590 1200.76l-4.64-14.26h9.28z"/><path d="M590 1204l-6-18.5h12zm-3.26-16.5l3.26 10.03 3.26-10.03z"/><path d="M1200 755c0 22.1-17.9 40-40 40s-40-17.9-40-40 17.9-40 40-40 40 17.9 40 40z" stroke="#000" stroke-width="2"/><use xlink:href="#M" transform="matrix(1,0,0,1,1125,720) translate(27.59259259259259 40.333333333333336)"/><path d="M1009 755h91.76" stroke="#000" stroke-width="2" fill="none"/><path d="M1009 756h-1v-2h1zM1115.76 755l-14.26 4.64v-9.28z"/><path d="M1119 755l-18.5 6v-12zm-16.5 3.26l10.03-3.26-10.03-3.26z"/><path d="M507 1105H403.24" stroke="#000" stroke-width="2" fill="none"/><path d="M508 1106h-1v-2h1zM402.5 1109.64l-14.26-4.64 14.26-4.64z"/><path d="M403.5 1111l-18.5-6 18.5-6zm-12.03-6l10.03 3.26v-6.52z"/><path d="M168.73 1453.73c0 22.1-17.9 40-40 40s-40-17.9-40-40 17.9-40 40-40 40 17.9 40 40z" stroke="#000" stroke-width="2"/><use xlink:href="#M" transform="matrix(1,0,0,1,93.73251028806584,1418.732510288066) translate(27.59259259259259 40.333333333333336)"/><path d="M169.73 1453.73H367" stroke="#000" stroke-width="2" fill="none"/><path d="M169.73 1454.73h-1.06l.06-1-.03-1h1.03zM382 1453.73l-14.26 4.64v-9.27z"/><path d="M385.24 1453.73l-18.5 6v-12zm-16.5 3.26l10.03-3.27-10.03-3.26z"/><path d="M264.33 1763.73c19 0 34.4 17.9 34.4 40s-15.4 40-34.4 40h-103.2c-19 0-34.4-17.9-34.4-40s15.4-40 34.4-40z" stroke="#000" stroke-width="2"/><use xlink:href="#x" transform="matrix(1,0,0,1,131.73251028806584,1768.732510288066) translate(38.969135802469125 39.888888888888886)"/><path d="M446.73 1680.4v-15.83c0-20.7 16.8-37.5 37.5-37.5s37.5 16.8 37.5 37.5v15.83zM366.73 1763.73h220v100h-220z" stroke="#000" stroke-width="2" fill="#fff"/><use xlink:href="#l" transform="matrix(1,0,0,1,371.7325102880659,1768.732510288066) translate(27.27499999999999 37.8)"/><use xlink:href="#N" transform="matrix(1,0,0,1,371.7325102880659,1768.732510288066) translate(79.27499999999999 37.8)"/><use xlink:href="#O" transform="matrix(1,0,0,1,371.7325102880659,1768.732510288066) translate(118.175 37.8)"/><use xlink:href="#P" transform="matrix(1,0,0,1,371.7325102880659,1768.732510288066) translate(70.1 59.4)"/><path d="M654.73 1763.73h220v100h-220z" stroke="#000" stroke-width="2" fill="#fff"/><use xlink:href="#Q" transform="matrix(1,0,0,1,659.7325102880659,1768.732510288066) translate(15.599999999999994 37.8)"/><use xlink:href="#R" transform="matrix(1,0,0,1,659.7325102880659,1768.732510288066) translate(97.5 37.8)"/><use xlink:href="#S" transform="matrix(1,0,0,1,659.7325102880659,1768.732510288066) translate(160.45000000000002 37.8)"/><use xlink:href="#T" transform="matrix(1,0,0,1,659.7325102880659,1768.732510288066) translate(61.14999999999999 59.4)"/><use xlink:href="#U" transform="matrix(1,0,0,1,659.7325102880659,1768.732510288066) translate(98.05 59.4)"/><path d="M484.23 1681.4v40.67h.03v22.43" stroke="#000" stroke-width="2" fill="none"/><path d="M485.23 1681.4h-2v-1h2zM484.26 1759.5l-4.64-14.27h9.27z"/><path d="M484.26 1762.73l-6-18.5h12zm-3.26-16.5l3.26 10.03 3.26-10.03z"/><path d="M504.07 1681.4v40.67h260.66v22.43" stroke="#000" stroke-width="2" fill="none"/><path d="M505.07 1681.4h-2v-1h2zM764.73 1759.5l-4.63-14.27h9.27z"/><path d="M764.73 1762.73l-6-18.5h12zm-3.26-16.5l3.26 10.03 3.26-10.03z"/><path d="M462.73 1681.4v40.67h-250v22.43" stroke="#000" stroke-width="2" fill="none"/><path d="M463.73 1681.4h-2v-1h2zM212.73 1759.5l-4.63-14.27h9.27z"/><path d="M212.73 1762.73l-6-18.5h12zm-3.26-16.5l3.26 10.03 3.26-10.03z"/><path d="M834.73 1383.73h220v140h-220z" stroke="#000" stroke-width="2" fill="#fff"/><use xlink:href="#l" transform="matrix(1,0,0,1,839.7325102880659,1388.732510288066) translate(16.049999999999997 57.8)"/><use xlink:href="#V" transform="matrix(1,0,0,1,839.7325102880659,1388.732510288066) translate(68.05 57.8)"/><use xlink:href="#W" transform="matrix(1,0,0,1,839.7325102880659,1388.732510288066) translate(121.05 57.8)"/><use xlink:href="#X" transform="matrix(1,0,0,1,839.7325102880659,1388.732510288066) translate(60.074999999999996 79.4)"/><path d="M1246.73 1453.73c0 22.1-17.9 40-40 40s-40-17.9-40-40 17.9-40 40-40 40 17.9 40 40z" stroke="#000" stroke-width="2"/><use xlink:href="#Y" transform="matrix(1,0,0,1,1171.732510288066,1418.732510288066) translate(27.59259259259259 40.333333333333336)"/><path d="M696.3 1454.73H588.23v-2H696.3zm119.2 0h-89.85v-2h89.85zM588.23 1454.73h-2.6l1.1-1-1.1-1h2.6zM830.5 1453.73l-14.27 4.64v-9.27z"/><path d="M833.73 1453.73l-18.5 6v-12zm-16.5 3.26l10.03-3.27-10.03-3.26z"/><use xlink:href="#K" transform="matrix(1,0,0,1,696.3049337880659,1442.932510288066) translate(0 14.4)"/><path d="M1055.73 1453.73h91.77" stroke="#000" stroke-width="2" fill="none"/><path d="M1055.73 1454.73h-1v-2h1zM1162.5 1453.73l-14.27 4.64v-9.27z"/><path d="M1165.73 1453.73l-18.5 6v-12zm-16.5 3.26l10.03-3.27-10.03-3.26zM487.73 1608h-2v-11.55h2zm0-33.15h-2v-29.77h2zM487.73 1545.08h-2v-2.25l1 .9 1-.9zM486.73 1623l-4.63-14.27h9.27z"/><path d="M486.73 1626.23l-6-18.5h12zm-3.26-16.5l3.26 10.03 3.26-10.03z"/><use xlink:href="#L" transform="matrix(1,0,0,1,475.2575102880658,1574.8539174154962) translate(0 14.4)"/><path d="M875.73 1813.73h69v-270.76" stroke="#000" stroke-width="2" fill="none"/><path d="M875.73 1814.73h-1v-2h1zM949.37 1542.23h-9.27l4.63-14.26z"/><path d="M950.74 1543.23h-12.02l6-18.5zm-9.27-2H948l-3.27-10.03z"/><path d="M168.73 2253.73c0 22.1-17.9 40-40 40s-40-17.9-40-40 17.9-40 40-40 40 17.9 40 40z" stroke="#000" stroke-width="2"/><use xlink:href="#Y" transform="matrix(1,0,0,1,93.73251028806584,2218.732510288066) translate(27.59259259259259 40.333333333333336)"/><path d="M417.07 2291.23h-15.84c-20.7 0-37.5-16.8-37.5-37.5s16.8-37.5 37.5-37.5h15.84zM539.73 1923.73h244v80h-244z" stroke="#000" stroke-width="2" fill="#fff"/><use xlink:href="#Z" transform="matrix(1,0,0,1,544.73188638497,1928.732510288066) translate(66.57499999999999 38.6)"/><use xlink:href="#aa" transform="matrix(1,0,0,1,544.73188638497,1928.732510288066) translate(132.425 38.6)"/><path d="M539.73 2063.73h244v80h-244z" stroke="#000" stroke-width="2" fill="#fff"/><use xlink:href="#ab" transform="matrix(1,0,0,1,544.73188638497,2068.732510288066) translate(82.07499999999999 38.6)"/><path d="M539.73 2216.73h244v80h-244z" stroke="#000" stroke-width="2" fill="#fff"/><use xlink:href="#ac" transform="matrix(1,0,0,1,544.73188638497,2221.732510288066) translate(87.5 38.6)"/><path d="M539.73 2363.73h244v80h-244z" stroke="#000" stroke-width="2" fill="#fff"/><use xlink:href="#ad" transform="matrix(1,0,0,1,544.73188638497,2368.732510288066) translate(83 38.6)"/><path d="M539.73 2507.73h244v80h-244z" stroke="#000" stroke-width="2" fill="#fff"/><use xlink:href="#ae" transform="matrix(1,0,0,1,544.73188638497,2512.732510288066) translate(82.07499999999999 38.6)"/><path d="M1017.33 2507.73c19 0 34.4 17.9 34.4 40s-15.4 40-34.4 40h-103.2c-19 0-34.4-17.9-34.4-40s15.4-40 34.4-40z" stroke="#000" stroke-width="2"/><use xlink:href="#af" transform="matrix(1,0,0,1,884.73188638497,2512.732510288066) translate(48 39.888888888888886)"/><path d="M784.73 2547.73h75.77" stroke="#000" stroke-width="2" fill="none"/><path d="M784.73 2548.73h-1v-2h1zM875.5 2547.73l-14.27 4.64v-9.27z"/><path d="M878.73 2547.73l-18.5 6v-12zm-16.5 3.26l10.03-3.27-10.03-3.26z"/><path d="M661.73 2362.73v-46.76" stroke="#000" stroke-width="2" fill="none"/><path d="M662.73 2363.73h-2v-1h2zM666.37 2315.23h-9.27l4.63-14.26z"/><path d="M667.74 2316.23h-12.02l6-18.5zm-9.27-2H665l-3.27-10.03z"/><path d="M418.07 2281.3h35.66v266.43h66.77" stroke="#000" stroke-width="2" fill="none"/><path d="M418.07 2282.3h-1v-2h1zM535.5 2547.73l-14.27 4.64v-9.27z"/><path d="M538.73 2547.73l-18.5 6v-12zm-16.5 3.26l10.03-3.27-10.03-3.26z"/><path d="M418.07 2267.95h60.33v135.78h42.1" stroke="#000" stroke-width="2" fill="none"/><path d="M418.07 2268.95h-1v-2h1zM535.5 2403.73l-14.27 4.64v-9.27z"/><path d="M538.73 2403.73l-18.5 6v-12zm-16.5 3.26l10.03-3.27-10.03-3.26z"/><path d="M418.07 2253.73H520.5" stroke="#000" stroke-width="2" fill="none"/><path d="M418.07 2254.73h-1v-2h1zM535.5 2253.73l-14.27 4.64v-9.27z"/><path d="M538.73 2253.73l-18.5 6v-12zm-16.5 3.26l10.03-3.27-10.03-3.26z"/><path d="M418.07 2238.62h60.33v-134.9h42.1" stroke="#000" stroke-width="2" fill="none"/><path d="M418.07 2239.62h-1v-2h1zM535.5 2103.73l-14.27 4.64v-9.27z"/><path d="M538.73 2103.73l-18.5 6v-12zm-16.5 3.26l10.03-3.27-10.03-3.26z"/><path d="M418.07 2221.3h35.66v-257.57h66.77" stroke="#000" stroke-width="2" fill="none"/><path d="M418.07 2222.3h-1v-2h1zM535.5 1963.73l-14.27 4.64v-9.27z"/><path d="M538.73 1963.73l-18.5 6v-12zm-16.5 3.26l10.03-3.27-10.03-3.26z"/><path d="M915.4 2003.73h-15.83c-20.72 0-37.5-16.8-37.5-37.5s16.78-37.5 37.5-37.5h15.83z" stroke="#000" stroke-width="2" fill="#fff"/><path d="M784.73 1963.73h58.25" stroke="#000" stroke-width="2" fill="none"/><path d="M784.73 1964.73h-1v-2h1zM858 1963.73l-14.27 4.64v-9.27z"/><path d="M861.23 1963.73l-18.5 6v-12zm-16.5 3.26l10.03-3.27-10.03-3.26z"/><path d="M1081.73 1903.73c0 22.1-17.9 40-40 40s-40-17.9-40-40 17.9-40 40-40 40 17.9 40 40z" stroke="#000" stroke-width="2" fill="#ef8d22"/><use xlink:href="#ag" transform="matrix(1,0,0,1,1006.73188638497,1868.732510288066) translate(25.407407407407405 40.333333333333336)"/><path d="M1001.73 1983.73h220v80h-220z" stroke="#000" stroke-width="2" fill="#fff"/><use xlink:href="#ah" transform="matrix(1,0,0,1,1006.73188638497,1988.732510288066) translate(16.674999999999983 27.799999999999997)"/><use xlink:href="#ai" transform="matrix(1,0,0,1,1006.73188638497,1988.732510288066) translate(132.475 27.799999999999997)"/><use xlink:href="#aj" transform="matrix(1,0,0,1,1006.73188638497,1988.732510288066) translate(49.599999999999994 49.4)"/><use xlink:href="#ak" transform="matrix(1,0,0,1,1006.73188638497,1988.732510288066) translate(89.6 49.4)"/><use xlink:href="#U" transform="matrix(1,0,0,1,1006.73188638497,1988.732510288066) translate(109.6 49.4)"/><path d="M916.4 1987.95h42.17v35.78h23.93" stroke="#000" stroke-width="2" fill="none"/><path d="M916.4 1988.95h-1v-2h1zM997.5 2023.73l-14.27 4.64v-9.27z"/><path d="M1000.73 2023.73l-18.5 6v-12zm-16.5 3.26l10.03-3.27-10.03-3.26z"/><path d="M916.4 1943.95h37.33v-40.22h28.77" stroke="#000" stroke-width="2" fill="none"/><path d="M916.4 1944.95h-1v-2h1zM997.5 1903.73l-14.27 4.64v-9.27z"/><path d="M1000.73 1903.73l-18.5 6v-12zm-16.5 3.26l10.03-3.27-10.03-3.26z"/><path d="M915.73 2198.73H899.9c-20.7 0-37.5-16.8-37.5-37.5s16.8-37.5 37.5-37.5h15.83zM1001.73 2083.73h220v80h-220z" stroke="#000" stroke-width="2" fill="#fff"/><use xlink:href="#a" transform="matrix(1,0,0,1,1006.73188638497,2088.732510288066) translate(40.64999999999999 27.799999999999997)"/><use xlink:href="#al" transform="matrix(1,0,0,1,1006.73188638497,2088.732510288066) translate(100.4 27.799999999999997)"/><use xlink:href="#am" transform="matrix(1,0,0,1,1006.73188638497,2088.732510288066) translate(49.599999999999994 49.4)"/><use xlink:href="#an" transform="matrix(1,0,0,1,1006.73188638497,2088.732510288066) translate(131.45 49.4)"/><path d="M784.73 2103.73h38.33v57.5h20.1" stroke="#000" stroke-width="2" fill="none"/><path d="M784.73 2104.73h-1v-2h1zM858.16 2161.23l-14.26 4.64v-9.27z"/><path d="M861.4 2161.23l-18.5 6v-12zm-16.5 3.26l10.03-3.27-10.03-3.26z"/><path d="M916.73 2145.3h42v-21.57h23.77" stroke="#000" stroke-width="2" fill="none"/><path d="M916.73 2146.3h-1v-2h1zM997.5 2123.73l-14.27 4.64v-9.27z"/><path d="M1000.73 2123.73l-18.5 6v-12zm-16.5 3.26l10.03-3.27-10.03-3.26z"/><path d="M944 620c0 22.1-17.9 40-40 40s-40-17.9-40-40 17.9-40 40-40 40 17.9 40 40z" stroke="#000" stroke-width="2" fill="#ef8d22"/><use xlink:href="#ag" transform="matrix(1,0,0,1,868.9999999999999,585) translate(25.407407407407405 40.333333333333336)"/><path d="M904 661v24.76" stroke="#000" stroke-width="2" fill="none"/><path d="M904 660l1-.04V661h-2v-1.06zM904 700.76l-4.64-14.26h9.28z"/><path d="M904 704l-6-18.5h12zm-3.26-16.5l3.26 10.03 3.26-10.03z"/><path d="M1001.73 2198.73h220v80h-220z" stroke="#000" stroke-width="2" fill="#fff"/><use xlink:href="#ao" transform="matrix(1,0,0,1,1006.73188638497,2203.732510288066) translate(46.449999999999996 38.6)"/><use xlink:href="#G" transform="matrix(1,0,0,1,1006.73188638497,2203.732510288066) translate(86.69999999999999 38.6)"/><use xlink:href="#ap" transform="matrix(1,0,0,1,1006.73188638497,2203.732510288066) translate(112.65 38.6)"/><path d="M916.73 2181.3h42v57.43h23.77" stroke="#000" stroke-width="2" fill="none"/><path d="M916.73 2182.3h-1v-2h1zM997.5 2238.73l-14.27 4.64v-9.27z"/><path d="M1000.73 2238.73l-18.5 6v-12zm-16.5 3.26l10.03-3.27-10.03-3.26z"/><path d="M1387.73 2123.73c0 22.1-17.9 40-40 40s-40-17.9-40-40 17.9-40 40-40 40 17.9 40 40z" stroke="#000" stroke-width="2" fill="#ef8d22"/><use xlink:href="#ag" transform="matrix(1,0,0,1,1312.73188638497,2088.732510288066) translate(25.407407407407405 40.333333333333336)"/><path d="M1387.73 2238.73c0 22.1-17.9 40-40 40s-40-17.9-40-40 17.9-40 40-40 40 17.9 40 40z" stroke="#000" stroke-width="2" fill="#0c7cba"/><use xlink:href="#aq" transform="matrix(1,0,0,1,1312.73188638497,2203.732510288066) translate(25.407407407407405 40.333333333333336)"/><path d="M430.73 2063.73c0 22.1-17.9 40-40 40s-40-17.9-40-40 17.9-40 40-40 40 17.9 40 40z" stroke="#000" stroke-width="2" fill="#0c7cba"/><use xlink:href="#aq" transform="matrix(1,0,0,1,355.73188638497,2028.732510288066) translate(25.407407407407405 40.333333333333336)"/><path d="M390.73 2104.73v93.8" stroke="#000" stroke-width="2" fill="none"/><path d="M390.73 2103.73l1-.03v1.03h-2v-1.06zM390.73 2213.52l-4.63-14.27h9.27z"/><path d="M390.73 2216.75l-6-18.5h12zm-3.26-16.5l3.26 10.03 3.26-10.03z"/><path d="M1222.73 2238.73h65.77" stroke="#000" stroke-width="2" fill="none"/><path d="M1222.73 2239.73h-1v-2h1zM1303.5 2238.73l-14.27 4.64v-9.27z"/><path d="M1306.73 2238.73l-18.5 6v-12zm-16.5 3.26l10.03-3.27-10.03-3.26z"/><path d="M1222.73 2123.73h65.77" stroke="#000" stroke-width="2" fill="none"/><path d="M1222.73 2124.73h-1v-2h1zM1303.5 2123.73l-14.27 4.64v-9.27z"/><path d="M1306.73 2123.73l-18.5 6v-12zm-16.5 3.26l10.03-3.27-10.03-3.26z"/><path d="M1387.73 2353.73c0 22.1-17.9 40-40 40s-40-17.9-40-40 17.9-40 40-40 40 17.9 40 40z" stroke="#000" stroke-width="2"/><use xlink:href="#ar" transform="matrix(1,0,0,1,1312.73188638497,2318.732510288066) translate(27.59259259259259 40.333333333333336)"/><path d="M784.73 2256.73h139v97h364.77" stroke="#000" stroke-width="2" fill="none"/><path d="M784.73 2257.73h-1v-2h1zM1303.5 2353.73l-14.27 4.64v-9.27z"/><path d="M1306.73 2353.73l-18.5 6v-12zm-16.5 3.26l10.03-3.27-10.03-3.26z"/><path d="M108 3038.73c0 22.1-17.9 40-40 40s-40-17.9-40-40 17.9-40 40-40 40 17.9 40 40z" stroke="#000" stroke-width="2"/><use xlink:href="#ar" transform="matrix(1,0,0,1,33.000000000000114,3003.732510288066) translate(27.59259259259259 40.333333333333336)"/><path d="M150 2968.73h220v140H150z" stroke="#000" stroke-width="2" fill="#fff"/><use xlink:href="#y" transform="matrix(1,0,0,1,155.00000000000014,2973.732510288066) translate(10.049999999999997 57.8)"/><use xlink:href="#as" transform="matrix(1,0,0,1,155.00000000000014,2973.732510288066) translate(75.05 57.8)"/><use xlink:href="#at" transform="matrix(1,0,0,1,155.00000000000014,2973.732510288066) translate(150.95 57.8)"/><use xlink:href="#au" transform="matrix(1,0,0,1,155.00000000000014,2973.732510288066) translate(69.55 79.4)"/><path d="M109 3038.73h21.76" stroke="#000" stroke-width="2" fill="none"/><path d="M109 3039.73h-1.06l.06-1-.04-1H109zM145.76 3038.73l-14.26 4.64v-9.27z"/><path d="M149 3038.73l-18.5 6v-12zm-16.5 3.26l10.03-3.27-10.03-3.26z"/><path d="M550 2918.73h244v80H550z" stroke="#000" stroke-width="2" fill="#fff"/><use xlink:href="#av" transform="matrix(1,0,0,1,555.0000000000001,2923.732510288066) translate(30.099999999999994 38.6)"/><use xlink:href="#aw" transform="matrix(1,0,0,1,555.0000000000001,2923.732510288066) translate(106 38.6)"/><use xlink:href="#ax" transform="matrix(1,0,0,1,555.0000000000001,2923.732510288066) translate(130 38.6)"/><path d="M846 2918.73h244v80H846z" stroke="#000" stroke-width="2" fill="#fff"/><use xlink:href="#l" transform="matrix(1,0,0,1,851.0000000000001,2923.732510288066) translate(39.27499999999999 27.799999999999997)"/><use xlink:href="#N" transform="matrix(1,0,0,1,851.0000000000001,2923.732510288066) translate(91.27499999999999 27.799999999999997)"/><use xlink:href="#O" transform="matrix(1,0,0,1,851.0000000000001,2923.732510288066) translate(130.175 27.799999999999997)"/><use xlink:href="#ay" transform="matrix(1,0,0,1,851.0000000000001,2923.732510288066) translate(37.625 49.4)"/><use xlink:href="#az" transform="matrix(1,0,0,1,851.0000000000001,2923.732510288066) translate(116.575 49.4)"/><use xlink:href="#aA" transform="matrix(1,0,0,1,851.0000000000001,2923.732510288066) translate(167.375 49.4)"/><path d="M465.33 3078.73H449.5c-20.7 0-37.5-16.8-37.5-37.5s16.8-37.5 37.5-37.5h15.83zM550 3098.73h244v80H550z" stroke="#000" stroke-width="2" fill="#fff"/><use xlink:href="#aB" transform="matrix(1,0,0,1,555.0000000000001,3103.732510288066) translate(28.049999999999997 38.6)"/><use xlink:href="#aw" transform="matrix(1,0,0,1,555.0000000000001,3103.732510288066) translate(108.05 38.6)"/><use xlink:href="#ax" transform="matrix(1,0,0,1,555.0000000000001,3103.732510288066) translate(132.05 38.6)"/><path d="M846 3098.73h244v80H846z" stroke="#000" stroke-width="2" fill="#fff"/><use xlink:href="#aC" transform="matrix(1,0,0,1,851.0000000000001,3103.732510288066) translate(60.55 38.6)"/><use xlink:href="#aD" transform="matrix(1,0,0,1,851.0000000000001,3103.732510288066) translate(101.5 38.6)"/><use xlink:href="#aE" transform="matrix(1,0,0,1,851.0000000000001,3103.732510288066) translate(166.45 38.6)"/><path d="M1166 3162.73c-13.25 0-24-10.74-24-24 0-10.6 6.5-19.55 16.58-22.82-.58-31.17 39.42-37.17 55.42-25.17 8-18 48-12 48 6 24-6 48 18 32 48 16 24 0 54-32 42-8 15.6-40 15.6-48 0-16 12-48 6-48-24z" stroke="#000" stroke-width="2" fill="#fff"/><use xlink:href="#f" transform="matrix(1,0,0,1,1147,3083.732510288066) translate(47.625 58.6)"/><path d="M1697.6 3098.73c19 0 34.4 17.9 34.4 40s-15.4 40-34.4 40h-103.2c-19 0-34.4-17.9-34.4-40s15.4-40 34.4-40z" stroke="#000" stroke-width="2"/><use xlink:href="#aF" transform="matrix(1,0,0,1,1565,3103.732510288066) translate(41.04012345679012 39.888888888888886)"/><path d="M371 3038.73h21.93" stroke="#000" stroke-width="2" fill="none"/><path d="M371 3039.73h-1v-2h1zM407.93 3038.73l-14.27 4.64v-9.27z"/><path d="M411.16 3038.73l-18.5 6v-12zm-16.5 3.26l10.03-3.27-10.04-3.26z"/><path d="M466.33 3022.07h41.34v-63.34h23.1" stroke="#000" stroke-width="2" fill="none"/><path d="M466.33 3023.07h-1v-2h1zM545.76 2958.73l-14.26 4.64v-9.27z"/><path d="M549 2958.73l-18.5 6v-12zm-16.5 3.26l10.03-3.27-10.03-3.26z"/><path d="M795 2958.73h31.76" stroke="#000" stroke-width="2" fill="none"/><path d="M795 2959.73h-1v-2h1zM841.76 2958.73l-14.26 4.64v-9.27z"/><path d="M845 2958.73l-18.5 6v-12zm-16.5 3.26l10.03-3.27-10.03-3.26z"/><path d="M466.33 3062.07h41.34v76.66h23.1" stroke="#000" stroke-width="2" fill="none"/><path d="M466.33 3063.07h-1v-2h1zM545.76 3138.73l-14.26 4.64v-9.27z"/><path d="M549 3138.73l-18.5 6v-12zm-16.5 3.26l10.03-3.27-10.03-3.26z"/><path d="M795 3138.73h31.76" stroke="#000" stroke-width="2" fill="none"/><path d="M795 3139.73h-1v-2h1zM841.76 3138.73l-14.26 4.64v-9.27z"/><path d="M845 3138.73l-18.5 6v-12zm-16.5 3.26l10.03-3.27-10.03-3.26z"/><path d="M1091 3138.73h31.76" stroke="#000" stroke-width="2" fill="none"/><path d="M1091 3139.73h-1v-2h1zM1137.76 3138.73l-14.26 4.64v-9.27z"/><path d="M1141 3138.73l-18.5 6v-12zm-16.5 3.26l10.03-3.27-10.03-3.26z"/><path d="M1222 2958.73c0 22.1-17.9 40-40 40s-40-17.9-40-40 17.9-40 40-40 40 17.9 40 40z" stroke="#000" stroke-width="2" fill="#ef8d22"/><g><use xlink:href="#ag" transform="matrix(1,0,0,1,1147,2923.732510288066) translate(25.407407407407405 40.333333333333336)"/></g><path d="M1091 2958.73h31.76" stroke="#000" stroke-width="2" fill="none"/><path d="M1091 2959.73h-1v-2h1zM1137.76 2958.73l-14.26 4.64v-9.27z"/><path d="M1141 2958.73l-18.5 6v-12zm-16.5 3.26l10.03-3.27-10.03-3.26z"/><path d="M594 121v19h38.8v60.76" stroke="#000" stroke-width="2" fill="none"/><path d="M595 121h-2v-1h2zM632.8 215.76l-4.64-14.26h9.28z"/><path d="M632.8 219l-6-18.5h12zm-3.26-16.5l3.26 10.03 3.26-10.03z"/><path d="M738 121v79.76" stroke="#000" stroke-width="2" fill="none"/><path d="M739 121h-2v-1h2zM738 215.76l-4.64-14.26h9.28z"/><path d="M738 219l-6-18.5h12zm-3.26-16.5l3.26 10.03 3.26-10.03z"/><path d="M142.4 267.25c15.24 0 27.6 14.66 27.6 32.75 0 18.1-12.36 32.75-27.6 32.75H59.6C44.36 332.75 32 318.1 32 300c0-18.1 12.36-32.75 27.6-32.75z" stroke="#000" stroke-width="2"/><g><use xlink:href="#aG" transform="matrix(1,0,0,1,37,272.25) translate(24.311728395061728 32.888888888888886)"/></g><path d="M171 300h29.76" stroke="#000" stroke-width="2" fill="none"/><path d="M171 301h-1.08l.08-1-.02-1H171zM215.76 300l-14.26 4.64v-9.28z"/><path d="M219 300l-18.5 6v-12zm-16.5 3.26l10.03-3.26-10.03-3.26z"/><path d="M808 60h180v60H808z" stroke="#000" stroke-width="2" fill="#fff"/><g><use xlink:href="#aH" transform="matrix(1,0,0,1,813,65) translate(44.025 28.6)"/><use xlink:href="#aI" transform="matrix(1,0,0,1,813,65) translate(81.025 28.6)"/></g><path d="M169.73 2253.73H344.5" stroke="#000" stroke-width="2" fill="none"/><path d="M169.73 2254.73h-1.06l.06-1-.03-1h1.03zM359.5 2253.73l-14.27 4.64v-9.27z"/><path d="M362.73 2253.73l-18.5 6v-12zm-16.5 3.26l10.03-3.27-10.03-3.26z"/><path d="M1388.07 2023.73c0 22.1-17.9 40-40 40s-40-17.9-40-40 17.9-40 40-40 40 17.9 40 40z" stroke="#000" stroke-width="2" fill="#0c7cba"/><g><use xlink:href="#aq" transform="matrix(1,0,0,1,1313.0652197183033,1988.732510288066) translate(25.407407407407405 40.333333333333336)"/></g><path d="M1222.73 2023.73h66.1" stroke="#000" stroke-width="2" fill="none"/><path d="M1222.73 2024.73h-1v-2h1zM1303.83 2023.73l-14.27 4.64v-9.27z"/><path d="M1307.06 2023.73l-18.5 6v-12zm-16.5 3.26l10.03-3.27-10.04-3.26z"/><path d="M786 3198.73h344v68.67H786z" stroke="#000" stroke-opacity="0" stroke-width="2" fill="#fff" fill-opacity="0"/><g><use xlink:href="#aJ" transform="matrix(1,0,0,1,791.0000000000002,3203.732510288066) translate(9.543209876543187 22.388888888888886)"/><use xlink:href="#aK" transform="matrix(1,0,0,1,791.0000000000002,3203.732510288066) translate(21.395061728395042 22.388888888888886)"/><use xlink:href="#aL" transform="matrix(1,0,0,1,791.0000000000002,3203.732510288066) translate(85.59259259259258 22.388888888888886)"/><use xlink:href="#aM" transform="matrix(1,0,0,1,791.0000000000002,3203.732510288066) translate(147.22222222222223 22.388888888888886)"/><use xlink:href="#aN" transform="matrix(1,0,0,1,791.0000000000002,3203.732510288066) translate(190.679012345679 22.388888888888886)"/><use xlink:href="#aO" transform="matrix(1,0,0,1,791.0000000000002,3203.732510288066) translate(252.80246913580248 22.388888888888886)"/><use xlink:href="#aP" transform="matrix(1,0,0,1,791.0000000000002,3203.732510288066) translate(96.55555555555554 43.72222222222222)"/><use xlink:href="#aQ" transform="matrix(1,0,0,1,791.0000000000002,3203.732510288066) translate(155.5679012345679 43.72222222222222)"/><use xlink:href="#aR" transform="matrix(1,0,0,1,791.0000000000002,3203.732510288066) translate(198.97530864197532 43.72222222222222)"/></g><path d="M1350 3098.73h162v80h-162z" stroke="#000" stroke-width="2" fill="#fff"/><g><use xlink:href="#aS" transform="matrix(1,0,0,1,1355,3103.732510288066) translate(50 38.6)"/></g><path d="M1297.73 3138.73h33.03" stroke="#000" stroke-width="2" fill="none"/><path d="M1297.73 3139.73h-1.42l.14-.28.57-1.72h.73zM1345.76 3138.73l-14.26 4.64v-9.27z"/><path d="M1349 3138.73l-18.5 6v-12zm-16.5 3.26l10.03-3.27-10.03-3.26z"/><path d="M1513 3138.73h27.76" stroke="#000" stroke-width="2" fill="none"/><path d="M1513 3139.73h-1v-2h1zM1555.76 3138.73l-14.26 4.64v-9.27z"/><path d="M1559 3138.73l-18.5 6v-12zm-16.5 3.26l10.03-3.27-10.03-3.26z"/><path d="M898 121v49H770.67v30.76" stroke="#000" stroke-width="2" fill="none"/><path d="M899 121h-2v-1h2zM770.67 215.76l-4.64-14.26h9.27z"/><path d="M770.67 219l-6.02-18.5h12.03zm-3.26-16.5l3.27 10.03 3.26-10.03z"/><defs><path d="M212-179c-10-28-35-45-73-45-59 0-87 40-87 99 0 60 29 101 89 101 43 0 62-24 78-52l27 14C228-24 195 4 139 4 59 4 22-46 18-125c-6-104 99-153 187-111 19 9 31 26 39 46" id="aT"/><path d="M141-36C126-15 110 5 73 4 37 3 15-17 15-53c-1-64 63-63 125-63 3-35-9-54-41-54-24 1-41 7-42 31l-33-3c5-37 33-52 76-52 45 0 72 20 72 64v82c-1 20 7 32 28 27v20c-31 9-61-2-59-35zM48-53c0 20 12 33 32 33 41-3 63-29 60-74-43 2-92-5-92 41" id="aU"/><path d="M114-163C36-179 61-72 57 0H25l-1-190h30c1 12-1 29 2 39 6-27 23-49 58-41v29" id="aV"/><path d="M24-231v-30h32v30H24zM24 0v-190h32V0H24" id="aW"/><path d="M100-194c63 0 86 42 84 106H49c0 40 14 67 53 68 26 1 43-12 49-29l28 8c-11 28-37 45-77 45C44 4 14-33 15-96c1-61 26-98 85-98zm52 81c6-60-76-77-97-28-3 7-6 17-6 28h103" id="aX"/><g id="a"><use transform="matrix(0.05,0,0,0.05,0,0)" xlink:href="#aT"/><use transform="matrix(0.05,0,0,0.05,12.950000000000001,0)" xlink:href="#aU"/><use transform="matrix(0.05,0,0,0.05,22.950000000000003,0)" xlink:href="#aV"/><use transform="matrix(0.05,0,0,0.05,28.900000000000002,0)" xlink:href="#aV"/><use transform="matrix(0.05,0,0,0.05,34.85,0)" xlink:href="#aW"/><use transform="matrix(0.05,0,0,0.05,38.800000000000004,0)" xlink:href="#aX"/><use transform="matrix(0.05,0,0,0.05,48.800000000000004,0)" xlink:href="#aV"/></g><path d="M185-189c-5-48-123-54-124 2 14 75 158 14 163 119 3 78-121 87-175 55-17-10-28-26-33-46l33-7c5 56 141 63 141-1 0-78-155-14-162-118-5-82 145-84 179-34 5 7 8 16 11 25" id="aY"/><path d="M84 4C-5 8 30-112 23-190h32v120c0 31 7 50 39 49 72-2 45-101 50-169h31l1 190h-30c-1-10 1-25-2-33-11 22-28 36-60 37" id="aZ"/><path d="M115-194c53 0 69 39 70 98 0 66-23 100-70 100C84 3 66-7 56-30L54 0H23l1-261h32v101c10-23 28-34 59-34zm-8 174c40 0 45-34 45-75 0-40-5-75-45-74-42 0-51 32-51 76 0 43 10 73 51 73" id="ba"/><path d="M210-169c-67 3-38 105-44 169h-31v-121c0-29-5-50-35-48C34-165 62-65 56 0H25l-1-190h30c1 10-1 24 2 32 10-44 99-50 107 0 11-21 27-35 58-36 85-2 47 119 55 194h-31v-121c0-29-5-49-35-48" id="bb"/><path d="M135-143c-3-34-86-38-87 0 15 53 115 12 119 90S17 21 10-45l28-5c4 36 97 45 98 0-10-56-113-15-118-90-4-57 82-63 122-42 12 7 21 19 24 35" id="bc"/><path d="M100-194c62-1 85 37 85 99 1 63-27 99-86 99S16-35 15-95c0-66 28-99 85-99zM99-20c44 1 53-31 53-75 0-43-8-75-51-75s-53 32-53 75 10 74 51 75" id="bd"/><path d="M117-194c89-4 53 116 60 194h-32v-121c0-31-8-49-39-48C34-167 62-67 57 0H25l-1-190h30c1 10-1 24 2 32 11-22 29-35 61-36" id="be"/><g id="b"><use transform="matrix(0.05,0,0,0.05,0,0)" xlink:href="#aY"/><use transform="matrix(0.05,0,0,0.05,12,0)" xlink:href="#aZ"/><use transform="matrix(0.05,0,0,0.05,22,0)" xlink:href="#ba"/><use transform="matrix(0.05,0,0,0.05,32,0)" xlink:href="#bb"/><use transform="matrix(0.05,0,0,0.05,46.95,0)" xlink:href="#aW"/><use transform="matrix(0.05,0,0,0.05,50.900000000000006,0)" xlink:href="#bc"/><use transform="matrix(0.05,0,0,0.05,59.900000000000006,0)" xlink:href="#bc"/><use transform="matrix(0.05,0,0,0.05,68.9,0)" xlink:href="#aW"/><use transform="matrix(0.05,0,0,0.05,72.85000000000001,0)" xlink:href="#bd"/><use transform="matrix(0.05,0,0,0.05,82.85000000000001,0)" xlink:href="#be"/></g><path d="M59-47c-2 24 18 29 38 22v24C64 9 27 4 27-40v-127H5v-23h24l9-43h21v43h35v23H59v120" id="bf"/><g id="c"><use transform="matrix(0.05,0,0,0.05,0,0)" xlink:href="#aT"/><use transform="matrix(0.05,0,0,0.05,12.950000000000001,0)" xlink:href="#aV"/><use transform="matrix(0.05,0,0,0.05,18.900000000000002,0)" xlink:href="#aX"/><use transform="matrix(0.05,0,0,0.05,28.900000000000002,0)" xlink:href="#aU"/><use transform="matrix(0.05,0,0,0.05,38.900000000000006,0)" xlink:href="#bf"/><use transform="matrix(0.05,0,0,0.05,43.900000000000006,0)" xlink:href="#aX"/></g><path d="M108 0H70L1-190h34L89-25l56-165h34" id="bg"/><g id="d"><use transform="matrix(0.05,0,0,0.05,0,0)" xlink:href="#aT"/><use transform="matrix(0.05,0,0,0.05,12.950000000000001,0)" xlink:href="#bd"/><use transform="matrix(0.05,0,0,0.05,22.950000000000003,0)" xlink:href="#bg"/><use transform="matrix(0.05,0,0,0.05,31.950000000000003,0)" xlink:href="#aX"/><use transform="matrix(0.05,0,0,0.05,41.95,0)" xlink:href="#aV"/></g><path d="M106-169C34-169 62-67 57 0H25v-261h32l-1 103c12-21 28-36 61-36 89 0 53 116 60 194h-32v-121c2-32-8-49-39-48" id="bh"/><g id="e"><use transform="matrix(0.05,0,0,0.05,0,0)" xlink:href="#aY"/><use transform="matrix(0.05,0,0,0.05,12,0)" xlink:href="#bh"/><use transform="matrix(0.05,0,0,0.05,22,0)" xlink:href="#aX"/><use transform="matrix(0.05,0,0,0.05,32,0)" xlink:href="#aX"/><use transform="matrix(0.05,0,0,0.05,42,0)" xlink:href="#bf"/></g><g id="f"><use transform="matrix(0.05,0,0,0.05,0,0)" xlink:href="#aT"/><use transform="matrix(0.05,0,0,0.05,12.950000000000001,0)" xlink:href="#aU"/><use transform="matrix(0.05,0,0,0.05,22.950000000000003,0)" xlink:href="#aV"/><use transform="matrix(0.05,0,0,0.05,28.900000000000002,0)" xlink:href="#aV"/><use transform="matrix(0.05,0,0,0.05,34.85,0)" xlink:href="#aW"/><use transform="matrix(0.05,0,0,0.05,38.800000000000004,0)" xlink:href="#aX"/><use transform="matrix(0.05,0,0,0.05,48.800000000000004,0)" xlink:href="#aV"/></g><path d="M232-93c-1 65-40 97-104 97C67 4 28-28 28-90v-158h33c8 89-33 224 67 224 102 0 64-133 71-224h33v155" id="bi"/><path d="M85-194c31 0 48 13 60 33l-1-100h32l1 261h-30c-2-10 0-23-3-31C134-8 116 4 85 4 32 4 16-35 15-94c0-66 23-100 70-100zm9 24c-40 0-46 34-46 75 0 40 6 74 45 74 42 0 51-32 51-76 0-42-9-74-50-73" id="bj"/><path d="M206 0h-36l-40-164L89 0H53L-1-190h32L70-26l43-164h34l41 164 42-164h31" id="bk"/><g id="g"><use transform="matrix(0.05,0,0,0.05,0,0)" xlink:href="#bi"/><use transform="matrix(0.05,0,0,0.05,12.950000000000001,0)" xlink:href="#be"/><use transform="matrix(0.05,0,0,0.05,22.950000000000003,0)" xlink:href="#bj"/><use transform="matrix(0.05,0,0,0.05,32.95,0)" xlink:href="#aX"/><use transform="matrix(0.05,0,0,0.05,42.95,0)" xlink:href="#aV"/><use transform="matrix(0.05,0,0,0.05,48.900000000000006,0)" xlink:href="#bk"/><use transform="matrix(0.05,0,0,0.05,61.85,0)" xlink:href="#aV"/><use transform="matrix(0.05,0,0,0.05,67.80000000000001,0)" xlink:href="#aW"/><use transform="matrix(0.05,0,0,0.05,71.75000000000001,0)" xlink:href="#bf"/><use transform="matrix(0.05,0,0,0.05,76.75000000000001,0)" xlink:href="#aX"/><use transform="matrix(0.05,0,0,0.05,86.75000000000001,0)" xlink:href="#aV"/></g><path d="M30 0v-248h33v221h125V0H30" id="bl"/><path d="M140-251c81 0 123 46 123 126C263-46 219 4 140 4 59 4 17-45 17-125s42-126 123-126zm0 227c63 0 89-41 89-101s-29-99-89-99c-61 0-89 39-89 99S79-25 140-24" id="bm"/><path d="M160-131c35 5 61 23 61 61C221 17 115-2 30 0v-248c76 3 177-17 177 60 0 33-19 50-47 57zm-97-11c50-1 110 9 110-42 0-47-63-36-110-37v79zm0 115c55-2 124 14 124-45 0-56-70-42-124-44v89" id="bn"/><g id="h"><use transform="matrix(0.05,0,0,0.05,0,0)" xlink:href="#bl"/><use transform="matrix(0.05,0,0,0.05,10,0)" xlink:href="#bm"/><use transform="matrix(0.05,0,0,0.05,24,0)" xlink:href="#bn"/></g><path d="M30-248c118-7 216 8 213 122C240-48 200 0 122 0H30v-248zM63-27c89 8 146-16 146-99s-60-101-146-95v194" id="bo"/><path d="M96-169c-40 0-48 33-48 73s9 75 48 75c24 0 41-14 43-38l32 2c-6 37-31 61-74 61-59 0-76-41-82-99-10-93 101-131 147-64 4 7 5 14 7 22l-32 3c-4-21-16-35-41-35" id="bp"/><g id="i"><use transform="matrix(0.05,0,0,0.05,0,0)" xlink:href="#bo"/><use transform="matrix(0.05,0,0,0.05,12.950000000000001,0)" xlink:href="#bd"/><use transform="matrix(0.05,0,0,0.05,22.950000000000003,0)" xlink:href="#bp"/><use transform="matrix(0.05,0,0,0.05,31.950000000000003,0)" xlink:href="#bc"/></g><path d="M30-248c87 1 191-15 191 75 0 78-77 80-158 76V0H30v-248zm33 125c57 0 124 11 124-50 0-59-68-47-124-48v98" id="bq"/><path d="M143 0L79-87 56-68V0H24v-261h32v163l83-92h37l-77 82L181 0h-38" id="br"/><path d="M177-190C167-65 218 103 67 71c-23-6-38-20-44-43l32-5c15 47 100 32 89-28v-30C133-14 115 1 83 1 29 1 15-40 15-95c0-56 16-97 71-98 29-1 48 16 59 35 1-10 0-23 2-32h30zM94-22c36 0 50-32 50-73 0-42-14-75-50-75-39 0-46 34-46 75s6 73 46 73" id="bs"/><g id="j"><use transform="matrix(0.05,0,0,0.05,0,0)" xlink:href="#bq"/><use transform="matrix(0.05,0,0,0.05,12,0)" xlink:href="#aU"/><use transform="matrix(0.05,0,0,0.05,22,0)" xlink:href="#bp"/><use transform="matrix(0.05,0,0,0.05,31,0)" xlink:href="#br"/><use transform="matrix(0.05,0,0,0.05,40,0)" xlink:href="#aU"/><use transform="matrix(0.05,0,0,0.05,50,0)" xlink:href="#bs"/><use transform="matrix(0.05,0,0,0.05,60,0)" xlink:href="#aX"/></g><path d="M30 0v-248h187v28H63v79h144v27H63v87h162V0H30" id="bt"/><path d="M24 0v-261h32V0H24" id="bu"/><g id="k"><use transform="matrix(0.05,0,0,0.05,0,0)" xlink:href="#bt"/><use transform="matrix(0.05,0,0,0.05,12,0)" xlink:href="#bb"/><use transform="matrix(0.05,0,0,0.05,26.950000000000003,0)" xlink:href="#aU"/><use transform="matrix(0.05,0,0,0.05,36.95,0)" xlink:href="#aW"/><use transform="matrix(0.05,0,0,0.05,40.900000000000006,0)" xlink:href="#bu"/></g><path d="M205 0l-28-72H64L36 0H1l101-248h38L239 0h-34zm-38-99l-47-123c-12 45-31 82-46 123h93" id="bv"/><g id="l"><use transform="matrix(0.05,0,0,0.05,0,0)" xlink:href="#bv"/><use transform="matrix(0.05,0,0,0.05,12,0)" xlink:href="#bs"/><use transform="matrix(0.05,0,0,0.05,22,0)" xlink:href="#aX"/><use transform="matrix(0.05,0,0,0.05,32,0)" xlink:href="#be"/><use transform="matrix(0.05,0,0,0.05,42,0)" xlink:href="#bf"/></g><path d="M33 0v-248h34V0H33" id="bw"/><path d="M115-194c55 1 70 41 70 98S169 2 115 4C84 4 66-9 55-30l1 105H24l-1-265h31l2 30c10-21 28-34 59-34zm-8 174c40 0 45-34 45-75s-6-73-45-74c-42 0-51 32-51 76 0 43 10 73 51 73" id="bx"/><g id="m"><use transform="matrix(0.05,0,0,0.05,0,0)" xlink:href="#bw"/><use transform="matrix(0.05,0,0,0.05,5,0)" xlink:href="#be"/><use transform="matrix(0.05,0,0,0.05,15,0)" xlink:href="#bx"/><use transform="matrix(0.05,0,0,0.05,25,0)" xlink:href="#aZ"/><use transform="matrix(0.05,0,0,0.05,35,0)" xlink:href="#bf"/></g><g id="n"><use transform="matrix(0.05,0,0,0.05,0,0)" xlink:href="#bt"/><use transform="matrix(0.05,0,0,0.05,12,0)" xlink:href="#bb"/><use transform="matrix(0.05,0,0,0.05,26.950000000000003,0)" xlink:href="#aU"/><use transform="matrix(0.05,0,0,0.05,36.95,0)" xlink:href="#aW"/><use transform="matrix(0.05,0,0,0.05,40.900000000000006,0)" xlink:href="#bu"/></g><path d="M127-220V0H93v-220H8v-28h204v28h-85" id="by"/><g id="o"><use transform="matrix(0.05,0,0,0.05,0,0)" xlink:href="#by"/><use transform="matrix(0.05,0,0,0.05,8.950000000000001,0)" xlink:href="#aX"/><use transform="matrix(0.05,0,0,0.05,18.950000000000003,0)" xlink:href="#bb"/><use transform="matrix(0.05,0,0,0.05,33.900000000000006,0)" xlink:href="#bx"/><use transform="matrix(0.05,0,0,0.05,43.900000000000006,0)" xlink:href="#bu"/><use transform="matrix(0.05,0,0,0.05,47.85000000000001,0)" xlink:href="#aU"/><use transform="matrix(0.05,0,0,0.05,57.85,0)" xlink:href="#bf"/><use transform="matrix(0.05,0,0,0.05,62.85,0)" xlink:href="#aX"/></g><path fill="#fff" d="M169-182c-1-43-94-46-97-3 18 66 151 10 154 114 3 95-165 93-204 36-6-8-10-19-12-30l50-8c3 46 112 56 116 5-17-69-150-10-154-114-4-87 153-88 188-35 5 8 8 18 10 28" id="bz"/><path fill="#fff" d="M238-95c0 69-44 99-111 99C63 4 22-25 22-93v-155h51v151c-1 38 19 59 55 60 90 1 49-130 58-211h52v153" id="bA"/><path fill="#fff" d="M182-130c37 4 62 22 62 59C244 23 116-4 24 0v-248c84 5 203-23 205 63 0 31-19 50-47 55zM76-148c40-3 101 13 101-30 0-44-60-28-101-31v61zm0 110c48-3 116 14 116-37 0-48-69-32-116-35v72" id="bB"/><path fill="#fff" d="M230 0l2-204L168 0h-37L68-204 70 0H24v-248h70l56 185 57-185h69V0h-46" id="bC"/><path fill="#fff" d="M24 0v-248h52V0H24" id="bD"/><path fill="#fff" d="M140-251c80 0 125 45 125 126S219 4 139 4C58 4 15-44 15-125s44-126 125-126zm-1 214c52 0 73-35 73-88 0-50-21-86-72-86-52 0-73 35-73 86s22 88 72 88" id="bE"/><path fill="#fff" d="M175 0L67-191c6 58 2 128 3 191H24v-248h59L193-55c-6-58-2-129-3-193h46V0h-61" id="bF"/><g id="p"><use transform="matrix(0.05555555555555555,0,0,0.05555555555555555,0,0)" xlink:href="#bz"/><use transform="matrix(0.05555555555555555,0,0,0.05555555555555555,13.333333333333332,0)" xlink:href="#bA"/><use transform="matrix(0.05555555555555555,0,0,0.05555555555555555,27.72222222222222,0)" xlink:href="#bB"/><use transform="matrix(0.05555555555555555,0,0,0.05555555555555555,42.11111111111111,0)" xlink:href="#bC"/><use transform="matrix(0.05555555555555555,0,0,0.05555555555555555,58.72222222222222,0)" xlink:href="#bD"/><use transform="matrix(0.05555555555555555,0,0,0.05555555555555555,64.27777777777777,0)" xlink:href="#bz"/><use transform="matrix(0.05555555555555555,0,0,0.05555555555555555,77.6111111111111,0)" xlink:href="#bz"/><use transform="matrix(0.05555555555555555,0,0,0.05555555555555555,90.94444444444443,0)" xlink:href="#bD"/><use transform="matrix(0.05555555555555555,0,0,0.05555555555555555,96.49999999999999,0)" xlink:href="#bE"/><use transform="matrix(0.05555555555555555,0,0,0.05555555555555555,112.05555555555554,0)" xlink:href="#bF"/></g><path fill="#fff" d="M24-248c120-7 223 5 221 122C244-46 201 0 124 0H24v-248zM76-40c74 7 117-18 117-86 0-67-45-88-117-82v168" id="bG"/><path fill="#fff" d="M199 0l-22-63H83L61 0H9l90-248h61L250 0h-51zm-33-102l-36-108c-10 38-24 72-36 108h72" id="bH"/><path fill="#fff" d="M186 0v-106H76V0H24v-248h52v99h110v-99h50V0h-50" id="bI"/><path fill="#fff" d="M240-174c0 40-23 61-54 70L253 0h-59l-57-94H76V0H24v-248c93 4 217-23 216 74zM76-134c48-2 112 12 112-38 0-48-66-32-112-35v73" id="bJ"/><g id="q"><use transform="matrix(0.05555555555555555,0,0,0.05555555555555555,0,0)" xlink:href="#bG"/><use transform="matrix(0.05555555555555555,0,0,0.05555555555555555,14.388888888888888,0)" xlink:href="#bH"/><use transform="matrix(0.05555555555555555,0,0,0.05555555555555555,28.777777777777775,0)" xlink:href="#bz"/><use transform="matrix(0.05555555555555555,0,0,0.05555555555555555,42.11111111111111,0)" xlink:href="#bI"/><use transform="matrix(0.05555555555555555,0,0,0.05555555555555555,56.49999999999999,0)" xlink:href="#bB"/><use transform="matrix(0.05555555555555555,0,0,0.05555555555555555,70.88888888888889,0)" xlink:href="#bE"/><use transform="matrix(0.05555555555555555,0,0,0.05555555555555555,86.44444444444444,0)" xlink:href="#bH"/><use transform="matrix(0.05555555555555555,0,0,0.05555555555555555,100.83333333333333,0)" xlink:href="#bJ"/><use transform="matrix(0.05555555555555555,0,0,0.05555555555555555,115.22222222222221,0)" xlink:href="#bG"/></g><g id="r"><use transform="matrix(0.05,0,0,0.05,0,0)" xlink:href="#bw"/><use transform="matrix(0.05,0,0,0.05,5,0)" xlink:href="#bc"/></g><g id="s"><use transform="matrix(0.05,0,0,0.05,0,0)" xlink:href="#bp"/><use transform="matrix(0.05,0,0,0.05,9,0)" xlink:href="#aZ"/><use transform="matrix(0.05,0,0,0.05,19,0)" xlink:href="#bc"/><use transform="matrix(0.05,0,0,0.05,28,0)" xlink:href="#bf"/><use transform="matrix(0.05,0,0,0.05,33,0)" xlink:href="#bd"/><use transform="matrix(0.05,0,0,0.05,43,0)" xlink:href="#bb"/><use transform="matrix(0.05,0,0,0.05,57.95,0)" xlink:href="#aX"/><use transform="matrix(0.05,0,0,0.05,67.95,0)" xlink:href="#aV"/></g><path d="M145-31C134-9 116 4 85 4 32 4 16-35 15-94c0-59 17-99 70-100 32-1 48 14 60 33 0-11-1-24 2-32h30l-1 268h-32zM93-21c41 0 51-33 51-76s-8-73-50-73c-40 0-46 35-46 75s5 74 45 74" id="bK"/><path d="M103-251c84 0 111 97 45 133-19 10-37 24-39 52H78c0-63 77-55 77-114 0-30-21-42-52-43-32 0-53 17-56 46l-32-2c7-45 34-72 88-72zM77 0v-35h34V0H77" id="bL"/><g id="t"><use transform="matrix(0.05,0,0,0.05,0,0)" xlink:href="#aZ"/><use transform="matrix(0.05,0,0,0.05,10,0)" xlink:href="#be"/><use transform="matrix(0.05,0,0,0.05,20,0)" xlink:href="#aW"/><use transform="matrix(0.05,0,0,0.05,23.95,0)" xlink:href="#bK"/><use transform="matrix(0.05,0,0,0.05,33.95,0)" xlink:href="#aZ"/><use transform="matrix(0.05,0,0,0.05,43.95,0)" xlink:href="#aX"/><use transform="matrix(0.05,0,0,0.05,53.95,0)" xlink:href="#bL"/></g><path d="M233-177c-1 41-23 64-60 70L243 0h-38l-65-103H63V0H30v-248c88 3 205-21 203 71zM63-129c60-2 137 13 137-47 0-61-80-42-137-45v92" id="bM"/><g id="u"><use transform="matrix(0.05,0,0,0.05,0,0)" xlink:href="#bn"/><use transform="matrix(0.05,0,0,0.05,12,0)" xlink:href="#bm"/><use transform="matrix(0.05,0,0,0.05,26,0)" xlink:href="#bM"/></g><path d="M24-231v-30h32v30H24zM-9 49c24 4 33-6 33-30v-209h32V24c2 40-23 58-65 49V49" id="bN"/><g id="v"><use transform="matrix(0.05,0,0,0.05,0,0)" xlink:href="#bM"/><use transform="matrix(0.05,0,0,0.05,12.950000000000001,0)" xlink:href="#aX"/><use transform="matrix(0.05,0,0,0.05,22.950000000000003,0)" xlink:href="#bN"/><use transform="matrix(0.05,0,0,0.05,26.900000000000002,0)" xlink:href="#aX"/><use transform="matrix(0.05,0,0,0.05,36.900000000000006,0)" xlink:href="#bp"/><use transform="matrix(0.05,0,0,0.05,45.900000000000006,0)" xlink:href="#bf"/><use transform="matrix(0.05,0,0,0.05,50.900000000000006,0)" xlink:href="#aX"/><use transform="matrix(0.05,0,0,0.05,60.900000000000006,0)" xlink:href="#bj"/></g><path d="M179-190L93 31C79 59 56 82 12 73V49c39 6 53-20 64-50L1-190h34L92-34l54-156h33" id="bO"/><g id="w"><use transform="matrix(0.05,0,0,0.05,0,0)" xlink:href="#bv"/><use transform="matrix(0.05,0,0,0.05,12,0)" xlink:href="#bs"/><use transform="matrix(0.05,0,0,0.05,22,0)" xlink:href="#aX"/><use transform="matrix(0.05,0,0,0.05,32,0)" xlink:href="#be"/><use transform="matrix(0.05,0,0,0.05,42,0)" xlink:href="#bp"/><use transform="matrix(0.05,0,0,0.05,51,0)" xlink:href="#bO"/></g><path fill="#fff" d="M67-125c0 53 21 87 73 88 37 1 54-22 65-47l45 17C233-25 199 4 140 4 58 4 20-42 15-125 8-235 124-281 211-232c18 10 29 29 36 50l-46 12c-8-25-30-41-62-41-52 0-71 34-72 86" id="bP"/><path fill="#fff" d="M24 0v-248h52v208h133V0H24" id="bQ"/><path fill="#fff" d="M24 0v-248h195v40H76v63h132v40H76v65h150V0H24" id="bR"/><g id="x"><use transform="matrix(0.06790123456790124,0,0,0.06790123456790124,0,0)" xlink:href="#bP"/><use transform="matrix(0.06790123456790124,0,0,0.06790123456790124,17.58641975308642,0)" xlink:href="#bQ"/><use transform="matrix(0.06790123456790124,0,0,0.06790123456790124,32.45679012345679,0)" xlink:href="#bE"/><use transform="matrix(0.06790123456790124,0,0,0.06790123456790124,51.46913580246915,0)" xlink:href="#bz"/><use transform="matrix(0.06790123456790124,0,0,0.06790123456790124,67.76543209876544,0)" xlink:href="#bR"/></g><g id="y"><use transform="matrix(0.05,0,0,0.05,0,0)" xlink:href="#bv"/><use transform="matrix(0.05,0,0,0.05,12,0)" xlink:href="#bs"/><use transform="matrix(0.05,0,0,0.05,22,0)" xlink:href="#aX"/><use transform="matrix(0.05,0,0,0.05,32,0)" xlink:href="#be"/><use transform="matrix(0.05,0,0,0.05,42,0)" xlink:href="#bp"/><use transform="matrix(0.05,0,0,0.05,51,0)" xlink:href="#bO"/></g><g id="z"><use transform="matrix(0.05,0,0,0.05,0,0)" xlink:href="#aX"/><use transform="matrix(0.05,0,0,0.05,10,0)" xlink:href="#be"/><use transform="matrix(0.05,0,0,0.05,20,0)" xlink:href="#bf"/><use transform="matrix(0.05,0,0,0.05,25,0)" xlink:href="#aX"/><use transform="matrix(0.05,0,0,0.05,35,0)" xlink:href="#aV"/><use transform="matrix(0.05,0,0,0.05,40.95,0)" xlink:href="#bc"/></g><g id="A"><use transform="matrix(0.05,0,0,0.05,0,0)" xlink:href="#aU"/><use transform="matrix(0.05,0,0,0.05,10,0)" xlink:href="#bj"/><use transform="matrix(0.05,0,0,0.05,20,0)" xlink:href="#bj"/><use transform="matrix(0.05,0,0,0.05,30,0)" xlink:href="#aW"/><use transform="matrix(0.05,0,0,0.05,33.95,0)" xlink:href="#bf"/><use transform="matrix(0.05,0,0,0.05,38.95,0)" xlink:href="#aW"/><use transform="matrix(0.05,0,0,0.05,42.900000000000006,0)" xlink:href="#bd"/><use transform="matrix(0.05,0,0,0.05,52.900000000000006,0)" xlink:href="#be"/><use transform="matrix(0.05,0,0,0.05,62.900000000000006,0)" xlink:href="#aU"/><use transform="matrix(0.05,0,0,0.05,72.9,0)" xlink:href="#bu"/></g><g id="B"><use transform="matrix(0.05,0,0,0.05,0,0)" xlink:href="#bj"/><use transform="matrix(0.05,0,0,0.05,10,0)" xlink:href="#aX"/><use transform="matrix(0.05,0,0,0.05,20,0)" xlink:href="#bf"/><use transform="matrix(0.05,0,0,0.05,25,0)" xlink:href="#aU"/><use transform="matrix(0.05,0,0,0.05,35,0)" xlink:href="#aW"/><use transform="matrix(0.05,0,0,0.05,38.95,0)" xlink:href="#bu"/><use transform="matrix(0.05,0,0,0.05,42.900000000000006,0)" xlink:href="#bc"/></g><g id="C"><use transform="matrix(0.05,0,0,0.05,0,0)" xlink:href="#bo"/><use transform="matrix(0.05,0,0,0.05,12.950000000000001,0)" xlink:href="#bd"/><use transform="matrix(0.05,0,0,0.05,22.950000000000003,0)" xlink:href="#aX"/><use transform="matrix(0.05,0,0,0.05,32.95,0)" xlink:href="#bc"/></g><g id="D"><use transform="matrix(0.05,0,0,0.05,0,0)" xlink:href="#bp"/><use transform="matrix(0.05,0,0,0.05,9,0)" xlink:href="#aU"/><use transform="matrix(0.05,0,0,0.05,19,0)" xlink:href="#aV"/><use transform="matrix(0.05,0,0,0.05,24.95,0)" xlink:href="#aV"/><use transform="matrix(0.05,0,0,0.05,30.899999999999995,0)" xlink:href="#aW"/><use transform="matrix(0.05,0,0,0.05,34.85,0)" xlink:href="#aX"/><use transform="matrix(0.05,0,0,0.05,44.85,0)" xlink:href="#aV"/></g><g id="E"><use transform="matrix(0.05,0,0,0.05,0,0)" xlink:href="#bh"/><use transform="matrix(0.05,0,0,0.05,10,0)" xlink:href="#aU"/><use transform="matrix(0.05,0,0,0.05,20,0)" xlink:href="#bg"/><use transform="matrix(0.05,0,0,0.05,29,0)" xlink:href="#aX"/></g><g id="F"><use transform="matrix(0.05,0,0,0.05,0,0)" xlink:href="#bx"/><use transform="matrix(0.05,0,0,0.05,10,0)" xlink:href="#aV"/><use transform="matrix(0.05,0,0,0.05,15.949999999999998,0)" xlink:href="#bd"/><use transform="matrix(0.05,0,0,0.05,25.950000000000003,0)" xlink:href="#bj"/><use transform="matrix(0.05,0,0,0.05,35.95,0)" xlink:href="#aZ"/><use transform="matrix(0.05,0,0,0.05,45.95,0)" xlink:href="#bp"/><use transform="matrix(0.05,0,0,0.05,54.95,0)" xlink:href="#bf"/></g><path d="M101-234c-31-9-42 10-38 44h38v23H63V0H32v-167H5v-23h27c-7-52 17-82 69-68v24" id="bS"/><g id="G"><use transform="matrix(0.05,0,0,0.05,0,0)" xlink:href="#bS"/><use transform="matrix(0.05,0,0,0.05,5,0)" xlink:href="#bd"/><use transform="matrix(0.05,0,0,0.05,15,0)" xlink:href="#aV"/></g><g id="H"><use transform="matrix(0.05,0,0,0.05,0,0)" xlink:href="#bf"/><use transform="matrix(0.05,0,0,0.05,5,0)" xlink:href="#bh"/><use transform="matrix(0.05,0,0,0.05,15,0)" xlink:href="#aW"/><use transform="matrix(0.05,0,0,0.05,18.95,0)" xlink:href="#bc"/></g><g id="I"><use transform="matrix(0.05,0,0,0.05,0,0)" xlink:href="#bf"/><use transform="matrix(0.05,0,0,0.05,5,0)" xlink:href="#bO"/><use transform="matrix(0.05,0,0,0.05,14,0)" xlink:href="#bx"/><use transform="matrix(0.05,0,0,0.05,24,0)" xlink:href="#aX"/><use transform="matrix(0.05,0,0,0.05,34,0)" xlink:href="#bL"/></g><path fill="#fff" d="M23 0v-37h61v-169l-59 37v-38l62-41h46v211h57V0H23" id="bT"/><use transform="matrix(0.07407407407407408,0,0,0.07407407407407408,0,0)" xlink:href="#bT" id="J"/><path d="M137-103V0h-34v-103L8-248h37l75 118 75-118h37" id="bU"/><g id="K"><use transform="matrix(0.05,0,0,0.05,0,0)" xlink:href="#bU"/><use transform="matrix(0.05,0,0,0.05,10.35,0)" xlink:href="#aX"/><use transform="matrix(0.05,0,0,0.05,20.35,0)" xlink:href="#bc"/></g><path d="M190 0L58-211 59 0H30v-248h39L202-35l-2-213h31V0h-41" id="bV"/><g id="L"><use transform="matrix(0.05,0,0,0.05,0,0)" xlink:href="#bV"/><use transform="matrix(0.05,0,0,0.05,12.950000000000001,0)" xlink:href="#bd"/></g><path fill="#fff" d="M182-182c0 78-84 86-111 141h115V0H12c-6-101 99-100 120-180 1-22-12-31-33-32-23 0-32 14-35 34l-49-3c5-45 32-70 84-70 51 0 83 22 83 69" id="bW"/><use transform="matrix(0.07407407407407408,0,0,0.07407407407407408,0,0)" xlink:href="#bW" id="M"/><g id="N"><use transform="matrix(0.05,0,0,0.05,0,0)" xlink:href="#bf"/><use transform="matrix(0.05,0,0,0.05,5,0)" xlink:href="#aV"/><use transform="matrix(0.05,0,0,0.05,10.95,0)" xlink:href="#aW"/><use transform="matrix(0.05,0,0,0.05,14.899999999999999,0)" xlink:href="#aX"/><use transform="matrix(0.05,0,0,0.05,24.9,0)" xlink:href="#bc"/></g><g id="O"><use transform="matrix(0.05,0,0,0.05,0,0)" xlink:href="#bj"/><use transform="matrix(0.05,0,0,0.05,10,0)" xlink:href="#aW"/><use transform="matrix(0.05,0,0,0.05,13.949999999999998,0)" xlink:href="#bS"/><use transform="matrix(0.05,0,0,0.05,18.6,0)" xlink:href="#bS"/><use transform="matrix(0.05,0,0,0.05,23.6,0)" xlink:href="#aX"/><use transform="matrix(0.05,0,0,0.05,33.6,0)" xlink:href="#aV"/><use transform="matrix(0.05,0,0,0.05,39.550000000000004,0)" xlink:href="#aX"/><use transform="matrix(0.05,0,0,0.05,49.550000000000004,0)" xlink:href="#be"/><use transform="matrix(0.05,0,0,0.05,59.550000000000004,0)" xlink:href="#bf"/></g><g id="P"><use transform="matrix(0.05,0,0,0.05,0,0)" xlink:href="#bk"/><use transform="matrix(0.05,0,0,0.05,12.950000000000001,0)" xlink:href="#bd"/><use transform="matrix(0.05,0,0,0.05,22.950000000000003,0)" xlink:href="#aV"/><use transform="matrix(0.05,0,0,0.05,28.900000000000002,0)" xlink:href="#br"/><use transform="matrix(0.05,0,0,0.05,37.900000000000006,0)" xlink:href="#bS"/><use transform="matrix(0.05,0,0,0.05,42.900000000000006,0)" xlink:href="#bu"/><use transform="matrix(0.05,0,0,0.05,46.85000000000001,0)" xlink:href="#bd"/><use transform="matrix(0.05,0,0,0.05,56.85,0)" xlink:href="#bk"/></g><g id="Q"><use transform="matrix(0.05,0,0,0.05,0,0)" xlink:href="#bV"/><use transform="matrix(0.05,0,0,0.05,12.950000000000001,0)" xlink:href="#aX"/><use transform="matrix(0.05,0,0,0.05,22.950000000000003,0)" xlink:href="#bs"/><use transform="matrix(0.05,0,0,0.05,32.95,0)" xlink:href="#bd"/><use transform="matrix(0.05,0,0,0.05,42.95,0)" xlink:href="#bf"/><use transform="matrix(0.05,0,0,0.05,47.95,0)" xlink:href="#aW"/><use transform="matrix(0.05,0,0,0.05,51.900000000000006,0)" xlink:href="#aU"/><use transform="matrix(0.05,0,0,0.05,61.900000000000006,0)" xlink:href="#bf"/><use transform="matrix(0.05,0,0,0.05,66.9,0)" xlink:href="#aX"/></g><g id="R"><use transform="matrix(0.05,0,0,0.05,0,0)" xlink:href="#bp"/><use transform="matrix(0.05,0,0,0.05,9,0)" xlink:href="#aZ"/><use transform="matrix(0.05,0,0,0.05,19,0)" xlink:href="#bc"/><use transform="matrix(0.05,0,0,0.05,28,0)" xlink:href="#bf"/><use transform="matrix(0.05,0,0,0.05,33,0)" xlink:href="#bd"/><use transform="matrix(0.05,0,0,0.05,43,0)" xlink:href="#bb"/></g><g id="S"><use transform="matrix(0.05,0,0,0.05,0,0)" xlink:href="#bj"/><use transform="matrix(0.05,0,0,0.05,10,0)" xlink:href="#aX"/><use transform="matrix(0.05,0,0,0.05,20,0)" xlink:href="#aU"/><use transform="matrix(0.05,0,0,0.05,30,0)" xlink:href="#bu"/></g><g id="T"><use transform="matrix(0.05,0,0,0.05,0,0)" xlink:href="#bk"/><use transform="matrix(0.05,0,0,0.05,12.950000000000001,0)" xlink:href="#aW"/><use transform="matrix(0.05,0,0,0.05,16.900000000000002,0)" xlink:href="#bf"/><use transform="matrix(0.05,0,0,0.05,21.900000000000002,0)" xlink:href="#bh"/></g><g id="U"><use transform="matrix(0.05,0,0,0.05,0,0)" xlink:href="#bp"/><use transform="matrix(0.05,0,0,0.05,9,0)" xlink:href="#aU"/><use transform="matrix(0.05,0,0,0.05,19,0)" xlink:href="#aV"/><use transform="matrix(0.05,0,0,0.05,24.95,0)" xlink:href="#aV"/><use transform="matrix(0.05,0,0,0.05,30.899999999999995,0)" xlink:href="#aW"/><use transform="matrix(0.05,0,0,0.05,34.85,0)" xlink:href="#aX"/><use transform="matrix(0.05,0,0,0.05,44.85,0)" xlink:href="#aV"/></g><g id="V"><use transform="matrix(0.05,0,0,0.05,0,0)" xlink:href="#bc"/><use transform="matrix(0.05,0,0,0.05,9,0)" xlink:href="#aX"/><use transform="matrix(0.05,0,0,0.05,19,0)" xlink:href="#be"/><use transform="matrix(0.05,0,0,0.05,29,0)" xlink:href="#bj"/><use transform="matrix(0.05,0,0,0.05,39,0)" xlink:href="#bc"/></g><g id="W"><use transform="matrix(0.05,0,0,0.05,0,0)" xlink:href="#bp"/><use transform="matrix(0.05,0,0,0.05,9,0)" xlink:href="#bd"/><use transform="matrix(0.05,0,0,0.05,19,0)" xlink:href="#bb"/><use transform="matrix(0.05,0,0,0.05,33.95,0)" xlink:href="#bx"/><use transform="matrix(0.05,0,0,0.05,43.95,0)" xlink:href="#bu"/><use transform="matrix(0.05,0,0,0.05,47.900000000000006,0)" xlink:href="#aX"/><use transform="matrix(0.05,0,0,0.05,57.900000000000006,0)" xlink:href="#bf"/><use transform="matrix(0.05,0,0,0.05,62.900000000000006,0)" xlink:href="#aX"/></g><g id="X"><use transform="matrix(0.05,0,0,0.05,0,0)" xlink:href="#bc"/><use transform="matrix(0.05,0,0,0.05,9,0)" xlink:href="#aZ"/><use transform="matrix(0.05,0,0,0.05,19,0)" xlink:href="#ba"/><use transform="matrix(0.05,0,0,0.05,29,0)" xlink:href="#bb"/><use transform="matrix(0.05,0,0,0.05,43.95,0)" xlink:href="#aW"/><use transform="matrix(0.05,0,0,0.05,47.900000000000006,0)" xlink:href="#bc"/><use transform="matrix(0.05,0,0,0.05,56.900000000000006,0)" xlink:href="#bc"/><use transform="matrix(0.05,0,0,0.05,65.9,0)" xlink:href="#aW"/><use transform="matrix(0.05,0,0,0.05,69.85000000000001,0)" xlink:href="#bd"/><use transform="matrix(0.05,0,0,0.05,79.85000000000001,0)" xlink:href="#be"/></g><path fill="#fff" d="M128-127c34 4 56 21 59 58 7 91-148 94-172 28-4-9-6-17-7-26l51-5c1 24 16 35 40 36 23 0 39-12 38-36-1-31-31-36-65-34v-40c32 2 59-3 59-33 0-20-13-33-34-33s-33 13-35 32l-50-3c6-44 37-68 86-68 50 0 83 20 83 66 0 35-22 52-53 58" id="bX"/><use transform="matrix(0.07407407407407408,0,0,0.07407407407407408,0,0)" xlink:href="#bX" id="Y"/><path d="M240 0l2-218c-23 76-54 145-80 218h-23L58-218 59 0H30v-248h44l77 211c21-75 51-140 76-211h43V0h-30" id="bY"/><g id="Z"><use transform="matrix(0.05,0,0,0.05,0,0)" xlink:href="#bY"/><use transform="matrix(0.05,0,0,0.05,14.950000000000001,0)" xlink:href="#aW"/><use transform="matrix(0.05,0,0,0.05,18.900000000000002,0)" xlink:href="#bc"/><use transform="matrix(0.05,0,0,0.05,27.900000000000002,0)" xlink:href="#bc"/><use transform="matrix(0.05,0,0,0.05,36.900000000000006,0)" xlink:href="#aW"/><use transform="matrix(0.05,0,0,0.05,40.85000000000001,0)" xlink:href="#be"/><use transform="matrix(0.05,0,0,0.05,50.85000000000001,0)" xlink:href="#bs"/></g><g id="aa"><use transform="matrix(0.05,0,0,0.05,0,0)" xlink:href="#bj"/><use transform="matrix(0.05,0,0,0.05,10,0)" xlink:href="#aU"/><use transform="matrix(0.05,0,0,0.05,20,0)" xlink:href="#bf"/><use transform="matrix(0.05,0,0,0.05,25,0)" xlink:href="#aU"/></g><g id="ab"><use transform="matrix(0.05,0,0,0.05,0,0)" xlink:href="#bM"/><use transform="matrix(0.05,0,0,0.05,12.950000000000001,0)" xlink:href="#aX"/><use transform="matrix(0.05,0,0,0.05,22.950000000000003,0)" xlink:href="#bS"/><use transform="matrix(0.05,0,0,0.05,27.950000000000003,0)" xlink:href="#aX"/><use transform="matrix(0.05,0,0,0.05,37.95,0)" xlink:href="#aV"/><use transform="matrix(0.05,0,0,0.05,43.900000000000006,0)" xlink:href="#aV"/><use transform="matrix(0.05,0,0,0.05,49.85000000000001,0)" xlink:href="#aX"/><use transform="matrix(0.05,0,0,0.05,59.85,0)" xlink:href="#bj"/></g><path d="M140-251c81 0 123 46 123 126C263-53 228-8 163 1c7 30 30 48 69 40v23c-55 16-95-15-103-61C56-3 17-48 17-125c0-80 42-126 123-126zm0 227c63 0 89-41 89-101s-29-99-89-99c-61 0-89 39-89 99S79-25 140-24" id="bZ"/><g id="ac"><use transform="matrix(0.05,0,0,0.05,0,0)" xlink:href="#bZ"/><use transform="matrix(0.05,0,0,0.05,14,0)" xlink:href="#aZ"/><use transform="matrix(0.05,0,0,0.05,24,0)" xlink:href="#bd"/><use transform="matrix(0.05,0,0,0.05,34,0)" xlink:href="#bf"/><use transform="matrix(0.05,0,0,0.05,39,0)" xlink:href="#aX"/><use transform="matrix(0.05,0,0,0.05,49,0)" xlink:href="#bj"/></g><g id="ad"><use transform="matrix(0.05,0,0,0.05,0,0)" xlink:href="#aY"/><use transform="matrix(0.05,0,0,0.05,12,0)" xlink:href="#aZ"/><use transform="matrix(0.05,0,0,0.05,22,0)" xlink:href="#bp"/><use transform="matrix(0.05,0,0,0.05,31,0)" xlink:href="#bp"/><use transform="matrix(0.05,0,0,0.05,40,0)" xlink:href="#aX"/><use transform="matrix(0.05,0,0,0.05,50,0)" xlink:href="#bc"/><use transform="matrix(0.05,0,0,0.05,59,0)" xlink:href="#bc"/></g><g id="ae"><use transform="matrix(0.05,0,0,0.05,0,0)" xlink:href="#bo"/><use transform="matrix(0.05,0,0,0.05,12.950000000000001,0)" xlink:href="#aX"/><use transform="matrix(0.05,0,0,0.05,22.950000000000003,0)" xlink:href="#bp"/><use transform="matrix(0.05,0,0,0.05,31.950000000000003,0)" xlink:href="#bu"/><use transform="matrix(0.05,0,0,0.05,35.900000000000006,0)" xlink:href="#aW"/><use transform="matrix(0.05,0,0,0.05,39.85000000000001,0)" xlink:href="#be"/><use transform="matrix(0.05,0,0,0.05,49.85000000000001,0)" xlink:href="#aX"/><use transform="matrix(0.05,0,0,0.05,59.85,0)" xlink:href="#bj"/></g><path fill="#fff" d="M136-208V0H84v-208H4v-40h212v40h-80" id="ca"/><path fill="#fff" d="M24-248c93 1 206-16 204 79-1 75-69 88-152 82V0H24v-248zm52 121c47 0 100 7 100-41 0-47-54-39-100-39v80" id="cb"/><g id="af"><use transform="matrix(0.06790123456790124,0,0,0.06790123456790124,0,0)" xlink:href="#bz"/><use transform="matrix(0.06790123456790124,0,0,0.06790123456790124,16.296296296296298,0)" xlink:href="#ca"/><use transform="matrix(0.06790123456790124,0,0,0.06790123456790124,30.69135802469136,0)" xlink:href="#bE"/><use transform="matrix(0.06790123456790124,0,0,0.06790123456790124,49.70370370370371,0)" xlink:href="#cb"/></g><use transform="matrix(0.07407407407407408,0,0,0.07407407407407408,0,0)" xlink:href="#bH" id="ag"/><g id="ah"><use transform="matrix(0.05,0,0,0.05,0,0)" xlink:href="#aT"/><use transform="matrix(0.05,0,0,0.05,12.950000000000001,0)" xlink:href="#bd"/><use transform="matrix(0.05,0,0,0.05,22.950000000000003,0)" xlink:href="#bb"/><use transform="matrix(0.05,0,0,0.05,37.900000000000006,0)" xlink:href="#bb"/><use transform="matrix(0.05,0,0,0.05,52.85,0)" xlink:href="#aZ"/><use transform="matrix(0.05,0,0,0.05,62.85,0)" xlink:href="#be"/><use transform="matrix(0.05,0,0,0.05,72.85000000000001,0)" xlink:href="#aW"/><use transform="matrix(0.05,0,0,0.05,76.80000000000001,0)" xlink:href="#bp"/><use transform="matrix(0.05,0,0,0.05,85.80000000000001,0)" xlink:href="#aU"/><use transform="matrix(0.05,0,0,0.05,95.80000000000001,0)" xlink:href="#bf"/><use transform="matrix(0.05,0,0,0.05,100.80000000000001,0)" xlink:href="#aX"/></g><g id="ai"><use transform="matrix(0.05,0,0,0.05,0,0)" xlink:href="#bb"/><use transform="matrix(0.05,0,0,0.05,14.950000000000001,0)" xlink:href="#aW"/><use transform="matrix(0.05,0,0,0.05,18.900000000000002,0)" xlink:href="#bc"/><use transform="matrix(0.05,0,0,0.05,27.900000000000002,0)" xlink:href="#bc"/><use transform="matrix(0.05,0,0,0.05,36.900000000000006,0)" xlink:href="#aW"/><use transform="matrix(0.05,0,0,0.05,40.85000000000001,0)" xlink:href="#be"/><use transform="matrix(0.05,0,0,0.05,50.85000000000001,0)" xlink:href="#bs"/></g><g id="aj"><use transform="matrix(0.05,0,0,0.05,0,0)" xlink:href="#bj"/><use transform="matrix(0.05,0,0,0.05,10,0)" xlink:href="#aU"/><use transform="matrix(0.05,0,0,0.05,20,0)" xlink:href="#bf"/><use transform="matrix(0.05,0,0,0.05,25,0)" xlink:href="#aU"/></g><g id="ak"><use transform="matrix(0.05,0,0,0.05,0,0)" xlink:href="#bf"/><use transform="matrix(0.05,0,0,0.05,5,0)" xlink:href="#bd"/></g><g id="al"><use transform="matrix(0.05,0,0,0.05,0,0)" xlink:href="#aV"/><use transform="matrix(0.05,0,0,0.05,5.95,0)" xlink:href="#aX"/><use transform="matrix(0.05,0,0,0.05,15.949999999999998,0)" xlink:href="#bK"/><use transform="matrix(0.05,0,0,0.05,25.950000000000003,0)" xlink:href="#aZ"/><use transform="matrix(0.05,0,0,0.05,35.95,0)" xlink:href="#aX"/><use transform="matrix(0.05,0,0,0.05,45.95,0)" xlink:href="#bc"/><use transform="matrix(0.05,0,0,0.05,54.95,0)" xlink:href="#bf"/><use transform="matrix(0.05,0,0,0.05,59.95,0)" xlink:href="#bc"/></g><g id="am"><use transform="matrix(0.05,0,0,0.05,0,0)" xlink:href="#aU"/><use transform="matrix(0.05,0,0,0.05,10,0)" xlink:href="#bj"/><use transform="matrix(0.05,0,0,0.05,20,0)" xlink:href="#bj"/><use transform="matrix(0.05,0,0,0.05,30,0)" xlink:href="#aW"/><use transform="matrix(0.05,0,0,0.05,33.95,0)" xlink:href="#bf"/><use transform="matrix(0.05,0,0,0.05,38.95,0)" xlink:href="#aW"/><use transform="matrix(0.05,0,0,0.05,42.900000000000006,0)" xlink:href="#bd"/><use transform="matrix(0.05,0,0,0.05,52.900000000000006,0)" xlink:href="#be"/><use transform="matrix(0.05,0,0,0.05,62.900000000000006,0)" xlink:href="#aU"/><use transform="matrix(0.05,0,0,0.05,72.9,0)" xlink:href="#bu"/></g><g id="an"><use transform="matrix(0.05,0,0,0.05,0,0)" xlink:href="#aW"/><use transform="matrix(0.05,0,0,0.05,3.95,0)" xlink:href="#be"/><use transform="matrix(0.05,0,0,0.05,13.949999999999998,0)" xlink:href="#bS"/><use transform="matrix(0.05,0,0,0.05,18.95,0)" xlink:href="#bd"/></g><path d="M266 0h-40l-56-210L115 0H75L2-248h35L96-30l15-64 43-154h32l59 218 59-218h35" id="cc"/><g id="ao"><use transform="matrix(0.05,0,0,0.05,0,0)" xlink:href="#cc"/><use transform="matrix(0.05,0,0,0.05,16.3,0)" xlink:href="#aU"/><use transform="matrix(0.05,0,0,0.05,26.3,0)" xlink:href="#aW"/><use transform="matrix(0.05,0,0,0.05,30.25,0)" xlink:href="#bf"/></g><g id="ap"><use transform="matrix(0.05,0,0,0.05,0,0)" xlink:href="#bM"/><use transform="matrix(0.05,0,0,0.05,12.950000000000001,0)" xlink:href="#aX"/><use transform="matrix(0.05,0,0,0.05,22.950000000000003,0)" xlink:href="#bc"/><use transform="matrix(0.05,0,0,0.05,31.950000000000003,0)" xlink:href="#aZ"/><use transform="matrix(0.05,0,0,0.05,41.95,0)" xlink:href="#bu"/><use transform="matrix(0.05,0,0,0.05,45.900000000000006,0)" xlink:href="#bf"/></g><use transform="matrix(0.07407407407407408,0,0,0.07407407407407408,0,0)" xlink:href="#bB" id="aq"/><path fill="#fff" d="M165-50V0h-47v-50H5v-38l105-160h55v161h33v37h-33zm-47-37l2-116L46-87h72" id="cd"/><use transform="matrix(0.07407407407407408,0,0,0.07407407407407408,0,0)" xlink:href="#cd" id="ar"/><g id="as"><use transform="matrix(0.05,0,0,0.05,0,0)" xlink:href="#bx"/><use transform="matrix(0.05,0,0,0.05,10,0)" xlink:href="#aV"/><use transform="matrix(0.05,0,0,0.05,15.949999999999998,0)" xlink:href="#aX"/><use transform="matrix(0.05,0,0,0.05,25.950000000000003,0)" xlink:href="#bx"/><use transform="matrix(0.05,0,0,0.05,35.95,0)" xlink:href="#aU"/><use transform="matrix(0.05,0,0,0.05,45.95,0)" xlink:href="#aV"/><use transform="matrix(0.05,0,0,0.05,51.900000000000006,0)" xlink:href="#aX"/><use transform="matrix(0.05,0,0,0.05,61.900000000000006,0)" xlink:href="#bc"/></g><g id="at"><use transform="matrix(0.05,0,0,0.05,0,0)" xlink:href="#bZ"/><use transform="matrix(0.05,0,0,0.05,14,0)" xlink:href="#aZ"/><use transform="matrix(0.05,0,0,0.05,24,0)" xlink:href="#bd"/><use transform="matrix(0.05,0,0,0.05,34,0)" xlink:href="#bf"/><use transform="matrix(0.05,0,0,0.05,39,0)" xlink:href="#aX"/></g><g id="au"><use transform="matrix(0.05,0,0,0.05,0,0)" xlink:href="#bq"/><use transform="matrix(0.05,0,0,0.05,12,0)" xlink:href="#aV"/><use transform="matrix(0.05,0,0,0.05,17.95,0)" xlink:href="#bd"/><use transform="matrix(0.05,0,0,0.05,27.950000000000003,0)" xlink:href="#bx"/><use transform="matrix(0.05,0,0,0.05,37.95,0)" xlink:href="#bd"/><use transform="matrix(0.05,0,0,0.05,47.95,0)" xlink:href="#bc"/><use transform="matrix(0.05,0,0,0.05,56.95,0)" xlink:href="#aU"/><use transform="matrix(0.05,0,0,0.05,66.95,0)" xlink:href="#bu"/></g><g id="av"><use transform="matrix(0.05,0,0,0.05,0,0)" xlink:href="#bM"/><use transform="matrix(0.05,0,0,0.05,12.950000000000001,0)" xlink:href="#aX"/><use transform="matrix(0.05,0,0,0.05,22.950000000000003,0)" xlink:href="#bN"/><use transform="matrix(0.05,0,0,0.05,26.900000000000002,0)" xlink:href="#aX"/><use transform="matrix(0.05,0,0,0.05,36.900000000000006,0)" xlink:href="#bp"/><use transform="matrix(0.05,0,0,0.05,45.900000000000006,0)" xlink:href="#bf"/><use transform="matrix(0.05,0,0,0.05,50.900000000000006,0)" xlink:href="#aX"/><use transform="matrix(0.05,0,0,0.05,60.900000000000006,0)" xlink:href="#bj"/></g><g id="aw"><use transform="matrix(0.05,0,0,0.05,0,0)" xlink:href="#ba"/><use transform="matrix(0.05,0,0,0.05,10,0)" xlink:href="#bO"/></g><g id="ax"><use transform="matrix(0.05,0,0,0.05,0,0)" xlink:href="#bp"/><use transform="matrix(0.05,0,0,0.05,9,0)" xlink:href="#aZ"/><use transform="matrix(0.05,0,0,0.05,19,0)" xlink:href="#bc"/><use transform="matrix(0.05,0,0,0.05,28,0)" xlink:href="#bf"/><use transform="matrix(0.05,0,0,0.05,33,0)" xlink:href="#bd"/><use transform="matrix(0.05,0,0,0.05,43,0)" xlink:href="#bb"/><use transform="matrix(0.05,0,0,0.05,57.95,0)" xlink:href="#aX"/><use transform="matrix(0.05,0,0,0.05,67.95,0)" xlink:href="#aV"/></g><g id="ay"><use transform="matrix(0.05,0,0,0.05,0,0)" xlink:href="#bp"/><use transform="matrix(0.05,0,0,0.05,9,0)" xlink:href="#bd"/><use transform="matrix(0.05,0,0,0.05,19,0)" xlink:href="#bg"/><use transform="matrix(0.05,0,0,0.05,28,0)" xlink:href="#aX"/><use transform="matrix(0.05,0,0,0.05,38,0)" xlink:href="#aV"/><use transform="matrix(0.05,0,0,0.05,43.95,0)" xlink:href="#aU"/><use transform="matrix(0.05,0,0,0.05,53.95,0)" xlink:href="#bs"/><use transform="matrix(0.05,0,0,0.05,63.95,0)" xlink:href="#aX"/></g><path d="M68-38c1 34 0 65-14 84H32c9-13 17-26 17-46H33v-38h35" id="ce"/><g id="az"><use transform="matrix(0.05,0,0,0.05,0,0)" xlink:href="#bu"/><use transform="matrix(0.05,0,0,0.05,3.95,0)" xlink:href="#aW"/><use transform="matrix(0.05,0,0,0.05,7.9,0)" xlink:href="#bb"/><use transform="matrix(0.05,0,0,0.05,22.85,0)" xlink:href="#aW"/><use transform="matrix(0.05,0,0,0.05,26.8,0)" xlink:href="#bf"/><use transform="matrix(0.05,0,0,0.05,31.8,0)" xlink:href="#bc"/><use transform="matrix(0.05,0,0,0.05,40.8,0)" xlink:href="#ce"/></g><path d="M33 0v-38h34V0H33" id="cf"/><g id="aA"><use transform="matrix(0.05,0,0,0.05,0,0)" xlink:href="#aX"/><use transform="matrix(0.05,0,0,0.05,10,0)" xlink:href="#bf"/><use transform="matrix(0.05,0,0,0.05,15,0)" xlink:href="#bp"/><use transform="matrix(0.05,0,0,0.05,24,0)" xlink:href="#cf"/></g><g id="aB"><use transform="matrix(0.05,0,0,0.05,0,0)" xlink:href="#bv"/><use transform="matrix(0.05,0,0,0.05,12,0)" xlink:href="#bp"/><use transform="matrix(0.05,0,0,0.05,21,0)" xlink:href="#bp"/><use transform="matrix(0.05,0,0,0.05,30,0)" xlink:href="#aX"/><use transform="matrix(0.05,0,0,0.05,40,0)" xlink:href="#bx"/><use transform="matrix(0.05,0,0,0.05,50,0)" xlink:href="#bf"/><use transform="matrix(0.05,0,0,0.05,55,0)" xlink:href="#aX"/><use transform="matrix(0.05,0,0,0.05,65,0)" xlink:href="#bj"/></g><g id="aC"><use transform="matrix(0.05,0,0,0.05,0,0)" xlink:href="#bn"/><use transform="matrix(0.05,0,0,0.05,12,0)" xlink:href="#aW"/><use transform="matrix(0.05,0,0,0.05,15.949999999999998,0)" xlink:href="#be"/><use transform="matrix(0.05,0,0,0.05,25.950000000000003,0)" xlink:href="#bj"/></g><g id="aD"><use transform="matrix(0.05,0,0,0.05,0,0)" xlink:href="#aV"/><use transform="matrix(0.05,0,0,0.05,5.95,0)" xlink:href="#aX"/><use transform="matrix(0.05,0,0,0.05,15.949999999999998,0)" xlink:href="#bK"/><use transform="matrix(0.05,0,0,0.05,25.950000000000003,0)" xlink:href="#aZ"/><use transform="matrix(0.05,0,0,0.05,35.95,0)" xlink:href="#aX"/><use transform="matrix(0.05,0,0,0.05,45.95,0)" xlink:href="#bc"/><use transform="matrix(0.05,0,0,0.05,54.95,0)" xlink:href="#bf"/></g><path d="M80-196l47-18 7 23-49 13 32 44-20 13-27-46-27 45-21-12 33-44-49-13 8-23 47 19-2-53h23" id="cg"/><use transform="matrix(0.05,0,0,0.05,0,0)" xlink:href="#cg" id="aE"/><path fill="#fff" d="M76-208v77h127v40H76V0H24v-248h183v40H76" id="ch"/><g id="aF"><use transform="matrix(0.06790123456790124,0,0,0.06790123456790124,0,0)" xlink:href="#ch"/><use transform="matrix(0.06790123456790124,0,0,0.06790123456790124,14.870370370370372,0)" xlink:href="#bD"/><use transform="matrix(0.06790123456790124,0,0,0.06790123456790124,21.660493827160497,0)" xlink:href="#bF"/><use transform="matrix(0.06790123456790124,0,0,0.06790123456790124,39.24691358024692,0)" xlink:href="#bD"/><use transform="matrix(0.06790123456790124,0,0,0.06790123456790124,46.037037037037045,0)" xlink:href="#bz"/><use transform="matrix(0.06790123456790124,0,0,0.06790123456790124,62.33333333333334,0)" xlink:href="#bI"/></g><g id="aG"><use transform="matrix(0.06790123456790124,0,0,0.06790123456790124,0,0)" xlink:href="#bz"/><use transform="matrix(0.06790123456790124,0,0,0.06790123456790124,16.296296296296298,0)" xlink:href="#ca"/><use transform="matrix(0.06790123456790124,0,0,0.06790123456790124,29.333333333333332,0)" xlink:href="#bH"/><use transform="matrix(0.06790123456790124,0,0,0.06790123456790124,46.91975308641976,0)" xlink:href="#bJ"/><use transform="matrix(0.06790123456790124,0,0,0.06790123456790124,64.50617283950618,0)" xlink:href="#ca"/></g><g id="aH"><use transform="matrix(0.05,0,0,0.05,0,0)" xlink:href="#bv"/><use transform="matrix(0.05,0,0,0.05,12,0)" xlink:href="#bj"/><use transform="matrix(0.05,0,0,0.05,22,0)" xlink:href="#bj"/></g><g id="aI"><use transform="matrix(0.05,0,0,0.05,0,0)" xlink:href="#by"/><use transform="matrix(0.05,0,0,0.05,8.950000000000001,0)" xlink:href="#aU"/><use transform="matrix(0.05,0,0,0.05,18.950000000000003,0)" xlink:href="#bc"/><use transform="matrix(0.05,0,0,0.05,27.950000000000003,0)" xlink:href="#br"/><use transform="matrix(0.05,0,0,0.05,36.95,0)" xlink:href="#bc"/></g><use transform="matrix(0.04938271604938272,0,0,0.04938271604938272,0,0)" xlink:href="#cg" id="aJ"/><g id="aK"><use transform="matrix(0.04938271604938272,0,0,0.04938271604938272,0,0)" xlink:href="#bv"/><use transform="matrix(0.04938271604938272,0,0,0.04938271604938272,11.851851851851853,0)" xlink:href="#bs"/><use transform="matrix(0.04938271604938272,0,0,0.04938271604938272,21.7283950617284,0)" xlink:href="#aX"/><use transform="matrix(0.04938271604938272,0,0,0.04938271604938272,31.60493827160494,0)" xlink:href="#be"/><use transform="matrix(0.04938271604938272,0,0,0.04938271604938272,41.48148148148149,0)" xlink:href="#bp"/><use transform="matrix(0.04938271604938272,0,0,0.04938271604938272,50.37037037037038,0)" xlink:href="#bO"/></g><path d="M47-170H22l-4-78h33" id="ci"/><g id="aL"><use transform="matrix(0.04938271604938272,0,0,0.04938271604938272,0,0)" xlink:href="#bj"/><use transform="matrix(0.04938271604938272,0,0,0.04938271604938272,9.876543209876544,0)" xlink:href="#bd"/><use transform="matrix(0.04938271604938272,0,0,0.04938271604938272,19.75308641975309,0)" xlink:href="#aX"/><use transform="matrix(0.04938271604938272,0,0,0.04938271604938272,29.629629629629633,0)" xlink:href="#bc"/><use transform="matrix(0.04938271604938272,0,0,0.04938271604938272,38.51851851851852,0)" xlink:href="#be"/><use transform="matrix(0.04938271604938272,0,0,0.04938271604938272,48.39506172839506,0)" xlink:href="#ci"/><use transform="matrix(0.04938271604938272,0,0,0.04938271604938272,51.75308641975309,0)" xlink:href="#bf"/></g><g id="aM"><use transform="matrix(0.04938271604938272,0,0,0.04938271604938272,0,0)" xlink:href="#bh"/><use transform="matrix(0.04938271604938272,0,0,0.04938271604938272,9.876543209876544,0)" xlink:href="#aU"/><use transform="matrix(0.04938271604938272,0,0,0.04938271604938272,19.75308641975309,0)" xlink:href="#bg"/><use transform="matrix(0.04938271604938272,0,0,0.04938271604938272,28.641975308641978,0)" xlink:href="#aX"/></g><g id="aN"><use transform="matrix(0.04938271604938272,0,0,0.04938271604938272,0,0)" xlink:href="#ba"/><use transform="matrix(0.04938271604938272,0,0,0.04938271604938272,9.876543209876544,0)" xlink:href="#aW"/><use transform="matrix(0.04938271604938272,0,0,0.04938271604938272,13.777777777777779,0)" xlink:href="#be"/><use transform="matrix(0.04938271604938272,0,0,0.04938271604938272,23.654320987654323,0)" xlink:href="#bj"/><use transform="matrix(0.04938271604938272,0,0,0.04938271604938272,33.53086419753087,0)" xlink:href="#aW"/><use transform="matrix(0.04938271604938272,0,0,0.04938271604938272,37.4320987654321,0)" xlink:href="#be"/><use transform="matrix(0.04938271604938272,0,0,0.04938271604938272,47.308641975308646,0)" xlink:href="#bs"/></g><g id="aO"><use transform="matrix(0.04938271604938272,0,0,0.04938271604938272,0,0)" xlink:href="#aU"/><use transform="matrix(0.04938271604938272,0,0,0.04938271604938272,9.876543209876544,0)" xlink:href="#aZ"/><use transform="matrix(0.04938271604938272,0,0,0.04938271604938272,19.75308641975309,0)" xlink:href="#bf"/><use transform="matrix(0.04938271604938272,0,0,0.04938271604938272,24.69135802469136,0)" xlink:href="#bh"/><use transform="matrix(0.04938271604938272,0,0,0.04938271604938272,34.567901234567906,0)" xlink:href="#bd"/><use transform="matrix(0.04938271604938272,0,0,0.04938271604938272,44.44444444444445,0)" xlink:href="#aV"/><use transform="matrix(0.04938271604938272,0,0,0.04938271604938272,50.320987654320994,0)" xlink:href="#aW"/><use transform="matrix(0.04938271604938272,0,0,0.04938271604938272,54.22222222222223,0)" xlink:href="#bf"/><use transform="matrix(0.04938271604938272,0,0,0.04938271604938272,59.1604938271605,0)" xlink:href="#bO"/><use transform="matrix(0.04938271604938272,0,0,0.04938271604938272,66.71604938271605,0)" xlink:href="#cf"/></g><g id="aP"><use transform="matrix(0.04938271604938272,0,0,0.04938271604938272,0,0)" xlink:href="#aT"/><use transform="matrix(0.04938271604938272,0,0,0.04938271604938272,12.790123456790125,0)" xlink:href="#aU"/><use transform="matrix(0.04938271604938272,0,0,0.04938271604938272,22.66666666666667,0)" xlink:href="#aV"/><use transform="matrix(0.04938271604938272,0,0,0.04938271604938272,28.54320987654322,0)" xlink:href="#aV"/><use transform="matrix(0.04938271604938272,0,0,0.04938271604938272,34.41975308641976,0)" xlink:href="#aW"/><use transform="matrix(0.04938271604938272,0,0,0.04938271604938272,38.320987654320994,0)" xlink:href="#aX"/><use transform="matrix(0.04938271604938272,0,0,0.04938271604938272,48.19753086419754,0)" xlink:href="#aV"/></g><g id="aQ"><use transform="matrix(0.04938271604938272,0,0,0.04938271604938272,0,0)" xlink:href="#bb"/><use transform="matrix(0.04938271604938272,0,0,0.04938271604938272,14.765432098765434,0)" xlink:href="#aZ"/><use transform="matrix(0.04938271604938272,0,0,0.04938271604938272,24.641975308641978,0)" xlink:href="#bc"/><use transform="matrix(0.04938271604938272,0,0,0.04938271604938272,33.53086419753087,0)" xlink:href="#bf"/></g><g id="aR"><use transform="matrix(0.04938271604938272,0,0,0.04938271604938272,0,0)" xlink:href="#ba"/><use transform="matrix(0.04938271604938272,0,0,0.04938271604938272,9.876543209876544,0)" xlink:href="#aW"/><use transform="matrix(0.04938271604938272,0,0,0.04938271604938272,13.777777777777779,0)" xlink:href="#be"/><use transform="matrix(0.04938271604938272,0,0,0.04938271604938272,23.654320987654323,0)" xlink:href="#bj"/><use transform="matrix(0.04938271604938272,0,0,0.04938271604938272,33.53086419753087,0)" xlink:href="#cf"/></g><g id="aS"><use transform="matrix(0.05,0,0,0.05,0,0)" xlink:href="#bn"/><use transform="matrix(0.05,0,0,0.05,12,0)" xlink:href="#bd"/><use transform="matrix(0.05,0,0,0.05,22,0)" xlink:href="#aZ"/><use transform="matrix(0.05,0,0,0.05,32,0)" xlink:href="#be"/><use transform="matrix(0.05,0,0,0.05,42,0)" xlink:href="#bj"/></g></defs></g></svg>