<?xml version="1.0" encoding="utf-8"?>
<!-- Generator: Adobe Illustrator 18.1.1, SVG Export Plug-In . SVG Version: 6.00 Build 0)  -->
<svg version="1.1" id="Layer_1" xmlns="http://www.w3.org/2000/svg" xmlns:xlink="http://www.w3.org/1999/xlink" x="0px" y="0px"
	 viewBox="0 0 512 512" enable-background="new 0 0 512 512" xml:space="preserve">
<g>
	<path d="M165.7,185.1c-34.1,0-61.7-27.6-61.7-61.7s27.6-61.7,61.7-61.7s61.7,27.6,61.7,61.7S199.8,185.1,165.7,185.1z M201.7,118.3
		c0-2.8-2.3-5.1-5.1-5.1H176V92.6c0-2.8-2.3-5.1-5.1-5.1h-10.3c-2.8,0-5.1,2.3-5.1,5.1v20.6h-20.6c-2.8,0-5.1,2.3-5.1,5.1v10.3
		c0,2.8,2.3,5.1,5.1,5.1h20.6v20.6c0,2.8,2.3,5.1,5.1,5.1h10.3c2.8,0,5.1-2.3,5.1-5.1v-20.6h20.6c2.8,0,5.1-2.3,5.1-5.1V118.3z"/>
</g>
<g>
	<path d="M475.4,155.4v329.1c0,15.1-12.3,27.4-27.4,27.4H64c-15.1,0-27.4-12.3-27.4-27.4V27.4C36.6,12.3,48.9,0,64,0h256
		c15.1,0,36.3,8.9,46.9,19.4l89.1,89.1C466.6,119.1,475.4,140.3,475.4,155.4z M438.9,182.9H320c-15.1,0-27.4-12.3-27.4-27.4V36.6
		H73.1v438.9h365.7V182.9z M155.4,219.4h201.1c5.1,0,9.1,4,9.1,9.1v18.3c0,5.1-4,9.1-9.1,9.1H155.4c-5.1,0-9.1-4-9.1-9.1v-18.3
		C146.3,223.4,150.3,219.4,155.4,219.4z M365.7,301.7V320c0,5.1-4,9.1-9.1,9.1H155.4c-5.1,0-9.1-4-9.1-9.1v-18.3
		c0-5.1,4-9.1,9.1-9.1h201.1C361.7,292.6,365.7,296.6,365.7,301.7z M365.7,374.9v18.3c0,5.1-4,9.1-9.1,9.1H155.4
		c-5.1,0-9.1-4-9.1-9.1v-18.3c0-5.1,4-9.1,9.1-9.1h201.1C361.7,365.7,365.7,369.7,365.7,374.9z M329.1,146.3h107.4
		c-1.7-4.9-4.3-9.7-6.3-11.7l-89.4-89.4c-2-2-6.9-4.6-11.7-6.3V146.3z"/>
</g>
</svg>
