<?xml version="1.0" encoding="utf-8"?>
<!-- Generator: Adobe Illustrator 17.1.0, SVG Export Plug-In . SVG Version: 6.00 Build 0)  -->
<!DOCTYPE svg PUBLIC "-//W3C//DTD SVG 1.1//EN" "http://www.w3.org/Graphics/SVG/1.1/DTD/svg11.dtd">
<svg version="1.1" id="Layer_1" xmlns="http://www.w3.org/2000/svg" xmlns:xlink="http://www.w3.org/1999/xlink" x="0px" y="0px"
	 viewBox="0 0 512 512" enable-background="new 0 0 512 512" xml:space="preserve">
<g>
	<g>
		<path d="M0,118.9c0-25.1,20.6-45.7,45.7-45.7h100.6h36.6h146.3h36.6h100.6c25.2,0,45.7,20.6,45.7,45.7v274.3
			c0,25.1-20.6,45.7-45.7,45.7H45.7C20.6,438.9,0,418.3,0,393.1V118.9z"/>
	</g>
	<g>
		<path fill="#FFFFFF" d="M201,355.5H87.8c-20.6,0-34.6-12.6-34.6-33.6c0-29.3,6.9-74.2,44.8-74.2c4,0,21,18,46.4,18
			s42.4-18,46.4-18c38,0,44.8,44.9,44.8,74.2C235.6,342.9,221.6,355.5,201,355.5z M144.4,256c-27.5,0-49.7-22.3-49.7-49.7
			s22.3-49.7,49.7-49.7s49.7,22.3,49.7,49.7S171.8,256,144.4,256z"/>
	</g>
	<g>
		<path fill="#FFFFFF" d="M410.2,207.3c0,3.3-2.8,6.1-6.1,6.1H294.6c-3.3,0-6.1-2.8-6.1-6.1v-12.2c0-3.3,2.8-6.1,6.1-6.1h109.5
			c3.3,0,6.1,2.8,6.1,6.1V207.3z M446.7,243.8c0,3.3-2.8,6.1-6.1,6.1h-146c-3.3,0-6.1-2.8-6.1-6.1v-12.2c0-3.3,2.8-6.1,6.1-6.1h146
			c3.3,0,6.1,2.8,6.1,6.1V243.8z M422.3,280.3c0,3.3-2.8,6.1-6.1,6.1H294.6c-3.3,0-6.1-2.8-6.1-6.1v-12.2c0-3.3,2.8-6.1,6.1-6.1
			h121.6c3.3,0,6.1,2.8,6.1,6.1V280.3z M458.8,316.8c0,3.3-2.8,6.1-6.1,6.1H294.6c-3.3,0-6.1-2.8-6.1-6.1v-12.2
			c0-3.3,2.8-6.1,6.1-6.1h158.1c3.3,0,6.1,2.8,6.1,6.1V316.8z"/>
	</g>
</g>
</svg>
