<?xml version="1.0" encoding="utf-8"?>
<!-- Generator: Adobe Illustrator 17.1.0, SVG Export Plug-In . SVG Version: 6.00 Build 0)  -->
<!DOCTYPE svg PUBLIC "-//W3C//DTD SVG 1.1//EN" "http://www.w3.org/Graphics/SVG/1.1/DTD/svg11.dtd">
<svg version="1.1" id="Layer_1" xmlns="http://www.w3.org/2000/svg" xmlns:xlink="http://www.w3.org/1999/xlink" x="0px" y="0px"
	 viewBox="0 0 512 512" enable-background="new 0 0 512 512" xml:space="preserve">
<g>
	<defs>
		<rect id="SVGID_1_" x="24.2" width="463.6" height="512"/>
	</defs>
	<clipPath id="SVGID_2_">
		<use xlink:href="#SVGID_1_"  overflow="visible"/>
	</clipPath>
</g>
<path d="M256.9,409.6c113.1,0,204.8-91.7,204.8-204.8S370,0,256.9,0S52.1,91.7,52.1,204.8S143.8,409.6,256.9,409.6L256.9,409.6z
	 M256.9,102.4c56.6,0,102.4,45.9,102.4,102.4c0,56.5-45.8,102.4-102.4,102.4c-56.6,0-102.4-45.9-102.4-102.4
	C154.5,148.3,200.3,102.4,256.9,102.4L256.9,102.4z M256.9,102.4"/>
<path d="M257.1,270c36.9,0,66.9-30,66.9-66.9c0-36.9-30-66.9-66.9-66.9c-36.9,0-66.9,30-66.9,66.9C190.2,240,220.2,270,257.1,270
	L257.1,270z M273.9,169.6c9.2,0,16.8,7.5,16.8,16.8c0,9.3-7.6,16.9-16.8,16.9c-9.3,0-16.9-7.6-16.9-16.9
	C257,177.1,264.5,169.6,273.9,169.6L273.9,169.6z M273.9,169.6"/>
<path d="M431,369.4c-42.6,48.7-105.2,79.7-175.1,79.7c-69.9,0-132.4-31-175.1-79.7c-35.8,25.6-57.6,59.1-57.6,95.9
	c0,80.5,104.2,32.5,232.7,32.5c128.5,0,232.7,48.1,232.7-32.5C488.7,428.5,466.9,395,431,369.4L431,369.4z M431,369.4"/>
</svg>
