<?xml version="1.0" encoding="utf-8"?>
<!-- Generated by IcoMoon.io -->
<!DOCTYPE svg PUBLIC "-//W3C//DTD SVG 1.1//EN" "http://www.w3.org/Graphics/SVG/1.1/DTD/svg11.dtd">
<svg version="1.1" xmlns="http://www.w3.org/2000/svg" xmlns:xlink="http://www.w3.org/1999/xlink" width="1024" height="1024" viewBox="0 0 1024 1024">
<g id="icomoon-ignore">
</g>
<path fill="#000" d="M410.122 255.996l-99.75-153.596h-310.372v819.186h1023.982v-665.59h-613.86zM771.606 830.678h-519.23v-97.102c21.714-9.71 50.668-22.246 80.506-34.78 50.846-21.362 103.812-42.9 127.116-51.376l4.766-1.59v-45.55c-36.9-22.774-62.498-70.442-62.498-126.056 0-77.506 49.258-140.18 109.812-140.18s109.812 62.674 109.812 140.18c0 55.26-25.246 102.574-61.616 125.35v46.078l4.768 1.764c0.884 0.352 62.674 22.952 127.468 50.494 12.534 5.296 66.206 29.66 79.094 36.016v96.75z"></path>
</svg>
