<?xml version="1.0" encoding="utf-8"?>
<!-- Generated by IcoMoon.io -->
<!DOCTYPE svg PUBLIC "-//W3C//DTD SVG 1.1//EN" "http://www.w3.org/Graphics/SVG/1.1/DTD/svg11.dtd">
<svg version="1.1" xmlns="http://www.w3.org/2000/svg" xmlns:xlink="http://www.w3.org/1999/xlink" width="1024" height="1024" viewBox="0 0 1024 1024">
<g id="icomoon-ignore">
</g>
<path fill="#000" d="M509.772 267.486c-280.476 0-507.31 206.882-507.31 244.5s226.836 244.5 507.286 244.5c280.454 0 508.43-206.906 508.43-244.5 0.022-37.618-227.956-244.5-508.408-244.5zM404.638 354.31c-29.322 27.952-47.996 67.124-47.996 110.846 0 84.746 68.358 154.224 153.104 154.224s154.25-69.5 154.25-154.226c0-43.722-18.674-82.894-47.996-110.846 81.294 16.66 155.23 49.802 213.67 85.684 41.366 25.394 74.894 51.79 95.968 71.968-21.094 20.18-54.736 46.67-95.968 71.994-83.032 50.966-198.198 97.11-319.924 97.11s-235.726-46.122-318.782-97.11c-41.23-25.324-74.894-51.812-95.99-71.994 21.094-20.204 54.624-46.602 95.99-71.968 58.438-35.86 132.4-69.024 213.67-85.684zM544.032 369.192c35.106 0 63.996 27.722 63.996 62.852 0 35.106-28.866 63.996-63.996 63.996s-62.852-28.866-62.852-63.996c0.022-35.15 27.746-62.852 62.852-62.852z"></path>
</svg>
