<?xml version="1.0" encoding="utf-8"?>
<!-- Generated by IcoMoon.io -->
<!DOCTYPE svg PUBLIC "-//W3C//DTD SVG 1.1//EN" "http://www.w3.org/Graphics/SVG/1.1/DTD/svg11.dtd">
<svg version="1.1" xmlns="http://www.w3.org/2000/svg" xmlns:xlink="http://www.w3.org/1999/xlink" width="1024" height="1024" viewBox="0 0 1024 1024">
<g id="icomoon-ignore">
</g>
<path fill="#000" d="M24.882 54.302v269.268h323.096l171.648 2.524c102.74 5.084 183.428 88.162 183.428 191.002s-80.722 175.788-183.462 180.904c-3.298 0.168-6.734 0-10.1 0l-161.55 2.524h-323.068v269.268h494.744c1.078 0 2.29-0.774 3.366-0.876 6.43 0.236 12.048 0.876 18.514 0.876 249.712 0 452.698-205.918 452.698-452.698 0-246.816-202.986-462.798-452.698-462.798-5.454 0-10.572-0.202-15.988 0-1.986-0.236-3.84 0-5.89 0h-494.746zM78.74 108.164h107.686v161.55h-107.686v-161.55zM78.74 754.39h107.686v161.55h-107.686v-161.55z"></path>
</svg>
