<?xml version="1.0" encoding="UTF-8"?>
<svg width="113px" height="112px" viewBox="0 0 113 112" version="1.1" xmlns="http://www.w3.org/2000/svg" xmlns:xlink="http://www.w3.org/1999/xlink">
    <!-- Generator: Sketch 58 (84663) - https://sketch.com -->
    <title>logo-fluffandlogic</title>
    <desc>Created with Sketch.</desc>
    <g id="Website-Designs-v2" stroke="none" stroke-width="1" fill="none" fill-rule="evenodd">
        <g id="Homepage" transform="translate(-121.000000, -47.000000)">
            <g id="Global-Nav" transform="translate(121.000000, 47.000000)">
                <g id="logo-fluffandlogic">
                    <g id="Group-5">
                        <path d="M56.8001501,0.100000001 C87.7280974,0.100000001 112.80015,25.1720544 112.80015,56.1 L112.796549,55.7 L0.80154902,55.6999669 C1.01447055,25.2649202 25.5062109,0.599871254 55.8740877,0.107502402 Z" id="Combined-Shape-Copy-2" fill="#000000"></path>
                        <path d="M56.8010017,55.6990008 C87.728949,55.6990008 112.801002,80.7710551 112.801002,111.699001 L112.801002,111.699001 L0.801001669,111.699001 C0.801001669,80.7710551 25.8730561,55.6990008 56.8010017,55.6990008 Z" id="Combined-Shape-Copy-3" fill="#000000" transform="translate(56.800577, 83.699501) rotate(-180.000000) translate(-56.800577, -83.699501) "></path>
                        <circle id="Oval" fill="#FFFFFF" opacity="0.195824033" cx="15.0000002" cy="68.400001" r="2.80000004"></circle>
                        <circle id="Oval-Copy-8" fill="#FFFFFF" opacity="0.195824033" cx="23.4000003" cy="80.0000012" r="2.80000004"></circle>
                        <circle id="Oval-Copy-14" fill="#FFFFFF" opacity="0.195824033" cx="30.2000004" cy="90.4000013" r="2.80000004"></circle>
                        <circle id="Oval-Copy-19" fill="#FFFFFF" opacity="0.195824033" cx="39.4000006" cy="99.2000015" r="2.80000004"></circle>
                        <circle id="Oval-Copy-3" fill="#FFFFFF" opacity="0.195824033" cx="43.8000006" cy="68.400001" r="2.80000004"></circle>
                        <circle id="Oval-Copy-9" fill="#FFFFFF" opacity="0.195824033" cx="52.2000008" cy="80.0000012" r="2.80000004"></circle>
                        <circle id="Oval-Copy-15" fill="#FFFFFF" opacity="0.195824033" cx="59.0000009" cy="90.4000013" r="2.80000004"></circle>
                        <circle id="Oval-Copy-20" fill="#FFFFFF" opacity="0.195824033" cx="68.200001" cy="99.2000015" r="2.80000004"></circle>
                        <circle id="Oval-Copy-4" fill="#FFFFFF" opacity="0.195824033" cx="59.8000009" cy="68.400001" r="2.80000004"></circle>
                        <circle id="Oval-Copy-10" fill="#FFFFFF" opacity="0.195824033" cx="68.200001" cy="80.0000012" r="2.80000004"></circle>
                        <circle id="Oval-Copy-16" fill="#FFFFFF" opacity="0.195824033" cx="75.0000011" cy="90.4000013" r="2.80000004"></circle>
                        <circle id="Oval-Copy-21" fill="#FFFFFF" opacity="0.195824033" cx="84.2000012" cy="99.2000015" r="2.80000004"></circle>
                        <circle id="Oval-Copy-5" fill="#FFFFFF" opacity="0.195824033" cx="74.2000011" cy="68.400001" r="2.80000004"></circle>
                        <circle id="Oval-Copy-11" fill="#FFFFFF" opacity="0.195824033" cx="82.6000012" cy="80.0000012" r="2.80000004"></circle>
                        <circle id="Oval-Copy-17" fill="#FFFFFF" opacity="0.195824033" cx="89.4000013" cy="90.4000013" r="2.80000004"></circle>
                        <circle id="Oval-Copy-6" fill="#FFFFFF" opacity="0.195824033" cx="87.8000013" cy="68.400001" r="2.80000004"></circle>
                        <circle id="Oval-Copy-12" fill="#FFFFFF" opacity="0.195824033" cx="96.2000014" cy="80.0000012" r="2.80000004"></circle>
                        <circle id="Oval-Copy-7" fill="#FFFFFF" opacity="0.195824033" cx="103.800002" cy="68.400001" r="2.80000004"></circle>
                        <circle id="Oval-Copy-2" fill="#FFFFFF" opacity="0.195824033" cx="29.4000004" cy="68.400001" r="2.80000004"></circle>
                        <circle id="Oval-Copy-13" fill="#FFFFFF" opacity="0.195824033" cx="37.8000005" cy="80.0000012" r="2.80000004"></circle>
                        <circle id="Oval-Copy-18" fill="#FFFFFF" opacity="0.195824033" cx="44.6000006" cy="90.4000013" r="2.80000004"></circle>
                        <circle id="Oval-Copy-22" fill="#FFFFFF" opacity="0.195824033" cx="53.8000008" cy="99.2000015" r="2.80000004"></circle>
                        <path d="M23.6360086,56.1095284 C23.6360086,56.1095284 3.2518286,52.8519111 9.33268807,45.0821845 C15.4135475,37.3124578 23.6360086,56.1095284 23.6360086,56.1095284 Z" id="Path" fill="#FFFFFF" opacity="0.26469494" transform="translate(15.918004, 49.654765) rotate(-202.000000) translate(-15.918004, -49.654765) "></path>
                        <path d="M46.8360089,54.1095284 C46.8360089,54.1095284 26.4518289,50.8519111 32.5326884,43.0821844 C38.6135479,35.3124578 46.8360089,54.1095284 46.8360089,54.1095284 Z" id="Path-Copy-6" fill="#FFFFFF" opacity="0.26469494" transform="translate(39.118005, 47.654764) rotate(-177.000000) translate(-39.118005, -47.654764) "></path>
                        <path d="M36.4360088,35.7095281 C36.4360088,35.7095281 16.0518288,32.4519108 22.1326883,24.6821842 C28.2135477,16.9124575 36.4360088,35.7095281 36.4360088,35.7095281 Z" id="Path-Copy" fill="#FFFFFF" opacity="0.26469494" transform="translate(28.718005, 29.254764) rotate(-164.000000) translate(-28.718005, -29.254764) "></path>
                        <path d="M56.4360091,24.1095279 C56.4360091,24.1095279 36.0518291,20.8519107 42.1326886,13.082184 C48.213548,5.31245731 56.4360091,24.1095279 56.4360091,24.1095279 Z" id="Path-Copy-2" fill="#FFFFFF" opacity="0.26469494" transform="translate(48.718005, 17.654764) rotate(-153.000000) translate(-48.718005, -17.654764) "></path>
                        <path d="M81.2360095,24.5095279 C81.2360095,24.5095279 60.8518295,21.2519107 66.9326889,13.482184 C73.0135484,5.71245732 81.2360095,24.5095279 81.2360095,24.5095279 Z" id="Path-Copy-3" fill="#FFFFFF" opacity="0.26469494" transform="translate(73.518005, 18.054764) rotate(-88.000000) translate(-73.518005, -18.054764) "></path>
                        <path d="M64.4360092,47.7095283 C64.4360092,47.7095283 44.0518292,44.451911 50.1326887,36.6821843 C56.2135481,28.9124577 64.4360092,47.7095283 64.4360092,47.7095283 Z" id="Path-Copy-8" fill="#FFFFFF" opacity="0.26469494" transform="translate(56.718005, 41.254764) rotate(-124.000000) translate(-56.718005, -41.254764) "></path>
                        <path d="M97.6360097,38.9095281 C97.6360097,38.9095281 77.2518297,35.6519109 83.3326892,27.8821842 C89.4135486,20.1124575 97.6360097,38.9095281 97.6360097,38.9095281 Z" id="Path-Copy-4" fill="#FFFFFF" opacity="0.26469494" transform="translate(89.918005, 32.454764) rotate(-72.000000) translate(-89.918005, -32.454764) "></path>
                        <path d="M80.0360094,55.3095284 C80.0360094,55.3095284 59.6518294,52.0519111 65.7326889,44.2821845 C71.8135484,36.5124578 80.0360094,55.3095284 80.0360094,55.3095284 Z" id="Path-Copy-7" fill="#FFFFFF" opacity="0.26469494" transform="translate(72.318005, 48.854765) rotate(-72.000000) translate(-72.318005, -48.854765) "></path>
                        <path d="M104.03601,56.1095284 C104.03601,56.1095284 83.6518298,52.8519111 89.7326893,45.0821845 C95.8135487,37.3124578 104.03601,56.1095284 104.03601,56.1095284 Z" id="Path-Copy-5" fill="#FFFFFF" opacity="0.26469494" transform="translate(96.318006, 49.654765) rotate(-54.000000) translate(-96.318006, -49.654765) "></path>
                    </g>
                    <text id="FLUFF-Copy" font-family="Gotham-Bold, Gotham" font-size="18.9696008" font-weight="bold" fill="#FFFFFF">
                        <tspan x="25.505914" y="43.6000004">FLUFF</tspan>
                    </text>
                    <g id="Group" opacity="0.668085007" transform="translate(25.195200, 48.516801)">
                        <text id="&amp;-copy" font-family="Gotham-Bold, Gotham" font-size="10.9696006" font-weight="bold" fill="#FFFFFF">
                            <tspan x="27.6997804" y="11.2831993">&amp;</tspan>
                        </text>
                        <path d="M44.657602,6.86320043 L62.8368028,6.86320043" id="Line" stroke="#FFFFFF" stroke-width="1.58080007" stroke-linecap="square"></path>
                        <path d="M0.197600009,6.86320043 L18.3768008,6.86320043" id="Line-Copy" stroke="#FFFFFF" stroke-width="1.58080007" stroke-linecap="square"></path>
                    </g>
                    <text id="LOGIC-Copy" font-family="Gotham-Bold, Gotham" font-size="18.9696008" font-weight="bold" fill="#FFFFFF">
                        <tspan x="25.2552708" y="80.0000009">LOGIC</tspan>
                    </text>
                </g>
            </g>
        </g>
    </g>
</svg>