<?xml version="1.0" encoding="utf-8"?>
<!-- Generator: Adobe Illustrator 18.1.1, SVG Export Plug-In . SVG Version: 6.00 Build 0)  -->
<svg version="1.1" id="Layer_1" xmlns="http://www.w3.org/2000/svg" xmlns:xlink="http://www.w3.org/1999/xlink" x="0px" y="0px"
	 viewBox="0 0 512 512" enable-background="new 0 0 512 512" xml:space="preserve">
<g>
	<path fill="#010101" d="M501.3,454.9c-7.6,17.9-28,29.9-44.2,38.4c-21.2,11.9-43.3,18.8-67.9,18.8c-34,0-64.5-13.7-95.1-24.7
		c-22.1-7.7-43.3-17.9-63.7-29.9c-61.1-39.3-135.8-113.5-174-175c-12.7-20.5-22.1-41.8-29.7-64C14.8,187.8,1.2,157.1,1.2,123
		c0-24.7,6.8-46.1,18.7-67.4c9.3-16.2,20.4-36.7,38.2-44.4C70,6.1,95.4,0.1,109,0.1c2.5,0,5.1,0,7.6,0.9
		c7.6,2.6,15.3,20.5,19.5,27.3C148,48.8,159,70.1,170.9,90.6c5.9,9.4,17,21.3,17,32.4c0,22.2-65.4,54.6-65.4,74.2
		c0,10.2,9.3,22.2,14.4,31.6c36.5,66.6,82.4,111.8,148.6,148.5c8.5,5.1,21.2,14.5,31.4,14.5c19.5,0,51.8-65.7,73.9-65.7
		c11,0,22.9,11.1,32.3,17.1c20.4,11.9,41.6,23,62,35c7.6,3.4,25.5,11.9,27.2,19.6c0.8,2.6,0.8,5.1,0.8,7.7
		C512.4,417.4,506.4,443,501.3,454.9z"/>
</g>
<path d="M400,0c-62.4,0-112,49.6-112,111.2s50.4,112,112,112s112-50.4,112-112S462.4,0,400,0z M445.2,182h-90.5V41.2h88.3V68h-56.4
	v28.3h47.9v26.6h-47.9v32.4h58.5V182z"/>
</svg>
