<?xml version="1.0" encoding="utf-8"?>
<!-- Generator: Adobe Illustrator 18.1.1, SVG Export Plug-In . SVG Version: 6.00 Build 0)  -->
<!DOCTYPE svg PUBLIC "-//W3C//DTD SVG 1.1//EN" "http://www.w3.org/Graphics/SVG/1.1/DTD/svg11.dtd">
<svg version="1.1" id="Layer_1" xmlns="http://www.w3.org/2000/svg" xmlns:xlink="http://www.w3.org/1999/xlink" x="0px" y="0px"
	 viewBox="0 0 640 640" enable-background="new 0 0 640 640" xml:space="preserve">
<g>
	<path fill="#010101" d="M626.6,568.6c-9.5,22.4-35,37.4-55.2,48c-26.5,14.9-54.1,23.5-84.9,23.5c-42.5,0-80.6-17.1-118.9-30.9
		c-27.6-9.6-54.1-22.4-79.6-37.4C211.6,522.8,118.2,430,70.5,353.1c-15.9-25.6-27.6-52.2-37.1-80C18.5,234.8,1.5,196.4,1.5,153.8
		c0-30.9,8.5-57.6,23.4-84.2C36.5,49.2,50.4,23.6,72.6,14c14.9-6.4,46.6-13.9,63.6-13.9c3.1,0,6.4,0,9.5,1.1
		c9.5,3.2,19.1,25.6,24.4,34.1c14.9,25.6,28.6,52.2,43.5,77.9c7.4,11.8,21.2,26.6,21.2,40.5c0,27.8-81.8,68.2-81.8,92.8
		c0,12.8,11.6,27.8,18,39.5c45.6,83.2,103,139.8,185.7,185.6c10.6,6.4,26.5,18.1,39.2,18.1c24.4,0,64.7-82.1,92.4-82.1
		c13.8,0,28.6,13.9,40.4,21.4c25.5,14.9,52,28.8,77.5,43.8c9.5,4.2,31.9,14.9,34,24.5c1,3.2,1,6.4,1,9.6
		C640.5,521.8,633,553.8,626.6,568.6z"/>
</g>
</svg>
