<?xml version="1.0" encoding="utf-8"?>
<!-- Generator: Adobe Illustrator 22.1.0, SVG Export Plug-In . SVG Version: 6.00 Build 0)  -->
<svg version="1.1" xmlns="http://www.w3.org/2000/svg" xmlns:xlink="http://www.w3.org/1999/xlink" x="0px" y="0px"
	 viewBox="0 0 500 400" style="enable-background:new 0 0 500 400;" xml:space="preserve">
<style type="text/css">
	.st0{fill:#E0F2F1;}
	.st1{fill:#E53935;}
	.st2{fill:none;}
	.st3{fill:#B2DFDB;}
	.st4{fill:#8BC34A;}
</style>
<g id="Layer_1">
	<g>
		<rect class="st0" width="500" height="400"/>
	</g>
	<path class="st1" d="M80.5,113.7c-21.8,0-39.6,17.7-39.6,39.6s17.7,39.6,39.6,39.6s39.6-17.7,39.6-39.6S102.3,113.7,80.5,113.7z
		 M80.5,125.6c6.6,0,11.9,5.3,11.9,11.9c0,6.6-5.3,11.9-11.9,11.9s-11.9-5.3-11.9-11.9C68.6,130.9,73.9,125.6,80.5,125.6z
		 M80.5,181.8c-9.9,0-18.6-5.1-23.8-12.7c0.1-7.9,15.8-12.2,23.8-12.2c7.9,0,23.6,4.3,23.8,12.2C99.1,176.7,90.4,181.8,80.5,181.8z"
		/>
	<path class="st2" d="M33,107.4h95v95H33V107.4z"/>
	<path class="st2" d="M147,97.4v48H99v-48H147z"/>
	<path class="st1" d="M448.1,127.3h-52c-3.6,0-6.5,2.9-6.5,6.5l0,39c0,3.6,2.9,6.5,6.5,6.5h52c3.6,0,6.5-2.9,6.5-6.5v-39
		C454.6,130.2,451.6,127.3,448.1,127.3z M448.1,140.3l-26,16.3l-26-16.3v-6.5l26,16.3l26-16.3V140.3z"/>
	<path class="st3" d="M81.6,210.6c-21.9,0-39.6,17.7-39.6,39.6s17.7,39.6,39.6,39.6s39.6-17.7,39.6-39.6S103.4,210.6,81.6,210.6z
		 M81.6,222.4c6.6,0,11.9,5.3,11.9,11.9s-5.3,11.9-11.9,11.9c-6.6,0-11.9-5.3-11.9-11.9S75,222.4,81.6,222.4z M81.6,278.6
		c-9.9,0-18.6-5.1-23.8-12.7c0.1-7.9,15.8-12.2,23.8-12.2c7.9,0,23.6,4.3,23.8,12.2C100.2,273.6,91.5,278.6,81.6,278.6z"/>
	<path class="st3" d="M441.7,244.9c-1.8-9.2-9.9-16.1-19.6-16.1c-7.7,0-14.4,4.4-17.7,10.8c-8,0.9-14.3,7.7-14.3,15.9
		c0,8.8,7.2,16,16,16h34.7c7.4,0,13.3-6,13.3-13.3C454.1,251.1,448.6,245.4,441.7,244.9z M416.7,263.5l-9.3-9.3l3.8-3.8l5.6,5.5
		l13.8-13.8l3.8,3.8L416.7,263.5z"/>
	<path class="st2" d="M392.1,220.1h60v60h-60V220.1z"/>
	<path class="st3" d="M81.6,310.8c-21.9,0-39.6,17.7-39.6,39.6S59.7,390,81.6,390s39.6-17.7,39.6-39.6S103.4,310.8,81.6,310.8z
		 M81.6,322.7c6.6,0,11.9,5.3,11.9,11.9s-5.3,11.9-11.9,11.9c-6.6,0-11.9-5.3-11.9-11.9S75,322.7,81.6,322.7z M81.6,378.9
		c-9.9,0-18.6-5.1-23.8-12.7C58,358.3,73.7,354,81.6,354c7.9,0,23.6,4.3,23.8,12.2C100.2,373.8,91.5,378.9,81.6,378.9z"/>
	<path class="st3" d="M448.7,317.1h-53.3c-3.7,0-6.6,3-6.6,6.7l0,60l13.3-13.3h46.7c3.7,0,6.7-3,6.7-6.7v-40
		C455.4,320.1,452.4,317.1,448.7,317.1z M412.1,347.1h-6.7v-6.7h6.7V347.1z M425.4,347.1h-6.7v-6.7h6.7V347.1z M438.7,347.1h-6.7
		v-6.7h6.7V347.1z"/>
	<path class="st2" d="M390.1,318.4h64v64h-64V318.4z"/>
	<path class="st2" d="M-411-1604H989v3600H-411V-1604z M207,1396h24v24h-24V1396z"/>
	<path d="M227,1402h-10v6h-2v-8h6v-4h-8v6h-2c-1.1,0-2,0.9-2,2v12c0,1.1,0.9,2,2,2h16c1.1,0,2-0.9,2-2v-12
		C229,1402.9,228.1,1402,227,1402z"/>
	<path class="st3" d="M81.6,10.1C59.7,10.1,42,27.8,42,49.7s17.7,39.6,39.6,39.6s39.6-17.7,39.6-39.6S103.4,10.1,81.6,10.1z
		 M81.6,22c6.6,0,11.9,5.3,11.9,11.9s-5.3,11.9-11.9,11.9c-6.6,0-11.9-5.3-11.9-11.9S75,22,81.6,22z M81.6,78.2
		c-9.9,0-18.6-5.1-23.8-12.7c0.1-7.9,15.8-12.2,23.8-12.2c7.9,0,23.6,4.3,23.8,12.2C100.2,73.1,91.5,78.2,81.6,78.2z"/>
	<path class="st2" d="M373.6,1.2h97v97h-97V1.2z"/>
	<path class="st3" d="M447.5,33.8h-31.8v19.1h-6.4V27.4h19.1V14.7H403v19.1h-6.4c-3.5,0-6.4,2.9-6.4,6.4v38.2c0,3.5,2.9,6.4,6.4,6.4
		h50.9c3.5,0,6.4-2.9,6.4-6.4V40.1C453.9,36.6,451,33.8,447.5,33.8z"/>
	<path class="st2" d="M309,180.3h30v30h-30V180.3z"/>
	<path class="st1" d="M228.6,130.5H221v53.2c0,4.2,3.4,7.6,7.6,7.6h53.2v-7.6h-53.2V130.5z M289.4,115.3h-45.6
		c-4.2,0-7.6,3.4-7.6,7.6v45.6c0,4.2,3.4,7.6,7.6,7.6h45.6c4.2,0,7.6-3.4,7.6-7.6v-45.6C297,118.7,293.6,115.3,289.4,115.3z
		 M285.6,149.5h-38v-7.6h38V149.5z M270.4,164.7h-22.8v-7.6h22.8V164.7z M285.6,134.3h-38v-7.6h38V134.3z"/>
	<path class="st3" d="M228.6,30.5H221v53.2c0,4.2,3.4,7.6,7.6,7.6h53.2v-7.6h-53.2V30.5z M289.4,15.3h-45.6c-4.2,0-7.6,3.4-7.6,7.6
		v45.6c0,4.2,3.4,7.6,7.6,7.6h45.6c4.2,0,7.6-3.4,7.6-7.6V22.9C297,18.7,293.6,15.3,289.4,15.3z M285.6,49.5h-38v-7.6h38V49.5z
		 M270.4,64.7h-22.8v-7.6h22.8V64.7z M285.6,34.3h-38v-7.6h38V34.3z"/>
	<path class="st3" d="M228.6,235.5H221v53.2c0,4.2,3.4,7.6,7.6,7.6h53.2v-7.6h-53.2V235.5z M289.4,220.3h-45.6
		c-4.2,0-7.6,3.4-7.6,7.6v45.6c0,4.2,3.4,7.6,7.6,7.6h45.6c4.2,0,7.6-3.4,7.6-7.6v-45.6C297,223.7,293.6,220.3,289.4,220.3z
		 M285.6,254.5h-38v-7.6h38V254.5z M270.4,269.7h-22.8v-7.6h22.8V269.7z M285.6,239.3h-38v-7.6h38V239.3z"/>
	<path class="st3" d="M228.6,331.5H221v53.2c0,4.2,3.4,7.6,7.6,7.6h53.2v-7.6h-53.2V331.5z M289.4,316.3h-45.6
		c-4.2,0-7.6,3.4-7.6,7.6v45.6c0,4.2,3.4,7.6,7.6,7.6h45.6c4.2,0,7.6-3.4,7.6-7.6v-45.6C297,319.7,293.6,316.3,289.4,316.3z
		 M285.6,350.5h-38v-7.6h38V350.5z M270.4,365.7h-22.8v-7.6h22.8V365.7z M285.6,335.3h-38v-7.6h38V335.3z"/>
	<path class="st4" d="M134.6,135.6c7.8-7.8,7.8-20.5,0-28.3s-20.5-7.8-28.3,0s-7.8,20.5,0,28.3S126.8,143.4,134.6,135.6z
		 M108.4,123.4v-4h10.2v-10.2h4v10.2h10.2v4h-10.2v10.2h-4v-10.2H108.4z"/>
</g>
<g id="Layer_2">
</g>
<g id="Layer_3">
</g>
<g id="Layer_4">
</g>
</svg>
