<svg xmlns="http://www.w3.org/2000/svg" viewBox="0 0 981 211"><title>graph</title><g opacity="0.51"><path d="M56.65,199.5V173.93s166.76-36.11,230-80.19c45.9-32,85.13-111.69,185.69,12.21C579.52,238,641.64,47.26,658,33.31c12.7-10.82,53.48-55,107.76,80.77C792.7,181.49,970.7,149,970.7,149l1,50.55Z" fill="#81c784"/></g><g opacity="0.54"><path d="M57.13,128.32s113.53,1.16,191.47-47.07,166,40.39,207.35,40.39c71.2,0,115.46-37.19,133.74-47.65,20.89-11.95,115-61.31,190-16.56s191.48,71.18,191.48,71.18v70.6h-915Z" fill="#004d40"/></g><polyline points="56.67 15.5 56.67 199.5 973.67 199.5" fill="none" stroke="#d3d3d3" stroke-miterlimit="10"/><path d="M21.28,23a1.86,1.86,0,0,1-.67,1.5,3.38,3.38,0,0,1-1.89.67v1.2h-.8V25.19a6.45,6.45,0,0,1-2.51-.51V23.14a7.52,7.52,0,0,0,1.23.44,6.1,6.1,0,0,0,1.28.23V22l-.4-.15a4.41,4.41,0,0,1-1.64-1,1.92,1.92,0,0,1-.48-1.33,1.74,1.74,0,0,1,.66-1.4,3.45,3.45,0,0,1,1.86-.66v-.9h.8v.87a6.76,6.76,0,0,1,2.43.54l-.56,1.37a6.09,6.09,0,0,0-1.87-.45v1.73a8.86,8.86,0,0,1,1.63.76,2.14,2.14,0,0,1,.7.71A1.74,1.74,0,0,1,21.28,23Zm-4.12-3.47a.54.54,0,0,0,.18.42,2,2,0,0,0,.58.35V18.91C17.41,19,17.16,19.19,17.16,19.52Zm2.36,3.56a.53.53,0,0,0-.2-.42,2.79,2.79,0,0,0-.6-.35v1.46C19.25,23.68,19.52,23.45,19.52,23.08Z" fill="#b2b2b2"/><path d="M26.69,25.67H24.88v-5l0-.81,0-.9c-.3.31-.51.5-.62.6l-1,.79-.87-1.09,2.76-2.2h1.49Z" fill="#b2b2b2"/><path d="M29.27,24.83a1,1,0,0,1,.26-.75,1.11,1.11,0,0,1,.77-.25,1.05,1.05,0,0,1,.75.26,1.14,1.14,0,0,1,0,1.47,1.23,1.23,0,0,1-1.51,0A1,1,0,0,1,29.27,24.83Z" fill="#b2b2b2"/><path d="M35.6,20.19a2.78,2.78,0,0,1,2,.7,2.51,2.51,0,0,1,.73,1.91A2.78,2.78,0,0,1,37.43,25a3.72,3.72,0,0,1-2.53.77,4.91,4.91,0,0,1-2.31-.46V23.76a5.42,5.42,0,0,0,1.08.4,4.93,4.93,0,0,0,1.16.15c1.11,0,1.66-.45,1.66-1.36s-.57-1.29-1.72-1.29a4.37,4.37,0,0,0-.68.06c-.25,0-.45.09-.61.13l-.72-.38.32-4.37h4.65v1.54H34.67l-.16,1.68.21,0A3.61,3.61,0,0,1,35.6,20.19Z" fill="#b2b2b2"/><path d="M43.56,25.67,41.49,19h-.05c.08,1.36.11,2.28.11,2.73v4H39.93V17.1H42.4l2,6.55h0l2.15-6.55h2.47v8.57H47.4V21c0-.25,0-.91.08-2h0l-2.21,6.71Z" fill="#b2b2b2"/><path d="M21.28,81a1.86,1.86,0,0,1-.67,1.5,3.38,3.38,0,0,1-1.89.67v1.2h-.8V83.19a6.45,6.45,0,0,1-2.51-.51V81.14a7.52,7.52,0,0,0,1.23.44,6.1,6.1,0,0,0,1.28.23V80l-.4-.15a4.41,4.41,0,0,1-1.64-1,1.92,1.92,0,0,1-.48-1.33,1.74,1.74,0,0,1,.66-1.4,3.45,3.45,0,0,1,1.86-.66v-.9h.8v.87a6.76,6.76,0,0,1,2.43.54l-.56,1.37a6.09,6.09,0,0,0-1.87-.45v1.73a8.86,8.86,0,0,1,1.63.76,2.14,2.14,0,0,1,.7.71A1.74,1.74,0,0,1,21.28,81Zm-4.12-3.47a.54.54,0,0,0,.18.42,2,2,0,0,0,.58.35V76.91C17.41,77,17.16,77.19,17.16,77.52Zm2.36,3.56a.53.53,0,0,0-.2-.42,2.79,2.79,0,0,0-.6-.35v1.46C19.25,81.68,19.52,81.45,19.52,81.08Z" fill="#b2b2b2"/><path d="M26.69,83.67H24.88v-5l0-.81,0-.9c-.3.31-.51.5-.62.6l-1,.79-.87-1.09,2.76-2.2h1.49Z" fill="#b2b2b2"/><path d="M29.27,82.83a1,1,0,0,1,.26-.75,1.11,1.11,0,0,1,.77-.25,1.05,1.05,0,0,1,.75.26,1.14,1.14,0,0,1,0,1.47,1.23,1.23,0,0,1-1.51,0A1,1,0,0,1,29.27,82.83Z" fill="#b2b2b2"/><path d="M38.42,79.38a6,6,0,0,1-.73,3.33,2.57,2.57,0,0,1-2.27,1.07,2.52,2.52,0,0,1-2.23-1.11,5.91,5.91,0,0,1-.75-3.29A6,6,0,0,1,33.17,76a2.86,2.86,0,0,1,4.5,0A6,6,0,0,1,38.42,79.38Zm-4.18,0a6.71,6.71,0,0,0,.27,2.26.93.93,0,0,0,.91.68,1,1,0,0,0,.92-.69,9.22,9.22,0,0,0,0-4.51,1,1,0,0,0-.92-.69.94.94,0,0,0-.91.69A6.75,6.75,0,0,0,34.24,79.38Z" fill="#b2b2b2"/><path d="M43.56,83.67,41.49,77h-.05c.08,1.36.11,2.28.11,2.73v4H39.93V75.1H42.4l2,6.55h0l2.15-6.55h2.47v8.57H47.4V79c0-.25,0-.91.08-2h0l-2.21,6.71Z" fill="#b2b2b2"/><path d="M21.28,139a1.86,1.86,0,0,1-.67,1.5,3.38,3.38,0,0,1-1.89.67v1.2h-.8v-1.17a6.45,6.45,0,0,1-2.51-.51v-1.54a7.52,7.52,0,0,0,1.23.44,6.1,6.1,0,0,0,1.28.23V138l-.4-.15a4.41,4.41,0,0,1-1.64-1,1.92,1.92,0,0,1-.48-1.33,1.74,1.74,0,0,1,.66-1.4,3.45,3.45,0,0,1,1.86-.66v-.9h.8v.87a6.76,6.76,0,0,1,2.43.54l-.56,1.37a6.09,6.09,0,0,0-1.87-.45v1.73a8.86,8.86,0,0,1,1.63.76,2.14,2.14,0,0,1,.7.71A1.74,1.74,0,0,1,21.28,139Zm-4.12-3.47a.54.54,0,0,0,.18.42,2,2,0,0,0,.58.35v-1.38C17.41,135,17.16,135.19,17.16,135.52Zm2.36,3.56a.53.53,0,0,0-.2-.42,2.79,2.79,0,0,0-.6-.35v1.46C19.25,139.68,19.52,139.45,19.52,139.08Z" fill="#b2b2b2"/><path d="M28.15,137.38a6,6,0,0,1-.73,3.33,2.57,2.57,0,0,1-2.27,1.07,2.51,2.51,0,0,1-2.23-1.11,5.9,5.9,0,0,1-.76-3.29A6,6,0,0,1,22.9,134,2.53,2.53,0,0,1,25.15,133a2.51,2.51,0,0,1,2.24,1.12A5.86,5.86,0,0,1,28.15,137.38Zm-4.19,0a6.41,6.41,0,0,0,.28,2.26.93.93,0,0,0,.91.68,1,1,0,0,0,.92-.69,6.67,6.67,0,0,0,.28-2.25,6.4,6.4,0,0,0-.29-2.26.95.95,0,0,0-1.82,0A6.7,6.7,0,0,0,24,137.38Z" fill="#b2b2b2"/><path d="M29.27,140.83a1,1,0,0,1,.26-.75,1.11,1.11,0,0,1,.77-.25,1.05,1.05,0,0,1,.75.26,1.14,1.14,0,0,1,0,1.47,1.23,1.23,0,0,1-1.51,0A1,1,0,0,1,29.27,140.83Z" fill="#b2b2b2"/><path d="M35.6,136.19a2.78,2.78,0,0,1,2,.7,2.51,2.51,0,0,1,.73,1.91,2.78,2.78,0,0,1-.88,2.21,3.72,3.72,0,0,1-2.53.77,4.91,4.91,0,0,1-2.31-.46v-1.56a5.42,5.42,0,0,0,1.08.4,4.93,4.93,0,0,0,1.16.15c1.11,0,1.66-.45,1.66-1.36s-.57-1.29-1.72-1.29a4.37,4.37,0,0,0-.68.06c-.25,0-.45.09-.61.13l-.72-.38.32-4.37h4.65v1.54H34.67l-.16,1.68.21,0A3.61,3.61,0,0,1,35.6,136.19Z" fill="#b2b2b2"/><path d="M43.56,141.67,41.49,135h-.05c.08,1.36.11,2.28.11,2.73v4H39.93V133.1H42.4l2,6.55h0l2.15-6.55h2.47v8.57H47.4V137c0-.25,0-.91.08-2h0l-2.21,6.71Z" fill="#b2b2b2"/><path d="M49.74,195.38a6,6,0,0,1-.74,3.33,2.87,2.87,0,0,1-4.5,0,5.91,5.91,0,0,1-.75-3.29,6,6,0,0,1,.73-3.34,2.86,2.86,0,0,1,4.5.05A5.86,5.86,0,0,1,49.74,195.38Zm-4.19,0a6.71,6.71,0,0,0,.27,2.26,1,1,0,0,0,1.83,0,9.22,9.22,0,0,0,0-4.51,1,1,0,0,0-1.83,0A6.75,6.75,0,0,0,45.55,195.38Z" fill="#b2b2b2"/></svg>