<svg xmlns="http://www.w3.org/2000/svg" viewBox="0 0 599.67 350"><title>usa-map</title><polygon points="413.03 279.24 413.39 279.36 414.16 277.75 415.06 275.12 416.43 275.48 418.29 279.06 418.29 279.66 416.67 280.8 418.29 280.98 421.39 279.48 421.21 274.94 419.72 273.87 418.52 272.67 418.76 270.29 425.03 269.39 440.38 267.66 444.39 267.3 447.73 267.36 447.43 266.04 446.54 265.57 446 264.91 446.6 263.36 446.36 260.25 445.4 257.56 445.88 254.52 446.89 251.65 446.78 250.63 445.7 250.22 445.4 248.06 443.79 246.03 442.6 242.15 441.76 238.15 440.68 235.16 438.41 225.61 436.32 220.89 435.85 217.54 435.9 216.23 430.53 216.71 416.55 218.02 409.27 218.5 409.15 222.32 409.27 232.3 408.85 250.81 408.67 259.24 410.34 270.46 411.3 279.24 413.03 279.24" fill="#81c784"/><path d="M388.42,207.39,384.6,207l.53-1.85,1.86-1.55.35-1.38-1.07-1.73-19,.72-13.92.42-14.1.17.9,4.13.06,5.07.83,6.51.18,22.82,1.26,1,1.79-.72,1.73.72.24,6,15.05-.12,16-.48.54-1.13-.18-2.27-1-1.85.9-.84-.84-1.31.42-1.44.66-3.52,1.61-1.38-.48-1.31,2.39-3.35,1.5-.65-.06-1-.3-1,1.73-3.47,1.49-.65.12-2,1.26-.83.53-2.45-.83-2.39,2.51-1.43.18-1.26.71-2.51.54-1.85Z" fill="#d3d3d3"/><path d="M118.32,233.43l-.18.9.3.59,11.29,6.4,7.23,4.54,8.78,5.13,10,6,7.35,1.43L178.29,260l3.58-23.65,4.19-31.72,2.62-18.51L174,184l-36.26-6.57-.12.65-1.55,9.86-1.25,2.27-1.67-.12-.72-1.56-1.55-.23-.72-.66-.66.06-1.25,1-.18,4.07-.18.89-.3,7.47-.9,1.43-.23,2,1.67,3,.65,3.28.42.66.66.54-.24,1.43-1,.72-2,1-1,1.08-1,2.15-.3,2.93L122.56,223l-1.13.54-.06,3.46-.36,1,.3.47,2.33.24-.54,1.79-1,1.44-2.21.24Z" fill="#d3d3d3"/><path d="M110.92,231.16l-11.77-1.61-6-.9-.3-1.07V222l-.18-1.91-1.55-2.51-.48-1.37-2.33-2.51-1.73-2.81L85,210.73l-1.91-.47-.18-.6.9-.36-.36-1.91-.9-1.26-2.86-.47-2.33-1.26L76.69,203l-1.55-2.87-1.73-1.85H71.67l-2.33-1.25L66.66,196l-2.51-.3-1.44-1.61.3-1.14,1.08-4.24.48-1.13v-1.43l-1-.6-.3-1.73-.89-1.56-2-3.46-.77-1.85-.9-2.81-1-3.17-1.92-2.62-.29-1.74.47-2.33h.66l1.26-.95.65-2.15L58,159.55l-1.62-.3-1.13-1.56L54,155.48l-.12-4.89.36-1.14.36-1.37.3-1.44-3.41-3.76v-1.25l.18-.3.18-1.91L51.07,137l-1.38-2.87-1.61-2.69L47,129.14l.6-2.21.36-3.46L49,121.62l.17-3.89-.65-2.15-1-2.5L46,110.57l.48-1.91.89-2.51,1.08-.48.18-.66,1.85-1.55,3.11-7L53.69,92l1-2.93,23.11,7,15.29,3.94-4.77,18.7-5.18,19.77L90.69,150l25.18,37.21,10.22,15.59-.24,1.85,1.67,3.11.66,3.22.59.9.42.36-.12.83-.83.6-2,1-1.14,1.25-1,2.33-.3,2.81-1.56,1.49-1.37.66-.06,3.7-.36,1.14.6,1,1.79.18-.24,1-.83,1.19-2.33.36ZM66.78,202l.77.9-.12.78-1.91-.06-.36-.72-.36-.9Zm1.13,0,.72-.35,2.15,1.25,1.85.72-.54.36-2.69-.12-1-1Zm12.36,11.83,1.08,1.37.48.6.89.36.36-.9-.6-1.07-1.61-1.2-.66.12v.72Zm-.83,5.2,1.07,1.91.72,1.13-.9.12-.77-.71a5.83,5.83,0,0,1-.42-1.14V219Z" fill="#d3d3d3"/><path d="M264.72,141.33l-21.5-2.09L196,134.1l-1.31,13.2-4.18,30.1-1.14,8.19,20.31,2.33,22.4,2.63,20.72,1.79,8.55.36Z" fill="#d3d3d3"/><path d="M546.52,114.69l2.16-1.91,1.13-1.26.48.36,1.61-.89,3.11-.66,4.18-2.09-.36-2.51-.48-2.63-1-3.58-2.57.65-13,2.81.35,1.85.9,4.36v5l-.54,1.26,1,1.31Z" fill="#d3d3d3"/><path d="M536,148.32l-.59.3-2.16-1.44-1.07-2.81-1.14-2.15-1.37-.59-1.25-2.15.3-1.2.29-1.37.06-.66-.35.06-1,.6-1.19,1-.12.18.83,2.45,1.38,3.35,2.21,9.61,3-.18,3.59-.65Z" fill="#d3d3d3"/><path d="M485.72,266.58l-3.11-.42-.41.48.89,2.63-.24,3.11-2.45-.6-.12-1.67h-2.44l-3.17.41-19.35,1.14-4.9-.18-1-1-1.49-2.5h-3.52l-3.95.29-21.14,2.51-.18,1.68,1,.95,1.73,1.2.18,5,2-.36,3.58-1.25,3.59-.3,2.62-.36,4.54,1.08,4.84,2.33,1,.89,1.73.66,1,1.14L447,285l1.91-.78h2.33l2.15-1.13,2.21-2.15,1.85.12.3-.66-.48-.6.12-1.13,2.39-.48h1.55l1.73.89,2.51.9,1.43,2.21,1.62.6.65,2,2,.95,1,1.56,1.14.36,3.1.77.78,1.85,1.79,2.21v5.68l-.9,2.81.18,1.61.78,2.87,1.07,2.38.48-.29.9-2.69-1.55-.6-.18-.36.95-.36,2.69.6.12,1-1.91,3.28-1.26,1.44,2.15,2.21,1.56,1.85,1.73,3.16,1.73,2.33,1.26,3,1.07.18,1-1.26,1.07.66,1.55,2.39.36,2.15,1.85,2.63.48-.78,2.33.18,2.15,1.37,2,3.11.48,2,.18,1.73.66.6.77.3,1.44-.6.89-.95,2.33-.12,1.85-.9,1.62-1.91-.3-1.13-.18-1.44.36-1.13-.18-1.14,1.43-.77.18-2-.36-1.07-.3-7.17-.77-4.54-2.69-4.9-2.15-3.46-1.55-3.17-1.74-1.73-1.73-4.42.42-.83.66-.78-1-1.73-2.39-2.21-2.86-3.29-2.21-3.76-3.17-5.62-2.21-5.79-1.37-4.36Zm10.57,79.26,1.44-.36.77-.11.9-1.38,1.37-.95.78.29,1,.18.24.66-2.09.72-2.51.89-1.37.72Zm8.07-3,.71.65,1.62-1.25,3.16-2.51,2.21-2.33,1.49-3.94.6-1,.12-2-.42.3-.59,1.67-.9,2.75-1.91,3.17-2.63,2.51-2,1.13Z" fill="#d3d3d3"/><polygon points="485.72 265.98 482.38 265.57 481.54 266.52 482.49 269.33 482.31 271.66 481 271.3 480.88 269.51 477.78 269.51 474.61 269.93 455.32 271.06 450.72 270.88 449.88 270.17 448.39 267.6 447.91 265.63 446.95 265.09 446.66 264.79 447.19 263.48 446.95 260.19 446 257.5 446.48 254.58 447.49 251.71 447.37 250.22 446.24 249.8 446 247.89 444.33 245.8 443.19 242.09 442.3 237.91 441.28 235.04 439.01 225.49 436.92 220.71 436.44 217.54 436.5 216.17 438.47 215.99 446.6 215.03 457.71 213.84 461.47 213.18 461.77 214.02 460.45 214.56 459.92 215.87 460.15 217.07 460.99 218.02 463.56 219.63 465.47 219.57 467.38 222.38 467.74 223.34 469.12 225.01 469.41 226.03 472.22 227.1 474.01 228.41 475.39 230.21 476.76 230.98 477.95 232.06 478.79 233.67 480.05 234.81 482.49 235.88 484.11 239.46 485.12 242.51 486.8 242.93 488.05 244.06 489.24 247.47 490.98 248.42 491.99 247.95 492.23 248.66 490.26 252.37 490.56 253.92 489.66 256.43 488.29 262.4 488.77 266.16 485.72 265.98" fill="#004d40"/><path d="M370.2,110.33l1.26,1.25.18.42-1.2,1.79.18,2.39,1.55,2.45,1.86,1,1.43.18.54,1.07.12,1.43,1.49.6.54.66.3,1,2.26,2,.36,1.13-.41,1.79-1,2.21-.36,1.44L378,134l-1,.3-3.4.9-1,2.86.48,1.08,1,.89-.12,2.09-1.13.84-.42,1.08v1.43l-.83.24-1,.83-.3,1,.24,1-.78.59-1.37-1.61-.84-1.67-4.95.48-6,.35-29.38.72-1-2.57-.24-4-.83-2.51-.42-3.1L323.55,133l-.59-2.75-1.62-4.66-.65-3.35-.84-1.13-.78-1.73,1-2.27.72-3.65-1.62-1.31-.18-1.43.42-1.44,1.08-.18,36.49-.35,12.66-.42Z" fill="#d3d3d3"/><path d="M142.33,17.17l-2.86,10.4L136.78,40l-2,9.68-.24,5.78.72,2.65,2.09,1.59-.12,2.34-2.33,2.62-2.69,4-.54,1.73-.71.66-1.08.47-2.57,3.17L127,76.52l-.24.66.36.6,1.56-.06.65,1.37-1.43,3.46-.72,2.51L122,106.15l12.36,2.69,23.59,4.71,20.79,3.65,2.93-17.44,2.27-14.4-1.62-1.43-.24-1.56-.47-.65-1.26.6-.42,1.55-1.91.3-2.33-1-2.27.06-1.49.42-2-.9-1.43.12L167,84.11l-1.19-.66-.42-2.39.42-1.73-1.5-1.73-2-1.56-1.61-7.82-.06-2.81-.18-.06-.12.24-3,2.09-1-.12-1.73-2-.12-1.85,4.18-10.23-.24-1.16-2-.69-.36-.7-1.55-2.07-2.75-6.11-1.91-.91-1.19-3,.77-2.77-1.91-4.52L150.1,18.7Z" fill="#d3d3d3"/><path d="M407.18,128.67l-.48-1.56-.78-2.21-.95-1.07-.9-1.56-.24-3.28-9.5,1.07-10.39.6h-7.35l.12,1.26,1.32.53.65.84.24.84,2.33,2,.42,1.43-.42,2-1,2.21-.48,1.61-1.43,1.14-1.14.36-3.11.77-.77,2.45.36.66,1.13,1.07-.12,2.57-1.25,1-.3.78v1.67l-1.08.36-.83.71-.24.72.24,1.19-1,.78-.54,1.67.18,2.33,1.38,4.18,4.18,4.54,3.4,2.21v2.63l.42.72,3.94.36,1.62.83-.42,2.09-1.32,3.71-.47,1.79,1.19,2.21,3.82,3.16,2.87.48,1.31,3.05,1.2,2-.54,1.67.9,2.27,1,1.26,1-.18.6-1.32,1.43-1,1.67-.6,3.65,1.49L403,191v-.65l-.71-1.62.24-1.67,1.43-1,2-.72-.3-.78-.48-1.19.72-.78.6-1.61v-2.39l.24-2.93,1.49-1.79,1.08-2.27,1.49-2.39-.3-3.16-1.07-1.92-.18-2,.47-3.16-.41-4.3-.66-9.44-.84-9.14-.54-7Z" fill="#d3d3d3"/><path d="M409.68,129.74l.9.6.66-.18,1.25-1.14L414,128l8.55-.66,11-1.07,1,9.25,2.93,25.45-.36,1.73.78,1,.12.77-1.38,1-2.15,1-1.91.24-.3,2.87-2.81,2.15L427.66,174l.12,1.43-.3.84h-2.09l-.83-1-3.11,1.8.12,1.85L421,179l-.3-.54-1.43-1-2.15.9-.84,1.73-.71-.36-1-1.07L412,179l-3.4.6-1.49.77v-1.55l.23-2.81,1.38-1.73,1.07-2.33,1.62-2.51-.3-3.46L410,164.09l-.18-1.92.48-3.16-.42-4.24-.53-7.53-1.5-18Z" fill="#d3d3d3"/><polygon points="327.85 155.66 301.69 155.31 277.44 154.59 264.48 154.05 261.91 192.76 276.43 193.35 303.13 194.61 330.78 194.97 338.31 194.79 338.73 173.88 338.01 167.25 336.51 166.06 335.08 164.26 333.71 162.11 334.07 160.32 335.08 159.49 335.08 158.23 334.6 157.81 333.05 157.69 330.96 155.66 327.85 155.66" fill="#00796b"/><path d="M400.31,198.85l7.52-.42.06-2.45h2.57l18.16-1.91,26.94-2.57,3.34-2.15,2.33-1.25.06-1.14,3.58-4.66,2.45-2.15,1.26-1.43-2-1.2-1.5-1.61-1.79-2.27-.3-1.31-1.55-.84-.54-1.13-.12-3.65-1.55-1.19-1.14-.66-.29-1.37-.78.12-1.2.71-1.49,1.62-1.13-1-1.5-.3-1.43.84h-1.37l-1.08-1.2-3.34-.06-1.08-2.68-1.73-.9-1.26.48-2.5.12-.3,1.25.71.9.18,1.25-1.67,1.2-2.27,1.07-1.55.24-.3,2.69L429.81,172l-1.55,2.21.12,1.31-.54,1.38-2.69-.06-.77-.78-2.33,1.32.12,2-1.44.35-.47-.83-1-.72-1.61.66-1.08,2.09-1.31-.6-.84-1-2.21.24-3.34.59-1.67.78-.72,2-.6.6.9,2.21-2.51.83-1.14.84-.24,1.31.72,1.44v1.31l-.95.24L399,190.25l-1.37.53-1.2.84L396,192.7l1,1.43-.54,1.07-.06,2-1.43.77-1.25,1Z" fill="#d3d3d3"/><polygon points="352.34 290.89 357.18 290.71 363.33 292.86 367.22 293.52 369.43 292.62 371.34 293.28 373.25 293.88 373.73 292.62 371.81 291.97 370.26 292.26 368.65 291.31 369.13 290.41 370.98 289.82 372.05 290.71 373.13 290.12 375.04 290.47 375.94 291.91 376.12 293.28 378.8 293.46 379.88 294.54 379.4 295.49 378.62 295.97 379.58 296.92 384.6 299.07 386.75 298.3 387.35 296.87 388.9 296.51 389.97 295.61 390.75 296.21 391.23 297.94 389.85 298.42 390.21 298.78 392.24 298 393.62 295.97 394.09 295.67 392.84 295.49 393.32 294.54 393.2 293.64 394.45 293.34 395.11 292.56 395.47 293.04 395.83 294.89 398.33 295.25 400.72 296.39 401.32 297.28 403.05 297.28 403.71 297.88 405.08 296.03 405.08 295.13 404.31 295.13 402.28 293.52 398.81 293.04 396.9 291.67 397.56 290.06 398.93 290.24 399.05 289.88 397.98 289.28 397.98 288.98 399.89 288.98 400.96 287.13 400.19 285.99 400.01 284.38 399.11 284.5 397.98 285.75 397.62 287.31 395.77 286.95 395.17 285.87 396.25 284.74 397.38 283.72 396.06 279.84 394.04 277.81 394.63 273.45 394.51 273.15 393.74 273.27 373.96 274.11 373.49 272.67 373.96 267.6 379.1 258.76 378.56 257.2 379.4 256.96 379.64 255.77 378.33 254.58 378.38 253.44 377.19 250.75 376.95 247.71 377.01 247.29 361.24 247.77 346.19 247.83 346.43 253.62 346.85 259.3 347.15 261.5 348.7 264.19 349.24 266.82 351.81 270.4 351.99 272.26 352.34 272.73 351.93 277.69 350.25 280.44 350.97 281.87 350.67 283.43 350.19 287.79 349.42 289.58 349.54 291.79 352.34 290.89" fill="#004d40"/><path d="M567.73,103.7l-.3-1.38.48-.89,1.73-.9.48,1.85-.3,1.08-1.43.9V105l1.13-.89,2.33-2.69,2.33-1.14,2.51-.89-.18-1.44-.6-1.73-1.13-1.43-1.08-.48-1.25.12-.3.3.6.78.89-.48,1.26,1,.47,1.62-1.07,1.07-1.37.6-2.15-.3-2.33-3.58-1.38-1.56H566l-.66.48-1.14-1.55.18-.9,1.44-3.1-1.73-2.63-2.21,1.07-1.08,1.74-10.93,2.8-8.24,1.5-.36,6.33.42,2.92,13.14-2.86,6.69-1.68,1.19,1,2,2.57,1.73,2.81Zm7.47.83,1.31-.41.3-1,.6.06.59,1.37-.77.3-2.33.06Zm-5.62.48,1.37-1.55h1l1.08.9-1.44.59-1.31.6Z" fill="#d3d3d3"/><path d="M536.25,158.41l1-2.27.3-2.87-3.77.66-3.46.18-2.27-10-1.38-3.29L525.8,138l-13.26,2.57-22.46,4.54,1.19,6.21,2.87-2.92,1.5-.42.83-.9,1.08-1.61.95.42,1.56-.12,1.55-1.26,1.19-.89,1.26-.36.89.66,1.62.83,1.13,1.08.78.83,2.86,1-.35,1.73,3.46,1.26,1.25-1.56,2.21,1.5-1.25,2-.42,2-1.07,1.55v1.26l.18.47,1.19.78,2,.66,2.57-.06,1.85.59,1.26.18.59-1.25-.89-1.25v-1.08l-1.44-1.25-1.25-3.29.78-3.17-.12-1.25-.78-.78s.9-.95.9-1.37a6.48,6.48,0,0,1,.29-1.25l1.14-.78,1.13-1,.3.6-.89,1-.78,2.21.18.65,1.07.18.3,3.29-1.25.6.18,2.15.3-.12.65-1.14,1,1.08-1,.77-.18,2,1.56,2,2.33.3,1-.47,1.91,2.5.6.24Zm-8.66.12.66,1.49.12,1.08.65,1.13s.54-.53.54-.71-.42-1.85-.42-1.85l-.41-1.38Z" fill="#d3d3d3"/><path d="M554.77,55.56l.89.24V54.24l.48-3.28,1.55-2.81.9-2.39-1.13-1.43V40.74l.47-.59.48-1.62-.12-.89-.12-2.87,1.08-2.87L561,26.59l1.25-2.51H563l.78.12v.66l.77,1.37,1.62.36.47-.48v-.6L569,23.78l1.08-1.08.89.12,3.59,1.44,1.13.6,5.44,17.85h3.58l.48,1.14.12,2.87,1.73,1.37h.48l.12-.3-.3-.66,1.67-.29,1.14,1.25,1.37,2.21v1.13l-1.25,2.81-1.14.36-2,1.85-2.87,3.29h-.77c-.36,0-.6-1.26-.6-1.26l-1.08.12-.59.9-1.44.89-.59.9.95.9-.3.35-.29,1.62L578.42,64v-1l-.18-.77-.89.17-1.08-1.91-1.25.78.77.9.18.65-.48.78.18,1.85.12,1L574.84,68l-1.74.3-.17,1.73-3.17,1.85-.78.3-1-.9-1.85,2.16.59,1.91-.89.77-.12,2.63-.66,3.76L563.79,82l-.3-1.86-2.39-.65L561,78l-7-22.35Zm21.8,9.31.89-.89.84.66.36,1.43-1,.54Zm4-3.52,1.08,1.13s.77.06.77-.11.12-1.2.12-1.2l.54-.48-.48-1.07-1.19.42Z" fill="#d3d3d3"/><path d="M422.59,126.69l11.4-1.13.12.66,5.92-.9,7.16-1,.06-.36.12-.9,1.26-2.21,1.19-1-.12-3,1-1,.66-.18.11-2.15.9-1.79.66.36.12.36.48.12,1.13-.6-.24-5.43-1.91-4.9-1.37-5.44-1.44-1.91-1.55-1.07-1,.65-2.33,1.08-1.13,3-1.61,2.21-.66.36-.9-.36s-1.55-.89-1.43-1.25.3-3,.3-3l2-.77.48-2,.36-1.56,1.43-1-.18-6-1-1.37-.77-.48-.48-1.25.48-.48.95.18.12-1-1.55-1.31-.78-1.55h-1.55l-2.69-.9-3.28-2h-1.61l-.36.36-.6-.3-1.85-1.37L427,74.19l-1.74,1.38.18,2.15.6.18,1.25.29.3.48-1.55.48-1.55.18-.9,1.07-.18,1.26.18,1,.18,3.29-2.15,1.25-.36-.12v-2.5l.78-1.44.36-1.43-.48-.48-1.14.48-.59,2.51-1.62.65L417.45,86l-.12.6.36.47-.36,1.56-1.37.3v.65l.47,1.44-.65,3.64-1,2.39.36,2.81.3.65-.48,1.44-.18.47-.18,1.62,2.15,3.58,1.73,3.88.9,2.87-.48,2.81-.6,3.58-1.43,3.11-.18,1.61-1.91,1.85ZM402.7,83.45l-.78-.66-1.08-6.21-2.21-.78-1-1.37-7.53-1.67-1.67-.66-4.84-1.31-4.66-.6L376.59,67l.42-.29,1.61-.48,2.15-1.38v-.59l.36-.36,3.59-.6,1.43-1.13,2.63-1.26.12-.77L390,58.42l1.08-.47.77-1.08,1.38-1.37,2.63-1.44,2.8-.3.66.66-.18.6-2.21.6-.89,1.85-1.38.48-.3,1.43L393,61.29l-.18,1.55.48.3.6-.66L396,60.75l.77.78h1.38l1.91.6.89.65.9,1.86,1.61,1.61,2.33-.12.9-.6.95.78,1,.3.78-.48H410l1-.6,2.39-2.15,2-.66,3.94-.18,2.69-1.13,1.55-.78.9.12v3.41l.3.18,1.73.47,1.13-.29,3.65-1,.65-.66.9.3v4.18l1.91,1.85.78.36.77.6-.77.18-.48-.18-2.21-.3-1.26.36-1.37-.12-1.91.9h-1.08l-3.46-.78-3.11.12-1.13,1.55-4.18.36-1.44.48-.65,1.85-.78.66-.3-.12-.89-1-2.69,1.44h-.36l-.66-1-.47.12L406,77.42l-.6,2.39-1.91,4.12ZM385,49.7l1.07-1.25L387.4,48l3.23-2.33,1.37-.36.3.3-3,3.05-2,1.13L386,50.3ZM436.5,68.88l.36,1.49,1.91.12.78-.72s-.06-.89-.24-1a12.14,12.14,0,0,1-1-1.14L437,67.8l-1,.12-.17.66Z" fill="#d3d3d3"/><path d="M315.13,40.56l-.36,2.33V49l1,3,1.13,2,.3,5.93,1.08,8,1.07,4.36.24,3.82v3.17l-.95,1.07-1.08.78v.9l.54,1,2.45,2.09.42,1.91v21.45l36-.36,12.67-.42-.3-3.58-1.08-1.26-4.3-2.75L361.78,97l-2-.54-1.19-1.67h-1.92l-2.09-2.27-.3-4.18.06-2.33.9-1.79-.42-1.62-1.67-1.85,1.31-3.64,3.23-2.39.72-.84-.12-4.78.12-1.79,1.55-1.79,2.27-1.73.78-.12,2.68-3,1.08-.47,1.37-2.33,1.44-2.15,1.85-1.56L374.26,53l5.5-2.45,2.33-1.08.36-1.37-2.63.24-.42.66H379L378,47.13l-5.32.18-.6.48h-.59l-.3-.78-.48-1.07-1.55.3-1.91,1.91-1,.48h-1.85l-1.55-.6V46.78l-.78-.12-.3.3-1.55-.78-.3-1.73-.9.3-.3.59L357.3,45l-3.16-1.43-2.33-1.55h-1.74l-.77-.6-1.38.36-.65.66-.18.77h-2.87V42l-3.76-.18-.18-.9h-2.87l-1-1-.9-3.65L335.08,33,334,32.56l-1.38-.3-.36.12-.17,4.9-18,0Z" fill="#d3d3d3"/><path d="M391.88,203l.3-3.52,2.51-2,1.14-.59v-1.73l.41-1-.65-1-1.44.18-1.25-1.49-1-2.69.54-1.55-1.19-1.91L390.15,183l-2.75-.42-4.06-3.34L382,176.69l.48-2,1.31-3.59.36-1.79-1.14-.6-4.12-.35-.65-1.14V164.8l-3.17-2.09-4.3-4.66-1.37-4.36-.3-2.51.42-1.43L368,147.9l-.71-1.44-4.6.48-6,.36-29.14.72.77,1.55-.06,1.31,1.38,2.16,1.79,2.32,1.85,1.8,1.55.12.84.65v1.74l-1.08,1-.3,1.37,1.26,1.92L337,165.7l1.56,1.25.77,6.93-.48,23.89.3,3.41,14.16-.12,13.92-.42,19.41-.78,1.31,2.21-.48,1.86-1.85,1.49-.3,1.07,3.11.3,2.45-.65Z" fill="#d3d3d3"/><polygon points="398.57 282.89 400.13 280.38 401.2 280.86 405.26 279.72 406.52 279.9 407.41 280.38 410.52 280.38 410.76 279.42 409.74 270.58 408.07 259.24 408.67 232.3 408.55 222.32 408.67 218.56 405.8 218.74 394.09 219.69 386.33 219.93 386.21 221.84 384.54 222.62 382.99 225.67 383.28 226.62 383.34 228.06 381.61 228.71 379.52 231.76 380 233.13 378.21 234.63 377.61 238.03 377.25 239.17 378.21 240.66 377.31 241.5 378.21 243.17 378.38 245.68 377.67 247.17 377.55 247.71 377.79 250.69 378.98 253.38 378.92 254.4 380.3 255.59 379.88 257.44 379.34 257.62 379.7 258.76 374.56 267.72 374.08 272.61 374.38 273.51 388.84 273.09 393.74 272.67 394.87 272.5 395.23 273.33 394.63 277.57 396.6 279.54 397.92 283.37 398.57 282.89" fill="#81c784"/><path d="M253.31,42.94l-3.16,34.12-.78,9.08-35.3-3.94L184.8,78,184,84.64l-1.14-1-.24-1.49L181.81,81l-2,.9-.41,1.49-1.38.18-2.27-1-2.45.06-1.43.42L170,82.2l-1.79.12-1.26,1.13-.54-.36-.41-2,.41-1.91-1.61-1.91-2-1.5-1.49-7.52-.06-3.17-1-.47-.36.59-2.68,1.91-.72-.06-1.37-1.67-.12-1.67,4.18-10.24-.36-1.6-2.09-.67-.24-.54-1.61-2.09-2.75-6.22-1.91-.94-1.08-2.55.78-2.76-1.91-4.53,2.63-12.71,19.53,4.11,11,2,19.29,3.17L218,30.53l17.44,2.09,18.4,1.83Z" fill="#d3d3d3"/><path d="M507.52,214.32l-7.58-4.6-1.86-.48-9.91,1.26-1-1.8-1.67-1.31-10,.3-4.42.54-5.5,2.68-4.06,1.62-3.88.71-8,.84.06-2.45,1-.78,1.61-.41.42-2.27,2.33-1.5,2.33-.89,2.69-2.21,2.62-1.38.42-1.91,2.45-2.27.42.6,1.49.12,1.44-2.15,1-.24,1.55.18,1.08-2.39,1.49-1.43.3-1.08.06-2.09,2.63.06,23-3.34,34.35-7.35,1.19,2.87,2.15,3.88,1.44,1.43.36,1.38-1.44.11.48.36-.18,2.51-1.55.78-.36,1.25-.78,1.73-2.21,1-1.43-.18-.9-.12-1-.77.18.77v.6h1.13l.48.78L530.94,201h2.5l.36.95,1.38-1.37.77-.3-1.13,2.15L533,205.3h-.78l-.66-.3-1.61.36-3.11,1.43L522.93,210l-2,2.81-1.13,3.88-.3,1.43-2.81.3-3,.9ZM537,198.67l1.55-1.49,1.91-1.56.9-.36.12-1.19-.36-3.64-.9-1.38-.35-1.13.41-.12,1.62,3.28.23,2.63-.11,2-2,.9-1.67,1.43-.65.72Z" fill="#d3d3d3"/><path d="M319,76.16l-.23-3.7-1.08-4.36L316.57,60l-.3-5.79-1.14-1.9-.95-3.18V42.88l.35-2.3-1.07-3.31-17.08-.35-11.11-.36-15.83-.77L254.39,34.5l-.54,8.61L251,73.53,285,75.86l34,1Z" fill="#d3d3d3"/><path d="M318.54,122.69l-.6-1.37-.3-1-1.73-1-2.87-.9-1.31-.72-1.56.06-2.21.24-2.5.72-3.59-2.45-1.31-1.19-6.39.35-24.79-1.43-21.27-1.31-2.56,26.1,19.77,2-.84,12.6,13,.6,24.25.72,26.16.36h2.69l-1.31-1.8L327.67,151l.06-1.37L326.9,148l-1.14-3.11-.24-4-.83-2.45-.3-3L323,133.26l-.6-2.8-1.67-4.72-.6-3.17Z" fill="#d3d3d3"/><path d="M564.26,85.06l.66-1.91-1.61-.72-.3-1.85-2.45-.65-.18-1.8-7-22.38-.41,0-.36,1-.36-.3-.6-.6L550.77,57l-.12,1.37.29,5,1.14,1.67v2.57l-2.33,2.87-1.43.54v.41l.65,1.14v5.14l-.47,5.49L548.38,86l.59.83-.12,2.81-.29.9.59.65,3.05-.71,8.24-2.09,1-1.73,2.39-1.14Z" fill="#d3d3d3"/><path d="M529.62,137l.06-.9,1.61-.77,1-1.68,1-1.43,2-1.91v-.72l-3.65-2.45-.6-1.61-1.61-.18-.06-.54-.42-1.31,1.32-.66.12-1.73-.78-.78.12-.71,1.14-1.86v-1.85l1.49-1.85,3.34,1.49,3.83,1.14,1.49.72.06,1.07-.3,1.61.24,2.69L539.78,124l-.66.59.3.3,1.61-.18.66-.47.95,2,.12,5.61.36.66-.66,3.28-1.85,3.89L539,142l-.48,2.87-1.25,1.44h-.48l-.18-1.62.48-.59-.12-.9-2.39-.36-2.87-1.37-1.91-1.73-.6-1.2Z" fill="#d3d3d3"/><polygon points="199.02 257.14 189.04 255.59 188.32 261.32 178.89 260.13 182.47 236.42 186.65 204.64 189.28 186.19 209.59 188.51 231.93 191.14 251.04 192.81 250.86 199.27 250.03 199.21 245.61 257.56 228.64 256.49 205.89 254.28 206.3 258.04 199.02 257.14" fill="#4caf50"/><polygon points="111.16 104.36 134.27 109.43 149.8 112.54 143.47 144.25 140.24 162.05 138.27 171.31 137.02 177.94 135.47 187.74 134.45 189.59 133.49 189.53 132.78 187.98 131.1 187.68 130.33 187.02 129.25 187.08 128.72 187.56 127.64 188.34 127.46 192.7 127.28 193.59 126.98 201 126.33 202.07 116.35 186.84 91.2 149.75 83.78 138.4 88.89 118.93 93.67 100.23 111.16 104.36" fill="#4caf50"/><path d="M541.39,120.12l.3-1.61-.12-1.43-1.79-.9L535.89,115l-3.58-1.56-.36-.23-1.61-.18-1.2-.9-1.25-3.52-2-.3-1.44-1.44-22.93,4.84-18.88,3.59-.29-3.89.95-.71.78-.66.59-1,1.08-.65,1.13-1.08.3-1,1.26-1.62.65-.59-.12-.6-.77-1.85-1.08-.12L486,98l1.73-1.07,2.63-.9,2.39-.77,1.91-.3,3.76-.12,1.14.78.95.11,1.26-.77,1.55-.66,3.11-.3,1.25-1.07L508.78,91l1-1.14H511l1.13-.66.12-1.37-.9-1.25-.18-.9.66-1.25v-.9h-1.07L509.67,83l-.48-.66-.12-1.55,3.47-3.28.36-.48.89-1.73,1.73-2.69,1.62-2.21L518.39,69l1.44-1.08,1.85-.72,3.28-.77,1.91.12,2.69-.9L534,64.34l.42,2.92,1.43,3.89.48,3-.6,2.51,1.56,2.69.47,1.19-.53,1.91,2.21,1L541,89.54V93l-.36,6.51.48,3.22.42,2.15.89,4.36v4.84l-.65,1.38,1.25,1.61.3.54-1.14,1.07.18.78.78-.18.9-.78,1.37-1.55.66-.36.95.36,1.38.12,4.71-2.33,1.74-1.61.77-.9,2.51,1-2,2.15-2.33,1.73-4.24,3.16-1.55.6L544.55,122l-2.39.65-.59-.24Z" fill="#d3d3d3"/><path d="M434.11,126.81l1,9.26L438,160.62l2.33-.12,1.37-.48,2.15,1.08,1,2.51,3.23.06,1.08,1.19h1l1.43-.83,1.86.29.89.78,1.08-1.19,1.37-.84,1.43-.24.36,1.61,1,.6,1.55,1.2.48.12,1.19-.06.72-.36v-1.26l1-.89.06-2.87.65-2.51,1.14-.78.59.42.6.66.42.12.24-.24-.54-1.61v-1.32l.66-.83,1.49-2.15.78-.9,1.31.3,1.26-.9,1.79-2,1.31-2.21.12-3.22.3-3V138l-.72-1.91.72-1.07.78-.72-.36-1.67-2.57-15.29-3.7,2.21L468.52,121l-2,2.21-2.39,2.33-1.91.48-1.74.3-3.28,1.55-1.26.12-2-1.85-3.1.36-1.56-.9-1.31-.78Z" fill="#d3d3d3"/><path d="M283.65,200.7l-1.07,14.51L282,226l.12.95,2.39,2.15,1,.54h.53l.54-1.26.9,1.14.95.06.18-.12.12-.66,1.67.84-.24,2.09,2.27.3,1.5.6,2.51.35,1.37,1,1.49-1,2.09.42,1.32,1.85.71.06v1.38l1.26.42,1.49-1.26,1.08.36,1.61.06.42,1.37,2.63,1.08,1-.18,1.14-2.51h.77l.66,1.25,2.51.48,2,.78,1.79.48,1-.42.41-1.61h2.69l1.14.53,1.61-1.13h.84l.35.83H332l1.19-1.07,1.37.36,1,1.31,1.79,1,2,.53,1.14.72-.18-22.46-.84-6.51-.06-5.13-.89-4-.36-4.06.06-2.57-7.53.18-27.65-.3L276.43,194l-24.79-1.08-.24,6.4Z" fill="#d3d3d3"/><polygon points="77.91 95.58 94.78 99.88 111.21 103.76 121.37 105.97 126.63 85 127.34 82.38 128.78 79.09 128.36 78.31 126.86 78.37 126.09 77.3 126.44 76.4 126.68 74.43 129.49 71.03 130.63 70.49 131.16 70.01 131.58 68.4 132.06 67.74 134.39 64.34 136.6 61.95 136.72 60 134.69 58.51 133.97 55.8 126.15 53.51 117.01 51.44 108.17 51.66 107.51 50.87 104.47 51.97 101.78 51.69 100.34 50.74 99.57 51.06 96.77 50.89 95.6 50.04 92.71 48.98 92.05 48.94 89.39 48.18 88.34 49.09 84.61 48.94 81.43 46.65 81.56 41.1 80.33 39.01 77.89 38.65 77.47 37.16 76.03 36.86 72.57 38.12 71.19 42 69.28 47.97 67.37 51.85 64.39 60.27 60.5 68.4 55.67 75.92 54.53 77.66 54.05 82.79 53.28 86.38 54.9 88.47 77.91 95.58" fill="#81c784"/><path d="M477.6,115.47l.77-.3,3.41-3.29.42,4.12,20-3.88,22-4.66,1.37,1.38,1.85.23,1.2,3.35,1.43,1.13,1.67.24.06.06-1.55,1.91v1.86l-1.14,1.85L529,120.6l.78.78-.12,1.13-1.43.66.59,2,.12.66,1.68.18.53,1.49,3.53,2.33v.24l-1.85,1.79-.9,1.31-1,1.68-1.62.71-.83.18-1.26.78-1,.84L512.9,140l-23.12,4.66-6.75.84-2.33.42-3-13.38L475.09,117Z" fill="#d3d3d3"/><path d="M559.43,105.61,559,103l-1-3.58,3.41-.9.89.78,2,2.57,1.68,2.62-1.68.84-.77-.12-.66,1.08-1.43,1.13-1.68.66Z" fill="#d3d3d3"/><path d="M491,247.71l-1.26-.6-1.13-3.35-1.5-1.37-1.49-.3-.9-2.75-1.79-3.88-2.51-1.07-1.13-1.08-.72-1.55-1.43-1.2-1.38-.77-1.31-1.73-1.91-1.44-2.63-1-.24-.84-1.37-1.67-.3-.9L465.71,219l-2,.06-2.33-1.5-.72-.71-.12-.84.36-1,1.61-.77-.47-1.2,3.82-1.61,5.49-2.69,4.25-.53,9.79-.3,1.38,1.13,1.07,2.09,2.75-.48,7.52-.89,1.62.48,7.46,4.42,6,4.95L510,222.86l-1.55,3.64-.3,3.77-1,.47-.65,1.62-1.44.35-1.25,2.16-1.62,1.61-1.37,2-.95.48-2.15,2-1.74.12.6,1.91-3,3.16-1.37,1Z" fill="#d3d3d3"/><path d="M319,108.84l-.53,1.91.24,1.79,1.55,1.19-.72,3.23-1.07,2.45.89,2,.42.66-.78.06-.41-1-.36-1.2-2-1.07-2.87-.9-1.49-.77-1.74.06-2.33.24-2.26.71-3.17-2.27-1.61-1.43-6.51.48-24.79-1.44-21.27-1.31.9-14.81,1.67-20.31.24-3,34,2.33,34,1v1.61l-.77.9-1.2.89-.06,1.32.66,1.31,2.45,2,.3,1.61V108.6Z" fill="#d3d3d3"/><path d="M438.29,215.45l-7.82.72-13.92,1.31-22.46,1.62-7,.24.53-.36.54-2.69-.72-2.15,2.33-1.37.24-1.5.72-2.57,1.79-5.67.3-3.35.18-.12,7.35-.11,8.12-.48.06-2.33,2.09-.06,18.16-2L461,191.5l6.15-.89,4.54-.12,1.44-1.14.77.18-.06,2-.24,1-1.43,1.31-1,2.15-1.2-.24-1.43.54-1.32,2-.83-.12-.48-.72-.66.24L462.72,200l-.47,1.85-2.51,1.32-2.57,2.15-2.27.89-2.63,1.68-.36,2.15-1.49.3-1.19,1-.12,2.87Z" fill="#d3d3d3"/><path d="M206.54,254.87l22.1,2.15,17.5,1.14,4.42-58.36,32.5,1.44-1,13.91-.6,10.76.12,1.19,2.63,2.45,1.2.66h1.07l.3-.72.42.54,1.43.12.66-.36v-.12l.6.3-.24,2.21,2.68.42,1.44.53,2.51.42,1.55,1.08,1.67-1.14,1.62.36,1.31,1.85.48.06V237l2,.65,1.49-1.25.9.3,1.25.06.36,1.25,3.11,1.2,1.37-.3,1.13-2.39h.06l.66,1.13,2.75.54,2,.78,1.91.59,1.43-.71.42-1.38h2.15l1.26.6,1.79-1.19h.24l.3.83h2.8l1.14-1.07.78.24,1,1.25,2,1.14,2,.59,1.5.84,1.61,1.19,1.85-.71,1.25.47.42,12,.42,5.67.36,2.45,1.55,2.63.54,2.69,2.51,3.52.18,1.86.36.47-.42,4.6-1.73,2.87.77,1.55-.3,1.44-.47,4.3-.78,1.79L349,292l-3.35.95-5.91,2.69-.6,1.14-1.55,1.13-1.25.9-.78.47-3.41,3.17-1.61,1.25-3.16,1.92L324,307l-3.76,2-1.08.9-3.46,2.15-2,.35-2.33,3.29-2.39.18-.6,1.13,1.38,1.14-.9,3.28-.78,2.69-.65,2.33-.48,2.69.48,1.43,1.07,4.18.6,3.65,1.07,1.61-.59.9-1.85,1.13-3.41-2.33-3.28-.66-.78.3-1.91-.36-2.51-1.85-3.11-.65-4.54-2-1.25-2.33-.78-3.88-1.91-1.13-.36-1.38.36-.35.18-2-.78-.35-.35-.6.77-2.63-.95-1.37-1.91-.78-2-2.63L277,311.08l-2.5-1.55.12-1.14-3.17-7.34-.48-2.51-1.07-1.14-.12-.89-3.59-3.17-1.55-1.85v-.66l-1.55-1.25-4.06-.66-4.42-.36-1.86-1.37L250,288.26l-2.15.9-1.38,1.91-.6,2.21-2.62,3.64-1.44,1.44-1.55-.6-1.07-.66-1.14-.35-2.33-1.38V295l-1.07-1.13-3.11-1.26L227.15,288l-1.37-2.8v-4.84l-1.92-3.88-.29-1.62-1-.59L222,273l-3-1.25-.78-1L214,266l-.78-1.91-2.8-1.37-.9-2.63-1.55-1.73-1-.3Zm104.17,84.64-.36-4.24-1.61-4.3-.36-4.18.9-4.9,2-4.12,2.09-3.23,1.91-2.15.36.12-2.87,3.95-2.63,3.88-1.19,3.94-.18,3.11.54,3.64,1.55,4.3.3,3.11.12.89Z" fill="#d3d3d3"/><path d="M174.05,183.38l14.69,2.15,1.14-8.18,4.18-30.17L195.43,134,176.2,132l1.31-7.82,1.08-6.34-20.73-3.64-7.46-1.49-6.33,31.59-3.23,17.92-2,9.2-1,5.5Z" fill="#d3d3d3"/><path d="M536.19,159.07l-.12,1.67L534.34,163l-.24,2.75.3,2-1.08,3L532,171.91l-.9-2.75.24-3.22,1-2.51.42-2-.06-1Zm-36,26.64-23.05,3.34-2.87-.06-1.31-.18-1.5,1.14-4.36.06-6.15,1-4,.36,2.45-1.55,2.45-1.37v-1.26l3.4-4.36,2.45-2.21,1.32-1.49,2.15,2.57,2.27.53,1.61-.59,1.19-.9,1.44.72,2.74-.78,1-2.63,1.43.42,1.91-1.37,1,.24,1.67-1.92.12-1.61L487,173l2.87-6.27,1.08-3.1.29-2.81.42-.12.66,1,.9.71,2.33-.12,1-4.84,1.79-.35.48-1.56,1.67-1.31.66-1.25,1.07-2.57.06-2.75,2.15.84,3.95,1.85.18-3.11,2,.72-.36,1.73,5.14,1.85.83,1.08-.48,2-.77.77-.3,1,.3,1.43,1.19.78,2.33.84,1.73.59,2.93.54,1.31,1.26,1.92.23.53.72-.24,2.81.84.66-.3,1.13.72.48-.12.83-1.61-.06.06,1,1.37.9.06.83,1.08,1.08.29,1.49-1.55.84,1,.89,3.46-1,2.21,3.7Z" fill="#d3d3d3"/><path d="M535,67.14,536.43,71l.48,3.16-.6,2.33,1.49,2.63.54,1.37-.42,1.56,2,.89,1.74,6.45v3.17l6.87-1.26-.6-.65.36-1.14.12-2.57-.6-.83.12-2.81.48-5.55V72.7l-.66-1.08v-1l1.67-.66,2.09-2.63V65.23l-1.13-1.61-.18-3.46-15.59,4.06Z" fill="#d3d3d3"/><path d="M82.13,41.1l-1.38-2.57-2.45-.41-.24-1.44-1.49-.36L74.84,36l-1.08.6-1.37-1.73.18-1.73L74.18,33l1-2.39-1.56-.66.12-2.21,2.63-.36-1.61-1.61-.9-4.24.36-1.73V15.06l-1.07-1.91,1.37-5.62,1.25.3,1.44,1.73,1.61,1.56,1.91,1.13,2.69,1.26,1.85.35,1.73.9,2,.6,1.38-.12V13.81l.78-.66,1.25-.78.18.66.18,1.07-1.38.3-.18,1.26,1.08.89L92.94,18l.36,1.13.89-.12.12-.77-.6-.78-.3-1.91.48-1.08-.36-.89V12l1.08-2.15L94,8.31,92.52,5.44,92.7,5l.83-.48,2.63.89L102,7l5.13,1.13,12,3.41,13.74,3.4,9,2.08-2.87,10.49L136.18,40l-2,9.71-.24,5.48h0l-7.7-2.22-9.14-2.07-8.66.19-.66-.91-3.4,1.25L102,51.12l-1.56-1.06-1,.38L97,50.29l-1-.78-3.08-1.09-.71-.1-2.86-.83-1.15,1-3.37-.15-2.76-2ZM87.86,8l1.19-.12.3.84.9-1h1.37l.48.9-.9,1,.36.48-.41,1.2-.84.24s-.54.05-.54-.12a12,12,0,0,1,.9-1.56l-1-.36-.18.9-.42.36-.89-1.38Z" fill="#d3d3d3"/><path d="M361,66.31l1.74.3,1.73-.36,4.42-1.91,1.73-1.14,1.25-.48,1.14.9-.66.66-1.13,1.85-.36,1.13.6.36,1.07-.6.66-.12,1.61.48.36.66.66.12.36-.66,2.38,3.17,4.9.71,4.9,1.32,1.55.66,7.35,1.55,1,1.37,2.15.72,1,6.09,1,.84.89.54-.65,1.37-1.08,1-1.25,2.81L399.47,91l.12,1.07.9.18.65-1.13.9-.48.48-1.38,1.13-1.07,1.61-2.39,2.51-3.76.48-.3.18.59-.12,1.38-1.73,4.06L405,91.21l-.3,1.92-.36,1.55.48.78-.12,1.61-1.14,1.43-.3,1.08.36,2.15.36,2-.9,1.55-.47,1.73-.6,1.85.66,1.44L403,114l1,2.69-.12,1.79-9.5,1.08-10.45.59h-7.59l-.41-.89-1.74-.24-1.55-.78L371.22,116l-.18-2.15,1.19-1.73-.3-.84L370.68,110l-.48-2-.36-4.06-1.25-1.5-4.18-2.68-2.27-3.23-2-.6-1.32-1.67h-1.91l-1.73-2-.3-3.88.06-2.27.9-1.85-.48-1.92-1.49-1.67,1.07-3.22L358,75.21l1-1.14-.12-4.84.12-1.67,1.44-1.67Z" fill="#d3d3d3"/><path d="M490.92,152.56l3.46-3.59,1.55-.47,1-.9.9-1.31.65.17,1.85-.11L503,144.2l.9-.3.77.59,1.56.72,1.79,1.79-.24,2.57L504.59,148l-2.86-1.08-.06,3.53-1.56,3.4-1.73,1.43-.48,1.38-1.79.3-1,4.84-1.68.11-.65-.59-.72-1.2-1.31.3-.3,3.05-1.08,3-3,6.57.53.84-.06,1.2-1.31,1.49-1-.24-1.85,1.37-1.67-.47L480,180.21l-2.27.6-1.5-.78-1.49,1.14-1.37.42-1.92-.48-2.27-2.69-2.09-1.31-1.49-1.5-1.73-2.21-.3-1.37-1.67-1-.36-.77-.12-3.35.18.06,1.43-.12,1.08-.59v-1.32l1-.89.06-3.11.54-2.15.66-.42.24.18.59.66,1,.3.66-.78-.6-1.85v-1l1.85-2.75.72-.77,1.19.3,1.55-1.08,1.86-2,1.43-2.45.12-3.34.3-2.87V138l-.66-1.79.54-.78.48-.41,2.56,11.52,2.57-.47,6.69-.78Z" fill="#d3d3d3"/><path d="M248.47,97.37l-.89,15.17L245,138.82l-1.61-.18-49.76-5.44-16.66-1.79,1.19-7.16,4.12-24.49L184.5,85.3l.78-6.69,28.79,4.18,35.3,3.89Z" fill="#d3d3d3"/><path d="M516.54,152.26l-.66-1-.59-.47.65-1,1.32.9Z" fill="#d3d3d3"/><circle cx="516.24" cy="151.06" r="2.99" fill="#d3d3d3" stroke="#fff" stroke-width="1.5"/><path d="M100.61,261.71l-.17,48.92.92.57,1.77.11.86-.63h1.49l.12,1.66,4,3.9.28,1.49,2-1.09.34-.11.18-1.78.86-.92.63-.11,1.08-.86,1.78,1.2.34,1.66,1.09.63.63,1.38,2.24,1L123,322.2l1.55,2.23,1.32,1.55.86,2.12,2.86,1,3,1.2.57,2.52.29,1.78-.57,1.94-1,1.32-.91-.46-.86-1.77-1.55-.86-1-.63-.46.46.86,1.54.12,2.12-.63.29-1.09-1.09-1.2-.74.28.91.75,1-.46.46a1.81,1.81,0,0,1-.75-.57c-.28-.34-1.2-1.95-1.2-1.95l-.57-1.32s-.17.75-.57.58a2.84,2.84,0,0,1-.75-.86l1-1.09-.86-.86v-2.86h-.46l-.45,1.94-.63.29-.58-2.12-.34-2.12-.46-.29.17,3.27v.63l-.86-.75-2.06-3.43-1.2-.29-.35-2.12-.91-1.66-.92-.63v-1.32l1.2-.74-.28-.17-1.49.34-2-1.37L108.86,318l-2.75-1.48L103.82,315l.75-1.84v-.91l-1,.91-1.66.63-2.12-.63-3.26-1.37H93.34l-.34.28-3.73-2.23-1.2-.17-1.55-3.32-2.06.17-2.06.86.28,2.58.63-1.67.58.18L83,311l1.83-1.55.34.92L83,312.92l-.74-.18-.29-1.08-.74-.46-.75.63-1.55-1L77.13,312l-1,1.2-1.95,1.21-2.69-.12-.29-1.2,2.12-.35V312L72,311.66l.58-1.38,1.31-2.23v-1l.12-.46,2.52-1.32.57.75h1.55l-.75-1.49-2.12-.18-2.86,1.55-1.38,1.95-1,1.49-.63,1.32-2.4.85L65.67,313l-.17.92,1.32.57.46,1.21-1.55,1.83L62,319.9l-4.47,2.41-1.2.63-3,.63-3,1.32,1,.74-.85.86-.29.63-1.55-.57-1.83.11L46.31,328h-.57l.17-1.37-2.06.74-1.66.57-1.95-.74-1.66,1.09H36.74l-1.2.74-.91.46-1.21-.17-1.49-.63-1.31.34-.58.58-.91-.63v-1.09l1.77-.75,3.61.35,2.52-.92,1.2-1.2L39.9,325l1-.46,1.54.12.92.74.57-.17,1.32-1.54,1.78-.58,1.94-.34.75-.17.34.28h.46l.74-2.12,2.3-.86,1.08-2.11L56,315.21l.92-.86.17-1.49-.92.74-1.94.35-.35-1.38-.74-.17-.58.57-.11,1.66-.86-.11-.86-3.32-.74.74-.63-.28-.18-1.09-2.29.11-1.2.63-1.49-.17.86-.86.29-1.49L45,307.7l.86-.57.75-.11-.35-1v-2.52l-.57-.58-.46.86H41.73l-.86-.74-.34-2.24-1.21-2.06v-.57l1.21-.46.11-1.2.63-.63-.46-.29-.74.29-.63-1.55.57-2.86,2.58-1.84,1.49-.91,1.09-2.12,1.54-.75,1.49.63.17,1.38,1.38-.17,1.83-1.38.92.34.57.35H54l1.31-.75.46-2.52s.17-1.66.58-1.94a4.68,4.68,0,0,0,.57-.58l-.63-1.09-1.49.46L53,281l-1.09-.29-2.06-1-2.87-.11-2.06-2.12.29-2.23.34-1.38-1.2-1-1.09-2.12.28-.46,3.9-.28h1.2l.57.57h.35l-.12-.92,2.24-.34,1.49.17.86.63-.86,1.2-.29.86,1.55.92,2.86,1,1-.57L57,271l-.58-1.84.58-.45L55,267.61l-.29-.63.29-.92-.46-2.23-1.66-2.7-1.38-2.4,1.66-1.09H55l1,.34,2.4-.11,2.12-2.06L61.2,254l2.12-1.37.92.57,1.55-.34,2.12-1.21.63-.11.57.46,2.58-.12,1.54-1.77h.63l2.07,1.37,1.08,1.2-.28.63.34.63.92-.91,2.23.17.17,2.12,1.09.86,4.07.34L89.16,259l.86-.58,3,1.49,1.2-.34,1.09-.46L98,260.16ZM34.68,278.26l1.21,3-.12.57-1.66-.17-1-2.29-1-.86H30.67l-.11-1.49,1-1.38.63,1.38.86.86Zm-1.49,19.19,2.12.46,2.12.57.46.57L37,301.17l-1.77-.11-2-2.06Zm-11.85-8.08.63,1.49.63.92-.63.46-1.21-1.78v-1.09Zm-7.85,41.88,1.95-1.32,1.94-.57,1.49.17.29.91,1.09.29,1.09-1.09-.18-.91,1.55-.35,1.66,1.49-.63,1-2.52.63-1.54-.28-2.12-.63-2.52.86-.92.17Zm28-2.58.92,1.09,1.2-.92-.86-.74Zm1.66,1.72.63-1.32,1.2.17-.45,1.09H43.16Zm13.52-1.09.86,1,.57-.63-.46-1.09Zm5-7.16.63,3.32,1.66.46,2.86-1.66,2.53-1.49-.92-1.38.29-1.37-1.21.74-1.66-.45.92-.63,1.09.45,2.23-1,.29-.86-1.38-.45.46-1.09L68,317.79l-2.69,2.06-2.75,1.66ZM86,310.8l1.37-.86-.57-1-1,.57Z" fill="#d3d3d3"/><path d="M141.86,299.28l1.08-2.06,1.32-.17.17.46-1.2,1.77Zm5.84-2.12,3.49,1.49,1.21-.17.91-2.23L153,294.3l-2.41-.29-2.29,1Zm17.58,5.73L167.4,306l1.38-.17.63-.29.86.75,2.12-.12.57-.85-1.66-1-1.09-2.12-1.2-2.06-3.32,1.66Zm11.58,5.1.74-1.09,2.69.57.35-.28,3.49.34-.17.75-1.49.86L180,309Zm3,3L181,313.2l1.78-.63.17-.91-.92-1.21-2.12-.17Zm4-.69,1.32-1.66,2.69,1.38,2.52.63,2.52,1.54v1.09l-2.06,1-2.75.57-1.38-.86Zm9.51,8.94.92-.75,1.94.92,4.36,2.06,1.94,1.2.92,1.38,1.09,2.52,2.29,1.49-.17.74-2.24,1.84-2.4.86-.86-.35-1.78,1L198.05,334l-1.32,1.66-1-.12-2.06-1.49-.17-2.57.34-1.38-.92-3.26-1.2-1-.11-1.48,1.31-.58L194.1,322l.28-.58-.91-1Z" fill="#d3d3d3"/><line x1="131.49" y1="284.22" x2="131.49" y2="287.22" fill="none" stroke="#e5e5e5" stroke-width="2"/><polyline points="131.49 293.72 131.49 315.72 148.21 336.62" fill="none" stroke="#e5e5e5" stroke-width="2" stroke-dasharray="6.5 6.5"/><line x1="150.24" y1="339.16" x2="152.11" y2="341.5" fill="none" stroke="#e5e5e5" stroke-width="2"/><line x1="8.33" y1="245.27" x2="11.33" y2="245.27" fill="none" stroke="#e5e5e5" stroke-width="2"/><polyline points="17.2 245.27 92.54 245.27 131.49 284.22 180.18 284.22 211.11 315.15 211.11 335.57" fill="none" stroke="#e5e5e5" stroke-width="2" stroke-dasharray="5.86 5.86"/><line x1="211.11" y1="338.5" x2="211.11" y2="341.5" fill="none" stroke="#e5e5e5" stroke-width="2"/></svg>