<?xml version="1.0" encoding="utf-8"?>
<!-- Generated by IcoMoon.io -->
<!DOCTYPE svg PUBLIC "-//W3C//DTD SVG 1.1//EN" "http://www.w3.org/Graphics/SVG/1.1/DTD/svg11.dtd">
<svg version="1.1" xmlns="http://www.w3.org/2000/svg" xmlns:xlink="http://www.w3.org/1999/xlink" width="1024" height="1024" viewBox="0 0 1024 1024">
<g id="icomoon-ignore">
</g>
<path fill="#000" d="M947.422 76.56c-60.074-60.074-133.122-84.424-163.14-54.386l-108.774 108.754c30.038-30.038 103.086-5.688 163.158 54.386 60.074 60.074 84.424 133.122 54.386 163.158l108.774-108.774c30.018-30.018 5.668-103.066-54.404-163.14v0zM797.876 226.124c-60.074-60.074-133.122-84.424-163.158-54.386l-40.788 40.79c30.038-30.038 103.086-5.688 163.14 54.386 60.074 60.074 84.424 133.122 54.386 163.158l40.788-40.788c30.038-30.036 5.688-103.086-54.368-163.158v0zM716.298 307.684c-60.074-60.074-133.122-84.424-163.158-54.386l-40.788 40.788c30.038-30.036 103.086-5.686 163.14 54.386 60.074 60.074 84.424 133.122 54.386 163.14l40.788-40.788c30.038-30.018 5.688-103.068-54.368-163.14v0zM634.718 389.262c-60.074-60.074-133.122-84.424-163.158-54.386l-271.894 271.932c30.224 30.226 73.236 37.362 106.626 21.658 2.524 21.43 12.146 42.73 29.322 59.904 17.174 17.174 38.474 26.818 59.904 29.322-15.706 33.39-8.548 76.418 21.676 106.644l271.914-271.914c30.038-30.038 5.688-103.086-54.386-163.158v0zM265.5 669.254c-33.39 15.706-76.418 8.548-106.644-21.676l-149.544 367.108 367.088-149.562c-30.226-30.226-37.362-73.254-21.676-106.644-21.412-2.504-42.73-12.128-59.904-29.322-17.174-17.174-26.818-38.474-29.322-59.904v0zM418.17 162.904c0 36.006 0 65.46 0 101.692-47.946 0-96.626 0-151.804 0 0 54.932 0 103.632 0 155.364-36.026 0-65.442 0-101.692 0 0-47.946 0-96.626 0-151.804-54.932 0-103.632 0-155.362 0 0-36.006 0-65.46 0-101.692 47.946 0 96.626 0 151.804 0 0-54.972 0-103.668 0-157.152 39.206 0 67.098 0 101.692 0 0 49.774 0 98.434 0 153.574 54.972 0.020 103.668 0.020 155.362 0.020z"></path>
</svg>
