<?xml version="1.0" encoding="utf-8"?>
<!-- Generated by IcoMoon.io -->
<!DOCTYPE svg PUBLIC "-//W3C//DTD SVG 1.1//EN" "http://www.w3.org/Graphics/SVG/1.1/DTD/svg11.dtd">
<svg version="1.1" xmlns="http://www.w3.org/2000/svg" xmlns:xlink="http://www.w3.org/1999/xlink" width="512" height="512" viewBox="0 0 512 512">
<g id="icomoon-ignore">
</g>
<path fill="#777777" d="M32 0h192v32h-192zM288 0h192v32h-192zM476 160h-28v-128h-128v128h-128v-128h-128v128h-28c-19.8 0-36 16.2-36 36v280c0 19.8 16.2 36 36 36h152c19.8 0 36-16.2 36-36v-188h64v188c0 19.8 16.2 36 36 36h152c19.8 0 36-16.2 36-36v-280c0-19.8-16.2-36-36-36zM174 480h-124c-9.9 0-18-7.2-18-16s8.1-16 18-16h124c9.9 0 18 7.2 18 16s-8.1 16-18 16zM272 256h-32c-8.8 0-16-7.2-16-16s7.2-16 16-16h32c8.8 0 16 7.2 16 16s-7.2 16-16 16zM462 480h-124c-9.9 0-18-7.2-18-16s8.1-16 18-16h124c9.9 0 18 7.2 18 16s-8.1 16-18 16z"></path>
</svg>
