<?xml version="1.0" encoding="utf-8"?>
<!-- Generated by IcoMoon.io -->
<!DOCTYPE svg PUBLIC "-//W3C//DTD SVG 1.1//EN" "http://www.w3.org/Graphics/SVG/1.1/DTD/svg11.dtd">
<svg version="1.1" xmlns="http://www.w3.org/2000/svg" xmlns:xlink="http://www.w3.org/1999/xlink" width="1024" height="1024" viewBox="0 0 1024 1024">
<g id="icomoon-ignore">
</g>
<path fill="#ccc" d="M582.856 679.442c-15.164 40.102-64.48 59.438-106.682 41.004-38.616-16.65-61.8-71.918-35.058-107.85 27.646-35.958 16.334-65.36 5.95-98.66-19.918-61.8-39.81-123.598-59.728-185.424 7.728-2.072 15.456-4.168 22.892-6.24 21.698 64.48 44.564 128.962 64.772 194.028 9.216 30.304 19.6 51.414 56.462 58.532 47.83 9.216 68.626 58.85 51.39 104.606zM1021.134 620.594c0.292 67.456-12.774 131.326-35.666 189.86-4.462 11.286-9.216 22.576-14.556 33.278-11.286 24.062-24.964 46.66-39.81 68.334h-839.718c-5.338-8.020-10.702-16.042-15.748-24.354-14.556-24.354-27.034-50.222-37.446-77.258-22.574-57.948-35.348-121.236-35.348-188.398 0-112.92 35.958-216.92 96.564-300.708 1.196-2.074 2.388-3.852 3.852-5.654 82.302-111.118 208.876-186.594 355.074-201.466 17.528-1.488 34.764-2.388 52.586-2.388 282.914 0.074 510.22 226.794 510.22 508.756zM872.254 810.478c29.716-56.754 46.66-121.236 46.66-189.274 0-224.94-183.034-407.072-407.976-407.072-224.038 0-408.852 184.524-408.268 408.268 0.292 67.456 17.528 131.62 47.538 188.080h722.044z"></path>
</svg>
