<?xml version="1.0" encoding="utf-8"?>
<!-- Generated by IcoMoon.io -->
<!DOCTYPE svg PUBLIC "-//W3C//DTD SVG 1.1//EN" "http://www.w3.org/Graphics/SVG/1.1/DTD/svg11.dtd">
<svg version="1.1" xmlns="http://www.w3.org/2000/svg" xmlns:xlink="http://www.w3.org/1999/xlink" width="1024" height="1024" viewBox="0 0 1024 1024">
<g id="icomoon-ignore">
</g>
<path fill="#777" d="M806.364 11.77c-42.356-2.716-87.676 12.788-124.788 49.93-188.254 188.254-376.81 376.81-565.066 565.066-48.29 48.29-65.322 108.76-57.554 164.316 7.768 55.558 37.806 105.9 78.356 144.902 40.526 38.998 92.366 67.596 147.674 74.892 55.308 7.268 114.804-8.736 160.848-54.782l517.914-517.914-47.154-46.46-517.884 517.218c-31.814 31.788-66.43 40.414-104.68 35.366s-78.83-25.934-110.228-56.168c-31.426-30.236-53.702-68.76-58.942-106.068-5.242-37.334 3.826-73.172 38.832-108.148 188.254-188.254 376.784-376.81 565.066-565.066 25.296-25.296 49.51-32.064 73.504-30.51 23.966 1.526 48.26 12.788 66.572 31.204 18.308 18.388 30.372 43.158 31.9 67.262 1.526 24.102-6.212 48.514-31.204 73.504l-454.894 454.782c-8.348 8.35-14.894 10.178-22.882 9.708-7.96-0.5-17.418-4.688-24.272-11.094-6.85-6.406-10.596-14.674-11.094-21.498-0.526-6.822 0.558-13.73 11.094-24.27l361.224-360.532-47.154-47.152-361.198 360.56c-21.914 21.914-32.428 50.204-30.512 76.278 1.914 26.044 15.116 48.846 32.59 65.182 17.476 16.336 39.856 27.598 65.182 29.126s53.228-8.18 74.196-29.126l454.81-454.81c36.918-36.918 52.59-82.49 49.93-124.788-2.664-42.326-21.996-80.772-50.62-109.534-28.654-28.876-67.21-48.65-109.562-51.37v0z"></path>
</svg>
