<?xml version="1.0" encoding="utf-8"?>
<!-- Generated by IcoMoon.io -->
<!DOCTYPE svg PUBLIC "-//W3C//DTD SVG 1.1//EN" "http://www.w3.org/Graphics/SVG/1.1/DTD/svg11.dtd">
<svg version="1.1" xmlns="http://www.w3.org/2000/svg" xmlns:xlink="http://www.w3.org/1999/xlink" width="1024" height="1024" viewBox="0 0 1024 1024">
<g id="icomoon-ignore">
</g>
<path fill="#777" d="M195.086 668.924l-124.706 62.798c29.318 59.524 69.9 111.976 120.546 155.798 50.954 43.548 108.702 76.14 172.108 96.554 48.57 15.7 99.522 23.688 151.364 23.688h2.358c11.568 0 23.106-0.306 34.674-1.194 64.268-4.744 125.9-21.634 183.65-50.064 59.524-29.624 111.976-70.202 155.524-120.852 43.852-50.648 76.112-108.396 96.554-171.5 15.7-49.178 23.688-100.412 23.688-151.946 0-12.452-0.306-24.574-1.194-36.724-4.744-64.268-21.634-125.898-49.76-183.65-29.624-59.524-70.202-111.668-120.852-155.524-50.648-43.852-108.396-76.112-171.806-96.554-60.716-19.554-125.596-26.35-188.394-22.524-64.574 4.744-126.178 21.634-183.65 50.064-50.064 24.574-95.666 59.248-134.776 99.244l-0.582-0.306-90.924-77.608-23.412 320.202 312.21-74.058-90.644-77.302c25.462-23.994 56.86-47.404 88.564-63.102 40.58-20.134 85.32-32.288 130.338-35.838 47.68-2.384 93.308 2.664 135.664 16.282 45.018 14.506 86.182 37.612 122.322 69.010 36.142 31.092 65.154 68.43 86.208 111.088 20.134 40.886 32.288 84.71 35.532 130.338 0.89 9.182 1.194 18.058 1.194 26.962 0 37.028-5.938 73.448-16.894 108.396-14.812 45.018-37.918 86.208-69.010 122.322-31.398 36.418-68.734 65.46-111.366 86.486-40.58 20.134-85.014 31.982-131.226 35.532-8.598 0.582-17.198 0.89-26.35 0.89-36.448 0-73.17-5.63-108.12-16.894-45.018-14.506-86.208-37.918-122.626-69.010-36.142-31.344-65.182-68.65-86.208-111.004z"></path>
</svg>
