<?xml version="1.0" encoding="UTF-8"?>
<svg width="2082px" height="771px" viewBox="0 0 2082 771" version="1.1" xmlns="http://www.w3.org/2000/svg" xmlns:xlink="http://www.w3.org/1999/xlink">
    <!-- Generator: Sketch 58 (84663) - https://sketch.com -->
    <title>onlyx-workflow-5</title>
    <desc>Created with Sketch.</desc>
    <defs>
        <polygon id="path-1" points="0.5 0.0663 22 0.0663 11.25 14.9208"></polygon>
        <polygon id="path-3" points="0 22.4208 0 0.9208 14.8545 11.6708"></polygon>
        <polygon id="path-5" points="0 22.42083 0 0.9208 14.8545 11.6708"></polygon>
        <polygon id="path-7" points="0 21.6424 0 0.1424 14.8545 10.8924"></polygon>
        <polygon id="path-9" points="0 22.4208 0 0.9208 14.8545 11.6708"></polygon>
        <polygon id="path-11" points="0 21.6424 0 0.1424 14.855 10.8924"></polygon>
        <polygon id="path-13" points="21.5 14.9969 0 14.9969 10.75 0.1424"></polygon>
        <polygon id="path-15" points="0 21.6424 0 0.1424 14.855 10.8924"></polygon>
        <polygon id="path-17" points="0 21.6424 0 0.1424 14.855 10.8924"></polygon>
        <polygon id="path-19" points="0 1.4208 211 1.4208 210.5 0.9208 210.5 93.9208 211 93.4208 0 93.4208 0.5 93.9208 0.5 0.9208"></polygon>
        <polygon id="path-21" points="0 1.4208 211 1.4208 210.5 0.9208 210.5 93.92083 211 93.42083 0 93.42083 0.5 93.92083 0.5 0.9208"></polygon>
        <polygon id="path-23" points="0 1.4208 294.375 1.4208 293.875 0.9208 293.875 93.92083 294.375 93.42083 0 93.42083 0.5 93.92083 0.5 0.9208"></polygon>
        <polygon id="path-25" points="0 1.4208 211 1.4208 210.5 0.9208 210.5 93.9208 211 93.4208 0 93.4208 0.5 93.9208 0.5 0.9208"></polygon>
        <polygon id="path-27" points="0 0.6424 211 0.6424 210.5 0.1424 210.5 93.1424 211 92.6424 0 92.6424 0.5 93.1424 0.5 0.1424"></polygon>
        <polygon id="path-29" points="0 1.4208 211 1.4208 210.5 0.9208 210.5 93.9208 211 93.4208 0 93.4208 0.5 93.9208 0.5 0.9208"></polygon>
        <polygon id="path-31" points="0 0.6424 211 0.6424 210.5 0.1424 210.5 93.1424 211 92.6424 0 92.6424 0.5 93.1424 0.5 0.1424"></polygon>
        <polygon id="path-33" points="0 0.6424 211 0.6424 210.5 0.1424 210.5 93.1424 211 92.6424 0 92.6424 0.5 93.1424 0.5 0.1424"></polygon>
        <polygon id="path-35" points="0 0.6424 211 0.6424 210.5 0.1424 210.5 93.1424 211 92.6424 0 92.6424 0.5 93.1424 0.5 0.1424"></polygon>
        <polygon id="path-37" points="0 113.9866 113.844 0.1424 227.688 113.9866 113.844 227.8307"></polygon>
    </defs>
    <g id="onlyx-workflow-5" stroke="none" stroke-width="1" fill="none" fill-rule="evenodd">
        <g id="40-Reconcile-Stay-Info" transform="translate(54.000000, 41.000000)">
            <g id="Group-3" transform="translate(96.000000, 254.000000)">
                <mask id="mask-2" fill="white">
                    <use xlink:href="#path-1"></use>
                </mask>
                <g id="Clip-2"></g>
                <polygon id="Fill-1" fill="#979797" mask="url(#mask-2)" points="27 -4.9337 27 19.9208 -4.5 19.9208 -4.5 -4.9337"></polygon>
            </g>
            <g id="Group-6">
                <path d="M107.5,260.425387 L107.5,200.4208" id="Stroke-4" stroke="#979797" stroke-linecap="square"></path>
                <text id="Dispute-Stay-Info" font-family="GillSans-SemiBold, Gill Sans" font-size="36" font-weight="500" letter-spacing="-0.0036" fill="#838383">
                    <tspan x="0" y="34.4608106">D</tspan>
                    <tspan x="27.8225719" y="34.4608106">i</tspan>
                    <tspan x="36.7522594" y="34.4608106" letter-spacing="-0.0072">s</tspan>
                    <tspan x="51.2821688" y="34.4608106">p</tspan>
                    <tspan x="71.001225" y="34.4608106">u</tspan>
                    <tspan x="90.4426313" y="34.4608106" letter-spacing="0.0036">te</tspan>
                    <tspan x="122.318972" y="34.4608106" letter-spacing="-0.0072"> </tspan>
                    <tspan x="132.313725" y="34.4608106" letter-spacing="0.0072">S</tspan>
                    <tspan x="151.551394" y="34.4608106" letter-spacing="0.0036">t</tspan>
                    <tspan x="164.844056" y="34.4608106">a</tspan>
                    <tspan x="182.225222" y="34.4608106">y</tspan>
                    <tspan x="199.434206" y="34.4608106" letter-spacing="-0.0072"> </tspan>
                    <tspan x="209.428959" y="34.4608106" letter-spacing="0.0036">I</tspan>
                    <tspan x="219.803653" y="34.4608106">n</tspan>
                    <tspan x="239.280216" y="34.4608106">f</tspan>
                    <tspan x="249.102788" y="34.4608106">o</tspan>
                </text>
                <text id="Compare-Stay-Info-to-Rooming-List" font-family="GillSans-SemiBold, Gill Sans" font-size="36" font-weight="500" letter-spacing="0.0036" fill="#838383">
                    <tspan x="0" y="539.960811">C</tspan>
                    <tspan x="26.1071156" y="539.960811" letter-spacing="0.0072">om</tspan>
                    <tspan x="77.221125" y="539.960811" letter-spacing="-0.0036">pa</tspan>
                    <tspan x="114.321347" y="539.960811">r</tspan>
                    <tspan x="128.647519" y="539.960811">e</tspan>
                    <tspan x="147.231197" y="539.960811" letter-spacing="-0.0072"> </tspan>
                    <tspan x="157.22595" y="539.960811" letter-spacing="0.0072">S</tspan>
                    <tspan x="176.463619" y="539.960811">t</tspan>
                    <tspan x="189.756281" y="539.960811" letter-spacing="-0.0036">a</tspan>
                    <tspan x="207.137447" y="539.960811">y</tspan>
                    <tspan x="224.346431" y="539.960811" letter-spacing="-0.0072"> </tspan>
                    <tspan x="234.341184" y="539.960811">I</tspan>
                    <tspan x="244.715878" y="539.960811">n</tspan>
                    <tspan x="264.192441" y="539.960811" letter-spacing="-0.0036">f</tspan>
                    <tspan x="274.015013" y="539.960811" letter-spacing="0.0072">o</tspan>
                    <tspan x="294.658931" y="539.960811" letter-spacing="-0.0072"> </tspan>
                    <tspan x="304.653684" y="539.960811">t</tspan>
                    <tspan x="317.946347" y="539.960811" letter-spacing="0.0072">o</tspan>
                    <tspan x="338.590266" y="539.960811" letter-spacing="-0.0072"> </tspan>
                    <tspan x="348.585019" y="539.960811">R</tspan>
                    <tspan x="371.049863" y="539.960811" letter-spacing="0.0072">oom</tspan>
                    <tspan x="442.807791" y="539.960811">in</tspan>
                    <tspan x="471.214041" y="539.960811" letter-spacing="0.0072">g</tspan>
                    <tspan x="488.869678" y="539.960811" letter-spacing="-0.0072"> </tspan>
                    <tspan x="498.864431" y="539.960811" letter-spacing="0.0072">L</tspan>
                    <tspan x="518.787647" y="539.960811">i</tspan>
                    <tspan x="527.717334" y="539.960811" letter-spacing="-0.0072">s</tspan>
                    <tspan x="542.247244" y="539.960811">t</tspan>
                </text>
                <path d="M205.36143,153.4208 L280.5,153.4208" id="Stroke-5" stroke="#979797" stroke-linecap="square"></path>
            </g>
            <g id="Group-9" transform="translate(274.000000, 141.000000)">
                <mask id="mask-4" fill="white">
                    <use xlink:href="#path-3"></use>
                </mask>
                <g id="Clip-8"></g>
                <polygon id="Fill-7" fill="#979797" mask="url(#mask-4)" points="-5 -4.0792 19.8545 -4.0792 19.8545 27.4208 -5 27.4208"></polygon>
            </g>
            <path d="M205.36143,629.4208 L280.5,629.4208" id="Stroke-10" stroke="#979797" stroke-linecap="square"></path>
            <g id="Group-13" transform="translate(274.000000, 617.000000)">
                <mask id="mask-6" fill="white">
                    <use xlink:href="#path-5"></use>
                </mask>
                <g id="Clip-12"></g>
                <polygon id="Fill-11" fill="#979797" mask="url(#mask-6)" points="-5 -4.0792 19.8545 -4.0792 19.8545 27.42083 -5 27.42083"></polygon>
            </g>
            <path d="M786.36143,153.6424 L861.5,153.6424" id="Stroke-14" stroke="#979797" stroke-linecap="square"></path>
            <g id="Group-17" transform="translate(855.000000, 142.000000)">
                <mask id="mask-8" fill="white">
                    <use xlink:href="#path-7"></use>
                </mask>
                <g id="Clip-16"></g>
                <polygon id="Fill-15" fill="#979797" mask="url(#mask-8)" points="-5 -4.8576 19.8545 -4.8576 19.8545 26.6424 -5 26.6424"></polygon>
            </g>
            <path d="M493.36143,155.4208 L568.5,155.4208" id="Stroke-18" stroke="#979797" stroke-linecap="square"></path>
            <g id="Group-21" transform="translate(562.000000, 143.000000)">
                <mask id="mask-10" fill="white">
                    <use xlink:href="#path-9"></use>
                </mask>
                <g id="Clip-20"></g>
                <polygon id="Fill-19" fill="#979797" mask="url(#mask-10)" points="-5 -4.0792 19.8545 -4.0792 19.8545 27.4208 -5 27.4208"></polygon>
            </g>
            <path d="M1079.36143,153.6424 L1154.5,153.6424" id="Stroke-22" stroke="#979797" stroke-linecap="square"></path>
            <g id="Group-25" transform="translate(1148.000000, 142.000000)">
                <mask id="mask-12" fill="white">
                    <use xlink:href="#path-11"></use>
                </mask>
                <g id="Clip-24"></g>
                <polygon id="Fill-23" fill="#979797" mask="url(#mask-12)" points="-5 -4.8576 19.855 -4.8576 19.855 26.6424 -5 26.6424"></polygon>
            </g>
            <g id="Group-28" transform="translate(1264.000000, 200.000000)">
                <mask id="mask-14" fill="white">
                    <use xlink:href="#path-13"></use>
                </mask>
                <g id="Clip-27"></g>
                <polygon id="Fill-26" fill="#979797" mask="url(#mask-14)" points="-5 19.9969 -5 -4.8576 26.5 -4.8576 26.5 19.9969"></polygon>
            </g>
            <path d="M1682.36143,152.6424 L1757.5,152.6424" id="Stroke-29" stroke="#979797" stroke-linecap="square"></path>
            <g id="Group-32" transform="translate(1751.000000, 141.000000)">
                <mask id="mask-16" fill="white">
                    <use xlink:href="#path-15"></use>
                </mask>
                <g id="Clip-31"></g>
                <polygon id="Fill-30" fill="#979797" mask="url(#mask-16)" points="-5 -4.8576 19.855 -4.8576 19.855 26.6424 -5 26.6424"></polygon>
            </g>
            <path d="M1372.36143,153.6424 L1447.5,153.6424" id="Stroke-33" stroke="#979797" stroke-linecap="square"></path>
            <g id="Group-36" transform="translate(1441.000000, 142.000000)">
                <mask id="mask-18" fill="white">
                    <use xlink:href="#path-17"></use>
                </mask>
                <g id="Clip-35"></g>
                <polygon id="Fill-34" fill="#979797" mask="url(#mask-18)" points="-5 -4.8576 19.855 -4.8576 19.855 26.6424 -5 26.6424"></polygon>
            </g>
            <g id="Group-39" transform="translate(0.000000, 106.000000)">
                <mask id="mask-20" fill="white">
                    <use xlink:href="#path-19"></use>
                </mask>
                <g id="Clip-38"></g>
                <polygon id="Fill-37" fill="#FFFFFF" mask="url(#mask-20)" points="0 0.9208 211 0.9208 211 93.9208 0 93.9208"></polygon>
            </g>
            <polygon id="Stroke-40" stroke="#979797" stroke-width="2" points="0 106.9208 211 106.9208 211 199.9208 0 199.9208"></polygon>
            <g id="Group-44" transform="translate(0.000000, 581.000000)">
                <mask id="mask-22" fill="white">
                    <use xlink:href="#path-21"></use>
                </mask>
                <g id="Clip-43"></g>
                <polygon id="Fill-42" fill="#FFFFFF" mask="url(#mask-22)" points="0 0.9208 211 0.9208 211 93.92083 0 93.92083"></polygon>
            </g>
            <polygon id="Stroke-45" stroke="#979797" stroke-width="2" points="0 581.9208 211 581.9208 211 674.9208 0 674.9208"></polygon>
            <g id="Group-49" transform="translate(287.000000, 581.000000)">
                <mask id="mask-24" fill="white">
                    <use xlink:href="#path-23"></use>
                </mask>
                <g id="Clip-48"></g>
                <polygon id="Fill-47" fill="#FFFFFF" mask="url(#mask-24)" points="0 0.9208 294.375 0.9208 294.375 93.92083 0 93.92083"></polygon>
            </g>
            <polygon id="Stroke-50" stroke="#979797" stroke-width="2" points="287 581.9208 581.375 581.9208 581.375 674.9208 287 674.9208"></polygon>
            <g id="Group-54" transform="translate(0.000000, 268.000000)">
                <mask id="mask-26" fill="white">
                    <use xlink:href="#path-25"></use>
                </mask>
                <g id="Clip-53"></g>
                <polygon id="Fill-52" fill="#FFFFFF" mask="url(#mask-26)" points="0 0.9208 211 0.9208 211 93.9208 0 93.9208"></polygon>
            </g>
            <polygon id="Stroke-55" stroke="#979797" stroke-width="2" points="0 268.9208 211 268.9208 211 361.9208 0 361.9208"></polygon>
            <g id="Group-59" transform="translate(577.000000, 106.000000)">
                <mask id="mask-28" fill="white">
                    <use xlink:href="#path-27"></use>
                </mask>
                <g id="Clip-58"></g>
                <polygon id="Fill-57" fill="#FFFFFF" mask="url(#mask-28)" points="0 0.1424 211 0.1424 211 93.1424 0 93.1424"></polygon>
            </g>
            <polygon id="Stroke-60" stroke="#979797" stroke-width="2" points="577 106.1424 788 106.1424 788 199.1424 577 199.1424"></polygon>
            <g id="Group-64" transform="translate(289.000000, 107.000000)">
                <mask id="mask-30" fill="white">
                    <use xlink:href="#path-29"></use>
                </mask>
                <g id="Clip-63"></g>
                <polygon id="Fill-62" fill="#FFFFFF" mask="url(#mask-30)" points="0 0.9208 211 0.9208 211 93.9208 0 93.9208"></polygon>
            </g>
            <polygon id="Stroke-65" stroke="#979797" stroke-width="2" points="289 107.9208 500 107.9208 500 200.9208 289 200.9208"></polygon>
            <g id="Group-69" transform="translate(870.000000, 107.000000)">
                <mask id="mask-32" fill="white">
                    <use xlink:href="#path-31"></use>
                </mask>
                <g id="Clip-68"></g>
                <polygon id="Fill-67" fill="#FFFFFF" mask="url(#mask-32)" points="0 0.1424 211 0.1424 211 93.1424 0 93.1424"></polygon>
            </g>
            <polygon id="Stroke-70" stroke="#979797" stroke-width="2" points="870 107.1424 1081 107.1424 1081 200.1424 870 200.1424"></polygon>
            <g id="Group-74" transform="translate(1163.000000, 107.000000)">
                <mask id="mask-34" fill="white">
                    <use xlink:href="#path-33"></use>
                </mask>
                <g id="Clip-73"></g>
                <polygon id="Fill-72" fill="#FFFFFF" mask="url(#mask-34)" points="0 0.1424 211 0.1424 211 93.1424 0 93.1424"></polygon>
            </g>
            <polygon id="Stroke-75" stroke="#979797" stroke-width="2" points="1163 107.1424 1374 107.1424 1374 200.1424 1163 200.1424"></polygon>
            <g id="Group-79" transform="translate(1766.000000, 106.000000)">
                <mask id="mask-36" fill="white">
                    <use xlink:href="#path-35"></use>
                </mask>
                <g id="Clip-78"></g>
                <polygon id="Fill-77" fill="#FFFFFF" mask="url(#mask-36)" points="0 0.1424 211 0.1424 211 93.1424 0 93.1424"></polygon>
            </g>
            <polygon id="Stroke-80" stroke="#979797" stroke-width="2" points="1766 106.1424 1977 106.1424 1977 199.1424 1766 199.1424"></polygon>
            <g id="Group-82" transform="translate(23.000000, 123.000000)" fill="#838383" font-family="GillSans, Gill Sans" font-size="22" font-weight="normal">
                <text id="View-event-details">
                    <tspan x="1.8427734" y="32.317745">V</tspan>
                    <tspan x="15.1308593" y="32.317745" letter-spacing="0.0044">i</tspan>
                    <tspan x="19.9585015" y="32.317745">e</tspan>
                    <tspan x="30.1635796" y="32.317745" letter-spacing="0.0044">w</tspan>
                    <tspan x="45.9912218" y="32.317745" letter-spacing="-0.0044"> </tspan>
                    <tspan x="52.0991265" y="32.317745">event</tspan>
                    <tspan x="100.363775" y="32.317745" letter-spacing="-0.0044"> d</tspan>
                    <tspan x="117.682123" y="32.317745">et</tspan>
                    <tspan x="135.546381" y="32.317745" letter-spacing="-0.0044">a</tspan>
                    <tspan x="144.930653" y="32.317745" letter-spacing="0.0044">il</tspan>
                    <tspan x="154.585937" y="32.317745">s</tspan>
                </text>
                <text id="View-event-details">
                    <tspan x="2.3427734" y="508.634345">V</tspan>
                    <tspan x="15.6308593" y="508.634345" letter-spacing="0.0044">i</tspan>
                    <tspan x="20.4585015" y="508.634345">e</tspan>
                    <tspan x="30.6635796" y="508.634345" letter-spacing="0.0044">w</tspan>
                    <tspan x="46.4912218" y="508.634345" letter-spacing="-0.0044"> </tspan>
                    <tspan x="52.5991265" y="508.634345">event</tspan>
                    <tspan x="100.863775" y="508.634345" letter-spacing="-0.0044"> d</tspan>
                    <tspan x="118.182123" y="508.634345">et</tspan>
                    <tspan x="136.046381" y="508.634345" letter-spacing="-0.0044">a</tspan>
                    <tspan x="145.430653" y="508.634345" letter-spacing="0.0044">il</tspan>
                    <tspan x="155.085937" y="508.634345">s</tspan>
                </text>
                <text id="View-Stay-Info-and-">
                    <tspan x="328.98736" y="481.634345">V</tspan>
                    <tspan x="342.275446" y="481.634345" letter-spacing="0.0044">i</tspan>
                    <tspan x="347.103088" y="481.634345">e</tspan>
                    <tspan x="357.308166" y="481.634345" letter-spacing="0.0044">w</tspan>
                    <tspan x="373.135808" y="481.634345" letter-spacing="-0.0044"> </tspan>
                    <tspan x="379.243713" y="481.634345">St</tspan>
                    <tspan x="396.646057" y="481.634345" letter-spacing="-0.0044">a</tspan>
                    <tspan x="405.149469" y="481.634345">y</tspan>
                    <tspan x="414.785212" y="481.634345" letter-spacing="-0.0044"> </tspan>
                    <tspan x="420.893116" y="481.634345">Inf</tspan>
                    <tspan x="442.678273" y="481.634345" letter-spacing="-0.0044">o a</tspan>
                    <tspan x="470.304721" y="481.634345">n</tspan>
                    <tspan x="481.304721" y="481.634345" letter-spacing="-0.0044">d</tspan>
                    <tspan x="492.515165" y="481.634345"> </tspan>
                </text>
                <text id="Rooming-List-together-">
                    <tspan x="311.311087" y="508.613505">R</tspan>
                    <tspan x="324.599173" y="508.613505" letter-spacing="-0.0044">oo</tspan>
                    <tspan x="348.867717" y="508.613505">m</tspan>
                    <tspan x="365.829631" y="508.613505" letter-spacing="0.0044">i</tspan>
                    <tspan x="370.657273" y="508.613505">n</tspan>
                    <tspan x="381.657273" y="508.613505" letter-spacing="-0.0044">g </tspan>
                    <tspan x="397.149449" y="508.613505" letter-spacing="0.0044">Li</tspan>
                    <tspan x="412.766648" y="508.613505" letter-spacing="-0.0044">s</tspan>
                    <tspan x="421.227092" y="508.613505">t</tspan>
                    <tspan x="428.553264" y="508.613505" letter-spacing="-0.0044"> </tspan>
                    <tspan x="434.661168" y="508.613505">t</tspan>
                    <tspan x="441.98734" y="508.613505" letter-spacing="-0.0044">og</tspan>
                    <tspan x="463.505884" y="508.613505">ether </tspan>
                </text>
                <text id="somehow" letter-spacing="-0.0044">
                    <tspan x="367.9439" y="535.592675">so</tspan>
                    <tspan x="388.538616" y="535.592675">meh</tspan>
                    <tspan x="427.038616" y="535.592675">o</tspan>
                    <tspan x="438.958044" y="535.592675">w</tspan>
                </text>
                <text id="Export/print-event-">
                    <tspan x="0.317383" y="183.317745">Exp</tspan>
                    <tspan x="33.317383" y="183.317745" letter-spacing="-0.0044">o</tspan>
                    <tspan x="45.4516549" y="183.317745">rt</tspan>
                    <tspan x="61.9301705" y="183.317745" letter-spacing="-0.0044">/</tspan>
                    <tspan x="68.1025283" y="183.317745">pr</tspan>
                    <tspan x="87.8144424" y="183.317745" letter-spacing="0.0044">i</tspan>
                    <tspan x="92.6420846" y="183.317745">nt</tspan>
                    <tspan x="110.968256" y="183.317745" letter-spacing="-0.0044"> </tspan>
                    <tspan x="117.076161" y="183.317745">event </tspan>
                </text>
                <text id="details" letter-spacing="-0.0044">
                    <tspan x="54.71045" y="210.296905">d</tspan>
                    <tspan x="65.9208938" y="210.296905">et</tspan>
                    <tspan x="83.7851516" y="210.296905">a</tspan>
                    <tspan x="93.1694234" y="210.296905" letter-spacing="0.0044">il</tspan>
                    <tspan x="102.824708" y="210.296905">s</tspan>
                </text>
                <text id="Mark-items-in-" letter-spacing="-0.0044">
                    <tspan x="598.51123" y="20.539245">Ma</tspan>
                    <tspan x="625.06786" y="20.539245">rk</tspan>
                    <tspan x="644.31786" y="20.539245"> </tspan>
                    <tspan x="650.425764" y="20.539245" letter-spacing="0.0044">i</tspan>
                    <tspan x="655.253407" y="20.539245">tem</tspan>
                    <tspan x="690.079578" y="20.539245">s </tspan>
                    <tspan x="704.647927" y="20.539245" letter-spacing="0.0044">i</tspan>
                    <tspan x="709.475569" y="20.539245">n </tspan>
                </text>
                <text id="dispute" letter-spacing="-0.0044">
                    <tspan x="627.31641" y="47.518405">d</tspan>
                    <tspan x="638.526854" y="47.518405" letter-spacing="0.0044">i</tspan>
                    <tspan x="643.354496" y="47.518405">s</tspan>
                    <tspan x="651.81494" y="47.518405">pute</tspan>
                </text>
                <text id="View-stay-info">
                    <tspan x="309.0127" y="33.317745">V</tspan>
                    <tspan x="322.300786" y="33.317745" letter-spacing="0.0044">i</tspan>
                    <tspan x="327.128428" y="33.317745">e</tspan>
                    <tspan x="337.333506" y="33.317745" letter-spacing="0.0044">w</tspan>
                    <tspan x="353.161148" y="33.317745" letter-spacing="-0.0044"> s</tspan>
                    <tspan x="367.729497" y="33.317745">t</tspan>
                    <tspan x="375.055669" y="33.317745" letter-spacing="-0.0044">a</tspan>
                    <tspan x="383.559081" y="33.317745">y</tspan>
                    <tspan x="393.194823" y="33.317745" letter-spacing="-0.0044"> </tspan>
                    <tspan x="399.302728" y="33.317745" letter-spacing="0.0044">i</tspan>
                    <tspan x="404.13037" y="33.317745">nfo</tspan>
                </text>
                <text id="Add-reason-for-">
                    <tspan x="884.539551" y="21.539245">A</tspan>
                    <tspan x="899.213379" y="21.539245" letter-spacing="-0.0044">dd </tspan>
                    <tspan x="927.527328" y="21.539245">re</tspan>
                    <tspan x="946.336898" y="21.539245" letter-spacing="-0.0044">aso</tspan>
                    <tspan x="976.315885" y="21.539245">n</tspan>
                    <tspan x="987.315885" y="21.539245" letter-spacing="-0.0044"> </tspan>
                    <tspan x="993.42379" y="21.539245">f</tspan>
                    <tspan x="998.708946" y="21.539245" letter-spacing="-0.0044">o</tspan>
                    <tspan x="1010.84322" y="21.539245">r </tspan>
                </text>
                <text id="dispute" letter-spacing="-0.0044">
                    <tspan x="920.31641" y="48.518405">d</tspan>
                    <tspan x="931.526854" y="48.518405" letter-spacing="0.0044">i</tspan>
                    <tspan x="936.354496" y="48.518405">s</tspan>
                    <tspan x="944.81494" y="48.518405">pute</tspan>
                </text>
                <text id="Notify-hotel-" letter-spacing="-0.0044">
                    <tspan x="1191.23047" y="21.539245">No</tspan>
                    <tspan x="1220.5371" y="21.539245">t</tspan>
                    <tspan x="1227.86327" y="21.539245" letter-spacing="0.0044">i</tspan>
                    <tspan x="1232.69091" y="21.539245">fy</tspan>
                    <tspan x="1247.82666" y="21.539245"> </tspan>
                    <tspan x="1253.93456" y="21.539245">h</tspan>
                    <tspan x="1264.93456" y="21.539245">o</tspan>
                    <tspan x="1277.06883" y="21.539245">te</tspan>
                    <tspan x="1294.93309" y="21.539245" letter-spacing="0.0044">l</tspan>
                    <tspan x="1299.76073" y="21.539245"> </tspan>
                </text>
                <text id="event-manager">
                    <tspan x="1180.23584" y="48.518405">event</tspan>
                    <tspan x="1228.50049" y="48.518405" letter-spacing="-0.0044"> </tspan>
                    <tspan x="1234.60839" y="48.518405">m</tspan>
                    <tspan x="1251.57031" y="48.518405" letter-spacing="-0.0044">a</tspan>
                    <tspan x="1260.95458" y="48.518405">n</tspan>
                    <tspan x="1271.95458" y="48.518405" letter-spacing="-0.0044">ag</tspan>
                    <tspan x="1290.72312" y="48.518405">er</tspan>
                </text>
                <text id="Mark-item-as-" letter-spacing="-0.0044">
                    <tspan x="1790.72852" y="20.539245">Ma</tspan>
                    <tspan x="1817.28515" y="20.539245">rk</tspan>
                    <tspan x="1836.53515" y="20.539245"> </tspan>
                    <tspan x="1842.64305" y="20.539245" letter-spacing="0.0044">i</tspan>
                    <tspan x="1847.4707" y="20.539245">tem</tspan>
                    <tspan x="1882.29687" y="20.539245"> as</tspan>
                    <tspan x="1906.24949" y="20.539245"> </tspan>
                </text>
                <text id="resolved">
                    <tspan x="1810.46729" y="47.518405">re</tspan>
                    <tspan x="1829.27686" y="47.518405" letter-spacing="-0.0044">so</tspan>
                    <tspan x="1849.87158" y="47.518405" letter-spacing="0.0044">l</tspan>
                    <tspan x="1854.69922" y="47.518405">ved</tspan>
                </text>
            </g>
            <polygon id="Fill-83" fill="#FFFFFF" points="1455 152.9866 1568.844 39.1424 1682.688 152.9866 1568.844 266.8307"></polygon>
            <g id="Group-86" transform="translate(1455.000000, 39.000000)">
                <mask id="mask-38" fill="white">
                    <use xlink:href="#path-37"></use>
                </mask>
                <g id="Clip-85"></g>
                <polygon id="Stroke-84" stroke="#979797" stroke-width="2" mask="url(#mask-38)" points="0 113.9866 113.844195 0.1424052 227.68839 113.9866 113.844195 227.830795"></polygon>
            </g>
            <g id="Group-88" transform="translate(1274.000000, 115.000000)">
                <text id="Dispute-" font-family="GillSans, Gill Sans" font-size="22" font-weight="normal" fill="#838383">
                    <tspan x="260.17383" y="23.539245">D</tspan>
                    <tspan x="276.67383" y="23.539245" letter-spacing="0.0044">i</tspan>
                    <tspan x="281.501472" y="23.539245" letter-spacing="-0.0044">s</tspan>
                    <tspan x="289.961916" y="23.539245">pute </tspan>
                </text>
                <text id="resolved?" font-family="GillSans, Gill Sans" font-size="22" font-weight="normal" fill="#838383">
                    <tspan x="253.3042" y="50.518405">re</tspan>
                    <tspan x="272.11377" y="50.518405" letter-spacing="-0.0044">so</tspan>
                    <tspan x="292.708486" y="50.518405" letter-spacing="0.0044">l</tspan>
                    <tspan x="297.536128" y="50.518405">ve</tspan>
                    <tspan x="317.269527" y="50.518405" letter-spacing="-0.0044">d</tspan>
                    <tspan x="328.47997" y="50.518405">?</tspan>
                </text>
                <polyline id="Stroke-87" stroke="#979797" points="294.375 150.95758 294.375 214.3552 0 214.3552 0 96.1424"></polyline>
                <text id="yes" font-family="GillSans, Gill Sans" font-size="22" font-weight="normal" fill="#838383">
                    <tspan x="428.180664" y="20.539245">yes</tspan>
                </text>
                <text id="no" font-family="GillSans, Gill Sans" font-size="22" font-weight="normal" fill="#838383">
                    <tspan x="302.930664" y="181.539245">no</tspan>
                </text>
            </g>
        </g>
    </g>
</svg>