<?xml version="1.0" encoding="UTF-8"?>
<svg width="2808px" height="922px" viewBox="0 0 2808 922" version="1.1" xmlns="http://www.w3.org/2000/svg" xmlns:xlink="http://www.w3.org/1999/xlink">
    <!-- Generator: Sketch 58 (84663) - https://sketch.com -->
    <title>onyx-workflow-2</title>
    <desc>Created with Sketch.</desc>
    <defs>
        <polygon id="path-1" points="0 21.5 0 0 14.8545 10.75"></polygon>
        <polygon id="path-3" points="0 26.0447 0 0 15 13.0223"></polygon>
        <polygon id="path-5" points="0 21.5 0 0 14.8545 10.75"></polygon>
        <polygon id="path-7" points="0 21.5 0 0 14.8545 10.75"></polygon>
        <polygon id="path-9" points="14.8545 0 14.8545 21.5 0 10.75"></polygon>
        <polygon id="path-11" points="14.855 0 14.855 21.5 0 10.75"></polygon>
        <polygon id="path-13" points="0 21.5 0 0 14.8545 10.75"></polygon>
        <polygon id="path-15" points="0 0 21.5 0 10.75 14.8545"></polygon>
        <polygon id="path-17" points="0 0 21.5 0 10.75 14.8545"></polygon>
        <polygon id="path-19" points="0 0 21.5 0 10.75 14.8545"></polygon>
        <polygon id="path-21" points="14.8545 0 14.8545 21.5 0 10.75"></polygon>
        <polygon id="path-23" points="0 21.5 0 0 14.8545 10.75"></polygon>
        <polygon id="path-25" points="15 0.5 15 22 0.1455 11.25"></polygon>
        <polygon id="path-27" points="0 0 21.5 0 10.75 14.8545"></polygon>
        <polygon id="path-29" points="0 21.5 0 0 14.8545 10.75"></polygon>
        <polygon id="path-31" points="0 21.5 0 0 14.855 10.75"></polygon>
        <polygon id="path-33" points="0 21.5 0 0 14.855 10.75"></polygon>
        <polygon id="path-35" points="0 21.5 0 0 14.855 10.75"></polygon>
        <polygon id="path-37" points="0 0 21.5 0 10.75 14.8545"></polygon>
        <polygon id="path-39" points="0 21.5 0 0 14.855 10.75"></polygon>
        <polygon id="path-41" points="0 21.5 0 0 14.855 10.75"></polygon>
        <polygon id="path-43" points="0 0.5 211 0.5 210.5 0 210.5 93 211 92.5 0 92.5 0.5 93 0.5 0"></polygon>
        <polygon id="path-45" points="0 0.5 211 0.5 210.5 0 210.5 93 211 92.5 0 92.5 0.5 93 0.5 0"></polygon>
        <polygon id="path-47" points="0 0.5 211 0.5 210.5 0 210.5 93 211 92.5 0 92.5 0.5 93 0.5 0"></polygon>
        <polygon id="path-49" points="0 0.5 211 0.5 210.5 0 210.5 93 211 92.5 0 92.5 0.5 93 0.5 0"></polygon>
        <polygon id="path-51" points="0 0.5 211 0.5 210.5 0 210.5 93 211 92.5 0 92.5 0.5 93 0.5 0"></polygon>
        <polygon id="path-53" points="0 0.5 211 0.5 210.5 0 210.5 93 211 92.5 0 92.5 0.5 93 0.5 0"></polygon>
        <polygon id="path-55" points="0 0.5 211 0.5 210.5 0 210.5 93 211 92.5 0 92.5 0.5 93 0.5 0"></polygon>
        <polygon id="path-57" points="0 0.5 211 0.5 210.5 0 210.5 93 211 92.5 0 92.5 0.5 93 0.5 0"></polygon>
        <polygon id="path-59" points="0 0.5 211 0.5 210.5 0 210.5 93 211 92.5 0 92.5 0.5 93 0.5 0"></polygon>
        <polygon id="path-61" points="0 0.5 211 0.5 210.5 0 210.5 93 211 92.5 0 92.5 0.5 93 0.5 0"></polygon>
        <polygon id="path-63" points="0 0.5 211 0.5 210.5 0 210.5 93 211 92.5 0 92.5 0.5 93 0.5 0"></polygon>
        <polygon id="path-65" points="0 0.5 211 0.5 210.5 0 210.5 93 211 92.5 0 92.5 0.5 93 0.5 0"></polygon>
        <polygon id="path-67" points="0 0.5 211 0.5 210.5 0 210.5 93 211 92.5 0 92.5 0.5 93 0.5 0"></polygon>
        <polygon id="path-69" points="0 0.5 211 0.5 210.5 0 210.5 93 211 92.5 0 92.5 0.5 93 0.5 0"></polygon>
        <polygon id="path-71" points="0 113.8442 113.844 0 227.688 113.8442 113.844 227.6884"></polygon>
    </defs>
    <g id="onyx-workflow-2" stroke="none" stroke-width="1" fill="none" fill-rule="evenodd">
        <g id="50-Reconcile-Master-Bill" transform="translate(48.000000, 66.000000)">
            <path d="M205.36143,172.5 L280.5,172.5" id="Stroke-1" stroke="#979797" stroke-linecap="square"></path>
            <g id="Group-4" transform="translate(274.000000, 161.000000)">
                <mask id="mask-2" fill="white">
                    <use xlink:href="#path-1"></use>
                </mask>
                <g id="Clip-3"></g>
                <polygon id="Fill-2" fill="#979797" mask="url(#mask-2)" points="-5 -5 19.8545 -5 19.8545 26.5 -5 26.5"></polygon>
            </g>
            <g id="Group-7" transform="translate(500.000000, 172.000000)" stroke="#979797" stroke-linecap="square">
                <path d="M0,1.020618 L141,1.020618" id="Stroke-5"></path>
                <path d="M66.5,571.3318 L66.5,0.4195711" id="Stroke-6"></path>
            </g>
            <g id="Group-10" transform="translate(635.000000, 161.000000)">
                <mask id="mask-4" fill="white">
                    <use xlink:href="#path-3"></use>
                </mask>
                <g id="Clip-9"></g>
                <polygon id="Fill-8" fill="#979797" mask="url(#mask-4)" points="-5 -5 20 -5 20 31.0447 -5 31.0447"></polygon>
            </g>
            <g id="Group-13" transform="translate(566.000000, 316.000000)" stroke="#979797" stroke-linecap="square">
                <path d="M0.36143,0.5 L75.5,0.5" id="Stroke-11"></path>
                <path d="M307.36143,0.5532 L382.5,0.5532" id="Stroke-12"></path>
            </g>
            <g id="Group-16" transform="translate(635.000000, 305.000000)">
                <mask id="mask-6" fill="white">
                    <use xlink:href="#path-5"></use>
                </mask>
                <g id="Clip-15"></g>
                <polygon id="Fill-14" fill="#979797" mask="url(#mask-6)" points="-5 -5 19.8545 -5 19.8545 26.5 -5 26.5"></polygon>
            </g>
            <path d="M860.36143,172.5 L935.5,172.5" id="Stroke-17" stroke="#979797" stroke-linecap="square"></path>
            <g id="Group-20" transform="translate(929.000000, 161.000000)">
                <mask id="mask-8" fill="white">
                    <use xlink:href="#path-7"></use>
                </mask>
                <g id="Clip-19"></g>
                <polygon id="Fill-18" fill="#979797" mask="url(#mask-8)" points="-5 -5 19.8545 -5 19.8545 26.5 -5 26.5"></polygon>
            </g>
            <g id="Group-23" transform="translate(861.000000, 306.000000)">
                <mask id="mask-10" fill="white">
                    <use xlink:href="#path-9"></use>
                </mask>
                <g id="Clip-22"></g>
                <polygon id="Fill-21" fill="#979797" mask="url(#mask-10)" points="19.8545 26.5 -5 26.5 -5 -5 19.8545 -5"></polygon>
            </g>
            <g id="Group-26" transform="translate(1155.000000, 306.000000)">
                <mask id="mask-12" fill="white">
                    <use xlink:href="#path-11"></use>
                </mask>
                <g id="Clip-25"></g>
                <polygon id="Fill-24" fill="#979797" mask="url(#mask-12)" points="19.855 26.5 -5 26.5 -5 -5 19.855 -5"></polygon>
            </g>
            <path d="M566.36143,456.5 L641.5,456.5" id="Stroke-27" stroke="#979797" stroke-linecap="square"></path>
            <g id="Group-30" transform="translate(635.000000, 446.000000)">
                <mask id="mask-14" fill="white">
                    <use xlink:href="#path-13"></use>
                </mask>
                <g id="Clip-29"></g>
                <polygon id="Fill-28" fill="#979797" mask="url(#mask-14)" points="-5 -5 19.8545 -5 19.8545 26.5 -5 26.5"></polygon>
            </g>
            <g id="Group-33" transform="translate(745.000000, 396.000000)">
                <mask id="mask-16" fill="white">
                    <use xlink:href="#path-15"></use>
                </mask>
                <g id="Clip-32"></g>
                <polygon id="Fill-31" fill="#979797" mask="url(#mask-16)" points="26.5 -5 26.5 19.8545 -5 19.8545 -5 -5"></polygon>
            </g>
            <g id="Group-36" transform="translate(745.000000, 538.000000)">
                <mask id="mask-18" fill="white">
                    <use xlink:href="#path-17"></use>
                </mask>
                <g id="Clip-35"></g>
                <polygon id="Fill-34" fill="#979797" mask="url(#mask-18)" points="26.5 -5 26.5 19.8545 -5 19.8545 -5 -5"></polygon>
            </g>
            <g id="Group-39" transform="translate(745.000000, 682.000000)">
                <mask id="mask-20" fill="white">
                    <use xlink:href="#path-19"></use>
                </mask>
                <g id="Clip-38"></g>
                <polygon id="Fill-37" fill="#979797" mask="url(#mask-20)" points="26.5 -5 26.5 19.8545 -5 19.8545 -5 -5"></polygon>
            </g>
            <g id="Group-42" transform="translate(861.000000, 732.000000)">
                <mask id="mask-22" fill="white">
                    <use xlink:href="#path-21"></use>
                </mask>
                <g id="Clip-41"></g>
                <polygon id="Fill-40" fill="#979797" mask="url(#mask-22)" points="19.8545 26.5 -5 26.5 -5 -5 19.8545 -5"></polygon>
            </g>
            <path d="M566.36143,600.5 L641.5,600.5" id="Stroke-43" stroke="#979797" stroke-linecap="square"></path>
            <g id="Group-46" transform="translate(635.000000, 589.000000)">
                <mask id="mask-24" fill="white">
                    <use xlink:href="#path-23"></use>
                </mask>
                <g id="Clip-45"></g>
                <polygon id="Fill-44" fill="#979797" mask="url(#mask-24)" points="-5 -5 19.8545 -5 19.8545 26.5 -5 26.5"></polygon>
            </g>
            <path d="M939.63857,599.5 L869.5,599.5" id="Stroke-47" stroke="#979797" stroke-linecap="square"></path>
            <g id="Group-50" transform="translate(860.000000, 589.000000)">
                <mask id="mask-26" fill="white">
                    <use xlink:href="#path-25"></use>
                </mask>
                <g id="Clip-49"></g>
                <polygon id="Fill-48" fill="#979797" mask="url(#mask-26)" points="20 27 -4.8545 27 -4.8545 -4.5 20 -4.5"></polygon>
            </g>
            <g id="Group-53" transform="translate(1034.000000, 538.000000)">
                <mask id="mask-28" fill="white">
                    <use xlink:href="#path-27"></use>
                </mask>
                <g id="Clip-52"></g>
                <polygon id="Fill-51" fill="#979797" mask="url(#mask-28)" points="26.5 -5 26.5 19.8545 -5 19.8545 -5 -5"></polygon>
            </g>
            <path d="M566.36143,744.5 L641.5,744.5" id="Stroke-54" stroke="#979797" stroke-linecap="square"></path>
            <g id="Group-57" transform="translate(635.000000, 733.000000)">
                <mask id="mask-30" fill="white">
                    <use xlink:href="#path-29"></use>
                </mask>
                <g id="Clip-56"></g>
                <polygon id="Fill-55" fill="#979797" mask="url(#mask-30)" points="-5 -5 19.8545 -5 19.8545 26.5 -5 26.5"></polygon>
            </g>
            <path d="M1447.36143,172.5 L1522.5,172.5" id="Stroke-58" stroke="#979797" stroke-linecap="square"></path>
            <g id="Group-61" transform="translate(1516.000000, 161.000000)">
                <mask id="mask-32" fill="white">
                    <use xlink:href="#path-31"></use>
                </mask>
                <g id="Clip-60"></g>
                <polygon id="Fill-59" fill="#979797" mask="url(#mask-32)" points="-5 -5 19.855 -5 19.855 26.5 -5 26.5"></polygon>
            </g>
            <path d="M1154.36143,172.5 L1229.5,172.5" id="Stroke-62" stroke="#979797" stroke-linecap="square"></path>
            <g id="Group-65" transform="translate(1223.000000, 161.000000)">
                <mask id="mask-34" fill="white">
                    <use xlink:href="#path-33"></use>
                </mask>
                <g id="Clip-64"></g>
                <polygon id="Fill-63" fill="#979797" mask="url(#mask-34)" points="-5 -5 19.855 -5 19.855 26.5 -5 26.5"></polygon>
            </g>
            <path d="M1740.36143,172.5 L1815.5,172.5" id="Stroke-66" stroke="#979797" stroke-linecap="square"></path>
            <g id="Group-69" transform="translate(1809.000000, 161.000000)">
                <mask id="mask-36" fill="white">
                    <use xlink:href="#path-35"></use>
                </mask>
                <g id="Clip-68"></g>
                <polygon id="Fill-67" fill="#979797" mask="url(#mask-36)" points="-5 -5 19.855 -5 19.855 26.5 -5 26.5"></polygon>
            </g>
            <g id="Group-72" transform="translate(1924.000000, 113.000000)">
                <mask id="mask-38" fill="white">
                    <use xlink:href="#path-37"></use>
                </mask>
                <g id="Clip-71"></g>
                <polygon id="Fill-70" fill="#979797" mask="url(#mask-38)" points="26.5 -5 26.5 19.8545 -5 19.8545 -5 -5"></polygon>
            </g>
            <path d="M2343.36143,173.5 L2418.5,173.5" id="Stroke-73" stroke="#979797" stroke-linecap="square"></path>
            <g id="Group-76" transform="translate(2412.000000, 162.000000)">
                <mask id="mask-40" fill="white">
                    <use xlink:href="#path-39"></use>
                </mask>
                <g id="Clip-75"></g>
                <polygon id="Fill-74" fill="#979797" mask="url(#mask-40)" points="-5 -5 19.855 -5 19.855 26.5 -5 26.5"></polygon>
            </g>
            <path d="M2033.36143,173.5 L2108.5,173.5" id="Stroke-77" stroke="#979797" stroke-linecap="square"></path>
            <g id="Group-80" transform="translate(2102.000000, 162.000000)">
                <mask id="mask-42" fill="white">
                    <use xlink:href="#path-41"></use>
                </mask>
                <g id="Clip-79"></g>
                <polygon id="Fill-78" fill="#979797" mask="url(#mask-42)" points="-5 -5 19.855 -5 19.855 26.5 -5 26.5"></polygon>
            </g>
            <g id="Group-83" transform="translate(0.000000, 128.000000)">
                <mask id="mask-44" fill="white">
                    <use xlink:href="#path-43"></use>
                </mask>
                <g id="Clip-82"></g>
                <polygon id="Fill-81" fill="#FFFFFF" mask="url(#mask-44)" points="0 0 211 0 211 93 0 93"></polygon>
            </g>
            <polygon id="Stroke-84" stroke="#979797" stroke-width="2" points="0 128 211 128 211 221 0 221"></polygon>
            <g id="Group-88" transform="translate(289.000000, 128.000000)">
                <mask id="mask-46" fill="white">
                    <use xlink:href="#path-45"></use>
                </mask>
                <g id="Clip-87"></g>
                <polygon id="Fill-86" fill="#FFFFFF" mask="url(#mask-46)" points="0 0 211 0 211 93 0 93"></polygon>
            </g>
            <polygon id="Stroke-89" stroke="#979797" stroke-width="2" points="289 128 500 128 500 221 289 221"></polygon>
            <g id="Group-93" transform="translate(1238.000000, 128.000000)">
                <mask id="mask-48" fill="white">
                    <use xlink:href="#path-47"></use>
                </mask>
                <g id="Clip-92"></g>
                <polygon id="Fill-91" fill="#FFFFFF" mask="url(#mask-48)" points="0 0 211 0 211 93 0 93"></polygon>
            </g>
            <polygon id="Stroke-94" stroke="#979797" stroke-width="2" points="1238 128 1449 128 1449 221 1238 221"></polygon>
            <g id="Group-98" transform="translate(1531.000000, 128.000000)">
                <mask id="mask-50" fill="white">
                    <use xlink:href="#path-49"></use>
                </mask>
                <g id="Clip-97"></g>
                <polygon id="Fill-96" fill="#FFFFFF" mask="url(#mask-50)" points="0 0 211 0 211 93 0 93"></polygon>
            </g>
            <polygon id="Stroke-99" stroke="#979797" stroke-width="2" points="1531 128 1742 128 1742 221 1531 221"></polygon>
            <g id="Group-103" transform="translate(1824.000000, 128.000000)">
                <mask id="mask-52" fill="white">
                    <use xlink:href="#path-51"></use>
                </mask>
                <g id="Clip-102"></g>
                <polygon id="Fill-101" fill="#FFFFFF" mask="url(#mask-52)" points="0 0 211 0 211 93 0 93"></polygon>
            </g>
            <polygon id="Stroke-104" stroke="#979797" stroke-width="2" points="1824 128 2035 128 2035 221 1824 221"></polygon>
            <g id="Group-108" transform="translate(2427.000000, 128.000000)">
                <mask id="mask-54" fill="white">
                    <use xlink:href="#path-53"></use>
                </mask>
                <g id="Clip-107"></g>
                <polygon id="Fill-106" fill="#FFFFFF" mask="url(#mask-54)" points="0 0 211 0 211 93 0 93"></polygon>
            </g>
            <polygon id="Stroke-109" stroke="#979797" stroke-width="2" points="2427 128 2638 128 2638 221 2427 221"></polygon>
            <g id="Group-111" transform="translate(24.000000, 145.000000)" fill="#838383" font-family="GillSans, Gill Sans" font-size="22" font-weight="normal">
                <text id="View-event-details">
                    <tspan x="0.8427734" y="31.396875">V</tspan>
                    <tspan x="14.1308593" y="31.396875" letter-spacing="0.0044">i</tspan>
                    <tspan x="18.9585015" y="31.396875">e</tspan>
                    <tspan x="29.1635796" y="31.396875" letter-spacing="0.0044">w</tspan>
                    <tspan x="44.9912218" y="31.396875" letter-spacing="-0.0044"> </tspan>
                    <tspan x="51.0991265" y="31.396875">event</tspan>
                    <tspan x="99.363775" y="31.396875" letter-spacing="-0.0044"> d</tspan>
                    <tspan x="116.682123" y="31.396875">et</tspan>
                    <tspan x="134.546381" y="31.396875" letter-spacing="-0.0044">a</tspan>
                    <tspan x="143.930653" y="31.396875" letter-spacing="0.0044">il</tspan>
                    <tspan x="153.585937" y="31.396875">s</tspan>
                </text>
                <text id="Display-Master-Bill-">
                    <tspan x="287.812407" y="20.396875">D</tspan>
                    <tspan x="304.312407" y="20.396875" letter-spacing="0.0044">i</tspan>
                    <tspan x="309.140049" y="20.396875" letter-spacing="-0.0044">s</tspan>
                    <tspan x="317.600493" y="20.396875">p</tspan>
                    <tspan x="328.600493" y="20.396875" letter-spacing="0.0044">l</tspan>
                    <tspan x="333.428135" y="20.396875" letter-spacing="-0.0044">a</tspan>
                    <tspan x="341.931548" y="20.396875">y</tspan>
                    <tspan x="351.56729" y="20.396875" letter-spacing="-0.0044"> Mas</tspan>
                    <tspan x="392.692268" y="20.396875">ter</tspan>
                    <tspan x="419.26844" y="20.396875" letter-spacing="-0.0044"> </tspan>
                    <tspan x="425.376344" y="20.396875">B</tspan>
                    <tspan x="437.762087" y="20.396875" letter-spacing="0.0044">ill</tspan>
                    <tspan x="452.245013" y="20.396875"> </tspan>
                </text>
                <text id="Balance">
                    <tspan x="336.89346" y="44.396875">B</tspan>
                    <tspan x="349.279202" y="44.396875" letter-spacing="-0.0044">a</tspan>
                    <tspan x="358.663474" y="44.396875" letter-spacing="0.0044">l</tspan>
                    <tspan x="363.491116" y="44.396875" letter-spacing="-0.0044">a</tspan>
                    <tspan x="372.875388" y="44.396875">nce</tspan>
                </text>
            </g>
            <g id="Group-114" transform="translate(650.000000, 553.000000)">
                <mask id="mask-56" fill="white">
                    <use xlink:href="#path-55"></use>
                </mask>
                <g id="Clip-113"></g>
                <polygon id="Fill-112" fill="#FFFFFF" mask="url(#mask-56)" points="0 0 211 0 211 93 0 93"></polygon>
            </g>
            <polygon id="Stroke-115" stroke="#979797" stroke-width="2" points="650 553 861 553 861 646 650 646"></polygon>
            <g id="Group-119" transform="translate(939.000000, 553.000000)">
                <mask id="mask-58" fill="white">
                    <use xlink:href="#path-57"></use>
                </mask>
                <g id="Clip-118"></g>
                <polygon id="Fill-117" fill="#FFFFFF" mask="url(#mask-58)" points="0 0 211 0 211 93 0 93"></polygon>
            </g>
            <polygon id="Stroke-120" stroke="#979797" stroke-width="2" points="939 553 1150 553 1150 646 939 646"></polygon>
            <g id="Group-124" transform="translate(650.000000, 697.000000)">
                <mask id="mask-60" fill="white">
                    <use xlink:href="#path-59"></use>
                </mask>
                <g id="Clip-123"></g>
                <polygon id="Fill-122" fill="#FFFFFF" mask="url(#mask-60)" points="0 0 211 0 211 93 0 93"></polygon>
            </g>
            <polygon id="Stroke-125" stroke="#979797" stroke-width="2" points="650 697 861 697 861 790 650 790"></polygon>
            <g id="Group-127" transform="translate(668.000000, 570.000000)" fill="#838383" font-family="GillSans, Gill Sans" font-size="22" font-weight="normal">
                <text id="Mark-Master-Bill-as-" letter-spacing="-0.0044">
                    <tspan x="0.239653" y="20.396875">Ma</tspan>
                    <tspan x="26.7962827" y="20.396875">rk</tspan>
                    <tspan x="46.0462827" y="20.396875"> Mas</tspan>
                    <tspan x="87.1712608" y="20.396875">ter</tspan>
                    <tspan x="113.747433" y="20.396875"> </tspan>
                    <tspan x="119.855337" y="20.396875">B</tspan>
                    <tspan x="132.24108" y="20.396875" letter-spacing="0.0044">ill</tspan>
                    <tspan x="146.724006" y="20.396875"> as</tspan>
                    <tspan x="170.676626" y="20.396875"> </tspan>
                </text>
                <text id="payment-pending">
                    <tspan x="10.00967" y="44.396875">p</tspan>
                    <tspan x="21.00967" y="44.396875" letter-spacing="-0.0044">a</tspan>
                    <tspan x="29.5130825" y="44.396875">yment</tspan>
                    <tspan x="84.9749966" y="44.396875" letter-spacing="-0.0044"> </tspan>
                    <tspan x="91.0829013" y="44.396875">pen</tspan>
                    <tspan x="123.620987" y="44.396875" letter-spacing="-0.0044">d</tspan>
                    <tspan x="134.831431" y="44.396875" letter-spacing="0.0044">i</tspan>
                    <tspan x="139.659073" y="44.396875">ng</tspan>
                </text>
                <text id="“Pay-Now”" letter-spacing="-0.0044">
                    <tspan x="324.33975" y="32.734375">“Pa</tspan>
                    <tspan x="353.437878" y="32.734375">y</tspan>
                    <tspan x="363.07362" y="32.734375"> No</tspan>
                    <tspan x="398.273311" y="32.734375" letter-spacing="0.0044">w</tspan>
                    <tspan x="414.100953" y="32.734375">”</tspan>
                </text>
                <text id="Mark-Master-Bill-as-" letter-spacing="-0.0044">
                    <tspan x="0.239653" y="164.396875">Ma</tspan>
                    <tspan x="26.7962827" y="164.396875">rk</tspan>
                    <tspan x="46.0462827" y="164.396875"> Mas</tspan>
                    <tspan x="87.1712608" y="164.396875">ter</tspan>
                    <tspan x="113.747433" y="164.396875"> </tspan>
                    <tspan x="119.855337" y="164.396875">B</tspan>
                    <tspan x="132.24108" y="164.396875" letter-spacing="0.0044">ill</tspan>
                    <tspan x="146.724006" y="164.396875"> as</tspan>
                    <tspan x="170.676626" y="164.396875"> </tspan>
                </text>
                <text id="paid">
                    <tspan x="67.26016" y="188.396875">p</tspan>
                    <tspan x="78.26016" y="188.396875" letter-spacing="-0.0044">a</tspan>
                    <tspan x="87.6444319" y="188.396875" letter-spacing="0.0044">i</tspan>
                    <tspan x="92.4720741" y="188.396875">d</tspan>
                </text>
            </g>
            <g id="Group-130" transform="translate(650.000000, 128.000000)">
                <mask id="mask-62" fill="white">
                    <use xlink:href="#path-61"></use>
                </mask>
                <g id="Clip-129"></g>
                <polygon id="Fill-128" fill="#FFFFFF" mask="url(#mask-62)" points="0 0 211 0 211 93 0 93"></polygon>
            </g>
            <polygon id="Stroke-131" stroke="#979797" stroke-width="2" points="650 128 861 128 861 221 650 221"></polygon>
            <text id="Dispute-Master-Bill" font-family="GillSans, Gill Sans" font-size="22" font-weight="normal" fill="#838383">
                <tspan x="668.304106" y="172.396875">D</tspan>
                <tspan x="684.804106" y="172.396875" letter-spacing="0.0044">i</tspan>
                <tspan x="689.631748" y="172.396875" letter-spacing="-0.0044">s</tspan>
                <tspan x="698.092192" y="172.396875">pute</tspan>
                <tspan x="737.95645" y="172.396875" letter-spacing="-0.0044"> Mas</tspan>
                <tspan x="779.081428" y="172.396875">ter</tspan>
                <tspan x="805.6576" y="172.396875" letter-spacing="-0.0044"> </tspan>
                <tspan x="811.765504" y="172.396875">B</tspan>
                <tspan x="824.151247" y="172.396875" letter-spacing="0.0044">il</tspan>
                <tspan x="833.806531" y="172.396875">l</tspan>
            </text>
            <g id="Group-135" transform="translate(944.000000, 128.000000)">
                <mask id="mask-64" fill="white">
                    <use xlink:href="#path-63"></use>
                </mask>
                <g id="Clip-134"></g>
                <polygon id="Fill-133" fill="#FFFFFF" mask="url(#mask-64)" points="0 0 211 0 211 93 0 93"></polygon>
            </g>
            <polygon id="Stroke-136" stroke="#979797" stroke-width="2" points="944 128 1155 128 1155 221 944 221"></polygon>
            <g id="Group-140" transform="translate(944.000000, 269.000000)">
                <mask id="mask-66" fill="white">
                    <use xlink:href="#path-65"></use>
                </mask>
                <g id="Clip-139"></g>
                <polygon id="Fill-138" fill="#FFFFFF" mask="url(#mask-66)" points="0 0 211 0 211 93 0 93"></polygon>
            </g>
            <polygon id="Stroke-141" stroke="#979797" stroke-width="2" points="944 269 1155 269 1155 362 944 362"></polygon>
            <g id="Group-143" transform="translate(974.000000, 145.000000)" fill="#838383" font-family="GillSans, Gill Sans" font-size="22" font-weight="normal">
                <text id="View-Master-Bill-">
                    <tspan x="0.89395" y="20.734375">V</tspan>
                    <tspan x="14.1820359" y="20.734375" letter-spacing="0.0044">i</tspan>
                    <tspan x="19.0096781" y="20.734375">e</tspan>
                    <tspan x="29.2147563" y="20.734375" letter-spacing="0.0044">w</tspan>
                    <tspan x="45.0423984" y="20.734375" letter-spacing="-0.0044"> Mas</tspan>
                    <tspan x="86.1673766" y="20.734375">ter</tspan>
                    <tspan x="112.743548" y="20.734375" letter-spacing="-0.0044"> </tspan>
                    <tspan x="118.851453" y="20.734375">B</tspan>
                    <tspan x="131.237195" y="20.734375" letter-spacing="0.0044">ill</tspan>
                    <tspan x="145.720122" y="20.734375"> </tspan>
                </text>
                <text id="details" letter-spacing="-0.0044">
                    <tspan x="45.18399" y="44.734375">d</tspan>
                    <tspan x="56.3944337" y="44.734375">et</tspan>
                    <tspan x="74.2586916" y="44.734375">a</tspan>
                    <tspan x="83.6429634" y="44.734375" letter-spacing="0.0044">il</tspan>
                    <tspan x="93.2982478" y="44.734375">s</tspan>
                </text>
                <text id="Calculate-Actual-">
                    <tspan x="0.74356" y="161.734375">C</tspan>
                    <tspan x="16.3197319" y="161.734375" letter-spacing="-0.0044">a</tspan>
                    <tspan x="25.7040038" y="161.734375" letter-spacing="0.0044">l</tspan>
                    <tspan x="30.5316459" y="161.734375">cu</tspan>
                    <tspan x="51.1673881" y="161.734375" letter-spacing="0.0044">l</tspan>
                    <tspan x="55.9950303" y="161.734375" letter-spacing="-0.0044">a</tspan>
                    <tspan x="65.3793022" y="161.734375">te</tspan>
                    <tspan x="83.24356" y="161.734375" letter-spacing="-0.0044"> </tspan>
                    <tspan x="87.1493162" y="161.734375">Actu</tspan>
                    <tspan x="129.785058" y="161.734375" letter-spacing="-0.0044">a</tspan>
                    <tspan x="139.16933" y="161.734375" letter-spacing="0.0044">l</tspan>
                    <tspan x="143.996972" y="161.734375"> </tspan>
                </text>
                <text id="Commissions">
                    <tspan x="13.56436" y="185.734375">C</tspan>
                    <tspan x="29.1405319" y="185.734375" letter-spacing="-0.0044">o</tspan>
                    <tspan x="41.2748037" y="185.734375">mm</tspan>
                    <tspan x="75.1986319" y="185.734375" letter-spacing="0.0044">i</tspan>
                    <tspan x="80.0262741" y="185.734375" letter-spacing="-0.0044">ss</tspan>
                    <tspan x="96.9471616" y="185.734375" letter-spacing="0.0044">i</tspan>
                    <tspan x="101.774804" y="185.734375" letter-spacing="-0.0044">o</tspan>
                    <tspan x="113.909076" y="185.734375">ns</tspan>
                </text>
            </g>
            <g id="Group-146" transform="translate(650.000000, 269.000000)">
                <mask id="mask-68" fill="white">
                    <use xlink:href="#path-67"></use>
                </mask>
                <g id="Clip-145"></g>
                <polygon id="Fill-144" fill="#FFFFFF" mask="url(#mask-68)" points="0 0 211 0 211 93 0 93"></polygon>
            </g>
            <polygon id="Stroke-147" stroke="#979797" stroke-width="2" points="650 269 861 269 861 362 650 362"></polygon>
            <g id="Group-149" transform="translate(681.000000, 286.000000)" fill="#838383" font-family="GillSans, Gill Sans" font-size="22" font-weight="normal">
                <text id="Agree-to-Master-">
                    <tspan x="0.9003" y="20.396875">A</tspan>
                    <tspan x="15.5741281" y="20.396875" letter-spacing="-0.0044">g</tspan>
                    <tspan x="24.9584" y="20.396875">ree</tspan>
                    <tspan x="54.3060563" y="20.396875" letter-spacing="-0.0044"> </tspan>
                    <tspan x="60.4139609" y="20.396875">t</tspan>
                    <tspan x="67.7401328" y="20.396875" letter-spacing="-0.0044">o Mas</tspan>
                    <tspan x="120.999383" y="20.396875">ter </tspan>
                </text>
                <text id="Bill">
                    <tspan x="61.04581" y="44.396875">B</tspan>
                    <tspan x="73.4315522" y="44.396875" letter-spacing="0.0044">il</tspan>
                    <tspan x="83.0868366" y="44.396875">l</tspan>
                </text>
            </g>
            <g id="Group-152" transform="translate(650.000000, 410.000000)">
                <mask id="mask-70" fill="white">
                    <use xlink:href="#path-69"></use>
                </mask>
                <g id="Clip-151"></g>
                <polygon id="Fill-150" fill="#FFFFFF" mask="url(#mask-70)" points="0 0 211 0 211 93 0 93"></polygon>
            </g>
            <polygon id="Stroke-153" stroke="#979797" stroke-width="2" points="650 410 861 410 861 503 650 503"></polygon>
            <g id="Group-155" transform="translate(668.000000, 145.000000)" fill="#838383" font-family="GillSans, Gill Sans" font-size="22" font-weight="normal">
                <text id="Mark-Master-Bill-as-" letter-spacing="-0.0044">
                    <tspan x="0.239653" y="302.396875">Ma</tspan>
                    <tspan x="26.7962827" y="302.396875">rk</tspan>
                    <tspan x="46.0462827" y="302.396875"> Mas</tspan>
                    <tspan x="87.1712608" y="302.396875">ter</tspan>
                    <tspan x="113.747433" y="302.396875"> </tspan>
                    <tspan x="119.855337" y="302.396875">B</tspan>
                    <tspan x="132.24108" y="302.396875" letter-spacing="0.0044">ill</tspan>
                    <tspan x="146.724006" y="302.396875"> as</tspan>
                    <tspan x="170.676626" y="302.396875"> </tspan>
                </text>
                <text id="ﬁnal">
                    <tspan x="67.36758" y="326.396875">ﬁn</tspan>
                    <tspan x="89.36758" y="326.396875" letter-spacing="-0.0044">a</tspan>
                    <tspan x="98.7518519" y="326.396875">l</tspan>
                </text>
                <text id="Mark-items-in-" letter-spacing="-0.0044">
                    <tspan x="614.51123" y="20.396875">Ma</tspan>
                    <tspan x="641.06786" y="20.396875">rk</tspan>
                    <tspan x="660.31786" y="20.396875"> </tspan>
                    <tspan x="666.425764" y="20.396875" letter-spacing="0.0044">i</tspan>
                    <tspan x="671.253407" y="20.396875">tem</tspan>
                    <tspan x="706.079578" y="20.396875">s </tspan>
                    <tspan x="720.647927" y="20.396875" letter-spacing="0.0044">i</tspan>
                    <tspan x="725.475569" y="20.396875">n </tspan>
                </text>
                <text id="dispute" letter-spacing="-0.0044">
                    <tspan x="643.31641" y="44.396875">d</tspan>
                    <tspan x="654.526854" y="44.396875" letter-spacing="0.0044">i</tspan>
                    <tspan x="659.354496" y="44.396875">s</tspan>
                    <tspan x="667.81494" y="44.396875">pute</tspan>
                </text>
                <text id="Add-reason-for-">
                    <tspan x="900.539551" y="20.396875">A</tspan>
                    <tspan x="915.213379" y="20.396875" letter-spacing="-0.0044">dd </tspan>
                    <tspan x="943.527328" y="20.396875">re</tspan>
                    <tspan x="962.336898" y="20.396875" letter-spacing="-0.0044">aso</tspan>
                    <tspan x="992.315885" y="20.396875">n</tspan>
                    <tspan x="1003.31589" y="20.396875" letter-spacing="-0.0044"> </tspan>
                    <tspan x="1009.42379" y="20.396875">f</tspan>
                    <tspan x="1014.70895" y="20.396875" letter-spacing="-0.0044">o</tspan>
                    <tspan x="1026.84322" y="20.396875">r </tspan>
                </text>
                <text id="dispute" letter-spacing="-0.0044">
                    <tspan x="936.31641" y="44.396875">d</tspan>
                    <tspan x="947.526854" y="44.396875" letter-spacing="0.0044">i</tspan>
                    <tspan x="952.354496" y="44.396875">s</tspan>
                    <tspan x="960.81494" y="44.396875">pute</tspan>
                </text>
                <text id="Notify-hotel-" letter-spacing="-0.0044">
                    <tspan x="1207.23047" y="20.396875">No</tspan>
                    <tspan x="1236.5371" y="20.396875">t</tspan>
                    <tspan x="1243.86327" y="20.396875" letter-spacing="0.0044">i</tspan>
                    <tspan x="1248.69091" y="20.396875">fy</tspan>
                    <tspan x="1263.82666" y="20.396875"> </tspan>
                    <tspan x="1269.93456" y="20.396875">h</tspan>
                    <tspan x="1280.93456" y="20.396875">o</tspan>
                    <tspan x="1293.06883" y="20.396875">te</tspan>
                    <tspan x="1310.93309" y="20.396875" letter-spacing="0.0044">l</tspan>
                    <tspan x="1315.76073" y="20.396875"> </tspan>
                </text>
                <text id="event-manager">
                    <tspan x="1196.23584" y="44.396875">event</tspan>
                    <tspan x="1244.50049" y="44.396875" letter-spacing="-0.0044"> </tspan>
                    <tspan x="1250.60839" y="44.396875">m</tspan>
                    <tspan x="1267.57031" y="44.396875" letter-spacing="-0.0044">a</tspan>
                    <tspan x="1276.95458" y="44.396875">n</tspan>
                    <tspan x="1287.95458" y="44.396875" letter-spacing="-0.0044">ag</tspan>
                    <tspan x="1306.72312" y="44.396875">er</tspan>
                </text>
                <text id="Mark-items-as-" letter-spacing="-0.0044">
                    <tspan x="1802.49609" y="20.396875">Ma</tspan>
                    <tspan x="1829.05272" y="20.396875">rk</tspan>
                    <tspan x="1848.30272" y="20.396875"> </tspan>
                    <tspan x="1854.41062" y="20.396875" letter-spacing="0.0044">i</tspan>
                    <tspan x="1859.23827" y="20.396875">tem</tspan>
                    <tspan x="1894.06444" y="20.396875">s as</tspan>
                    <tspan x="1926.4775" y="20.396875"> </tspan>
                </text>
                <text id="resolved">
                    <tspan x="1826.46729" y="44.396875">re</tspan>
                    <tspan x="1845.27686" y="44.396875" letter-spacing="-0.0044">so</tspan>
                    <tspan x="1865.87158" y="44.396875" letter-spacing="0.0044">l</tspan>
                    <tspan x="1870.69922" y="44.396875">ved</tspan>
                </text>
            </g>
            <polygon id="Fill-156" fill="#FFFFFF" points="2116 172.8442 2229.844 59 2343.688 172.8442 2229.844 286.6884"></polygon>
            <g id="Group-159" transform="translate(2116.000000, 59.000000)">
                <mask id="mask-72" fill="white">
                    <use xlink:href="#path-71"></use>
                </mask>
                <g id="Clip-158"></g>
                <polygon id="Stroke-157" stroke="#979797" stroke-width="2" mask="url(#mask-72)" points="0 113.8442 113.844195 5.20000003e-06 227.68839 113.8442 113.844195 227.688395"></polygon>
            </g>
            <g id="Group-167">
                <text id="Dispute-" font-family="GillSans, Gill Sans" font-size="22" font-weight="normal" fill="#838383">
                    <tspan x="2195.17383" y="163.396875">D</tspan>
                    <tspan x="2211.67383" y="163.396875" letter-spacing="0.0044">i</tspan>
                    <tspan x="2216.50147" y="163.396875" letter-spacing="-0.0044">s</tspan>
                    <tspan x="2224.96192" y="163.396875">pute </tspan>
                </text>
                <text id="resolved?" font-family="GillSans, Gill Sans" font-size="22" font-weight="normal" fill="#838383">
                    <tspan x="2188.3042" y="187.396875">re</tspan>
                    <tspan x="2207.11377" y="187.396875" letter-spacing="-0.0044">so</tspan>
                    <tspan x="2227.70849" y="187.396875" letter-spacing="0.0044">l</tspan>
                    <tspan x="2232.53613" y="187.396875">ve</tspan>
                    <tspan x="2252.26953" y="187.396875" letter-spacing="-0.0044">d</tspan>
                    <tspan x="2263.47997" y="187.396875">?</tspan>
                </text>
                <polyline id="Stroke-160" stroke="#979797" points="2229.375 59.10642 2229.375 0 1935 0 1935 118.2128"></polyline>
                <text id="yes" font-family="GillSans, Gill Sans" font-size="22" font-weight="normal" fill="#838383">
                    <tspan x="2363.18066" y="156.396875">yes</tspan>
                </text>
                <text id="no" font-family="GillSans, Gill Sans" font-size="18" font-weight="normal" fill="#838383">
                    <tspan x="2235.03418" y="32.990625">no</tspan>
                </text>
                <path d="M755.5,361.5 L755.5,399.5" id="Stroke-161" stroke="#979797" stroke-linecap="square"></path>
                <path d="M755.5,503.5 L755.5,541.5" id="Stroke-162" stroke="#979797" stroke-linecap="square"></path>
                <path d="M755.5,646.5 L755.5,684.5" id="Stroke-163" stroke="#979797" stroke-linecap="square"></path>
                <polyline id="Stroke-164" stroke="#979797" points="2636.49 173.599 2710.061 173.599 2710.061 317.1543 1163.791 317.1543"></polyline>
                <text id="Master-Bill-Reconciliation" font-family="GillSans-SemiBold, Gill Sans" font-size="36" font-weight="500" fill="#838383">
                    <tspan x="0" y="74.4608106">M</tspan>
                    <tspan x="30.0585938" y="74.4608106" letter-spacing="-0.0036">a</tspan>
                    <tspan x="47.4397594" y="74.4608106" letter-spacing="-0.0072">s</tspan>
                    <tspan x="61.9696688" y="74.4608106" letter-spacing="0.0036">te</tspan>
                    <tspan x="93.8460094" y="74.4608106">r</tspan>
                    <tspan x="108.892884" y="74.4608106" letter-spacing="-0.0072"> </tspan>
                    <tspan x="118.887637" y="74.4608106" letter-spacing="-0.0036">B</tspan>
                    <tspan x="141.489506" y="74.4608106">ill</tspan>
                    <tspan x="168.278569" y="74.4608106" letter-spacing="-0.0072"> </tspan>
                    <tspan x="178.273322" y="74.4608106">R</tspan>
                    <tspan x="200.738166" y="74.4608106" letter-spacing="0.0036">e</tspan>
                    <tspan x="219.321844" y="74.4608106" letter-spacing="-0.0036">c</tspan>
                    <tspan x="235.911994" y="74.4608106" letter-spacing="0.0072">o</tspan>
                    <tspan x="256.555912" y="74.4608106">n</tspan>
                    <tspan x="276.032475" y="74.4608106" letter-spacing="-0.0036">c</tspan>
                    <tspan x="292.622625" y="74.4608106">ili</tspan>
                    <tspan x="319.411687" y="74.4608106" letter-spacing="-0.0036">a</tspan>
                    <tspan x="336.792853" y="74.4608106" letter-spacing="0.0036">t</tspan>
                    <tspan x="350.085516" y="74.4608106">i</tspan>
                    <tspan x="359.015203" y="74.4608106" letter-spacing="0.0072">o</tspan>
                    <tspan x="379.659122" y="74.4608106">n</tspan>
                </text>
                <polyline id="Stroke-165" stroke="#979797" points="861.1933 456.5288 1044.7825 456.5288 1044.7825 543.66479"></polyline>
                <polyline id="Stroke-166" stroke="#979797" points="861 743 1044.5892 743 1044.5892 646.23978"></polyline>
            </g>
        </g>
    </g>
</svg>