<svg id="Home" xmlns="http://www.w3.org/2000/svg" viewBox="0 0 92 55"><title>product</title><rect width="92" height="55" style="fill:#5a493d"/><circle cx="4.16" cy="12.59" r="3.82" style="fill:#d4a3d6"/><circle cx="5.43" cy="24.75" r="3.82" style="fill:#d4a3d6"/><circle cx="6.69" cy="36.92" r="3.82" style="fill:#d4a3d6"/><circle cx="7.96" cy="49.08" r="3.82" style="fill:#d4a3d6"/><circle cx="15.6" cy="11.4" r="3.82" style="fill:#d4a3d6"/><circle cx="27.04" cy="10.21" r="3.82" style="fill:#d4a3d6"/><circle cx="38.48" cy="9.02" r="3.82" style="fill:#d4a3d6"/><circle cx="49.92" cy="7.83" r="3.82" style="fill:#d4a3d6"/><circle cx="61.36" cy="6.64" r="3.82" style="fill:#d4a3d6"/><circle cx="72.81" cy="5.45" r="3.82" style="fill:#d4a3d6"/><circle cx="84.25" cy="4.26" r="3.82" style="fill:#d4a3d6"/><circle cx="16.87" cy="23.56" r="3.82" style="fill:#d4a3d6"/><circle cx="28.31" cy="22.37" r="3.82" style="fill:#d4a3d6"/><circle cx="39.75" cy="21.18" r="3.82" style="fill:#d4a3d6"/><circle cx="51.19" cy="19.99" r="3.82" style="fill:#d4a3d6"/><circle cx="62.63" cy="18.8" r="3.82" style="fill:#d4a3d6"/><circle cx="74.07" cy="17.61" r="3.82" style="fill:#d4a3d6"/><circle cx="85.51" cy="16.42" r="3.82" style="fill:#d4a3d6"/><circle cx="18.13" cy="35.73" r="3.82" style="fill:#d4a3d6"/><circle cx="29.57" cy="34.54" r="3.82" style="fill:#d4a3d6"/><circle cx="41.01" cy="33.35" r="3.82" style="fill:#d4a3d6"/><circle cx="52.45" cy="32.16" r="3.82" style="fill:#d4a3d6"/><circle cx="63.9" cy="30.97" r="3.82" style="fill:#d4a3d6"/><circle cx="75.34" cy="29.78" r="3.82" style="fill:#d4a3d6"/><circle cx="86.78" cy="28.59" r="3.82" style="fill:#d4a3d6"/><circle cx="19.4" cy="47.89" r="3.82" style="fill:#d4a3d6"/><circle cx="30.84" cy="46.7" r="3.82" style="fill:#d4a3d6"/><circle cx="42.28" cy="45.51" r="3.82" style="fill:#d4a3d6"/><circle cx="53.72" cy="44.32" r="3.82" style="fill:#d4a3d6"/><circle cx="65.16" cy="43.13" r="3.82" style="fill:#d4a3d6"/><circle cx="76.6" cy="41.94" r="3.82" style="fill:#d4a3d6"/><circle cx="88.04" cy="40.75" r="3.82" style="fill:#d4a3d6"/></svg>