<svg xmlns="http://www.w3.org/2000/svg" viewBox="0 0 350 256"><title>Logi_Widget2</title><path d="M141.7,12.91h-1l-4.29-6.59h0c0,.77.08,1.48.08,2.13v4.46h-.84V5.06h1l4.28,6.56h.05c0-.1,0-.41-.05-.93s0-.9,0-1.13V5.06h.85Z" fill="#455a64"/><path d="M148.81,10a3.22,3.22,0,0,1-.73,2.25,2.54,2.54,0,0,1-2,.81,2.73,2.73,0,0,1-1.4-.37,2.48,2.48,0,0,1-1-1.07A3.72,3.72,0,0,1,143.4,10a3.23,3.23,0,0,1,.72-2.24,2.54,2.54,0,0,1,2-.8,2.47,2.47,0,0,1,2,.82A3.21,3.21,0,0,1,148.81,10Zm-4.48,0a2.8,2.8,0,0,0,.45,1.72,1.57,1.57,0,0,0,1.32.59,1.55,1.55,0,0,0,1.33-.59,2.71,2.71,0,0,0,.46-1.72,2.65,2.65,0,0,0-.46-1.7,1.59,1.59,0,0,0-1.34-.59,1.56,1.56,0,0,0-1.32.58A2.73,2.73,0,0,0,144.33,10Z" fill="#455a64"/><path d="M152.27,12.28a3.44,3.44,0,0,0,.46,0l.35-.08v.69a2,2,0,0,1-.43.11,3.24,3.24,0,0,1-.5,0q-1.71,0-1.71-1.8V7.72h-.85V7.29l.85-.37.37-1.26h.52V7H153v.7h-1.71v3.46a1.2,1.2,0,0,0,.25.82A.88.88,0,0,0,152.27,12.28Z" fill="#455a64"/><path d="M156.74,13a2.72,2.72,0,0,1-2.06-.8,3.08,3.08,0,0,1-.75-2.21,3.41,3.41,0,0,1,.7-2.26,2.34,2.34,0,0,1,1.88-.83,2.23,2.23,0,0,1,1.75.72,2.81,2.81,0,0,1,.65,1.92v.57h-4.06a2.3,2.3,0,0,0,.53,1.57,1.79,1.79,0,0,0,1.4.54,4.68,4.68,0,0,0,1.88-.4v.8a5.48,5.48,0,0,1-.9.29A5,5,0,0,1,156.74,13Zm-.24-5.36a1.48,1.48,0,0,0-1.13.46,2.16,2.16,0,0,0-.5,1.28H158a2,2,0,0,0-.37-1.29A1.33,1.33,0,0,0,156.5,7.66Z" fill="#455a64"/><path d="M106.06,31.46h-4.38V23.61h4.38v.81h-3.47V27h3.26v.8h-3.26v2.89h3.47Z" fill="#455a64"/><path d="M115.17,31.46V27.63a1.61,1.61,0,0,0-.3-1.06,1.19,1.19,0,0,0-.94-.35,1.52,1.52,0,0,0-1.23.48,2.3,2.3,0,0,0-.4,1.47v3.29h-.89V27.63a1.61,1.61,0,0,0-.3-1.06,1.18,1.18,0,0,0-.94-.35,1.45,1.45,0,0,0-1.22.5,2.74,2.74,0,0,0-.39,1.65v3.09h-.9V25.57h.73l.14.81h0a1.7,1.7,0,0,1,.71-.67,2.18,2.18,0,0,1,1-.25,1.75,1.75,0,0,1,1.8,1h0a1.85,1.85,0,0,1,.76-.73,2.34,2.34,0,0,1,1.14-.27,2,2,0,0,1,1.49.52,2.3,2.3,0,0,1,.5,1.64v3.84Z" fill="#455a64"/><path d="M121.52,31.46l-.18-.84h0a2.53,2.53,0,0,1-.88.75,2.69,2.69,0,0,1-1.09.2,2,2,0,0,1-1.38-.45,1.67,1.67,0,0,1-.49-1.29c0-1.19,1-1.81,2.85-1.87l1,0v-.37a1.48,1.48,0,0,0-.3-1,1.23,1.23,0,0,0-1-.33,3.88,3.88,0,0,0-1.67.45l-.27-.68a4,4,0,0,1,.95-.37,4.12,4.12,0,0,1,1-.13,2.25,2.25,0,0,1,1.56.46,1.94,1.94,0,0,1,.51,1.5v4Zm-2-.63a1.79,1.79,0,0,0,1.31-.46,1.67,1.67,0,0,0,.48-1.27v-.54l-.9,0a3.34,3.34,0,0,0-1.53.33,1,1,0,0,0-.47.91,1,1,0,0,0,.29.74A1.22,1.22,0,0,0,119.5,30.83Z" fill="#455a64"/><path d="M123.94,24a.58.58,0,0,1,.15-.45.49.49,0,0,1,.37-.14.53.53,0,0,1,.38.14.75.75,0,0,1,0,.9.57.57,0,0,1-.38.14.53.53,0,0,1-.37-.14A.61.61,0,0,1,123.94,24Zm1,7.48H124V25.57h.9Z" fill="#455a64"/><path d="M127.69,31.46h-.89V23.1h.89Z" fill="#455a64"/><path d="M63.38,46.68v5.08a2.77,2.77,0,0,1-.81,2.11,3.15,3.15,0,0,1-2.23.77,3,3,0,0,1-2.2-.78,2.87,2.87,0,0,1-.77-2.12V46.68h.91V51.8a2,2,0,0,0,.54,1.51,2.15,2.15,0,0,0,1.58.53,2.11,2.11,0,0,0,1.53-.53,2.08,2.08,0,0,0,.53-1.52V46.68Z" fill="#455a64"/><path d="M69.35,54.53V50.72A1.51,1.51,0,0,0,69,49.65a1.32,1.32,0,0,0-1-.36,1.72,1.72,0,0,0-1.36.5,2.55,2.55,0,0,0-.43,1.65v3.09h-.89V48.64h.73l.14.81h0a1.89,1.89,0,0,1,.77-.68,2.5,2.5,0,0,1,1.1-.24,1.88,1.88,0,0,1,2.14,2.16v3.84Z" fill="#455a64"/><path d="M73,51.51c.16-.21.39-.5.71-.85l1.9-2h1.06l-2.39,2.51,2.55,3.38H75.7l-2.08-2.78-.67.58v2.2h-.88V46.17H73V50.6c0,.2,0,.5,0,.91Z" fill="#455a64"/><path d="M81.87,54.53V50.72a1.55,1.55,0,0,0-.32-1.07,1.33,1.33,0,0,0-1-.36,1.69,1.69,0,0,0-1.35.5,2.49,2.49,0,0,0-.43,1.65v3.09h-.89V48.64h.72l.15.81h0a1.82,1.82,0,0,1,.77-.68,2.47,2.47,0,0,1,1.1-.24,2.2,2.2,0,0,1,1.6.52,2.17,2.17,0,0,1,.54,1.64v3.84Z" fill="#455a64"/><path d="M89.68,51.58A3.22,3.22,0,0,1,89,53.83a2.54,2.54,0,0,1-2,.81,2.62,2.62,0,0,1-1.4-.38,2.46,2.46,0,0,1-1-1.06,3.72,3.72,0,0,1-.33-1.62A3.23,3.23,0,0,1,85,49.34a2.54,2.54,0,0,1,2-.81,2.48,2.48,0,0,1,2,.83A3.18,3.18,0,0,1,89.68,51.58Zm-4.49,0a2.82,2.82,0,0,0,.45,1.72,1.79,1.79,0,0,0,2.66,0,2.8,2.8,0,0,0,.45-1.72,2.77,2.77,0,0,0-.45-1.71A1.61,1.61,0,0,0,87,49.29a1.56,1.56,0,0,0-1.32.58A2.73,2.73,0,0,0,85.19,51.58Z" fill="#455a64"/><path d="M96.05,54.53,95,51.07c-.07-.21-.2-.69-.38-1.43h0c-.14.62-.26,1.1-.37,1.45l-1.11,3.44H92l-1.61-5.89h.93L92.22,52a13.4,13.4,0,0,1,.34,1.56h0c0-.2.1-.47.19-.79S93,52.21,93,52l1.08-3.38h1L96.12,52a11.38,11.38,0,0,1,.41,1.55h0a4.61,4.61,0,0,1,.11-.59c.06-.27.44-1.72,1.12-4.34h.92l-1.62,5.89Z" fill="#455a64"/><path d="M103.83,54.53V50.72a1.51,1.51,0,0,0-.33-1.07,1.33,1.33,0,0,0-1-.36,1.71,1.71,0,0,0-1.35.5,2.49,2.49,0,0,0-.43,1.65v3.09H99.8V48.64h.72l.15.81h0a1.82,1.82,0,0,1,.77-.68,2.47,2.47,0,0,1,1.1-.24,2.2,2.2,0,0,1,1.6.52,2.17,2.17,0,0,1,.54,1.64v3.84Z" fill="#455a64"/><path d="M18.39,78.94h-.92v-7H15v-.81h5.88v.81H18.39Z" fill="#455a64"/><path d="M24.41,79.05a2.7,2.7,0,0,1-2.06-.8,3,3,0,0,1-.76-2.2,3.48,3.48,0,0,1,.7-2.27A2.36,2.36,0,0,1,24.18,73a2.24,2.24,0,0,1,1.75.72,2.8,2.8,0,0,1,.64,1.92v.57H22.52A2.29,2.29,0,0,0,23,77.73a1.81,1.81,0,0,0,1.4.54,4.68,4.68,0,0,0,1.88-.4v.8a5.19,5.19,0,0,1-.9.29A4.91,4.91,0,0,1,24.41,79.05Zm-.24-5.36a1.48,1.48,0,0,0-1.14.47,2.1,2.1,0,0,0-.49,1.27h3.08a2,2,0,0,0-.38-1.29A1.32,1.32,0,0,0,24.17,73.69Z" fill="#455a64"/><path d="M29.51,75.93l-2.05-2.88h1L30,75.31l1.55-2.26h1l-2,2.88,2.15,3h-1L30,76.56l-1.66,2.38h-1Z" fill="#455a64"/><path d="M35.76,78.31a3.29,3.29,0,0,0,.45,0,2.7,2.7,0,0,0,.35-.08v.69a2,2,0,0,1-.43.11,3.13,3.13,0,0,1-.5,0q-1.71,0-1.71-1.8v-3.5h-.84v-.43l.84-.37.37-1.26h.52v1.36h1.71v.7H34.81v3.46a1.18,1.18,0,0,0,.25.82A.88.88,0,0,0,35.76,78.31Z" fill="#455a64"/><path d="M44.21,78.94l-2.67-7h0c0,.55.07,1.21.07,2v5h-.84V71.09H42.1l2.49,6.48h0l2.51-6.48h1.37v7.85h-.92V73.88c0-.58,0-1.21.08-1.89h0l-2.69,7Z" fill="#455a64"/><path d="M53,79.05a2.72,2.72,0,0,1-2.06-.8,3.07,3.07,0,0,1-.75-2.2,3.42,3.42,0,0,1,.7-2.27A2.36,2.36,0,0,1,52.78,73a2.23,2.23,0,0,1,1.75.72,2.81,2.81,0,0,1,.65,1.92v.57H51.12a2.35,2.35,0,0,0,.53,1.57,1.79,1.79,0,0,0,1.4.54,4.68,4.68,0,0,0,1.88-.4v.8A5.48,5.48,0,0,1,54,79,5,5,0,0,1,53,79.05Zm-.24-5.36a1.46,1.46,0,0,0-1.13.47,2.1,2.1,0,0,0-.5,1.27h3.08a2,2,0,0,0-.37-1.29A1.33,1.33,0,0,0,52.77,73.69Z" fill="#455a64"/><path d="M60.5,77.33a1.47,1.47,0,0,1-.62,1.27,2.86,2.86,0,0,1-1.72.45,3.8,3.8,0,0,1-1.82-.37v-.83a4.28,4.28,0,0,0,.91.34,3.85,3.85,0,0,0,.94.12,2.11,2.11,0,0,0,1.07-.22.75.75,0,0,0,.38-.68.73.73,0,0,0-.3-.59,5.14,5.14,0,0,0-1.17-.58A6.32,6.32,0,0,1,57,75.71a1.52,1.52,0,0,1-.52-.52,1.36,1.36,0,0,1-.17-.69,1.34,1.34,0,0,1,.59-1.14,2.76,2.76,0,0,1,1.6-.41,4.8,4.8,0,0,1,1.86.38l-.32.73a4.13,4.13,0,0,0-1.6-.37,1.91,1.91,0,0,0-1,.2.63.63,0,0,0-.32.55.65.65,0,0,0,.12.4,1.19,1.19,0,0,0,.39.32,8.94,8.94,0,0,0,1,.43,4,4,0,0,1,1.42.77A1.38,1.38,0,0,1,60.5,77.33Z" fill="#455a64"/><path d="M65.74,77.33a1.46,1.46,0,0,1-.61,1.27,2.86,2.86,0,0,1-1.72.45,3.78,3.78,0,0,1-1.82-.37v-.83a4.28,4.28,0,0,0,.91.34,3.83,3.83,0,0,0,.93.12,2.12,2.12,0,0,0,1.08-.22.77.77,0,0,0,.07-1.27,4.8,4.8,0,0,0-1.16-.58,6.84,6.84,0,0,1-1.17-.53,1.48,1.48,0,0,1-.51-.52,1.36,1.36,0,0,1-.17-.69,1.31,1.31,0,0,1,.59-1.14,2.74,2.74,0,0,1,1.6-.41,4.87,4.87,0,0,1,1.86.38l-.32.73a4.13,4.13,0,0,0-1.6-.37,1.88,1.88,0,0,0-1,.2.63.63,0,0,0-.32.55.65.65,0,0,0,.12.4,1.19,1.19,0,0,0,.39.32,8.94,8.94,0,0,0,1,.43,4,4,0,0,1,1.42.77A1.37,1.37,0,0,1,65.74,77.33Z" fill="#455a64"/><path d="M70.81,78.94l-.17-.84h0a2.37,2.37,0,0,1-.88.75,2.65,2.65,0,0,1-1.09.2,2,2,0,0,1-1.37-.45,1.66,1.66,0,0,1-.5-1.29c0-1.19,1-1.81,2.85-1.87l1,0v-.36a1.54,1.54,0,0,0-.29-1,1.24,1.24,0,0,0-1-.33,3.88,3.88,0,0,0-1.66.45l-.28-.68a4.28,4.28,0,0,1,2-.5,2.25,2.25,0,0,1,1.56.46,2,2,0,0,1,.5,1.5v4Zm-2-.63a1.84,1.84,0,0,0,1.31-.45,1.72,1.72,0,0,0,.47-1.28v-.53l-.89,0a3.34,3.34,0,0,0-1.53.33,1,1,0,0,0-.47.91.93.93,0,0,0,.29.74A1.2,1.2,0,0,0,68.8,78.31Z" fill="#455a64"/><path d="M78.13,73.05v.57L77,73.75a1.86,1.86,0,0,1,.27.49,1.83,1.83,0,0,1,.11.68,1.71,1.71,0,0,1-.59,1.38,2.34,2.34,0,0,1-1.62.52,2.56,2.56,0,0,1-.49,0,.87.87,0,0,0-.57.75.38.38,0,0,0,.2.36A1.39,1.39,0,0,0,75,78h1a2.32,2.32,0,0,1,1.47.4,1.41,1.41,0,0,1,.51,1.17,1.67,1.67,0,0,1-.78,1.49,4.22,4.22,0,0,1-2.29.51,3.1,3.1,0,0,1-1.78-.43A1.47,1.47,0,0,1,72.92,79a1.73,1.73,0,0,1,1-.53.9.9,0,0,1-.38-.32.79.79,0,0,1-.16-.5.91.91,0,0,1,.18-.56,1.72,1.72,0,0,1,.54-.47,1.59,1.59,0,0,1-.75-.64A1.87,1.87,0,0,1,73,75a1.9,1.9,0,0,1,.58-1.49A2.34,2.34,0,0,1,75.26,73a3,3,0,0,1,.83.1Zm-4.7,6.88a.79.79,0,0,0,.41.72A2.16,2.16,0,0,0,75,80.9a3.26,3.26,0,0,0,1.66-.33,1,1,0,0,0,.54-.91A.73.73,0,0,0,76.9,79a2.36,2.36,0,0,0-1.11-.18H74.72a1.39,1.39,0,0,0-1,.29A1,1,0,0,0,73.43,79.93Zm.49-5a1.16,1.16,0,0,0,.35.93,1.34,1.34,0,0,0,1,.32,1.13,1.13,0,0,0,1.3-1.27,1.17,1.17,0,0,0-1.32-1.32,1.3,1.3,0,0,0-1,.33A1.37,1.37,0,0,0,73.92,74.94Z" fill="#455a64"/><path d="M81.82,79.05a2.72,2.72,0,0,1-2.06-.8,3.07,3.07,0,0,1-.75-2.2,3.42,3.42,0,0,1,.7-2.27A2.36,2.36,0,0,1,81.59,73a2.23,2.23,0,0,1,1.75.72A2.81,2.81,0,0,1,84,75.59v.57H79.93a2.35,2.35,0,0,0,.53,1.57,1.79,1.79,0,0,0,1.4.54,4.68,4.68,0,0,0,1.88-.4v.8a5.48,5.48,0,0,1-.9.29A5,5,0,0,1,81.82,79.05Zm-.24-5.36a1.46,1.46,0,0,0-1.13.47A2,2,0,0,0,80,75.43H83a2,2,0,0,0-.37-1.29A1.33,1.33,0,0,0,81.58,73.69Z" fill="#455a64"/><path d="M89.31,77.33a1.47,1.47,0,0,1-.62,1.27,2.84,2.84,0,0,1-1.72.45,3.8,3.8,0,0,1-1.82-.37v-.83a4.49,4.49,0,0,0,.91.34,3.91,3.91,0,0,0,.94.12,2.11,2.11,0,0,0,1.07-.22.75.75,0,0,0,.38-.68.73.73,0,0,0-.3-.59A5.23,5.23,0,0,0,87,76.24a6.16,6.16,0,0,1-1.17-.53,1.61,1.61,0,0,1-.52-.52,1.36,1.36,0,0,1-.17-.69,1.34,1.34,0,0,1,.59-1.14,2.76,2.76,0,0,1,1.6-.41,4.8,4.8,0,0,1,1.86.38l-.31.73a4.21,4.21,0,0,0-1.61-.37,1.91,1.91,0,0,0-1,.2.63.63,0,0,0-.32.55.65.65,0,0,0,.12.4,1.19,1.19,0,0,0,.39.32,8.94,8.94,0,0,0,1,.43,4,4,0,0,1,1.42.77A1.38,1.38,0,0,1,89.31,77.33Z" fill="#455a64"/><path d="M165,10s28.59-5.24,35.19,27" fill="none" stroke="#363b42" stroke-miterlimit="10"/><path d="M131,28.83s44.67-5.51,49.09,23" fill="none" stroke="#004d40" stroke-miterlimit="10"/><path d="M111.6,52.53s38.21-5,46.85,12.08" fill="none" stroke="#81c784" stroke-miterlimit="10"/><path d="M95,74.46s32.78-4.44,50.49,9.9" fill="none" stroke="#00796b" stroke-miterlimit="10"/><polygon points="192.88 89.97 169.22 49 192.88 89.97 192.88 89.97" fill="none"/><polygon points="199 86.78 180.09 43.49 199 86.78 199 86.78" fill="none"/><path d="M192.88,90,169.22,49c-2,1.14-3.92,2.35-5.83,3.61a109.92,109.92,0,0,0-19.73,16.83l34.87,32.23A63,63,0,0,1,192.88,90Z" fill="#81c784"/><path d="M332.8,139.21A109.12,109.12,0,0,0,236.18,35.08v0a108.39,108.39,0,0,0-32.59,1.15l8,46.05a62.08,62.08,0,0,1,18.71-1.17l0,.3a62.67,62.67,0,0,1,56.09,50.31c.07.35.12.71.19,1.06.1.59.21,1.18.3,1.77a62.66,62.66,0,0,1-123.91,18.68,63.48,63.48,0,0,1-.7-9.42,62.41,62.41,0,0,1,16.32-42.17L143.66,69.44a109.71,109.71,0,0,0-18.3,26.94l-.06,0A109.09,109.09,0,0,0,238,251.66l1-.14c.61-.09,1.22-.15,1.83-.25l1.78-.31.22,0c1.1-.2,2.21-.42,3.32-.66A107.79,107.79,0,0,0,278.34,238c2-1.15,3.93-2.35,5.83-3.62a109.18,109.18,0,0,0,48.63-95.17Z" fill="#00796b"/><path d="M217.94,81.58l-4.41-46.7a108.66,108.66,0,0,0-33.44,8.61L199,86.78A62.27,62.27,0,0,1,217.94,81.58Z" fill="#363b42"/><path d="M199,86.78,180.09,43.49q-4.23,1.86-8.26,4c-.88.47-1.75,1-2.61,1.46l23.66,41A63.49,63.49,0,0,1,199,86.78Z" fill="#004d40"/></svg>