<svg xmlns="http://www.w3.org/2000/svg" viewBox="0 0 990 340.5"><title>Logi_Graph2</title><path d="M51.38,25h-1V18.89c0-.5,0-1,0-1.44a2.38,2.38,0,0,1-.28.26c-.1.09-.56.47-1.39,1.14l-.52-.66,2.27-1.76h.82Z" fill="#546e7a"/><path d="M60.32,20.71a6.3,6.3,0,0,1-.7,3.31,2.59,2.59,0,0,1-4.25,0,6.15,6.15,0,0,1-.72-3.29,6.23,6.23,0,0,1,.7-3.33,2.59,2.59,0,0,1,4.24.05A6,6,0,0,1,60.32,20.71Zm-4.68,0a6.18,6.18,0,0,0,.44,2.72,1.46,1.46,0,0,0,1.4.85,1.49,1.49,0,0,0,1.41-.86,6.37,6.37,0,0,0,.43-2.71A6.31,6.31,0,0,0,58.89,18a1.49,1.49,0,0,0-1.41-.86,1.46,1.46,0,0,0-1.4.85A6.12,6.12,0,0,0,55.64,20.71Z" fill="#546e7a"/><path d="M67.18,20.71a6.2,6.2,0,0,1-.7,3.31,2.59,2.59,0,0,1-4.25,0,6.15,6.15,0,0,1-.72-3.29,6.33,6.33,0,0,1,.7-3.33,2.6,2.6,0,0,1,4.25.05A6.14,6.14,0,0,1,67.18,20.71Zm-4.68,0a6.18,6.18,0,0,0,.44,2.72,1.58,1.58,0,0,0,2.81,0,6.37,6.37,0,0,0,.43-2.71A6.31,6.31,0,0,0,65.75,18a1.58,1.58,0,0,0-2.81,0A6.12,6.12,0,0,0,62.5,20.71Z" fill="#546e7a"/><path d="M74,20.71a6.2,6.2,0,0,1-.7,3.31,2.59,2.59,0,0,1-4.25,0,6.15,6.15,0,0,1-.72-3.29,6.33,6.33,0,0,1,.7-3.33,2.6,2.6,0,0,1,4.25.05A6.14,6.14,0,0,1,74,20.71Zm-4.68,0a6.33,6.33,0,0,0,.44,2.72,1.58,1.58,0,0,0,2.81,0A6.37,6.37,0,0,0,73,20.71,6.31,6.31,0,0,0,72.61,18a1.58,1.58,0,0,0-2.81,0A6.27,6.27,0,0,0,69.36,20.71Z" fill="#546e7a"/><path d="M55.72,65l3.55-7.67H54.6v-.9h5.71v.78L56.8,65Z" fill="#546e7a"/><path d="M64.18,59.77a3.14,3.14,0,0,1,2.13.67,2.3,2.3,0,0,1,.78,1.84,2.66,2.66,0,0,1-.85,2.08,3.36,3.36,0,0,1-2.34.76,4.3,4.3,0,0,1-2.21-.47v-.93a3.68,3.68,0,0,0,1,.41,5.07,5.07,0,0,0,1.21.15,2.37,2.37,0,0,0,1.6-.49,1.73,1.73,0,0,0,.57-1.4c0-1.2-.73-1.8-2.2-1.8a9.12,9.12,0,0,0-1.49.17l-.5-.32.32-4h4.26v.9H63.05l-.21,2.57A6.76,6.76,0,0,1,64.18,59.77Z" fill="#546e7a"/><path d="M74,60.71a6.2,6.2,0,0,1-.7,3.31,2.59,2.59,0,0,1-4.25,0,6.15,6.15,0,0,1-.72-3.29,6.33,6.33,0,0,1,.7-3.33,2.6,2.6,0,0,1,4.25,0A6.14,6.14,0,0,1,74,60.71Zm-4.68,0a6.33,6.33,0,0,0,.44,2.72,1.58,1.58,0,0,0,2.81,0A6.37,6.37,0,0,0,73,60.71,6.31,6.31,0,0,0,72.61,58a1.58,1.58,0,0,0-2.81,0A6.27,6.27,0,0,0,69.36,60.71Z" fill="#546e7a"/><path d="M57.32,99.77a3.14,3.14,0,0,1,2.13.67,2.3,2.3,0,0,1,.77,1.84,2.65,2.65,0,0,1-.84,2.08,3.38,3.38,0,0,1-2.34.76,4.3,4.3,0,0,1-2.21-.47v-.93a3.68,3.68,0,0,0,1,.41,5.06,5.06,0,0,0,1.2.15,2.38,2.38,0,0,0,1.61-.49,1.73,1.73,0,0,0,.57-1.4c0-1.2-.73-1.8-2.2-1.8a9.12,9.12,0,0,0-1.49.17l-.5-.32.32-4h4.26v.9H56.19L56,99.9A6.76,6.76,0,0,1,57.32,99.77Z" fill="#546e7a"/><path d="M67.18,100.71a6.2,6.2,0,0,1-.7,3.31,2.59,2.59,0,0,1-4.25,0,6.15,6.15,0,0,1-.72-3.29,6.33,6.33,0,0,1,.7-3.33,2.6,2.6,0,0,1,4.25.05A6.14,6.14,0,0,1,67.18,100.71Zm-4.68,0a6.18,6.18,0,0,0,.44,2.72,1.58,1.58,0,0,0,2.81,0,8.75,8.75,0,0,0,0-5.42,1.58,1.58,0,0,0-2.81,0A6.12,6.12,0,0,0,62.5,100.71Z" fill="#546e7a"/><path d="M74,100.71a6.2,6.2,0,0,1-.7,3.31,2.59,2.59,0,0,1-4.25,0,6.15,6.15,0,0,1-.72-3.29,6.33,6.33,0,0,1,.7-3.33,2.6,2.6,0,0,1,4.25.05A6.14,6.14,0,0,1,74,100.71Zm-4.68,0a6.33,6.33,0,0,0,.44,2.72,1.58,1.58,0,0,0,2.81,0,8.75,8.75,0,0,0,0-5.42,1.58,1.58,0,0,0-2.81,0A6.27,6.27,0,0,0,69.36,100.71Z" fill="#546e7a"/><path d="M82,279a2.77,2.77,0,0,0-.91,2.24,3.8,3.8,0,0,0,1.24,2.4,3.87,3.87,0,0,0,2.4,1.28A2.78,2.78,0,0,0,87,284a7.44,7.44,0,0,0,1.22-1.67l.62.61a6.08,6.08,0,0,1-1.32,1.79,3.75,3.75,0,0,1-2.88,1.26,4.79,4.79,0,0,1-3-1.58,5,5,0,0,1-1.29-2,3.56,3.56,0,0,1-.08-2.09,4.34,4.34,0,0,1,1.18-1.94,5.47,5.47,0,0,1,2-1.32l.31.91A4.45,4.45,0,0,0,82,279Z" fill="#546e7a"/><path d="M91.82,275.63a3.55,3.55,0,0,1,1.18,2.3,2.84,2.84,0,0,1-.92,2.17,2.9,2.9,0,0,1-1.37.79,2.59,2.59,0,0,1-1.55-.09,4.07,4.07,0,0,1-1.51-1,3.53,3.53,0,0,1-1.17-2.29,2.78,2.78,0,0,1,.92-2.16,2.7,2.7,0,0,1,2.15-.88A3.51,3.51,0,0,1,91.82,275.63Zm-3.45,3.46a3,3,0,0,0,1.67,1,2,2,0,0,0,2-2.05,3.82,3.82,0,0,0-2.64-2.64A1.75,1.75,0,0,0,88,276a1.72,1.72,0,0,0-.57,1.47A3,3,0,0,0,88.37,279.09Z" fill="#546e7a"/><path d="M101.09,270.91l-3-3a1.7,1.7,0,0,0-1-.58,1.25,1.25,0,0,0-1,.45,1.65,1.65,0,0,0-.58,1.31,2.47,2.47,0,0,0,.83,1.45l2.54,2.53-.69.69-3-2.95a1.73,1.73,0,0,0-1-.59,1.3,1.3,0,0,0-1,.46,1.58,1.58,0,0,0-.56,1.33,3,3,0,0,0,1,1.57L96,276l-.69.69-4.54-4.54.56-.56.74.51,0,0a2,2,0,0,1,0-1.07,2.37,2.37,0,0,1,.61-1,1.91,1.91,0,0,1,2.16-.62l0,0a2.09,2.09,0,0,1,0-1.16,2.6,2.6,0,0,1,.67-1.08,2.18,2.18,0,0,1,1.55-.76,2.51,2.51,0,0,1,1.65.88l3,3Z" fill="#546e7a"/><path d="M109,263l-3-2.95a1.78,1.78,0,0,0-1-.59,1.33,1.33,0,0,0-1,.45,1.65,1.65,0,0,0-.58,1.32,2.53,2.53,0,0,0,.83,1.44l2.54,2.54-.69.69-3-3a1.78,1.78,0,0,0-1-.58,1.33,1.33,0,0,0-1,.45,1.63,1.63,0,0,0-.56,1.34,3,3,0,0,0,1,1.57l2.39,2.38-.69.69-4.54-4.54.56-.56.73.51,0,0a2,2,0,0,1,0-1.07,2.48,2.48,0,0,1,.61-1,1.9,1.9,0,0,1,2.16-.62l0,0a2,2,0,0,1,0-1.15,2.6,2.6,0,0,1,.67-1.08,2.16,2.16,0,0,1,1.55-.76,2.51,2.51,0,0,1,1.65.88l3,3Z" fill="#546e7a"/><path d="M113.09,259.08a3,3,0,0,1-2.2,1,3.35,3.35,0,0,1-2.28-1.12,3.73,3.73,0,0,1-1.21-2.29,2.54,2.54,0,0,1,.81-2.1,2.42,2.42,0,0,1,1.91-.79,3.09,3.09,0,0,1,2,1l.43.43-3.13,3.13a2.55,2.55,0,0,0,1.62.81,2,2,0,0,0,1.5-.66,5.14,5.14,0,0,0,1.14-1.76l.61.61a4.93,4.93,0,0,1-.46.92A5.52,5.52,0,0,1,113.09,259.08Zm-4.31-3.94a1.57,1.57,0,0,0-.52,1.23,2.29,2.29,0,0,0,.6,1.36l2.38-2.37a2.22,2.22,0,0,0-1.29-.71A1.47,1.47,0,0,0,108.78,255.14Z" fill="#546e7a"/><path d="M113.3,249.46a3.55,3.55,0,0,1,.59-.49l.54.73a3.3,3.3,0,0,0-.55.44,1.69,1.69,0,0,0-.5,1.39,2.31,2.31,0,0,0,.72,1.5l2.44,2.44-.69.69-4.54-4.54.57-.57.92.76,0,0a2.78,2.78,0,0,1-.07-1.3A1.89,1.89,0,0,1,113.3,249.46Z" fill="#546e7a"/><path d="M121.21,251a2.75,2.75,0,0,1-2.13.92,3.51,3.51,0,0,1-2.26-1.18,3.64,3.64,0,0,1-1.21-2.31,2.79,2.79,0,0,1,.94-2.18,4.19,4.19,0,0,1,.73-.59,2.85,2.85,0,0,1,.68-.34l.37.79a4.63,4.63,0,0,0-.65.35,3.78,3.78,0,0,0-.54.41q-1.38,1.39.39,3.15a2.9,2.9,0,0,0,1.62,1,1.69,1.69,0,0,0,1.45-.55,4.59,4.59,0,0,0,.92-1.41l.61.61A3.58,3.58,0,0,1,121.21,251Z" fill="#546e7a"/><path d="M117.53,242.94a.62.62,0,0,1-.23-.46.53.53,0,0,1,.18-.4.59.59,0,0,1,.39-.18.66.66,0,0,1,.47.23.62.62,0,0,1,.22.46.54.54,0,0,1-.17.4.53.53,0,0,1-.4.18A.66.66,0,0,1,117.53,242.94Zm6.51,5-.68.69-4.55-4.54.69-.69Z" fill="#546e7a"/><path d="M128.29,243.71l-.78-.5,0,0a2.7,2.7,0,0,1-.1,1.25,3.11,3.11,0,0,1-.69,1,2.18,2.18,0,0,1-1.41.71,1.78,1.78,0,0,1-1.37-.61q-1.38-1.38.75-3.64l.75-.8-.28-.28a1.7,1.7,0,0,0-1-.56,1.36,1.36,0,0,0-1,.48,4.24,4.24,0,0,0-.94,1.64l-.73-.32a5,5,0,0,1,.44-1,4.49,4.49,0,0,1,.7-.91,2.46,2.46,0,0,1,1.57-.84,2.13,2.13,0,0,1,1.54.77l3.1,3.1Zm-2,1.07a2,2,0,0,0,.65-1.36,1.8,1.8,0,0,0-.62-1.35l-.41-.41-.66.72a3.53,3.53,0,0,0-.92,1.43,1.07,1.07,0,0,0,.34,1.07,1,1,0,0,0,.79.34A1.36,1.36,0,0,0,126.26,244.78Z" fill="#546e7a"/><path d="M130.91,241.1l-.69.69-6.45-6.45.69-.69Z" fill="#546e7a"/><path d="M136.42,229.41a4.31,4.31,0,0,1,1.48,3.11,4.55,4.55,0,0,1-1.55,3.14l-1.68,1.67-6-6.05,1.85-1.86a4.21,4.21,0,0,1,3-1.41A4.14,4.14,0,0,1,136.42,229.41Zm-.72.77a3.46,3.46,0,0,0-2.38-1.19,3.39,3.39,0,0,0-2.37,1.17l-1,1,4.84,4.84.86-.86a3.69,3.69,0,0,0,1.27-2.51A3.46,3.46,0,0,0,135.7,230.18Z" fill="#546e7a"/><path d="M142.4,225.06a3.58,3.58,0,0,1,1.18,2.29,3.13,3.13,0,0,1-2.29,3,2.58,2.58,0,0,1-1.55-.09,4,4,0,0,1-1.51-1,3.58,3.58,0,0,1-1.18-2.29,2.79,2.79,0,0,1,.93-2.16,2.75,2.75,0,0,1,2.15-.88A3.55,3.55,0,0,1,142.4,225.06Zm-3.46,3.46a3,3,0,0,0,1.68,1,1.67,1.67,0,0,0,1.47-.56,1.71,1.71,0,0,0,.58-1.48,3,3,0,0,0-1-1.68,3,3,0,0,0-1.67-1,1.75,1.75,0,0,0-1.48.59,1.73,1.73,0,0,0-.58,1.46A3.09,3.09,0,0,0,138.94,228.52Z" fill="#546e7a"/><path d="M149.59,222.42l-3.5-1.83c-.21-.11-.68-.39-1.4-.82l0,0c.37.6.64,1.07.82,1.41l1.8,3.52-.79.79-5.78-3.3.72-.72,3.27,1.94a13.73,13.73,0,0,1,1.47.94l0,0c-.13-.18-.29-.44-.47-.75s-.32-.58-.42-.77l-1.77-3.44.75-.75,3.41,1.79a12.61,12.61,0,0,1,1.51.89l0,0a5.52,5.52,0,0,1-.37-.55q-.24-.37-2.48-4.2l.71-.72,3.29,5.8Z" fill="#546e7a"/><path d="M155.59,216.42l-2.94-2.94a1.65,1.65,0,0,0-1.08-.57,1.4,1.4,0,0,0-1.06.51,1.84,1.84,0,0,0-.66,1.43,2.73,2.73,0,0,0,.94,1.61l2.38,2.38-.69.69L147.94,215l.56-.55.73.51,0,0a1.93,1.93,0,0,1,.07-1.11,2.67,2.67,0,0,1,.66-1,2.42,2.42,0,0,1,1.64-.84,2.35,2.35,0,0,1,1.67.85l3,3Z" fill="#546e7a"/><path d="M158.38,213.63l-.69.69-6.45-6.45.69-.69Z" fill="#546e7a"/><path d="M161.48,206a3.58,3.58,0,0,1,1.18,2.29,2.8,2.8,0,0,1-.93,2.17,2.89,2.89,0,0,1-1.36.8,2.66,2.66,0,0,1-1.55-.1,4,4,0,0,1-1.51-1,3.51,3.51,0,0,1-1.17-2.28,3.07,3.07,0,0,1,3.06-3.05A3.55,3.55,0,0,1,161.48,206ZM158,209.44a3.1,3.1,0,0,0,1.68,1,1.71,1.71,0,0,0,1.47-.57,1.73,1.73,0,0,0,.58-1.48,3,3,0,0,0-1-1.68,3,3,0,0,0-1.67-1,2,2,0,0,0-2.06,2.05A3.09,3.09,0,0,0,158,209.44Z" fill="#546e7a"/><path d="M167.75,204.25l-.78-.51,0,0a2.7,2.7,0,0,1-.1,1.25,3.11,3.11,0,0,1-.69,1,2.18,2.18,0,0,1-1.41.71,1.78,1.78,0,0,1-1.37-.61q-1.38-1.38.75-3.64l.75-.8-.28-.28a1.65,1.65,0,0,0-1-.56,1.4,1.4,0,0,0-1,.48,4.35,4.35,0,0,0-.94,1.63l-.74-.31a5.11,5.11,0,0,1,.45-1,4.89,4.89,0,0,1,.7-.91,2.46,2.46,0,0,1,1.57-.84,2.13,2.13,0,0,1,1.54.77l3.1,3.09Zm-2,1.07a2,2,0,0,0,.65-1.36,1.8,1.8,0,0,0-.62-1.35l-.41-.41-.66.72a3.53,3.53,0,0,0-.92,1.43,1.07,1.07,0,0,0,.34,1.07,1,1,0,0,0,.79.34A1.36,1.36,0,0,0,165.72,205.32Z" fill="#546e7a"/><path d="M172.16,198.63l0,0a2.31,2.31,0,0,1-.74,2.12,2.38,2.38,0,0,1-2,.78,3.81,3.81,0,0,1-2.23-1.24,3.88,3.88,0,0,1-1.25-2.24,2.61,2.61,0,0,1,2.85-2.75l.06-.05-.36-.3-.33-.31-1.85-1.84.68-.69,6.45,6.45-.56.56Zm-1.26,1.49a1.79,1.79,0,0,0,.64-1.41,2.73,2.73,0,0,0-.92-1.55l-.14-.14a3.21,3.21,0,0,0-1.7-1.06,1.73,1.73,0,0,0-1.44.61,1.51,1.51,0,0,0-.46,1.4,3.32,3.32,0,0,0,1,1.65,3.13,3.13,0,0,0,1.63,1A1.51,1.51,0,0,0,170.9,200.12Z" fill="#546e7a"/><path d="M278.16,276l.76-.76,3.87,8.25-.7.69-8.22-3.89.74-.74,5.31,2.53a16,16,0,0,1,1.7.93,14.41,14.41,0,0,1-.95-1.73Z" fill="#546e7a"/><path d="M288.5,277.79l-.79-.51,0,0a2.75,2.75,0,0,1-.1,1.26,2.83,2.83,0,0,1-.69,1,2.13,2.13,0,0,1-1.41.71,1.75,1.75,0,0,1-1.37-.6q-1.38-1.38.76-3.64l.74-.8-.28-.28a1.65,1.65,0,0,0-1-.56,1.32,1.32,0,0,0-1,.48,4.27,4.27,0,0,0-.94,1.63l-.73-.31a4.18,4.18,0,0,1,.45-1,4.45,4.45,0,0,1,.69-.91,2.48,2.48,0,0,1,1.57-.84,2.13,2.13,0,0,1,1.55.76l3.1,3.1Zm-2,1.07a2,2,0,0,0,.65-1.36,1.8,1.8,0,0,0-.62-1.35l-.41-.41-.65.71a3.55,3.55,0,0,0-.93,1.44,1.1,1.1,0,0,0,.34,1.07,1,1,0,0,0,.79.34A1.34,1.34,0,0,0,286.46,278.86Z" fill="#546e7a"/><path d="M292.11,271.7a1.6,1.6,0,0,1,.51,1.45,3.24,3.24,0,0,1-1,1.67,4.17,4.17,0,0,1-1.7,1.12l-.64-.64a4.93,4.93,0,0,0,1-.44,4.8,4.8,0,0,0,.82-.63,2.39,2.39,0,0,0,.65-1,.8.8,0,0,0-.23-.81.84.84,0,0,0-.69-.23,5.49,5.49,0,0,0-1.34.45,6.64,6.64,0,0,1-1.31.49,1.79,1.79,0,0,1-.8,0,1.36,1.36,0,0,1-.66-.4,1.44,1.44,0,0,1-.43-1.33,2.93,2.93,0,0,1,.92-1.56,5,5,0,0,1,1.73-1.13l.32.8a4.67,4.67,0,0,0-1.52.95,2,2,0,0,0-.59.9.7.7,0,0,0,.17.67.74.74,0,0,0,.41.21,1.17,1.17,0,0,0,.54-.05,9.49,9.49,0,0,0,1.13-.46,4.28,4.28,0,0,1,1.69-.5A1.43,1.43,0,0,1,292.11,271.7Z" fill="#546e7a"/><path d="M290.58,266.63l2.94,2.94a1.62,1.62,0,0,0,1.08.58,1.48,1.48,0,0,0,1.07-.52,1.83,1.83,0,0,0,.65-1.43,2.76,2.76,0,0,0-.94-1.6L293,264.21l.69-.68,4.54,4.54-.57.56-.71-.51,0,0a1.89,1.89,0,0,1-.08,1.1,2.73,2.73,0,0,1-.67,1,2.44,2.44,0,0,1-1.64.85,2.33,2.33,0,0,1-1.67-.85l-3-3Z" fill="#546e7a"/><path d="M302.16,262.91l0,0a2.27,2.27,0,0,1-.73,2.11,2.36,2.36,0,0,1-2,.78,4.68,4.68,0,0,1-3.47-3.48,2.37,2.37,0,0,1,.76-2,2.33,2.33,0,0,1,2.09-.75l.06-.05-.36-.3-.34-.3-1.85-1.85.69-.69,6.45,6.45-.56.56Zm-1.26,1.49a1.79,1.79,0,0,0,.64-1.4,2.77,2.77,0,0,0-.92-1.56l-.15-.14a3.17,3.17,0,0,0-1.7-1.06,1.72,1.72,0,0,0-1.43.61,1.48,1.48,0,0,0-.46,1.4,3.32,3.32,0,0,0,1,1.65,3.13,3.13,0,0,0,1.63,1A1.51,1.51,0,0,0,300.9,264.4Z" fill="#546e7a"/><path d="M306.88,259.57a3,3,0,0,1-2.2,1,3.39,3.39,0,0,1-2.29-1.12,3.73,3.73,0,0,1-1.2-2.29,2.57,2.57,0,0,1,.8-2.1,2.44,2.44,0,0,1,1.92-.79,3.09,3.09,0,0,1,2,1l.44.43-3.13,3.13a2.55,2.55,0,0,0,1.62.81,2,2,0,0,0,1.49-.66,5.32,5.32,0,0,0,1.15-1.76l.61.61a4.65,4.65,0,0,1-.47.92A5,5,0,0,1,306.88,259.57Zm-4.32-3.94a1.56,1.56,0,0,0-.51,1.23,2.34,2.34,0,0,0,.6,1.37l2.37-2.38a2.09,2.09,0,0,0-1.28-.7A1.43,1.43,0,0,0,302.56,255.63Z" fill="#546e7a"/><path d="M310.63,255.65l-6.26-2.81.74-.74,3.67,1.71a16.64,16.64,0,0,1,1.61.84l0,0a12.64,12.64,0,0,1-.63-1.2c-.29-.62-.94-2-1.92-4.1l.74-.74,2.82,6.27Z" fill="#546e7a"/><path d="M314.87,250.45c.12-.13.23-.25.33-.38s.16-.24.21-.33l.53.53a1.93,1.93,0,0,1-.24.42,4.08,4.08,0,0,1-.36.42,1.69,1.69,0,0,1-2.71-.07l-2.7-2.7-.65.65-.33-.33.37-.94-.68-1.26.39-.39,1.06,1.05,1.31-1.32.54.53-1.32,1.32,2.67,2.67a1.31,1.31,0,0,0,.83.44A1,1,0,0,0,314.87,250.45Z" fill="#546e7a"/><path d="M318.89,247.57a3,3,0,0,1-2.21,1,3.35,3.35,0,0,1-2.28-1.12,3.71,3.71,0,0,1-1.2-2.28,2.48,2.48,0,0,1,.8-2.1,2.43,2.43,0,0,1,1.91-.79,3,3,0,0,1,2,1l.44.44-3.13,3.12a2.6,2.6,0,0,0,1.62.82,2,2,0,0,0,1.49-.67,5,5,0,0,0,1.14-1.76l.62.62a5.52,5.52,0,0,1-.47.91A6,6,0,0,1,318.89,247.57Zm-4.32-3.95a1.59,1.59,0,0,0-.52,1.23,2.29,2.29,0,0,0,.61,1.37l2.37-2.37a2.11,2.11,0,0,0-1.29-.71A1.43,1.43,0,0,0,314.57,243.62Z" fill="#546e7a"/><path d="M323.34,240.47a1.6,1.6,0,0,1,.5,1.45,3.08,3.08,0,0,1-1,1.67,4,4,0,0,1-1.69,1.12l-.64-.63a5.49,5.49,0,0,0,1-.44,4.44,4.44,0,0,0,.82-.63,2.33,2.33,0,0,0,.66-1,.83.83,0,0,0-.24-.82.81.81,0,0,0-.68-.22,5.39,5.39,0,0,0-1.35.45,6.21,6.21,0,0,1-1.31.49,1.8,1.8,0,0,1-.8,0,1.48,1.48,0,0,1-.66-.41,1.42,1.42,0,0,1-.42-1.32,2.91,2.91,0,0,1,.91-1.56,5.21,5.21,0,0,1,1.73-1.14l.32.81a4.55,4.55,0,0,0-1.52,1,2.13,2.13,0,0,0-.59.89.67.67,0,0,0,.18.67.65.65,0,0,0,.4.22,1.25,1.25,0,0,0,.55-.06,10.36,10.36,0,0,0,1.13-.45,4,4,0,0,1,1.68-.5A1.5,1.5,0,0,1,323.34,240.47Z" fill="#546e7a"/><path d="M326.68,238.64a2.8,2.8,0,0,0,.32-.38,2.11,2.11,0,0,0,.21-.32l.53.52a1.93,1.93,0,0,1-.24.42,3.26,3.26,0,0,1-.36.43,1.69,1.69,0,0,1-2.7-.07l-2.7-2.7-.65.65-.33-.33.36-.94-.68-1.26.4-.4,1.05,1.05,1.32-1.31.53.53-1.32,1.32,2.68,2.67a1.32,1.32,0,0,0,.82.44A1,1,0,0,0,326.68,238.64Z" fill="#546e7a"/><path d="M335.6,230.69l-.71.7L332,228.54l-3.19,3.19,2.85,2.85-.7.71-6.06-6.06.7-.7,2.58,2.57,3.19-3.19-2.58-2.57.71-.71Z" fill="#546e7a"/><path d="M338.8,222.94a3.51,3.51,0,0,1,1.17,2.29,2.75,2.75,0,0,1-.92,2.17,2.92,2.92,0,0,1-1.37.8,2.75,2.75,0,0,1-1.55-.09,4.07,4.07,0,0,1-1.5-1,3.53,3.53,0,0,1-1.18-2.28,2.79,2.79,0,0,1,.92-2.16,2.74,2.74,0,0,1,2.15-.89A3.55,3.55,0,0,1,338.8,222.94Zm-3.46,3.46a3.12,3.12,0,0,0,1.67,1,2,2,0,0,0,2.05-2,3,3,0,0,0-1-1.68,3,3,0,0,0-1.67-1,2,2,0,0,0-2.06,2A3,3,0,0,0,335.34,226.4Z" fill="#546e7a"/><path d="M344,219.84a1.6,1.6,0,0,1,.5,1.45,3.11,3.11,0,0,1-1,1.67,4,4,0,0,1-1.69,1.12l-.64-.64a4.14,4.14,0,0,0,1-.44,3.76,3.76,0,0,0,.82-.62,2.38,2.38,0,0,0,.66-1,.8.8,0,0,0-.24-.82.77.77,0,0,0-.68-.22,4.53,4.53,0,0,0-1.34.45,7.13,7.13,0,0,1-1.32.49,1.75,1.75,0,0,1-.79,0,1.54,1.54,0,0,1-.67-.41,1.43,1.43,0,0,1-.42-1.33,2.94,2.94,0,0,1,.92-1.56,5,5,0,0,1,1.73-1.13l.31.8a4.73,4.73,0,0,0-1.52,1,2,2,0,0,0-.58.89.65.65,0,0,0,.17.67.72.72,0,0,0,.41.22,1.37,1.37,0,0,0,.54-.06,8.52,8.52,0,0,0,1.13-.46,4.28,4.28,0,0,1,1.69-.5A1.49,1.49,0,0,1,344,219.84Z" fill="#546e7a"/><path d="M349.12,217.17l-.78-.51,0,0a2.63,2.63,0,0,1-.1,1.26,2.88,2.88,0,0,1-.69,1,2.13,2.13,0,0,1-1.41.71,1.81,1.81,0,0,1-1.37-.61c-.92-.91-.66-2.13.76-3.64l.75-.79-.29-.29a1.58,1.58,0,0,0-1-.55,1.32,1.32,0,0,0-1,.48,4.27,4.27,0,0,0-.93,1.63l-.74-.32a4.54,4.54,0,0,1,.45-1,4.43,4.43,0,0,1,.7-.9,2.45,2.45,0,0,1,1.56-.85,2.15,2.15,0,0,1,1.55.77l3.1,3.1Zm-2,1.07a2,2,0,0,0,.66-1.36,1.88,1.88,0,0,0-.62-1.36l-.41-.41-.66.72a3.43,3.43,0,0,0-.93,1.44,1.08,1.08,0,0,0,.34,1.06,1,1,0,0,0,.79.34A1.32,1.32,0,0,0,347.08,218.24Z" fill="#546e7a"/><path d="M356.83,209.45l-2.95-2.95a1.7,1.7,0,0,0-1.05-.58,1.25,1.25,0,0,0-1,.45,1.62,1.62,0,0,0-.58,1.31,2.52,2.52,0,0,0,.83,1.45l2.54,2.53-.69.69-3-3a1.76,1.76,0,0,0-1-.58,1.3,1.3,0,0,0-1,.46,1.58,1.58,0,0,0-.56,1.33,3,3,0,0,0,1,1.57l2.38,2.38-.68.69-4.54-4.54.55-.56.74.51,0,0a2,2,0,0,1,0-1.07,2.37,2.37,0,0,1,.61-1,1.9,1.9,0,0,1,2.16-.62l0,0a2.09,2.09,0,0,1,0-1.16,2.6,2.6,0,0,1,.67-1.08,2.14,2.14,0,0,1,1.55-.76,2.51,2.51,0,0,1,1.65.88l3,3Z" fill="#546e7a"/><path d="M361.73,204.55,361,204l0,0a2.84,2.84,0,0,1-.1,1.25,3,3,0,0,1-.7,1,2.13,2.13,0,0,1-1.4.71,1.82,1.82,0,0,1-1.38-.61c-.91-.91-.66-2.13.76-3.64l.75-.8-.28-.28a1.7,1.7,0,0,0-1-.56,1.36,1.36,0,0,0-1,.48,4.32,4.32,0,0,0-.94,1.64l-.74-.32a4.54,4.54,0,0,1,.45-1,4.17,4.17,0,0,1,.7-.9,2.41,2.41,0,0,1,1.56-.85,2.15,2.15,0,0,1,1.55.77l3.1,3.09Zm-2,1.07a2,2,0,0,0,.66-1.36,1.84,1.84,0,0,0-.62-1.35l-.41-.41-.66.72a3.47,3.47,0,0,0-.93,1.43,1.11,1.11,0,0,0,.34,1.07,1,1,0,0,0,.8.34A1.32,1.32,0,0,0,359.69,205.62Z" fill="#546e7a"/><path d="M366.76,199.52l-2.93-2.94a1.65,1.65,0,0,0-1.08-.57,1.45,1.45,0,0,0-1.07.52A1.88,1.88,0,0,0,361,198a2.79,2.79,0,0,0,.94,1.6l2.39,2.38-.69.69-4.54-4.54.56-.56.73.51,0,0a2,2,0,0,1,.07-1.11,2.9,2.9,0,0,1,.67-1,2.42,2.42,0,0,1,1.63-.84,2.39,2.39,0,0,1,1.68.85l3,3Z" fill="#546e7a"/><path d="M363,191.71a.62.62,0,0,1-.23-.47.55.55,0,0,1,.18-.4.58.58,0,0,1,.39-.17.68.68,0,0,1,.47.22.66.66,0,0,1,.22.47.54.54,0,0,1-.17.4.53.53,0,0,1-.4.18A.66.66,0,0,1,363,191.71Zm6.51,5-.68.69-4.54-4.54.68-.69Z" fill="#546e7a"/><path d="M484.82,243.81l-.7.71-2.85-2.85-3.19,3.19,2.85,2.85-.71.7-6.06-6,.71-.71,2.58,2.58,3.19-3.19-2.58-2.58.7-.7Z" fill="#546e7a"/><path d="M489.17,239.46l-.78-.51,0,0a2.84,2.84,0,0,1-.1,1.25,3,3,0,0,1-.7,1,2.18,2.18,0,0,1-1.4.71,1.82,1.82,0,0,1-1.38-.61q-1.36-1.38.76-3.64l.75-.8-.28-.28a1.65,1.65,0,0,0-1-.56,1.33,1.33,0,0,0-1,.48,4.27,4.27,0,0,0-.94,1.63l-.74-.31a4.6,4.6,0,0,1,.45-1,4.49,4.49,0,0,1,.7-.91,2.43,2.43,0,0,1,1.56-.84,2.12,2.12,0,0,1,1.55.76l3.1,3.1Zm-2,1.07a2,2,0,0,0,.66-1.36,1.84,1.84,0,0,0-.62-1.35l-.41-.41-.66.72a3.47,3.47,0,0,0-.93,1.43,1.11,1.11,0,0,0,.34,1.07,1,1,0,0,0,.8.34A1.32,1.32,0,0,0,487.13,240.53Z" fill="#546e7a"/><path d="M488.55,230.84a3.55,3.55,0,0,1,.59-.49l.54.73a3.41,3.41,0,0,0-.56.44,1.68,1.68,0,0,0-.49,1.39,2.27,2.27,0,0,0,.72,1.5l2.44,2.44-.69.69L486.56,233l.57-.57.92.76,0,0a2.93,2.93,0,0,1-.08-1.3A2,2,0,0,1,488.55,230.84Z" fill="#546e7a"/><path d="M488.73,228.36a.65.65,0,0,1-.23-.46.62.62,0,0,1,.58-.58.67.67,0,0,1,.47.23.66.66,0,0,1,.22.46.54.54,0,0,1-.17.4.55.55,0,0,1-.41.18A.7.7,0,0,1,488.73,228.36Zm6.52,5-.69.69L490,229.53l.69-.69Z" fill="#546e7a"/><path d="M498.9,229.9a2.73,2.73,0,0,1-1,.64,2.12,2.12,0,0,1-1.12.11l-.05,0a9.78,9.78,0,0,1,.81.71l1.86,1.87-.68.68-6.58-6.57.56-.56.71.52,0,0a2.24,2.24,0,0,1,.07-1.16,2.67,2.67,0,0,1,.65-1,2.39,2.39,0,0,1,2-.78,3.87,3.87,0,0,1,2.22,1.24,3.81,3.81,0,0,1,1.24,2.24A2.4,2.4,0,0,1,498.9,229.9Zm-4.22-4a1.75,1.75,0,0,0-.62,1.4,2.8,2.8,0,0,0,.91,1.54l.15.15a3.19,3.19,0,0,0,1.69,1,1.7,1.7,0,0,0,1.44-.61,1.5,1.5,0,0,0,.44-1.4,3.14,3.14,0,0,0-1-1.64,3.05,3.05,0,0,0-1.64-1A1.56,1.56,0,0,0,494.68,225.87Z" fill="#546e7a"/><path d="M499.36,220a3.64,3.64,0,0,1,.59-.49l.54.73a3,3,0,0,0-.56.44,1.68,1.68,0,0,0-.49,1.39,2.27,2.27,0,0,0,.72,1.5L502.6,226l-.69.69-4.54-4.54.56-.57.92.76,0,0a2.93,2.93,0,0,1-.08-1.3A2,2,0,0,1,499.36,220Z" fill="#546e7a"/><path d="M508.16,220.47l-.78-.51,0,0a2.75,2.75,0,0,1-.1,1.26,3,3,0,0,1-.69,1,2.19,2.19,0,0,1-1.41.72,1.78,1.78,0,0,1-1.37-.61q-1.38-1.38.76-3.64l.74-.8-.28-.28a1.65,1.65,0,0,0-1-.56,1.32,1.32,0,0,0-1,.48,4.27,4.27,0,0,0-.94,1.63l-.73-.31a4.56,4.56,0,0,1,.44-1,4.89,4.89,0,0,1,.7-.91,2.46,2.46,0,0,1,1.57-.84,2.1,2.1,0,0,1,1.54.76l3.1,3.1Zm-2,1.07a2,2,0,0,0,.65-1.36,1.8,1.8,0,0,0-.62-1.35l-.41-.41-.66.71a3.62,3.62,0,0,0-.92,1.44,1.05,1.05,0,0,0,.34,1.06,1,1,0,0,0,.79.35A1.34,1.34,0,0,0,506.13,221.54Z" fill="#546e7a"/><path d="M511.78,214.38a1.63,1.63,0,0,1,.51,1.45,3.2,3.2,0,0,1-1,1.67,4.08,4.08,0,0,1-1.69,1.12L509,218a4.93,4.93,0,0,0,1-.44,4.36,4.36,0,0,0,.81-.63,2.33,2.33,0,0,0,.66-1,.8.8,0,0,0-.23-.81.84.84,0,0,0-.69-.23,5.36,5.36,0,0,0-1.34.45,6.64,6.64,0,0,1-1.31.49,1.79,1.79,0,0,1-.8,0,1.54,1.54,0,0,1-1.09-1.73,2.93,2.93,0,0,1,.92-1.56,5.11,5.11,0,0,1,1.73-1.14l.31.81a4.73,4.73,0,0,0-1.52,1,2,2,0,0,0-.58.89.68.68,0,0,0,.17.67.71.71,0,0,0,.41.21,1.17,1.17,0,0,0,.54,0,8.52,8.52,0,0,0,1.13-.46,4.28,4.28,0,0,1,1.69-.5A1.43,1.43,0,0,1,511.78,214.38Z" fill="#546e7a"/><path d="M516.93,211.7l-.78-.51,0,0a2.84,2.84,0,0,1-.1,1.25,3,3,0,0,1-.7,1,2.18,2.18,0,0,1-1.4.71,1.82,1.82,0,0,1-1.38-.61q-1.36-1.38.76-3.64l.75-.8-.28-.28a1.65,1.65,0,0,0-1-.56,1.36,1.36,0,0,0-1,.48,4.35,4.35,0,0,0-.94,1.63l-.74-.31a4.18,4.18,0,0,1,.45-1,4.49,4.49,0,0,1,.7-.91,2.43,2.43,0,0,1,1.56-.84,2.12,2.12,0,0,1,1.55.76l3.1,3.1Zm-2,1.07a2,2,0,0,0,.66-1.36,1.84,1.84,0,0,0-.62-1.35l-.41-.41-.66.72a3.47,3.47,0,0,0-.93,1.43,1.11,1.11,0,0,0,.34,1.07,1,1,0,0,0,.8.34A1.32,1.32,0,0,0,514.89,212.77Z" fill="#546e7a"/><path d="M521.34,206.08l0,0a2.28,2.28,0,0,1-.73,2.12,2.4,2.4,0,0,1-2,.78,4.68,4.68,0,0,1-3.47-3.48,2.36,2.36,0,0,1,.76-2,2.33,2.33,0,0,1,2.09-.75l0-.06-.35-.29-.34-.3-1.84-1.85.68-.69L522.6,206l-.56.56Zm-1.26,1.49a1.79,1.79,0,0,0,.64-1.41,2.78,2.78,0,0,0-.92-1.55l-.15-.15a3.22,3.22,0,0,0-1.69-1.05,1.73,1.73,0,0,0-1.44.61,1.48,1.48,0,0,0-.46,1.4,3.32,3.32,0,0,0,1,1.65,3.13,3.13,0,0,0,1.63,1A1.53,1.53,0,0,0,520.08,207.57Z" fill="#546e7a"/><path d="M524.55,199.05l2.52,2.51-.7.71-6.06-6.06,1.66-1.66a3.69,3.69,0,0,1,2.07-1.22,2.2,2.2,0,0,1,1.82.75,2.27,2.27,0,0,1,.41,2.84l4.36,1.08-.83.83-4-1.05Zm-.6-.61,1-1a2.38,2.38,0,0,0,.8-1.39,1.59,1.59,0,0,0-.54-1.24,1.43,1.43,0,0,0-1.22-.51,2.69,2.69,0,0,0-1.4.87l-.92.92Z" fill="#546e7a"/><path d="M663.54,234l2.52,2.52-.7.71-6.06-6.06,1.66-1.66a3.69,3.69,0,0,1,2.08-1.22,2.18,2.18,0,0,1,1.81.75,2.27,2.27,0,0,1,.41,2.84l4.37,1.08-.84.83-4-1Zm-.6-.6,1-1a2.33,2.33,0,0,0,.79-1.39,1.54,1.54,0,0,0-.54-1.24,1.43,1.43,0,0,0-1.22-.51,2.69,2.69,0,0,0-1.4.88l-.92.91Z" fill="#546e7a"/><path d="M672.15,225.89a3.51,3.51,0,0,1,1.17,2.29,2.79,2.79,0,0,1-.92,2.17,2.92,2.92,0,0,1-1.37.8,2.75,2.75,0,0,1-1.55-.09,4.1,4.1,0,0,1-1.51-1,3.51,3.51,0,0,1-1.17-2.28,2.75,2.75,0,0,1,.92-2.16,2.7,2.7,0,0,1,2.15-.88A3.49,3.49,0,0,1,672.15,225.89Zm-3.46,3.46a3,3,0,0,0,1.67,1,2,2,0,0,0,2-2.05,3,3,0,0,0-1-1.68,3,3,0,0,0-1.66-1,1.75,1.75,0,0,0-1.49.58,1.7,1.7,0,0,0-.57,1.46A3,3,0,0,0,668.69,229.35Z" fill="#546e7a"/><path d="M677.32,222.79a1.6,1.6,0,0,1,.5,1.45,3.08,3.08,0,0,1-1,1.67,4,4,0,0,1-1.69,1.12l-.64-.64a4.14,4.14,0,0,0,1-.44,4,4,0,0,0,.82-.62,2.38,2.38,0,0,0,.66-1,.83.83,0,0,0-.24-.82.78.78,0,0,0-.68-.22,5.23,5.23,0,0,0-1.34.45,7.13,7.13,0,0,1-1.32.49,1.8,1.8,0,0,1-.8,0,1.57,1.57,0,0,1-.66-.41,1.43,1.43,0,0,1-.42-1.33,3,3,0,0,1,.91-1.56,5.35,5.35,0,0,1,1.73-1.13l.32.8a4.73,4.73,0,0,0-1.52,1,2.07,2.07,0,0,0-.59.89.68.68,0,0,0,.18.67.7.7,0,0,0,.4.22,1.42,1.42,0,0,0,.55-.06,9.12,9.12,0,0,0,1.13-.46,4.2,4.2,0,0,1,1.68-.5A1.52,1.52,0,0,1,677.32,222.79Z" fill="#546e7a"/><path d="M681.36,218.74a1.59,1.59,0,0,1,.51,1.45,3.14,3.14,0,0,1-1,1.67,4.15,4.15,0,0,1-1.7,1.13l-.63-.64a5.49,5.49,0,0,0,1-.44,4.8,4.8,0,0,0,.82-.63,2.2,2.2,0,0,0,.65-1,.83.83,0,0,0-.91-1,5.39,5.39,0,0,0-1.35.45,6.42,6.42,0,0,1-1.31.49,1.79,1.79,0,0,1-.8,0,1.48,1.48,0,0,1-.66-.41,1.45,1.45,0,0,1-.43-1.32,3,3,0,0,1,.92-1.56,5.21,5.21,0,0,1,1.73-1.14l.32.8a4.62,4.62,0,0,0-1.52,1,2.07,2.07,0,0,0-.59.89.68.68,0,0,0,.18.67.65.65,0,0,0,.4.22,1.17,1.17,0,0,0,.54,0c.22-.07.6-.22,1.14-.46a4,4,0,0,1,1.68-.5A1.46,1.46,0,0,1,681.36,218.74Z" fill="#546e7a"/><path d="M686,216.55,680,210.5l.71-.71,5.42,5.42,2.67-2.67.64.64Z" fill="#546e7a"/><path d="M693.12,209.46l-.78-.51,0,0a2.84,2.84,0,0,1-.1,1.25,2.87,2.87,0,0,1-.7,1,2.1,2.1,0,0,1-1.4.72,1.78,1.78,0,0,1-1.37-.61q-1.38-1.38.75-3.64l.75-.8-.28-.28a1.65,1.65,0,0,0-1-.56,1.31,1.31,0,0,0-1,.48,4.27,4.27,0,0,0-.94,1.63l-.74-.31a5.11,5.11,0,0,1,.45-1,4.49,4.49,0,0,1,.7-.91,2.43,2.43,0,0,1,1.57-.84,2.11,2.11,0,0,1,1.54.76l3.1,3.1Zm-2,1.07a2,2,0,0,0,.65-1.36,1.84,1.84,0,0,0-.62-1.35l-.41-.41-.66.71a3.66,3.66,0,0,0-.93,1.44,1.12,1.12,0,0,0,.34,1.07,1,1,0,0,0,.8.34A1.36,1.36,0,0,0,691.09,210.53Z" fill="#546e7a"/><path d="M698.16,204.43l-2.94-2.94a1.71,1.71,0,0,0-1.08-.58,1.48,1.48,0,0,0-1.07.52,1.84,1.84,0,0,0-.65,1.43,2.68,2.68,0,0,0,.93,1.6l2.39,2.39-.69.69L690.51,203l.56-.55.73.51,0,0a1.93,1.93,0,0,1,.07-1.11,2.67,2.67,0,0,1,.66-1,2.42,2.42,0,0,1,1.63-.84,2.35,2.35,0,0,1,1.68.85l3,3Z" fill="#546e7a"/><path d="M702.74,198.63l0,0a2.3,2.3,0,0,1-.73,2.12,2.4,2.4,0,0,1-2,.78,4.68,4.68,0,0,1-3.47-3.48,2.36,2.36,0,0,1,.76-2,2.33,2.33,0,0,1,2.09-.75l0-.05-.35-.3-.34-.31-1.85-1.84.69-.69,6.45,6.45-.56.56Zm-1.26,1.49a1.79,1.79,0,0,0,.64-1.41,2.78,2.78,0,0,0-.92-1.55l-.15-.14a3.17,3.17,0,0,0-1.7-1.06,1.72,1.72,0,0,0-1.43.61,1.48,1.48,0,0,0-.46,1.4,3.32,3.32,0,0,0,1,1.65,3.13,3.13,0,0,0,1.63,1A1.51,1.51,0,0,0,701.48,200.12Z" fill="#546e7a"/><path d="M828.85,246.71a2.12,2.12,0,0,1,.66,1.83,3.48,3.48,0,0,1-1.12,2,5.49,5.49,0,0,1-1.94,1.38l-.68-.68a6.4,6.4,0,0,0,2-1.34,2.53,2.53,0,0,0,.79-1.33,1.24,1.24,0,0,0-.39-1.1,1.34,1.34,0,0,0-.64-.39,1.59,1.59,0,0,0-.79.06,7.92,7.92,0,0,0-1.29.51,4,4,0,0,1-1.93.49,2.21,2.21,0,0,1-1.44-.72,1.9,1.9,0,0,1-.59-1.64,3.1,3.1,0,0,1,1-1.8,5.66,5.66,0,0,1,2-1.33l.4.83a5.45,5.45,0,0,0-1.78,1.14,2,2,0,0,0-.63,1.12,1.13,1.13,0,0,0,.35,1,1.48,1.48,0,0,0,.63.4,1.52,1.52,0,0,0,.76,0,7.22,7.22,0,0,0,1.22-.48,4.69,4.69,0,0,1,2-.58A2.05,2.05,0,0,1,828.85,246.71Z" fill="#546e7a"/><path d="M829,240.49a3.69,3.69,0,0,1,.6-.49l.54.74a3,3,0,0,0-.56.43,1.73,1.73,0,0,0-.5,1.39,2.32,2.32,0,0,0,.73,1.51l2.43,2.43-.69.69-4.54-4.54.57-.57.92.76,0,0a2.86,2.86,0,0,1-.07-1.29A2,2,0,0,1,829,240.49Z" fill="#546e7a"/><path d="M829.23,238a.6.6,0,0,1-.23-.46.6.6,0,0,1,.58-.57.62.62,0,0,1,.46.22.66.66,0,0,1,.23.47.57.57,0,0,1-.18.4.56.56,0,0,1-.4.17A.64.64,0,0,1,829.23,238Zm6.52,5-.69.69-4.54-4.54.69-.69Z" fill="#546e7a"/><path d="M842.19,236.59l-7.42-3.31,0,0c.46.39,1,.87,1.57,1.46l3.85,3.85-.65.65-6-6.06,1.06-1.06,6.91,3.08,0,0-3.06-6.93,1.05-1.05,6.06,6.05-.7.71-3.91-3.91c-.44-.44-.91-.95-1.4-1.51l0,0,3.29,7.43Z" fill="#546e7a"/><path d="M849.86,228.92l-.78-.51,0,0a2.84,2.84,0,0,1-.1,1.25,3,3,0,0,1-.7,1,2.15,2.15,0,0,1-1.4.71,1.82,1.82,0,0,1-1.38-.61q-1.37-1.38.76-3.64l.75-.8-.28-.28a1.65,1.65,0,0,0-1-.56,1.33,1.33,0,0,0-1,.48,4.27,4.27,0,0,0-.94,1.63l-.74-.31a5.11,5.11,0,0,1,.45-1,4.49,4.49,0,0,1,.7-.91,2.43,2.43,0,0,1,1.56-.84,2.12,2.12,0,0,1,1.55.76l3.1,3.1Zm-2,1.07a2,2,0,0,0,.66-1.36,1.84,1.84,0,0,0-.62-1.35l-.41-.41-.66.71a3.66,3.66,0,0,0-.93,1.44,1.12,1.12,0,0,0,.34,1.07,1,1,0,0,0,.8.34A1.32,1.32,0,0,0,847.82,230Z" fill="#546e7a"/><path d="M854.27,223.3l0,0a2.28,2.28,0,0,1-.73,2.12,2.41,2.41,0,0,1-2,.78,3.81,3.81,0,0,1-2.23-1.24,3.85,3.85,0,0,1-1.25-2.24,2.59,2.59,0,0,1,2.85-2.75l.06-.06-.36-.29-.34-.31-1.84-1.84.68-.69,6.45,6.44-.56.56ZM853,224.79a1.79,1.79,0,0,0,.64-1.41,2.73,2.73,0,0,0-.92-1.55l-.15-.15a3.19,3.19,0,0,0-1.69-1.05,1.73,1.73,0,0,0-1.44.61,1.5,1.5,0,0,0-.46,1.4,3.36,3.36,0,0,0,1,1.65,3.13,3.13,0,0,0,1.63,1A1.53,1.53,0,0,0,853,224.79Z" fill="#546e7a"/><path d="M859.47,218.1l0,0a2.28,2.28,0,0,1-.73,2.12,2.41,2.41,0,0,1-2,.78,3.81,3.81,0,0,1-2.23-1.24,3.85,3.85,0,0,1-1.25-2.24,2.38,2.38,0,0,1,.76-2,2.35,2.35,0,0,1,2.09-.74l.06-.06-.36-.29-.34-.31-1.84-1.84.68-.69,6.45,6.44-.56.56Zm-1.26,1.49a1.79,1.79,0,0,0,.64-1.41,2.78,2.78,0,0,0-.92-1.55l-.15-.15a3.22,3.22,0,0,0-1.69-1,1.73,1.73,0,0,0-1.44.61,1.48,1.48,0,0,0-.46,1.4,3.4,3.4,0,0,0,1,1.65,3.13,3.13,0,0,0,1.63,1A1.53,1.53,0,0,0,858.21,219.59Z" fill="#546e7a"/><path d="M856.36,210.88a.64.64,0,0,1-.23-.46.6.6,0,0,1,.58-.57.62.62,0,0,1,.46.22.66.66,0,0,1,.23.47.57.57,0,0,1-.18.4.56.56,0,0,1-.4.17A.6.6,0,0,1,856.36,210.88Zm6.52,5-.69.69-4.54-4.54.69-.69Z" fill="#546e7a"/><path d="M867.44,211.34l-2.94-2.93a1.64,1.64,0,0,0-1.08-.58,1.46,1.46,0,0,0-1.06.52,1.81,1.81,0,0,0-.66,1.43,2.79,2.79,0,0,0,.94,1.6l2.38,2.38-.69.69-4.54-4.54.56-.56.74.51,0,0a2,2,0,0,1,.07-1.12,2.77,2.77,0,0,1,.67-1,2,2,0,0,1,3.31,0l3,3Z" fill="#546e7a"/><path d="M871.54,207.41a2.94,2.94,0,0,1-2.2,1,3.33,3.33,0,0,1-2.28-1.12,3.68,3.68,0,0,1-1.21-2.28,2.54,2.54,0,0,1,.81-2.1,2.43,2.43,0,0,1,1.91-.79,3,3,0,0,1,2,1l.43.44-3.12,3.13a2.51,2.51,0,0,0,1.61.81,2,2,0,0,0,1.5-.67,5,5,0,0,0,1.14-1.76l.61.62a4.55,4.55,0,0,1-.46.91A5.12,5.12,0,0,1,871.54,207.41Zm-4.31-3.95a1.59,1.59,0,0,0-.52,1.23,2.31,2.31,0,0,0,.6,1.37l2.38-2.37a2.16,2.16,0,0,0-1.29-.71A1.43,1.43,0,0,0,867.23,203.46Z" fill="#546e7a"/><path d="M877.41,201.38l-2.94-2.94a1.71,1.71,0,0,0-1.08-.58,1.46,1.46,0,0,0-1.06.52,1.81,1.81,0,0,0-.66,1.43,2.71,2.71,0,0,0,.94,1.6l2.38,2.38-.69.69-4.54-4.54.56-.56.73.51,0,0a2,2,0,0,1,.07-1.11,2.62,2.62,0,0,1,.67-1,2.45,2.45,0,0,1,1.63-.84,2.39,2.39,0,0,1,1.68.85l3,3Z" fill="#546e7a"/><path d="M873.68,193.56a.65.65,0,0,1-.23-.46.62.62,0,0,1,.58-.58.81.81,0,0,1,.69.69.54.54,0,0,1-.17.4.55.55,0,0,1-.41.18A.7.7,0,0,1,873.68,193.56Zm6.52,5-.69.68L875,194.73l.69-.69Z" fill="#546e7a"/><path d="M60.27,145H54.64v-.84l2.26-2.27a18.79,18.79,0,0,0,1.36-1.48,4.3,4.3,0,0,0,.49-.87,2.45,2.45,0,0,0,.16-.91,1.47,1.47,0,0,0-.41-1.09,1.65,1.65,0,0,0-1.16-.4,2.87,2.87,0,0,0-1,.18,4,4,0,0,0-1.06.64l-.52-.67a4,4,0,0,1,2.58-1,2.74,2.74,0,0,1,1.89.62,2.11,2.11,0,0,1,.69,1.66,3.16,3.16,0,0,1-.46,1.61,10.16,10.16,0,0,1-1.71,2l-1.88,1.83v0h4.41Z" fill="#546e7a"/><path d="M64.18,139.77a3.14,3.14,0,0,1,2.13.67,2.3,2.3,0,0,1,.78,1.84,2.66,2.66,0,0,1-.85,2.08,3.36,3.36,0,0,1-2.34.76,4.3,4.3,0,0,1-2.21-.47v-.93a3.68,3.68,0,0,0,1,.41,5.07,5.07,0,0,0,1.21.15,2.37,2.37,0,0,0,1.6-.49,1.73,1.73,0,0,0,.57-1.4c0-1.2-.73-1.8-2.2-1.8a9.12,9.12,0,0,0-1.49.17l-.5-.32.32-4h4.26v.9H63.05l-.21,2.57A6.76,6.76,0,0,1,64.18,139.77Z" fill="#546e7a"/><path d="M74,140.71a6.2,6.2,0,0,1-.7,3.31,2.59,2.59,0,0,1-4.25,0,6.15,6.15,0,0,1-.72-3.29,6.33,6.33,0,0,1,.7-3.33,2.6,2.6,0,0,1,4.25.05A6.14,6.14,0,0,1,74,140.71Zm-4.68,0a6.33,6.33,0,0,0,.44,2.72,1.58,1.58,0,0,0,2.81,0,8.75,8.75,0,0,0,0-5.42,1.58,1.58,0,0,0-2.81,0A6.27,6.27,0,0,0,69.36,140.71Z" fill="#546e7a"/><path d="M74,180.71a6.2,6.2,0,0,1-.7,3.31,2.59,2.59,0,0,1-4.25,0,6.15,6.15,0,0,1-.72-3.29,6.33,6.33,0,0,1,.7-3.33,2.6,2.6,0,0,1,4.25.05A6.14,6.14,0,0,1,74,180.71Zm-4.68,0a6.33,6.33,0,0,0,.44,2.72,1.58,1.58,0,0,0,2.81,0,8.75,8.75,0,0,0,0-5.42,1.58,1.58,0,0,0-2.81,0A6.27,6.27,0,0,0,69.36,180.71Z" fill="#546e7a"/><path d="M40.58,160v1.13l-7.19,4.68v0c.84-.06,1.61-.09,2.32-.09h4.87v.92H32v-1.13l7.16-4.67v0l-1,0c-.57,0-1,0-1.22,0H32V160Z" fill="#546e7a"/><path d="M34.15,156.86h4.17a1.72,1.72,0,0,0,1.17-.35,1.47,1.47,0,0,0,.39-1.12,1.82,1.82,0,0,0-.55-1.48,2.8,2.8,0,0,0-1.8-.46H34.15v-1h6.43v.81l-.86.14v.05a2,2,0,0,1,.72.83,2.76,2.76,0,0,1,.25,1.21,2.43,2.43,0,0,1-.55,1.75,2.37,2.37,0,0,1-1.78.59H34.15Z" fill="#546e7a"/><path d="M40.58,142.23H36.4a1.77,1.77,0,0,0-1.15.32,1.26,1.26,0,0,0-.39,1,1.66,1.66,0,0,0,.53,1.35,2.45,2.45,0,0,0,1.6.43h3.59v1H36.4a1.72,1.72,0,0,0-1.15.33,1.27,1.27,0,0,0-.39,1,1.58,1.58,0,0,0,.55,1.33,2.94,2.94,0,0,0,1.8.43h3.37v1H34.15v-.79l.88-.16v0a2,2,0,0,1-.73-.78,2.43,2.43,0,0,1-.26-1.12,1.9,1.9,0,0,1,1.09-2v-.05a2.07,2.07,0,0,1-.8-.83,2.64,2.64,0,0,1-.29-1.24,2.14,2.14,0,0,1,.56-1.63,2.46,2.46,0,0,1,1.79-.55h4.19Z" fill="#546e7a"/><path d="M34.05,136.26a2.39,2.39,0,0,1,.86-2,3.78,3.78,0,0,1,2.45-.7,3.85,3.85,0,0,1,2.46.7,2.39,2.39,0,0,1,.87,2,2.72,2.72,0,0,1-.23,1.15,2.19,2.19,0,0,1-.71.87v.07l.83.2v.7H31.46v-1h2.21c.5,0,.95,0,1.34,0v0A2.33,2.33,0,0,1,34.05,136.26Zm.81.14a1.71,1.71,0,0,0,.57,1.44,3.29,3.29,0,0,0,1.93.44,3.24,3.24,0,0,0,1.94-.45,1.75,1.75,0,0,0,.58-1.45,1.52,1.52,0,0,0-.65-1.34,3.42,3.42,0,0,0-1.88-.44,3.24,3.24,0,0,0-1.87.44A1.57,1.57,0,0,0,34.86,136.4Z" fill="#546e7a"/><path d="M40.69,129.18a3,3,0,0,1-.86,2.25,3.35,3.35,0,0,1-2.41.82,3.72,3.72,0,0,1-2.47-.76,2.54,2.54,0,0,1-.91-2.05,2.4,2.4,0,0,1,.79-1.91,3.05,3.05,0,0,1,2.1-.71h.61v4.43a2.5,2.5,0,0,0,1.72-.58,2,2,0,0,0,.58-1.52,5.13,5.13,0,0,0-.43-2.05h.87a5.48,5.48,0,0,1,.32,1A5.93,5.93,0,0,1,40.69,129.18Zm-5.84.27a1.58,1.58,0,0,0,.51,1.23,2.25,2.25,0,0,0,1.39.54v-3.35a2.12,2.12,0,0,0-1.41.41A1.42,1.42,0,0,0,34.85,129.45Z" fill="#546e7a"/><path d="M34,122.23a3.51,3.51,0,0,1,.07-.76l.9.13a3.27,3.27,0,0,0-.09.7,1.73,1.73,0,0,0,.63,1.34,2.32,2.32,0,0,0,1.58.55h3.45v1H34.15v-.8l1.19-.11v0a2.78,2.78,0,0,1-1-.86A1.89,1.89,0,0,1,34,122.23Z" fill="#546e7a"/><path d="M37.36,111.61a3.52,3.52,0,0,1,2.45.79,2.75,2.75,0,0,1,.88,2.18,2.86,2.86,0,0,1-.4,1.53,2.65,2.65,0,0,1-1.16,1,4.05,4.05,0,0,1-1.77.37,3.57,3.57,0,0,1-2.45-.79,2.78,2.78,0,0,1-.87-2.18,2.73,2.73,0,0,1,.89-2.14A3.54,3.54,0,0,1,37.36,111.61Zm0,4.89a3.09,3.09,0,0,0,1.87-.49,2,2,0,0,0,0-2.9,3.05,3.05,0,0,0-1.88-.5,3,3,0,0,0-1.86.5,1.75,1.75,0,0,0-.64,1.46,1.7,1.7,0,0,0,.63,1.44A3,3,0,0,0,37.36,116.5Z" fill="#546e7a"/><path d="M34.91,107v1.63h5.67v1H34.91v1.15h-.44l-.35-1.15h-.36q-2.37,0-2.37-2.07a4.21,4.21,0,0,1,.21-1.19l.78.25a3.3,3.3,0,0,0-.18,1,1,1,0,0,0,.36.82,2.13,2.13,0,0,0,1.18.26h.41V107Z" fill="#546e7a"/><path d="M40.58,97.19l-2.73,1.06v3.44l2.73,1v1L32,100.36v-.84l8.61-3.37ZM37,98.56l-2.66,1c-.33.13-.75.26-1.24.4a9.84,9.84,0,0,1,1.24.37l2.66,1Z" fill="#546e7a"/><path d="M40.69,92.56a2.75,2.75,0,0,1-.85,2.16,3.56,3.56,0,0,1-2.43.76,3.61,3.61,0,0,1-2.49-.78A2.76,2.76,0,0,1,34,92.49a4.12,4.12,0,0,1,.1-.92,2.86,2.86,0,0,1,.23-.73l.83.3a4.42,4.42,0,0,0-.22.7,3.65,3.65,0,0,0-.08.68q0,2,2.49,2A3,3,0,0,0,39.21,94a1.67,1.67,0,0,0,.63-1.42,4.35,4.35,0,0,0-.34-1.65h.86A3.55,3.55,0,0,1,40.69,92.56Z" fill="#546e7a"/><path d="M39.89,87.34a2.67,2.67,0,0,0,0-.5,2,2,0,0,0-.08-.38h.75a1.66,1.66,0,0,1,.12.46,2.9,2.9,0,0,1,0,.56c0,1.24-.65,1.86-2,1.86H34.91v.92h-.47l-.4-.92-1.37-.41v-.56h1.48V86.5h.76v1.87h3.78a1.27,1.27,0,0,0,.89-.28A.93.93,0,0,0,39.89,87.34Z" fill="#546e7a"/><path d="M32.41,85.26a.62.62,0,0,1-.48-.17.54.54,0,0,1-.16-.41.55.55,0,0,1,.16-.4.6.6,0,0,1,.48-.17.61.61,0,0,1,.49.17.55.55,0,0,1,.16.4.54.54,0,0,1-.16.41A.65.65,0,0,1,32.41,85.26Zm8.17-1.06v1H34.15v-1Z" fill="#546e7a"/><path d="M40.58,80.73l-6.43,2.44v-1L38,80.74c.89-.31,1.47-.49,1.74-.55v0c-.21-.05-.64-.18-1.29-.41L34.15,78.2v-1l6.43,2.44Z" fill="#546e7a"/><path d="M32.41,76.21a.62.62,0,0,1-.48-.17.53.53,0,0,1-.16-.41.55.55,0,0,1,.16-.4.64.64,0,0,1,.48-.17.65.65,0,0,1,.49.17.55.55,0,0,1,.16.4.53.53,0,0,1-.16.41A.65.65,0,0,1,32.41,76.21Zm8.17-1.06v1H34.15v-1Z" fill="#546e7a"/><path d="M39.89,71a2.74,2.74,0,0,0,0-.5,2,2,0,0,0-.08-.38h.75a1.66,1.66,0,0,1,.12.46,2.9,2.9,0,0,1,0,.56c0,1.24-.65,1.86-2,1.86H34.91v.92h-.47L34,73l-1.37-.41v-.56h1.48V70.19h.76v1.86h3.78a1.27,1.27,0,0,0,.89-.28A.93.93,0,0,0,39.89,71Z" fill="#546e7a"/><path d="M32.41,68.94a.62.62,0,0,1-.48-.17.54.54,0,0,1-.16-.41.55.55,0,0,1,.16-.4.64.64,0,0,1,.48-.17.65.65,0,0,1,.49.17.55.55,0,0,1,.16.4.54.54,0,0,1-.16.41A.65.65,0,0,1,32.41,68.94Zm8.17-1.06v1H34.15v-1Z" fill="#546e7a"/><path d="M40.69,63.11a3,3,0,0,1-.86,2.24,3.36,3.36,0,0,1-2.41.83A3.73,3.73,0,0,1,35,65.41a2.53,2.53,0,0,1-.91-2,2.41,2.41,0,0,1,.79-1.91,3,3,0,0,1,2.1-.7h.61v4.42a2.55,2.55,0,0,0,1.72-.57,2,2,0,0,0,.58-1.53,5.17,5.17,0,0,0-.43-2h.87a5.57,5.57,0,0,1,.32,1A5.78,5.78,0,0,1,40.69,63.11Zm-5.84.26a1.56,1.56,0,0,0,.51,1.23,2.32,2.32,0,0,0,1.39.55V61.79a2.17,2.17,0,0,0-1.41.41A1.42,1.42,0,0,0,34.85,63.37Z" fill="#546e7a"/><path d="M38.82,55a1.63,1.63,0,0,1,1.39.66,3.19,3.19,0,0,1,.48,1.88,4.08,4.08,0,0,1-.4,2h-.9a5.32,5.32,0,0,0,.37-1,4.21,4.21,0,0,0,.13-1,2.37,2.37,0,0,0-.24-1.17.81.81,0,0,0-.74-.41.82.82,0,0,0-.65.33,5.25,5.25,0,0,0-.62,1.27,7.14,7.14,0,0,1-.59,1.27,1.66,1.66,0,0,1-.56.56,1.55,1.55,0,0,1-2-.45A3,3,0,0,1,34,57.11a5.16,5.16,0,0,1,.42-2l.79.35a4.52,4.52,0,0,0-.4,1.75,1.94,1.94,0,0,0,.22,1,.65.65,0,0,0,.6.35.74.74,0,0,0,.44-.13,1.38,1.38,0,0,0,.34-.42,9.8,9.8,0,0,0,.48-1.13,4.05,4.05,0,0,1,.83-1.54A1.49,1.49,0,0,1,38.82,55Z" fill="#546e7a"/><line x1="88.14" y1="21.5" x2="960.8" y2="21.5" fill="none" stroke="#cfd8dc" stroke-miterlimit="10"/><line x1="88.14" y1="61.63" x2="960.8" y2="61.63" fill="none" stroke="#cfd8dc" stroke-miterlimit="10"/><line x1="88.14" y1="101.75" x2="960.8" y2="101.75" fill="none" stroke="#cfd8dc" stroke-miterlimit="10"/><line x1="88.14" y1="141.88" x2="960.8" y2="141.88" fill="none" stroke="#cfd8dc" stroke-miterlimit="10"/><line x1="88.14" y1="182" x2="960.8" y2="182" fill="none" stroke="#cfd8dc" stroke-miterlimit="10"/><line x1="262.67" y1="188" x2="262.67" y2="182" fill="none" stroke="#cfd8dc" stroke-miterlimit="10"/><line x1="88.14" y1="188" x2="88.14" y2="182" fill="none" stroke="#cfd8dc" stroke-miterlimit="10"/><line x1="437.2" y1="188" x2="437.2" y2="182" fill="none" stroke="#cfd8dc" stroke-miterlimit="10"/><line x1="611.74" y1="188" x2="611.74" y2="182" fill="none" stroke="#cfd8dc" stroke-miterlimit="10"/><line x1="786.27" y1="188" x2="786.27" y2="182" fill="none" stroke="#cfd8dc" stroke-miterlimit="10"/><line x1="960.8" y1="188" x2="960.8" y2="182" fill="none" stroke="#cfd8dc" stroke-miterlimit="10"/><path d="M333.05,324.06h-4.78v-8.57h4.78v.89h-3.78v2.76h3.55V320h-3.55v3.16h3.78Z" fill="#546e7a"/><path d="M343,324.06v-4.18a1.72,1.72,0,0,0-.33-1.15,1.26,1.26,0,0,0-1-.39,1.63,1.63,0,0,0-1.34.53,2.45,2.45,0,0,0-.44,1.6v3.59h-1v-4.18a1.72,1.72,0,0,0-.33-1.15,1.26,1.26,0,0,0-1-.39,1.6,1.6,0,0,0-1.34.55,3,3,0,0,0-.43,1.8v3.37h-1v-6.42h.79l.16.87h.05a1.94,1.94,0,0,1,.77-.73,2.47,2.47,0,0,1,1.13-.26,1.91,1.91,0,0,1,2,1.09h0a2.07,2.07,0,0,1,.83-.8,2.68,2.68,0,0,1,1.25-.29,2.19,2.19,0,0,1,1.63.56,2.5,2.5,0,0,1,.54,1.79v4.19Z" fill="#546e7a"/><path d="M349.91,324.06l-.19-.92h-.05a2.66,2.66,0,0,1-.95.82,3,3,0,0,1-1.2.21,2.13,2.13,0,0,1-1.49-.49,1.77,1.77,0,0,1-.55-1.4c0-1.29,1-2,3.11-2l1.09,0v-.4a1.63,1.63,0,0,0-.32-1.12,1.34,1.34,0,0,0-1-.36,4.24,4.24,0,0,0-1.82.5l-.3-.75a4.8,4.8,0,0,1,2.18-.55,2.45,2.45,0,0,1,1.7.51,2.11,2.11,0,0,1,.55,1.63v4.39Zm-2.19-.69a1.92,1.92,0,0,0,1.42-.5,1.81,1.81,0,0,0,.52-1.39v-.58l-1,0a3.6,3.6,0,0,0-1.67.36,1.07,1.07,0,0,0-.52,1,1,1,0,0,0,.32.81A1.36,1.36,0,0,0,347.72,323.37Z" fill="#546e7a"/><path d="M352.56,315.9a.63.63,0,0,1,.16-.49.56.56,0,0,1,.41-.16.54.54,0,0,1,.4.16.61.61,0,0,1,.17.49.6.6,0,0,1-.17.48.54.54,0,0,1-.4.17.57.57,0,0,1-.41-.17A.63.63,0,0,1,352.56,315.9Zm1.05,8.16h-1v-6.42h1Z" fill="#546e7a"/><path d="M356.65,324.06h-1v-9.12h1Z" fill="#546e7a"/><path d="M167.48,32.87a2.88,2.88,0,0,1,1.86.55,1.82,1.82,0,0,1,.68,1.5,1.89,1.89,0,0,1-.39,1.16,3.46,3.46,0,0,1-1.26,1,4.32,4.32,0,0,1,1.49,1,2,2,0,0,1,.44,1.27,2.11,2.11,0,0,1-.75,1.7,3,3,0,0,1-2,.64,3.29,3.29,0,0,1-2.11-.6,2.07,2.07,0,0,1-.73-1.7,2.52,2.52,0,0,1,1.79-2.29,3.36,3.36,0,0,1-1.16-1,2.05,2.05,0,0,1-.35-1.19,1.82,1.82,0,0,1,.68-1.48A2.87,2.87,0,0,1,167.48,32.87Zm-1.85,6.53a1.35,1.35,0,0,0,.48,1.1,2.18,2.18,0,0,0,1.38.39,2.08,2.08,0,0,0,1.36-.41,1.44,1.44,0,0,0,0-2.14,4.87,4.87,0,0,0-1.6-.86,3.48,3.48,0,0,0-1.26.83A1.64,1.64,0,0,0,165.63,39.4Zm1.84-5.74a1.69,1.69,0,0,0-1.15.36,1.14,1.14,0,0,0-.42.93,1.36,1.36,0,0,0,.35.93,3.57,3.57,0,0,0,1.27.77,3.13,3.13,0,0,0,1.19-.75,1.43,1.43,0,0,0,.35-.95,1.15,1.15,0,0,0-.43-.94A1.78,1.78,0,0,0,167.47,33.66Z" fill="#546e7a"/><path d="M175.11,41.56h-1v-6.1c0-.51,0-1,0-1.44l-.27.25-1.4,1.15-.51-.67L174.29,33h.82Z" fill="#546e7a"/><path d="M184,36.65q0,5-3.9,5a3.8,3.8,0,0,1-1.07-.12v-.84a3.15,3.15,0,0,0,1.06.16,2.61,2.61,0,0,0,2.13-.87,4.44,4.44,0,0,0,.78-2.67h-.07a2.13,2.13,0,0,1-.86.74,2.71,2.71,0,0,1-1.2.25,2.37,2.37,0,0,1-1.8-.68,2.55,2.55,0,0,1-.67-1.89,2.9,2.9,0,0,1,.75-2.11,2.58,2.58,0,0,1,2-.78,2.65,2.65,0,0,1,1.53.45,2.86,2.86,0,0,1,1,1.31A5.21,5.21,0,0,1,184,36.65Zm-2.89-2.94a1.58,1.58,0,0,0-1.29.53,2.22,2.22,0,0,0-.46,1.5,2,2,0,0,0,.42,1.33,1.62,1.62,0,0,0,1.29.48,2.3,2.3,0,0,0,1-.21,1.84,1.84,0,0,0,.7-.59A1.33,1.33,0,0,0,183,36a2.71,2.71,0,0,0-.24-1.14,2,2,0,0,0-.67-.82A1.69,1.69,0,0,0,181.11,33.71Z" fill="#546e7a"/><path d="M361.25,167.88h-.95v-6.11c0-.51,0-1,0-1.44l-.27.26-1.4,1.14-.51-.67,2.27-1.75h.82Z" fill="#546e7a"/><path d="M365.59,167.88l3.55-7.67h-4.67v-.9h5.7v.78l-3.5,7.79Z" fill="#546e7a"/><path d="M524.11,168.18a1.93,1.93,0,0,1-.46,1.34,2.28,2.28,0,0,1-1.3.7v.05a2.42,2.42,0,0,1,1.53.65,1.93,1.93,0,0,1,.5,1.38,2.27,2.27,0,0,1-.85,1.89,3.87,3.87,0,0,1-2.42.66,7.78,7.78,0,0,1-1.24-.1,4,4,0,0,1-1.1-.37v-.92a5.78,5.78,0,0,0,1.19.42,5.66,5.66,0,0,0,1.19.14q2.22,0,2.22-1.74c0-1-.82-1.56-2.45-1.56h-.84v-.84h.85a2.54,2.54,0,0,0,1.59-.44,1.44,1.44,0,0,0,.58-1.23,1.21,1.21,0,0,0-.43-1,1.73,1.73,0,0,0-1.16-.36,3.42,3.42,0,0,0-1.07.16,4.35,4.35,0,0,0-1.13.56l-.49-.66a4,4,0,0,1,1.21-.65,4.37,4.37,0,0,1,1.45-.24,3,3,0,0,1,1.94.57A1.94,1.94,0,0,1,524.11,168.18Z" fill="#546e7a"/><path d="M697.52,174.73h-.94v-6.1c0-.51,0-1,0-1.45a3.38,3.38,0,0,1-.27.26l-1.4,1.14-.51-.66,2.26-1.76h.82Z" fill="#546e7a"/><path d="M870.39,174.73h-.95v-6.1c0-.51,0-1,0-1.45a3.58,3.58,0,0,1-.28.26c-.1.09-.56.47-1.39,1.14l-.52-.66,2.27-1.76h.82Z" fill="#546e7a"/><rect x="306.82" y="314.27" width="12.55" height="12.55" fill="#363b42"/><path d="M412.43,324.06h-1.14l-4.68-7.19h-.05c.06.84.09,1.62.09,2.32v4.87h-.92v-8.57h1.13l4.67,7.16h.05q0-.15-.06-1c0-.57,0-1,0-1.22v-4.92h.94Z" fill="#546e7a"/><path d="M420.18,320.84a3.55,3.55,0,0,1-.79,2.45,2.79,2.79,0,0,1-2.19.88,2.91,2.91,0,0,1-1.53-.4,2.71,2.71,0,0,1-1-1.16,4.05,4.05,0,0,1-.36-1.77,3.57,3.57,0,0,1,.78-2.45,2.8,2.8,0,0,1,2.18-.87,2.71,2.71,0,0,1,2.14.9A3.5,3.5,0,0,1,420.18,320.84Zm-4.9,0a3.05,3.05,0,0,0,.5,1.88,1.69,1.69,0,0,0,1.44.64,1.71,1.71,0,0,0,1.45-.64,3,3,0,0,0,.5-1.88,3,3,0,0,0-.5-1.86,1.74,1.74,0,0,0-1.46-.64,1.71,1.71,0,0,0-1.44.63A3,3,0,0,0,415.28,320.84Z" fill="#546e7a"/><path d="M424,323.37a2.63,2.63,0,0,0,.49,0,2.39,2.39,0,0,0,.39-.08V324a2.32,2.32,0,0,1-.47.13,3.84,3.84,0,0,1-.55,0c-1.25,0-1.87-.65-1.87-2v-3.82H421v-.47l.92-.4.41-1.37h.57v1.49h1.86v.75h-1.86v3.78a1.32,1.32,0,0,0,.27.89A1,1,0,0,0,424,323.37Z" fill="#546e7a"/><path d="M428.83,324.17a3,3,0,0,1-2.25-.86,3.35,3.35,0,0,1-.82-2.41,3.72,3.72,0,0,1,.76-2.47,2.55,2.55,0,0,1,2.06-.91,2.42,2.42,0,0,1,1.91.79,3,3,0,0,1,.7,2.1V321h-4.42a2.55,2.55,0,0,0,.57,1.72,2,2,0,0,0,1.53.59,5.18,5.18,0,0,0,2.05-.44v.87a5.57,5.57,0,0,1-1,.32A5.93,5.93,0,0,1,428.83,324.17Zm-.26-5.84a1.59,1.59,0,0,0-1.24.51,2.38,2.38,0,0,0-.54,1.39h3.36a2.17,2.17,0,0,0-.41-1.41A1.45,1.45,0,0,0,428.57,318.33Z" fill="#546e7a"/><rect x="384.28" y="314.27" width="12.55" height="12.55" fill="#8bc34a"/><path d="M485.83,324.06h-1v-7.68h-2.71v-.89h6.42v.89h-2.71Z" fill="#546e7a"/><path d="M493.63,324.06l-.19-.92h-.05a2.6,2.6,0,0,1-1,.82,2.92,2.92,0,0,1-1.19.21,2.13,2.13,0,0,1-1.49-.49,1.77,1.77,0,0,1-.55-1.4c0-1.29,1-2,3.11-2l1.09,0v-.4a1.63,1.63,0,0,0-.32-1.12,1.34,1.34,0,0,0-1-.36,4.24,4.24,0,0,0-1.82.5l-.3-.75a4.8,4.8,0,0,1,2.18-.55,2.45,2.45,0,0,1,1.7.51,2.11,2.11,0,0,1,.55,1.63v4.39Zm-2.19-.69a1.92,1.92,0,0,0,1.42-.5,1.81,1.81,0,0,0,.52-1.39v-.58l-1,0a3.6,3.6,0,0,0-1.67.36,1.07,1.07,0,0,0-.52,1,1,1,0,0,0,.32.81A1.36,1.36,0,0,0,491.44,323.37Z" fill="#546e7a"/><path d="M500.5,322.31a1.61,1.61,0,0,1-.67,1.38,3.15,3.15,0,0,1-1.87.48,4.05,4.05,0,0,1-2-.4v-.9a4.83,4.83,0,0,0,1,.37,4.08,4.08,0,0,0,1,.13,2.32,2.32,0,0,0,1.17-.24.79.79,0,0,0,.41-.74.8.8,0,0,0-.32-.64,5,5,0,0,0-1.27-.63,7.32,7.32,0,0,1-1.28-.59,1.76,1.76,0,0,1-.56-.56,1.53,1.53,0,0,1-.18-.76,1.45,1.45,0,0,1,.64-1.24,3,3,0,0,1,1.75-.45,5.16,5.16,0,0,1,2,.42l-.35.79a4.76,4.76,0,0,0-1.75-.4,2.11,2.11,0,0,0-1,.22.67.67,0,0,0-.35.6.72.72,0,0,0,.14.44,1.17,1.17,0,0,0,.42.34,10.25,10.25,0,0,0,1.12.48,4,4,0,0,1,1.55.84A1.46,1.46,0,0,1,500.5,322.31Z" fill="#546e7a"/><path d="M503,320.77c.17-.24.43-.55.77-.94l2.08-2.19H507l-2.6,2.73,2.78,3.69H506l-2.26-3-.74.64v2.4h-1v-9.12h1v4.83c0,.22,0,.55,0,1Z" fill="#546e7a"/><rect x="461.74" y="314.27" width="12.55" height="12.55" fill="#004d40"/><path d="M563.29,324.06h-1v-7.68h-2.71v-.89H566v.89h-2.71Z" fill="#546e7a"/><path d="M569.86,324.17a3,3,0,0,1-2.25-.86,3.35,3.35,0,0,1-.82-2.41,3.72,3.72,0,0,1,.76-2.47,2.53,2.53,0,0,1,2.05-.91,2.4,2.4,0,0,1,1.91.79,3.05,3.05,0,0,1,.71,2.1V321h-4.43a2.55,2.55,0,0,0,.57,1.72,2,2,0,0,0,1.53.59,5.15,5.15,0,0,0,2.05-.44v.87a5.48,5.48,0,0,1-1,.32A5.93,5.93,0,0,1,569.86,324.17Zm-.27-5.84a1.58,1.58,0,0,0-1.23.51,2.25,2.25,0,0,0-.54,1.39h3.35a2.12,2.12,0,0,0-.41-1.41A1.45,1.45,0,0,0,569.59,318.33Z" fill="#546e7a"/><path d="M575.42,320.77l-2.23-3.13h1.11L576,320.1l1.69-2.46h1.09l-2.23,3.13,2.35,3.29h-1.1l-1.8-2.6-1.82,2.6h-1.1Z" fill="#546e7a"/><path d="M582.24,323.37a2.63,2.63,0,0,0,.49,0,2.39,2.39,0,0,0,.39-.08V324a2.32,2.32,0,0,1-.47.13,3.84,3.84,0,0,1-.55,0c-1.25,0-1.87-.65-1.87-2v-3.82h-.92v-.47l.92-.4.41-1.37h.57v1.49h1.86v.75h-1.86v3.78a1.32,1.32,0,0,0,.27.89A1,1,0,0,0,582.24,323.37Z" fill="#546e7a"/><path d="M588.34,324.06l-2.91-7.6h0c.06.61.09,1.32.09,2.15v5.45h-.92v-8.57h1.5l2.71,7.07h0l2.74-7.07H593v8.57h-1v-5.52c0-.63,0-1.32.09-2.06h0l-2.93,7.58Z" fill="#546e7a"/><path d="M599.38,322.31a1.63,1.63,0,0,1-.67,1.38,3.19,3.19,0,0,1-1.88.48,4.08,4.08,0,0,1-2-.4v-.9a5.32,5.32,0,0,0,1,.37,4.21,4.21,0,0,0,1,.13,2.37,2.37,0,0,0,1.17-.24.81.81,0,0,0,.41-.74.79.79,0,0,0-.33-.64,4.84,4.84,0,0,0-1.27-.63,7.14,7.14,0,0,1-1.27-.59A1.66,1.66,0,0,1,595,320a1.43,1.43,0,0,1-.19-.76,1.47,1.47,0,0,1,.64-1.24,3,3,0,0,1,1.75-.45,5.16,5.16,0,0,1,2,.42l-.35.79a4.71,4.71,0,0,0-1.75-.4,2,2,0,0,0-1,.22.67.67,0,0,0-.35.6.72.72,0,0,0,.13.44,1.38,1.38,0,0,0,.42.34,10.68,10.68,0,0,0,1.13.48,3.91,3.91,0,0,1,1.54.84A1.46,1.46,0,0,1,599.38,322.31Z" fill="#546e7a"/><path d="M606.21,317.64v.61l-1.19.14a2.26,2.26,0,0,1,.3.54,2.17,2.17,0,0,1,.13.74,1.9,1.9,0,0,1-.65,1.51,2.58,2.58,0,0,1-1.77.56,3.12,3.12,0,0,1-.54,0,1,1,0,0,0-.62.82.41.41,0,0,0,.22.39,1.48,1.48,0,0,0,.74.13H604a2.5,2.5,0,0,1,1.6.44,1.53,1.53,0,0,1,.56,1.27,1.81,1.81,0,0,1-.85,1.63,4.63,4.63,0,0,1-2.5.56,3.41,3.41,0,0,1-1.94-.47,1.5,1.5,0,0,1-.69-1.32,1.52,1.52,0,0,1,.38-1,2,2,0,0,1,1.05-.58,1,1,0,0,1-.41-.34.94.94,0,0,1-.17-.55,1.05,1.05,0,0,1,.19-.61,1.91,1.91,0,0,1,.59-.51,1.76,1.76,0,0,1-.81-.7,2,2,0,0,1-.31-1.12,2.08,2.08,0,0,1,.63-1.63,2.58,2.58,0,0,1,1.79-.57,3.18,3.18,0,0,1,.91.12Zm-5.12,7.5a.89.89,0,0,0,.44.79,2.41,2.41,0,0,0,1.26.27,3.52,3.52,0,0,0,1.81-.37,1.11,1.11,0,0,0,.59-1,.79.79,0,0,0-.32-.73,2.55,2.55,0,0,0-1.21-.2h-1.17a1.55,1.55,0,0,0-1,.32A1.15,1.15,0,0,0,601.09,325.14Zm.53-5.45a1.32,1.32,0,0,0,.38,1,1.52,1.52,0,0,0,1.06.35,1.24,1.24,0,0,0,1.42-1.39,1.27,1.27,0,0,0-1.44-1.44,1.4,1.4,0,0,0-1,.37A1.45,1.45,0,0,0,601.62,319.69Z" fill="#546e7a"/><rect x="539.2" y="314.27" width="12.55" height="12.55" fill="#00796b"/><rect x="122.1" y="81.5" width="100" height="100.5" fill="#00796b"/><rect x="122.1" y="61.63" width="100" height="20" fill="#81c784"/><rect x="122.1" y="48.83" width="100" height="12.67" fill="#004d40"/><rect x="310.95" y="175.67" width="100" height="6.33" fill="#81c784"/></svg>