<svg xmlns="http://www.w3.org/2000/svg" viewBox="0 0 350 256"><title>Logi_Widget1</title><polygon points="200.16 92.06 175.12 48.68 200.16 92.06 200.16 92.06" fill="none"/><path d="M224.13,84.41l-4.7-49.85A108.67,108.67,0,0,0,186,43.18l20,45.89A58.59,58.59,0,0,1,224.13,84.41Z" fill="#009688"/><path d="M200.16,92.05l-25-43.37c-2,1.15-3.93,2.35-5.83,3.62L197,94C198,93.32,199.09,92.68,200.16,92.05Z" fill="#81c784"/><path d="M197,94,169.29,52.3a109.86,109.86,0,0,0-19.73,16.82l36.77,34A58.84,58.84,0,0,1,197,94Z" fill="#004d40"/><path d="M338.7,138.89A109.09,109.09,0,0,0,225.4,34.16c-2,.08-4,.22-6,.4l4.7,49.85c1.83-.17,3.68-.27,5.55-.27a59.06,59.06,0,1,1-43.35,19l-36.77-34A109.11,109.11,0,0,0,234,252.2q3-.12,6-.4a108.4,108.4,0,0,0,33.43-8.62,106.41,106.41,0,0,0,10.87-5.5c2-1.15,3.93-2.35,5.83-3.62a109.18,109.18,0,0,0,48.63-95.17Z" fill="#00796b"/><path d="M206,89.07,186,43.18q-4.23,1.84-8.27,4L201.4,91.34C202.91,90.52,204.46,89.77,206,89.07Z" fill="#4caf50"/><path d="M201.4,91.34,177.72,47.22c-.87.48-1.74,1-2.6,1.46l25,43.37C200.58,91.82,201,91.57,201.4,91.34Z" fill="#363b42"/><path d="M128.58,9.82h-3.19l-1.1,2.77h-.61l3.16-7.88h.35l3.09,7.88h-.61Zm-3-.49h2.81L127.32,6.5c-.09-.22-.19-.53-.32-.93a8,8,0,0,1-.31.94Z" fill="#455a64"/><path d="M131.79,12.59h-.53V4.24h.53Z" fill="#455a64"/><path d="M134.28,12.59h-.53V4.24h.53Z" fill="#455a64"/><path d="M145.83,8.66a4.34,4.34,0,0,1-.94,2.95,3.59,3.59,0,0,1-5.15,0,4.39,4.39,0,0,1-.93-3,4.35,4.35,0,0,1,.94-3,3.28,3.28,0,0,1,2.58-1.07A3.22,3.22,0,0,1,144.9,5.7,4.39,4.39,0,0,1,145.83,8.66Zm-6.43,0a4,4,0,0,0,.76,2.6,2.61,2.61,0,0,0,2.15.93,2.64,2.64,0,0,0,2.17-.92,4,4,0,0,0,.75-2.61,4,4,0,0,0-.75-2.6,2.62,2.62,0,0,0-2.15-.91,2.66,2.66,0,0,0-2.17.91A4,4,0,0,0,139.4,8.66Z" fill="#455a64"/><path d="M149,12.23a3.78,3.78,0,0,0,.88-.09v.43a2.69,2.69,0,0,1-.89.13,1.45,1.45,0,0,1-1.14-.41,1.9,1.9,0,0,1-.37-1.3V7.22h-.87V6.91l.87-.25.27-1.32h.27V6.76h1.72v.46h-1.72v3.69a1.69,1.69,0,0,0,.24,1A.87.87,0,0,0,149,12.23Z" fill="#455a64"/><path d="M155.25,12.59V8.81a1.81,1.81,0,0,0-.37-1.28,1.47,1.47,0,0,0-1.15-.4,2,2,0,0,0-1.53.53,2.49,2.49,0,0,0-.49,1.71v3.22h-.53V4.24h.53V6.9l0,.74h0a1.93,1.93,0,0,1,.82-.76,2.89,2.89,0,0,1,1.24-.24c1.33,0,2,.71,2,2.14v3.81Z" fill="#455a64"/><path d="M160,12.7a2.57,2.57,0,0,1-2-.78,3.2,3.2,0,0,1-.71-2.2A3.43,3.43,0,0,1,158,7.48a2.28,2.28,0,0,1,1.85-.84,2,2,0,0,1,1.63.72,3,3,0,0,1,.6,2v.43h-4.21a2.79,2.79,0,0,0,.56,1.83,2,2,0,0,0,1.58.64,5.71,5.71,0,0,0,.88-.07,6.2,6.2,0,0,0,1-.3v.48a4.33,4.33,0,0,1-1.84.37Zm-.16-5.58a1.74,1.74,0,0,0-1.35.55,2.65,2.65,0,0,0-.6,1.6h3.61a2.49,2.49,0,0,0-.44-1.58A1.45,1.45,0,0,0,159.87,7.12Z" fill="#455a64"/><path d="M166,6.64a4.6,4.6,0,0,1,.79.08l-.1.51a3.16,3.16,0,0,0-.76-.09,1.46,1.46,0,0,0-1.22.63,2.58,2.58,0,0,0-.48,1.6v3.22h-.53V6.76h.45l.05,1h0A2.57,2.57,0,0,1,165,6.9,1.82,1.82,0,0,1,166,6.64Z" fill="#455a64"/><path d="M171.61,11.07a1.38,1.38,0,0,1-.6,1.21,2.89,2.89,0,0,1-1.69.42,4,4,0,0,1-1.86-.36v-.57a4.17,4.17,0,0,0,1.86.44,2.45,2.45,0,0,0,1.31-.29.88.88,0,0,0,.45-.77,1,1,0,0,0-.35-.74,4.11,4.11,0,0,0-1.18-.59,7.12,7.12,0,0,1-1.23-.54,1.76,1.76,0,0,1-.53-.52,1.28,1.28,0,0,1-.18-.7,1.2,1.2,0,0,1,.55-1,2.69,2.69,0,0,1,1.54-.38,4.54,4.54,0,0,1,1.79.36l-.2.48a4.09,4.09,0,0,0-1.59-.35,2.31,2.31,0,0,0-1.14.23.73.73,0,0,0-.42.66.9.9,0,0,0,.33.73,4.51,4.51,0,0,0,1.27.61,6.35,6.35,0,0,1,1.15.51,1.8,1.8,0,0,1,.54.52A1.28,1.28,0,0,1,171.61,11.07Z" fill="#455a64"/><path d="M80.28,28.34V20.49h.54v7.34h3.75v.51Z" fill="#455a64"/><path d="M90.61,25.42a3.32,3.32,0,0,1-.69,2.23,2.4,2.4,0,0,1-1.91.8,2.44,2.44,0,0,1-1.35-.37,2.41,2.41,0,0,1-.9-1.06,3.84,3.84,0,0,1-.31-1.6,3.29,3.29,0,0,1,.69-2.23,2.4,2.4,0,0,1,1.9-.8,2.35,2.35,0,0,1,1.89.81A3.31,3.31,0,0,1,90.61,25.42Zm-4.6,0a2.91,2.91,0,0,0,.53,1.87A1.79,1.79,0,0,0,88,28a1.8,1.8,0,0,0,1.5-.68,3,3,0,0,0,.53-1.87,2.92,2.92,0,0,0-.54-1.88,2,2,0,0,0-3,0A3,3,0,0,0,86,25.42Z" fill="#455a64"/><path d="M95.85,26.82A1.4,1.4,0,0,1,95.26,28a3,3,0,0,1-1.7.42,4,4,0,0,1-1.85-.36v-.57a4.1,4.1,0,0,0,1.85.44,2.48,2.48,0,0,0,1.32-.29.88.88,0,0,0,.45-.77.93.93,0,0,0-.36-.74,4.11,4.11,0,0,0-1.18-.59A7.12,7.12,0,0,1,92.56,25a1.76,1.76,0,0,1-.53-.52,1.28,1.28,0,0,1-.18-.7,1.2,1.2,0,0,1,.55-1,2.72,2.72,0,0,1,1.54-.38,4.51,4.51,0,0,1,1.79.36l-.2.48a4.09,4.09,0,0,0-1.59-.35,2.27,2.27,0,0,0-1.13.23.73.73,0,0,0-.42.66.93.93,0,0,0,.32.73,4.51,4.51,0,0,0,1.27.61,6.35,6.35,0,0,1,1.15.51,1.8,1.8,0,0,1,.54.52A1.28,1.28,0,0,1,95.85,26.82Z" fill="#455a64"/><path d="M98.9,28a3.84,3.84,0,0,0,.88-.09v.43a2.73,2.73,0,0,1-.89.13A1.45,1.45,0,0,1,97.75,28a1.9,1.9,0,0,1-.37-1.3V23h-.87v-.31l.87-.25.27-1.32h.27v1.42h1.71V23H97.92v3.69a1.69,1.69,0,0,0,.24,1A.85.85,0,0,0,98.9,28Z" fill="#455a64"/><path d="M104,28.34V20.49h.55v7.85Z" fill="#455a64"/><path d="M112.77,24.34a4,4,0,0,1-1,3,4.17,4.17,0,0,1-3,1H106.8V20.49h2.12a3.91,3.91,0,0,1,2.87,1A3.93,3.93,0,0,1,112.77,24.34Zm-.6,0a3.41,3.41,0,0,0-.86-2.53A3.41,3.41,0,0,0,108.8,21h-1.45v6.89h1.3C111,27.86,112.17,26.7,112.17,24.36Z" fill="#455a64"/><path d="M120.78,20.87a3,3,0,0,0-2.33.95,3.76,3.76,0,0,0-.85,2.59,3.9,3.9,0,0,0,.8,2.61,2.87,2.87,0,0,0,2.29.93,6.16,6.16,0,0,0,1.82-.26v.49a6,6,0,0,1-2,.27,3.27,3.27,0,0,1-2.6-1.07,4.35,4.35,0,0,1-.95-3,4.68,4.68,0,0,1,.45-2.11,3.25,3.25,0,0,1,1.31-1.41,3.74,3.74,0,0,1,2-.5,4.67,4.67,0,0,1,2,.43l-.22.49A4,4,0,0,0,120.78,20.87Z" fill="#455a64"/><path d="M127.67,28.34l-.13-.92h-.05a2.74,2.74,0,0,1-.9.8,2.51,2.51,0,0,1-1.1.23,1.93,1.93,0,0,1-1.34-.44,1.57,1.57,0,0,1-.48-1.22,1.48,1.48,0,0,1,.72-1.32,3.74,3.74,0,0,1,2.06-.5l1.11,0v-.38a2,2,0,0,0-.34-1.26,1.33,1.33,0,0,0-1.09-.42,3.65,3.65,0,0,0-1.68.45l-.2-.47a4.44,4.44,0,0,1,1.9-.45,1.92,1.92,0,0,1,1.44.5,2.26,2.26,0,0,1,.47,1.56v3.88ZM125.52,28a2,2,0,0,0,1.48-.54,2,2,0,0,0,.54-1.48v-.58l-1,.05a3.86,3.86,0,0,0-1.76.38,1.1,1.1,0,0,0-.52,1,1.09,1.09,0,0,0,.33.85A1.34,1.34,0,0,0,125.52,28Z" fill="#455a64"/><path d="M132.25,22.39a4.71,4.71,0,0,1,.8.08l-.11.51a3.08,3.08,0,0,0-.75-.09,1.48,1.48,0,0,0-1.23.63,2.58,2.58,0,0,0-.48,1.6v3.22H130V22.51h.45l.06,1h0a2.46,2.46,0,0,1,.76-.91A1.85,1.85,0,0,1,132.25,22.39Z" fill="#455a64"/><path d="M136.37,22.39a2.51,2.51,0,0,1,1.1.23,2.27,2.27,0,0,1,.82.79h0c0-.45,0-.89,0-1.32V20h.53v8.35h-.35l-.13-.89h-.05a2.15,2.15,0,0,1-1.91,1,2.31,2.31,0,0,1-1.85-.75,3.33,3.33,0,0,1-.63-2.19,3.7,3.7,0,0,1,.63-2.32A2.22,2.22,0,0,1,136.37,22.39Zm0,.49a1.65,1.65,0,0,0-1.44.67,3.34,3.34,0,0,0-.48,1.95c0,1.65.65,2.48,1.93,2.48a1.73,1.73,0,0,0,1.45-.58,3,3,0,0,0,.46-1.89v-.09a3.28,3.28,0,0,0-.45-2A1.71,1.71,0,0,0,136.37,22.88Z" fill="#455a64"/><path d="M60.24,44.09h-.55l-4.66-7h0c0,.83.07,1.46.07,1.88v5.09h-.53V36.24h.55l4.64,7h0c0-.64,0-1.25,0-1.83V36.24h.53Z" fill="#455a64"/><path d="M64.69,44.2a2.57,2.57,0,0,1-2-.78,3.2,3.2,0,0,1-.71-2.2A3.43,3.43,0,0,1,62.68,39a2.26,2.26,0,0,1,1.85-.84,2,2,0,0,1,1.63.72,3,3,0,0,1,.59,2v.43h-4.2a2.74,2.74,0,0,0,.56,1.83,2,2,0,0,0,1.58.64,5.47,5.47,0,0,0,.87-.07,5.6,5.6,0,0,0,1-.3v.48a4.31,4.31,0,0,1-.91.29A4.44,4.44,0,0,1,64.69,44.2Zm-.16-5.58a1.74,1.74,0,0,0-1.35.55,2.65,2.65,0,0,0-.6,1.6h3.61a2.56,2.56,0,0,0-.44-1.58A1.45,1.45,0,0,0,64.53,38.62Z" fill="#455a64"/><path d="M73,44.09l-1.28-3.9c-.08-.27-.18-.65-.31-1.17h0l-.12.4-.24.78-1.3,3.89h-.52l-1.68-5.83h.57l.94,3.38c.22.84.36,1.45.43,1.85h0c.21-.84.37-1.4.46-1.67l1.21-3.56h.48l1.14,3.55c.26.84.42,1.39.48,1.67h0c0-.24.17-.86.43-1.87l.89-3.35h.54l-1.59,5.83Z" fill="#455a64"/><path d="M82.66,36.62a3,3,0,0,0-2.32,1,3.71,3.71,0,0,0-.85,2.59,3.9,3.9,0,0,0,.8,2.61,2.86,2.86,0,0,0,2.29.93,6.09,6.09,0,0,0,1.81-.26v.49a6,6,0,0,1-1.94.27,3.31,3.31,0,0,1-2.61-1.07,4.35,4.35,0,0,1-1-3A4.56,4.56,0,0,1,79.35,38a3.23,3.23,0,0,1,1.3-1.41,3.79,3.79,0,0,1,2-.5,4.72,4.72,0,0,1,2.06.43l-.22.49A4.08,4.08,0,0,0,82.66,36.62Z" fill="#455a64"/><path d="M86.47,38.26V42a1.9,1.9,0,0,0,.37,1.28,1.53,1.53,0,0,0,1.15.4,2,2,0,0,0,1.54-.53A2.49,2.49,0,0,0,90,41.48V38.26h.52v5.83h-.45l-.09-.8h0a2.18,2.18,0,0,1-2,.91c-1.33,0-2-.71-2-2.13V38.26Z" fill="#455a64"/><path d="M96.12,42.57a1.38,1.38,0,0,1-.6,1.21,2.91,2.91,0,0,1-1.69.42A4,4,0,0,1,92,43.84v-.57a4.17,4.17,0,0,0,1.86.44,2.45,2.45,0,0,0,1.31-.29.88.88,0,0,0,.45-.77.93.93,0,0,0-.36-.74,3.89,3.89,0,0,0-1.17-.59,7.12,7.12,0,0,1-1.23-.54,1.65,1.65,0,0,1-.53-.52,1.28,1.28,0,0,1-.18-.7,1.2,1.2,0,0,1,.55-1,2.69,2.69,0,0,1,1.54-.38A4.54,4.54,0,0,1,96,38.5l-.2.48a4.09,4.09,0,0,0-1.59-.35,2.31,2.31,0,0,0-1.14.23.73.73,0,0,0-.42.66.9.9,0,0,0,.33.73,4.51,4.51,0,0,0,1.27.61,6.35,6.35,0,0,1,1.15.51,1.8,1.8,0,0,1,.54.52A1.28,1.28,0,0,1,96.12,42.57Z" fill="#455a64"/><path d="M99.16,43.73a3.78,3.78,0,0,0,.88-.09v.43a2.65,2.65,0,0,1-.89.13A1.48,1.48,0,0,1,98,43.79a2,2,0,0,1-.37-1.3V38.72h-.86v-.31l.86-.25.27-1.32h.28v1.42H99.9v.46H98.19v3.69a1.7,1.7,0,0,0,.23,1A.88.88,0,0,0,99.16,43.73Z" fill="#455a64"/><path d="M106.14,41.17a3.33,3.33,0,0,1-.7,2.23,2.4,2.4,0,0,1-1.91.8,2.44,2.44,0,0,1-1.35-.37,2.41,2.41,0,0,1-.9-1.06,3.84,3.84,0,0,1-.31-1.6,3.29,3.29,0,0,1,.69-2.23,2.4,2.4,0,0,1,1.9-.8,2.35,2.35,0,0,1,1.89.81A3.31,3.31,0,0,1,106.14,41.17Zm-4.61,0a2.91,2.91,0,0,0,.53,1.87,1.79,1.79,0,0,0,1.49.68,1.8,1.8,0,0,0,1.5-.68,3,3,0,0,0,.53-1.87,2.92,2.92,0,0,0-.54-1.88,2,2,0,0,0-3,0A3,3,0,0,0,101.53,41.17Z" fill="#455a64"/><path d="M115.05,44.09V40.26a1.86,1.86,0,0,0-.34-1.24,1.26,1.26,0,0,0-1-.39,1.64,1.64,0,0,0-1.32.49,2.31,2.31,0,0,0-.43,1.55v3.42h-.55v-4q0-1.47-1.35-1.47a1.59,1.59,0,0,0-1.34.53,2.79,2.79,0,0,0-.42,1.71v3.22h-.53V38.26h.44l.12.8h0a1.71,1.71,0,0,1,.68-.68,2.07,2.07,0,0,1,1-.24,1.68,1.68,0,0,1,1.77,1h0a2,2,0,0,1,.77-.77,2.18,2.18,0,0,1,1.09-.27,1.85,1.85,0,0,1,1.43.51,2.32,2.32,0,0,1,.48,1.63v3.81Z" fill="#455a64"/><path d="M119.82,44.2a2.53,2.53,0,0,1-2-.78,3.15,3.15,0,0,1-.72-2.2,3.43,3.43,0,0,1,.69-2.24,2.28,2.28,0,0,1,1.86-.84,2,2,0,0,1,1.62.72,3,3,0,0,1,.6,2v.43h-4.21a2.79,2.79,0,0,0,.56,1.83,2,2,0,0,0,1.58.64,5.61,5.61,0,0,0,.88-.07,6.2,6.2,0,0,0,1-.3v.48a4.38,4.38,0,0,1-.92.29A4.32,4.32,0,0,1,119.82,44.2Zm-.15-5.58a1.75,1.75,0,0,0-1.36.55,2.59,2.59,0,0,0-.59,1.6h3.6a2.49,2.49,0,0,0-.44-1.58A1.44,1.44,0,0,0,119.67,38.62Z" fill="#455a64"/><path d="M125.8,38.14a4.5,4.5,0,0,1,.79.08l-.1.51a3.1,3.1,0,0,0-.76-.09,1.48,1.48,0,0,0-1.22.63,2.58,2.58,0,0,0-.48,1.6v3.22h-.53V38.26H124l0,1.05h0a2.57,2.57,0,0,1,.77-.91A1.82,1.82,0,0,1,125.8,38.14Z" fill="#455a64"/><path d="M54,52v5.08a2.84,2.84,0,0,1-.78,2.12A3,3,0,0,1,51,60a2.65,2.65,0,0,1-2.89-2.9V52h.55v5.08a2.19,2.19,0,0,0,2.41,2.4,2.15,2.15,0,0,0,2.36-2.34V52Z" fill="#455a64"/><path d="M58.49,60a2.12,2.12,0,0,1-2-1h0l0,.45c0,.27,0,.56,0,.87v2.23H56V54h.45l.1.83h0a2.13,2.13,0,0,1,1.93-1,2.18,2.18,0,0,1,1.8.78,3.58,3.58,0,0,1,.62,2.26,3.44,3.44,0,0,1-.65,2.23A2.18,2.18,0,0,1,58.49,60Zm0-.47a1.6,1.6,0,0,0,1.38-.67A3,3,0,0,0,60.35,57c0-1.72-.61-2.57-1.85-2.57a1.85,1.85,0,0,0-1.5.56,2.79,2.79,0,0,0-.48,1.83v.17a3.18,3.18,0,0,0,.46,2A1.79,1.79,0,0,0,58.48,59.48Z" fill="#455a64"/><path d="M64.67,53.89a2.48,2.48,0,0,1,1.1.23,2.29,2.29,0,0,1,.83.79h0q0-.67,0-1.32v-2.1h.52v8.35h-.35L66.64,59h0a2.17,2.17,0,0,1-1.92,1,2.28,2.28,0,0,1-1.84-.75A3.27,3.27,0,0,1,62.2,57a3.7,3.7,0,0,1,.63-2.32A2.22,2.22,0,0,1,64.67,53.89Zm0,.49a1.64,1.64,0,0,0-1.43.67,3.34,3.34,0,0,0-.48,2c0,1.65.64,2.48,1.92,2.48a1.72,1.72,0,0,0,1.45-.58A3,3,0,0,0,66.6,57v-.09a3.27,3.27,0,0,0-.46-2A1.71,1.71,0,0,0,64.67,54.38Z" fill="#455a64"/><path d="M72.63,59.84l-.14-.92h0a2.74,2.74,0,0,1-.9.8,2.51,2.51,0,0,1-1.1.23,1.91,1.91,0,0,1-1.34-.44,1.57,1.57,0,0,1-.48-1.22A1.49,1.49,0,0,1,69.34,57a3.77,3.77,0,0,1,2.06-.5l1.12,0v-.38a2,2,0,0,0-.34-1.26,1.33,1.33,0,0,0-1.09-.42,3.65,3.65,0,0,0-1.68.45l-.2-.47a4.44,4.44,0,0,1,1.9-.45,1.88,1.88,0,0,1,1.43.5A2.21,2.21,0,0,1,73,56v3.88Zm-2.15-.37a1.87,1.87,0,0,0,2-2v-.58l-1,.05a3.81,3.81,0,0,0-1.75.38,1.1,1.1,0,0,0-.52,1,1.09,1.09,0,0,0,.33.85A1.34,1.34,0,0,0,70.48,59.47Z" fill="#455a64"/><path d="M76.45,59.48a3.78,3.78,0,0,0,.88-.09v.43a2.65,2.65,0,0,1-.89.13,1.48,1.48,0,0,1-1.14-.41,1.9,1.9,0,0,1-.37-1.3V54.47h-.86v-.31l.86-.25.27-1.32h.27V54h1.72v.46H75.47v3.69a1.69,1.69,0,0,0,.24,1A.88.88,0,0,0,76.45,59.48Z" fill="#455a64"/><path d="M81,60a2.53,2.53,0,0,1-2-.78,3.15,3.15,0,0,1-.71-2.2,3.48,3.48,0,0,1,.68-2.24,2.28,2.28,0,0,1,1.86-.84,2,2,0,0,1,1.62.72,3,3,0,0,1,.6,2V57h-4.2a2.69,2.69,0,0,0,.56,1.83,1.94,1.94,0,0,0,1.57.64,5.5,5.5,0,0,0,.88-.07,6.2,6.2,0,0,0,1-.3v.48a4.31,4.31,0,0,1-.91.29A4.48,4.48,0,0,1,81,60Zm-.15-5.58a1.76,1.76,0,0,0-1.36.55,2.59,2.59,0,0,0-.59,1.6h3.61A2.56,2.56,0,0,0,82,54.94,1.46,1.46,0,0,0,80.8,54.37Z" fill="#455a64"/><path d="M87.62,59.84V52h.55v7.85Z" fill="#455a64"/><path d="M94.33,59.84V56.06A1.81,1.81,0,0,0,94,54.78a1.49,1.49,0,0,0-1.15-.4,2,2,0,0,0-1.53.53,2.49,2.49,0,0,0-.49,1.71v3.22h-.53V54h.45l.1.8h0a2.19,2.19,0,0,1,2-.92c1.33,0,2,.71,2,2.14v3.81Z" fill="#455a64"/><path d="M98.92,54.47H97.54v5.37H97V54.47H95.93v-.31L97,54v-.45a2.5,2.5,0,0,1,.4-1.58,1.55,1.55,0,0,1,1.29-.5,3.67,3.67,0,0,1,1,.14l-.13.46a3.13,3.13,0,0,0-.85-.13,1,1,0,0,0-.88.37,2,2,0,0,0-.27,1.19V54h1.38Z" fill="#455a64"/><path d="M104.88,56.92a3.28,3.28,0,0,1-.7,2.23,2.4,2.4,0,0,1-1.91.8,2.44,2.44,0,0,1-1.35-.37,2.41,2.41,0,0,1-.9-1.06,3.84,3.84,0,0,1-.31-1.6,3.29,3.29,0,0,1,.69-2.23,2.4,2.4,0,0,1,1.9-.8,2.34,2.34,0,0,1,1.89.81A3.31,3.31,0,0,1,104.88,56.92Zm-4.61,0a2.91,2.91,0,0,0,.53,1.87,2,2,0,0,0,3,0,3,3,0,0,0,.53-1.87,2.92,2.92,0,0,0-.54-1.88,2,2,0,0,0-3,0A3,3,0,0,0,100.27,56.92Z" fill="#455a64"/><path d="M48.88,68.12a3,3,0,0,0-2.32.95,3.71,3.71,0,0,0-.85,2.59,3.84,3.84,0,0,0,.8,2.61,2.84,2.84,0,0,0,2.29.93,6.14,6.14,0,0,0,1.81-.26v.49a6,6,0,0,1-1.94.27,3.29,3.29,0,0,1-2.61-1.07,4.35,4.35,0,0,1-1-3,4.68,4.68,0,0,1,.45-2.11,3.31,3.31,0,0,1,1.31-1.41,3.79,3.79,0,0,1,2-.5,4.72,4.72,0,0,1,2.06.43l-.22.49A4.12,4.12,0,0,0,48.88,68.12Z" fill="#455a64"/><path d="M55.77,75.59l-.13-.92h0a2.86,2.86,0,0,1-.91.8,2.51,2.51,0,0,1-1.1.23,1.93,1.93,0,0,1-1.34-.44A1.6,1.6,0,0,1,51.78,74a1.47,1.47,0,0,1,.71-1.32,3.74,3.74,0,0,1,2.06-.5l1.11,0V71.8a2,2,0,0,0-.34-1.26,1.31,1.31,0,0,0-1.09-.42,3.65,3.65,0,0,0-1.68.45l-.2-.47a4.47,4.47,0,0,1,1.9-.45,1.92,1.92,0,0,1,1.44.5,2.21,2.21,0,0,1,.47,1.56v3.88Zm-2.15-.37a1.87,1.87,0,0,0,2-2v-.58l-1,0a3.86,3.86,0,0,0-1.76.38,1.1,1.1,0,0,0-.52,1,1.06,1.06,0,0,0,.34.85A1.32,1.32,0,0,0,53.62,75.22Z" fill="#455a64"/><path d="M58.59,75.59h-.53V67.24h.53Z" fill="#455a64"/><path d="M61.07,75.59h-.53V67.24h.53Z" fill="#455a64"/><path d="M66,67.74h2.15a3.67,3.67,0,0,1,2.14.5A1.7,1.7,0,0,1,71,69.73a1.59,1.59,0,0,1-.41,1.13,2,2,0,0,1-1.22.59v0a2.33,2.33,0,0,1,1.38.59,1.74,1.74,0,0,1,.45,1.27A2,2,0,0,1,70.47,75a3.16,3.16,0,0,1-2,.58H66Zm.55,3.5H68.3a2.73,2.73,0,0,0,1.61-.37,1.35,1.35,0,0,0,.5-1.15,1.25,1.25,0,0,0-.57-1.14,3.19,3.19,0,0,0-1.69-.36H66.57Zm0,.48v3.39h1.85c1.45,0,2.18-.59,2.18-1.77s-.77-1.62-2.3-1.62Z" fill="#455a64"/><path d="M76.33,75.59l-.14-.92h0a2.74,2.74,0,0,1-.9.8,2.51,2.51,0,0,1-1.1.23,1.91,1.91,0,0,1-1.34-.44A1.57,1.57,0,0,1,72.33,74,1.49,1.49,0,0,1,73,72.72a3.77,3.77,0,0,1,2.06-.5l1.11,0V71.8a2,2,0,0,0-.33-1.26,1.33,1.33,0,0,0-1.09-.42,3.72,3.72,0,0,0-1.69.45l-.19-.47a4.44,4.44,0,0,1,1.9-.45,1.88,1.88,0,0,1,1.43.5,2.21,2.21,0,0,1,.48,1.56v3.88Zm-2.15-.37a1.87,1.87,0,0,0,2-2v-.58l-1,0a3.81,3.81,0,0,0-1.75.38,1.1,1.1,0,0,0-.52,1,1.09,1.09,0,0,0,.33.85A1.34,1.34,0,0,0,74.18,75.22Z" fill="#455a64"/><path d="M80.94,75.7a2.49,2.49,0,0,1-2-.79,3.18,3.18,0,0,1-.71-2.2A3.24,3.24,0,0,1,79,70.45a2.58,2.58,0,0,1,2-.81,3.93,3.93,0,0,1,1.45.27l-.14.47A4.26,4.26,0,0,0,81,70.13a2,2,0,0,0-1.63.66,3,3,0,0,0-.55,1.91,2.87,2.87,0,0,0,.55,1.85,1.9,1.9,0,0,0,1.55.67,3.83,3.83,0,0,0,1.48-.29v.5A3.39,3.39,0,0,1,80.94,75.7Z" fill="#455a64"/><path d="M84.36,73l3-3.27H88l-2.3,2.49,2.5,3.34h-.64l-2.22-2.94-.95.87v2.07h-.53V67.24h.53v4.19l0,1.6Z" fill="#455a64"/><path d="M19.13,86.75a2.06,2.06,0,0,1-.78,1.74,3.42,3.42,0,0,1-2.19.61H15v3.24H14.4V84.49h1.92C18.19,84.49,19.13,85.24,19.13,86.75ZM15,88.63H16a3.26,3.26,0,0,0,1.91-.44,1.64,1.64,0,0,0,.6-1.42A1.62,1.62,0,0,0,18,85.42,2.83,2.83,0,0,0,16.25,85H15Z" fill="#455a64"/><path d="M25.53,89.42a3.32,3.32,0,0,1-.69,2.23A2.51,2.51,0,0,1,20.67,91a4,4,0,0,1-.31-1.6,3.29,3.29,0,0,1,.69-2.23,2.42,2.42,0,0,1,1.91-.8,2.32,2.32,0,0,1,1.88.81A3.31,3.31,0,0,1,25.53,89.42Zm-4.61,0a3,3,0,0,0,.53,1.87,2,2,0,0,0,3,0A3,3,0,0,0,25,89.42a3,3,0,0,0-.53-1.88,1.84,1.84,0,0,0-1.51-.66,1.8,1.8,0,0,0-1.49.66A3,3,0,0,0,20.92,89.42Z" fill="#455a64"/><path d="M27.68,92.34h-.53V84h.53Z" fill="#455a64"/><path d="M29.56,84.88c0-.34.11-.51.34-.51a.3.3,0,0,1,.26.13.69.69,0,0,1,.09.38.73.73,0,0,1-.09.39.31.31,0,0,1-.26.14C29.67,85.41,29.56,85.23,29.56,84.88Zm.6,7.46h-.53V86.51h.53Z" fill="#455a64"/><path d="M34.45,92.45a2.49,2.49,0,0,1-2-.79,3.18,3.18,0,0,1-.71-2.2,3.24,3.24,0,0,1,.74-2.26,2.58,2.58,0,0,1,2-.81,3.93,3.93,0,0,1,1.45.27l-.14.47a4.26,4.26,0,0,0-1.32-.25,2,2,0,0,0-1.63.66,2.9,2.9,0,0,0-.55,1.91,2.82,2.82,0,0,0,.55,1.85,1.9,1.9,0,0,0,1.55.67,3.83,3.83,0,0,0,1.48-.29v.5A3.42,3.42,0,0,1,34.45,92.45Z" fill="#455a64"/><path d="M36.37,86.51h.55l1.23,3.27q.57,1.52.72,2h0c.15-.46.39-1.15.73-2.07l1.24-3.24h.55L38.8,93.29a5.68,5.68,0,0,1-.53,1.12,1.36,1.36,0,0,1-.5.43,1.51,1.51,0,0,1-.7.15,2.27,2.27,0,0,1-.68-.12v-.46a2.41,2.41,0,0,0,.67.09.86.86,0,0,0,.48-.13,1.22,1.22,0,0,0,.38-.4,4.24,4.24,0,0,0,.39-.86c.15-.39.25-.65.29-.77Z" fill="#455a64"/><path d="M48.74,84.87a3,3,0,0,0-2.33.95,3.76,3.76,0,0,0-.85,2.59,3.9,3.9,0,0,0,.8,2.61,2.87,2.87,0,0,0,2.29.93,6.16,6.16,0,0,0,1.82-.26v.49a6,6,0,0,1-1.95.27,3.27,3.27,0,0,1-2.6-1.07,4.28,4.28,0,0,1-1-3,4.68,4.68,0,0,1,.45-2.11,3.25,3.25,0,0,1,1.31-1.41,3.74,3.74,0,0,1,2-.5,4.67,4.67,0,0,1,2,.43l-.22.49A4,4,0,0,0,48.74,84.87Z" fill="#455a64"/><path d="M56.15,92.34V88.56a1.81,1.81,0,0,0-.37-1.28,1.47,1.47,0,0,0-1.15-.4,2,2,0,0,0-1.53.53,2.5,2.5,0,0,0-.48,1.71v3.22h-.54V84h.54v2.66l0,.74h0a1.93,1.93,0,0,1,.82-.76,2.89,2.89,0,0,1,1.24-.24c1.33,0,2,.71,2,2.14v3.81Z" fill="#455a64"/><path d="M62.12,92.34,62,91.42h0a2.76,2.76,0,0,1-.91.8,2.47,2.47,0,0,1-1.09.23A1.87,1.87,0,0,1,58.6,92a1.57,1.57,0,0,1-.48-1.22,1.49,1.49,0,0,1,.71-1.32,3.77,3.77,0,0,1,2.06-.5l1.11,0v-.38a2,2,0,0,0-.33-1.26,1.33,1.33,0,0,0-1.09-.42,3.66,3.66,0,0,0-1.69.45l-.19-.46a4.31,4.31,0,0,1,1.9-.46,1.88,1.88,0,0,1,1.43.5,2.21,2.21,0,0,1,.48,1.56v3.88ZM60,92a1.87,1.87,0,0,0,2-2v-.58l-1,0a3.81,3.81,0,0,0-1.75.38,1.12,1.12,0,0,0-.53,1,1.09,1.09,0,0,0,.34.85A1.33,1.33,0,0,0,60,92Z" fill="#455a64"/><path d="M68.47,92.34V88.56a1.81,1.81,0,0,0-.37-1.28,1.49,1.49,0,0,0-1.15-.4,2,2,0,0,0-1.53.53,2.44,2.44,0,0,0-.49,1.71v3.22H64.4V86.51h.45l.1.8h0a2.21,2.21,0,0,1,2-.92c1.32,0,2,.71,2,2.14v3.81Z" fill="#455a64"/><path d="M75.44,86.51v.37L74.23,87a2,2,0,0,1,.49,1.32,1.79,1.79,0,0,1-.56,1.37,2.13,2.13,0,0,1-1.51.52,3.51,3.51,0,0,1-.56,0,1.37,1.37,0,0,0-.48.39.8.8,0,0,0-.17.48.45.45,0,0,0,.21.41,1.39,1.39,0,0,0,.71.13h1a2.41,2.41,0,0,1,1.45.38,1.35,1.35,0,0,1,.51,1.14,1.64,1.64,0,0,1-.75,1.43,3.87,3.87,0,0,1-2.14.5,2.87,2.87,0,0,1-1.7-.43,1.34,1.34,0,0,1-.61-1.18,1.41,1.41,0,0,1,.38-1,1.93,1.93,0,0,1,1-.54,1,1,0,0,1-.42-.32A.75.75,0,0,1,71,91a1.26,1.26,0,0,1,.74-1,1.69,1.69,0,0,1-.79-.65,1.9,1.9,0,0,1-.29-1,1.87,1.87,0,0,1,.56-1.41,2.1,2.1,0,0,1,1.5-.53,2.61,2.61,0,0,1,.89.12Zm-4.72,6.82c0,.81.59,1.21,1.78,1.21,1.54,0,2.3-.49,2.3-1.47a.83.83,0,0,0-.36-.76,2.16,2.16,0,0,0-1.16-.24h-1C71.25,92.07,70.72,92.49,70.72,93.33Zm.44-5a1.36,1.36,0,0,0,.41,1,1.58,1.58,0,0,0,1.1.37,1.55,1.55,0,0,0,1.12-.37,1.71,1.71,0,0,0,0-2.19,1.58,1.58,0,0,0-1.12-.38,1.39,1.39,0,0,0-1.5,1.52Z" fill="#455a64"/><path d="M79,92.45a2.57,2.57,0,0,1-2-.78,3.2,3.2,0,0,1-.71-2.2A3.43,3.43,0,0,1,77,87.23a2.28,2.28,0,0,1,1.85-.84,2,2,0,0,1,1.63.72,3,3,0,0,1,.6,2v.43H76.86a2.74,2.74,0,0,0,.56,1.83A2,2,0,0,0,79,92a4.69,4.69,0,0,0,.88-.07,5.82,5.82,0,0,0,1-.3v.48a4.13,4.13,0,0,1-.91.29A4.44,4.44,0,0,1,79,92.45Zm-.16-5.58a1.74,1.74,0,0,0-1.35.55,2.66,2.66,0,0,0-.6,1.61H80.5a2.57,2.57,0,0,0-.44-1.59A1.45,1.45,0,0,0,78.84,86.87Z" fill="#455a64"/><path d="M86.3,90.82A1.38,1.38,0,0,1,85.7,92a2.91,2.91,0,0,1-1.69.42,4,4,0,0,1-1.86-.36v-.57A4.17,4.17,0,0,0,84,92a2.45,2.45,0,0,0,1.31-.29.87.87,0,0,0,.45-.76.94.94,0,0,0-.36-.75,4,4,0,0,0-1.17-.59A7.12,7.12,0,0,1,83,89a1.65,1.65,0,0,1-.53-.52,1.28,1.28,0,0,1-.18-.7,1.2,1.2,0,0,1,.55-1,2.69,2.69,0,0,1,1.54-.38,4.54,4.54,0,0,1,1.79.36l-.2.48a4.09,4.09,0,0,0-1.59-.35,2.42,2.42,0,0,0-1.14.23.73.73,0,0,0-.42.66.9.9,0,0,0,.33.73,4.37,4.37,0,0,0,1.27.61,6.69,6.69,0,0,1,1.15.51,1.8,1.8,0,0,1,.54.52A1.28,1.28,0,0,1,86.3,90.82Z" fill="#455a64"/><path d="M177.72,10.06s21.77-5.61,28.37,26.58" fill="none" stroke="#009688" stroke-miterlimit="10"/><path d="M145,25s34.37-6.21,41,22.2" fill="none" stroke="#4caf50" stroke-miterlimit="10"/><path d="M131,41s42.85-6.94,46.72,8.95" fill="none" stroke="#363b42" stroke-miterlimit="10"/><path d="M110.33,56.16s57.25-16.1,63.23-3.86" fill="none" stroke="#81c784" stroke-miterlimit="10"/><path d="M94.33,72.07s61.38-24.85,70-7.77" fill="none" stroke="#004d40" stroke-miterlimit="10"/><path d="M94.33,87.68S134.11,65.42,151.39,84" fill="none" stroke="#00796b" stroke-miterlimit="10"/></svg>