<svg xmlns="http://www.w3.org/2000/svg" viewBox="0 0 990 340.5"><title>Logi_Graph1</title><path d="M70.24,38.62H69v2H68v-2H63.87v-.85L67.94,32h1v5.76h1.27ZM68,37.73V34.88c0-.56,0-1.19,0-1.89h0a8.76,8.76,0,0,1-.53.93l-2.68,3.81Z" fill="#546e7a"/><path d="M76.74,36.29a6.24,6.24,0,0,1-.7,3.32,2.59,2.59,0,0,1-4.24,0,6.15,6.15,0,0,1-.72-3.29A6.3,6.3,0,0,1,71.77,33,2.59,2.59,0,0,1,76,33,6.16,6.16,0,0,1,76.74,36.29Zm-4.68,0A6.3,6.3,0,0,0,72.5,39a1.58,1.58,0,0,0,2.81,0,6.34,6.34,0,0,0,.44-2.71,6.34,6.34,0,0,0-.44-2.71,1.59,1.59,0,0,0-2.81,0A6.3,6.3,0,0,0,72.06,36.29Z" fill="#546e7a"/><path d="M83.6,36.29a6.24,6.24,0,0,1-.7,3.32,2.59,2.59,0,0,1-4.24,0,6.15,6.15,0,0,1-.72-3.29A6.3,6.3,0,0,1,78.63,33a2.59,2.59,0,0,1,4.25,0A6.16,6.16,0,0,1,83.6,36.29Zm-4.68,0A6.3,6.3,0,0,0,79.36,39a1.58,1.58,0,0,0,2.81,0,6.34,6.34,0,0,0,.44-2.71,6.34,6.34,0,0,0-.44-2.71,1.59,1.59,0,0,0-2.81,0A6.3,6.3,0,0,0,78.92,36.29Z" fill="#546e7a"/><path d="M86.19,37.3c.17-.24.43-.55.77-.94L89,34.16h1.15l-2.6,2.74,2.78,3.68H89.19l-2.26-3-.74.63v2.4h-1V31.47h1V36.3c0,.22,0,.55,0,1Z" fill="#546e7a"/><path d="M69.51,88.84a2,2,0,0,1-.46,1.35,2.27,2.27,0,0,1-1.3.69v.05a2.42,2.42,0,0,1,1.53.66,1.93,1.93,0,0,1,.5,1.38,2.25,2.25,0,0,1-.85,1.88,3.89,3.89,0,0,1-2.42.66,6.77,6.77,0,0,1-1.24-.1,4.3,4.3,0,0,1-1.1-.36v-.93a4.73,4.73,0,0,0,1.18.42,5.18,5.18,0,0,0,1.2.15q2.22,0,2.22-1.74c0-1-.82-1.56-2.45-1.56h-.85v-.84h.86a2.61,2.61,0,0,0,1.59-.44,1.46,1.46,0,0,0,.58-1.23,1.21,1.21,0,0,0-.43-1,1.79,1.79,0,0,0-1.17-.35,3.72,3.72,0,0,0-1.06.15,4.7,4.7,0,0,0-1.13.56l-.5-.65a4.22,4.22,0,0,1,1.22-.66,4.36,4.36,0,0,1,1.45-.23,3,3,0,0,1,1.94.57A1.92,1.92,0,0,1,69.51,88.84Z" fill="#546e7a"/><path d="M76.74,91.1a6.24,6.24,0,0,1-.7,3.32,2.59,2.59,0,0,1-4.24,0,6.15,6.15,0,0,1-.72-3.29,6.3,6.3,0,0,1,.69-3.32,2.59,2.59,0,0,1,4.25,0A6.16,6.16,0,0,1,76.74,91.1Zm-4.68,0a6.3,6.3,0,0,0,.44,2.72,1.58,1.58,0,0,0,2.81,0,6.34,6.34,0,0,0,.44-2.71,6.26,6.26,0,0,0-.44-2.7,1.59,1.59,0,0,0-2.81,0A6.3,6.3,0,0,0,72.06,91.1Z" fill="#546e7a"/><path d="M83.6,91.1a6.24,6.24,0,0,1-.7,3.32,2.59,2.59,0,0,1-4.24,0,6.15,6.15,0,0,1-.72-3.29,6.3,6.3,0,0,1,.69-3.32,2.59,2.59,0,0,1,4.25,0A6.16,6.16,0,0,1,83.6,91.1Zm-4.68,0a6.3,6.3,0,0,0,.44,2.72,1.58,1.58,0,0,0,2.81,0,6.34,6.34,0,0,0,.44-2.71,6.26,6.26,0,0,0-.44-2.7,1.59,1.59,0,0,0-2.81,0A6.3,6.3,0,0,0,78.92,91.1Z" fill="#546e7a"/><path d="M86.19,92.11c.17-.24.43-.55.77-.94L89,89h1.15l-2.6,2.74,2.78,3.68H89.19l-2.26-3-.74.63v2.4h-1V86.28h1v4.83c0,.22,0,.55,0,1Z" fill="#546e7a"/><path d="M70.51,146.67H64.88v-.83l2.25-2.27a16.62,16.62,0,0,0,1.36-1.49,3.51,3.51,0,0,0,.49-.87,2.46,2.46,0,0,0,.17-.91,1.43,1.43,0,0,0-.42-1.08,1.56,1.56,0,0,0-1.15-.4,3.06,3.06,0,0,0-1,.17,4.06,4.06,0,0,0-1.07.64L65,139a3.94,3.94,0,0,1,2.58-1,2.74,2.74,0,0,1,1.89.62,2.11,2.11,0,0,1,.68,1.66,3.28,3.28,0,0,1-.45,1.62,10.59,10.59,0,0,1-1.71,2l-1.88,1.83v.05h4.41Z" fill="#546e7a"/><path d="M77.42,142.38a6.36,6.36,0,0,1-.7,3.32,2.37,2.37,0,0,1-2.15,1.09,2.34,2.34,0,0,1-2.1-1.12,8,8,0,0,1,0-6.61A2.33,2.33,0,0,1,74.57,138a2.37,2.37,0,0,1,2.12,1.13A6.16,6.16,0,0,1,77.42,142.38Zm-4.69,0a6.3,6.3,0,0,0,.44,2.72,1.58,1.58,0,0,0,2.81,0,8.57,8.57,0,0,0,0-5.42,1.59,1.59,0,0,0-2.81,0A6.3,6.3,0,0,0,72.73,142.38Z" fill="#546e7a"/><path d="M84.28,142.38a6.36,6.36,0,0,1-.7,3.32,2.6,2.6,0,0,1-4.25,0,8,8,0,0,1,0-6.61,2.58,2.58,0,0,1,4.24,0A6.06,6.06,0,0,1,84.28,142.38Zm-4.68,0A6.15,6.15,0,0,0,80,145.1a1.57,1.57,0,0,0,2.8,0,8.57,8.57,0,0,0,0-5.42,1.58,1.58,0,0,0-2.8,0A6.15,6.15,0,0,0,79.6,142.38Z" fill="#546e7a"/><path d="M86.87,143.39c.17-.24.42-.55.76-.94l2.08-2.2h1.15L88.26,143,91,146.67H89.87l-2.27-3-.73.63v2.4h-1v-9.11h1v4.83c0,.22,0,.55-.05,1Z" fill="#546e7a"/><path d="M67.81,204h-1v-6.11c0-.5,0-1,0-1.44a3.38,3.38,0,0,1-.27.26l-1.4,1.14-.51-.66L67,195.43h.82Z" fill="#546e7a"/><path d="M76.74,199.71A6.2,6.2,0,0,1,76,203a2.58,2.58,0,0,1-4.24,0,6.15,6.15,0,0,1-.72-3.29,6.34,6.34,0,0,1,.69-3.33,2.6,2.6,0,0,1,4.25.05A6.14,6.14,0,0,1,76.74,199.71Zm-4.68,0a6.33,6.33,0,0,0,.44,2.72,1.58,1.58,0,0,0,2.81,0,8.57,8.57,0,0,0,0-5.42,1.58,1.58,0,0,0-2.81,0A6.27,6.27,0,0,0,72.06,199.71Z" fill="#546e7a"/><path d="M83.6,199.71a6.2,6.2,0,0,1-.7,3.31,2.58,2.58,0,0,1-4.24,0,6.15,6.15,0,0,1-.72-3.29,6.34,6.34,0,0,1,.69-3.33,2.6,2.6,0,0,1,4.25.05A6.14,6.14,0,0,1,83.6,199.71Zm-4.68,0a6.33,6.33,0,0,0,.44,2.72,1.58,1.58,0,0,0,2.81,0,8.57,8.57,0,0,0,0-5.42,1.58,1.58,0,0,0-2.81,0A6.27,6.27,0,0,0,78.92,199.71Z" fill="#546e7a"/><path d="M86.19,200.71a11.46,11.46,0,0,1,.77-.93l2.08-2.2h1.15l-2.6,2.73L90.37,204H89.19l-2.26-3-.74.64V204h-1v-9.12h1v4.84c0,.21,0,.54,0,1Z" fill="#546e7a"/><path d="M83.6,251.71a6.2,6.2,0,0,1-.7,3.31,2.58,2.58,0,0,1-4.24,0,6.15,6.15,0,0,1-.72-3.29,6.34,6.34,0,0,1,.69-3.33,2.6,2.6,0,0,1,4.25.05A6.14,6.14,0,0,1,83.6,251.71Zm-4.68,0a6.33,6.33,0,0,0,.44,2.72,1.58,1.58,0,0,0,2.81,0,8.57,8.57,0,0,0,0-5.42,1.58,1.58,0,0,0-2.81,0A6.27,6.27,0,0,0,78.92,251.71Z" fill="#546e7a"/><path d="M86.19,252.71a11.46,11.46,0,0,1,.77-.93l2.08-2.2h1.15l-2.6,2.73L90.37,256H89.19l-2.26-3-.74.64V256h-1v-9.12h1v4.84c0,.21,0,.54,0,1Z" fill="#546e7a"/><path d="M28.44,201.25l-2.73,1.07v3.43l2.73,1.05v1l-8.6-3.38v-.84l8.6-3.37Zm-3.62,1.38-2.66,1c-.33.13-.74.26-1.23.4a12.47,12.47,0,0,1,1.23.37l2.66,1Z" fill="#546e7a"/><path d="M22,193.93h.61l.14,1.19a2.15,2.15,0,0,1,1.29-.42,1.89,1.89,0,0,1,1.5.64,2.58,2.58,0,0,1,.56,1.77,3.12,3.12,0,0,1,0,.54.94.94,0,0,0,.82.62.41.41,0,0,0,.39-.21,1.55,1.55,0,0,0,.13-.75v-1.13a2.59,2.59,0,0,1,.44-1.61,1.54,1.54,0,0,1,1.28-.56,1.82,1.82,0,0,1,1.62.86,4.61,4.61,0,0,1,.56,2.5,3.35,3.35,0,0,1-.47,1.94,1.61,1.61,0,0,1-2.34.31,2,2,0,0,1-.58-1.06,1,1,0,0,1-.89.58,1,1,0,0,1-.61-.19,1.8,1.8,0,0,1-.51-.59,1.76,1.76,0,0,1-.7.81,2.28,2.28,0,0,1-2.75-.32,2.58,2.58,0,0,1-.57-1.79,3.18,3.18,0,0,1,.12-.91Zm2.05,4.6a1.29,1.29,0,0,0,1-.39,1.5,1.5,0,0,0,.35-1.06,1.24,1.24,0,0,0-1.38-1.42,1.28,1.28,0,0,0-1.45,1.44,1.43,1.43,0,0,0,.37,1.06A1.5,1.5,0,0,0,24.07,198.53Zm5.45.52a.87.87,0,0,0,.79-.44,2.41,2.41,0,0,0,.27-1.26,3.45,3.45,0,0,0-.37-1.81,1.12,1.12,0,0,0-1-.59.81.81,0,0,0-.73.32,2.6,2.6,0,0,0-.2,1.22v1.16a1.53,1.53,0,0,0,.32,1A1.11,1.11,0,0,0,29.52,199.05Z" fill="#546e7a"/><path d="M28.56,189.9a3,3,0,0,1-.87,2.25,3.35,3.35,0,0,1-2.41.82,3.74,3.74,0,0,1-2.47-.76,2.55,2.55,0,0,1-.91-2.06,2.42,2.42,0,0,1,.79-1.91,3,3,0,0,1,2.1-.7h.61V192a2.55,2.55,0,0,0,1.72-.57,2,2,0,0,0,.59-1.52,5.19,5.19,0,0,0-.44-2.06h.87a5.57,5.57,0,0,1,.32,1A5.85,5.85,0,0,1,28.56,189.9Zm-5.85.26a1.59,1.59,0,0,0,.51,1.24,2.38,2.38,0,0,0,1.39.54v-3.36a2.17,2.17,0,0,0-1.41.41A1.48,1.48,0,0,0,22.71,190.16Z" fill="#546e7a"/><path d="M28.44,181.49H24.28a1.72,1.72,0,0,0-1.17.35,1.46,1.46,0,0,0-.38,1.12,1.86,1.86,0,0,0,.54,1.48,2.76,2.76,0,0,0,1.8.47h3.37v1H22v-.79l.88-.16v-.05a1.87,1.87,0,0,1-.74-.83,2.78,2.78,0,0,1-.26-1.2,2.45,2.45,0,0,1,.56-1.75,2.38,2.38,0,0,1,1.79-.59h4.19Z" fill="#546e7a"/><path d="M28.56,176a2.75,2.75,0,0,1-.86,2.16,3.52,3.52,0,0,1-2.43.76,3.66,3.66,0,0,1-2.49-.77,2.8,2.8,0,0,1-.88-2.22A4.18,4.18,0,0,1,22,175a3.32,3.32,0,0,1,.23-.73l.83.3a3.8,3.8,0,0,0-.21.7,3,3,0,0,0-.09.68c0,1.3.83,2,2.5,2a2.93,2.93,0,0,0,1.81-.48,1.65,1.65,0,0,0,.64-1.42,4.32,4.32,0,0,0-.35-1.64h.86A3.53,3.53,0,0,1,28.56,176Z" fill="#546e7a"/><path d="M22,173.82v-1l3.66-1.41a12.71,12.71,0,0,1,1.81-.57v-.05c-.2-.05-.54-.16-1-.32s-2-.69-4.45-1.59v-1l7.31,2.76a3.64,3.64,0,0,1,1.54,1,2,2,0,0,1,.45,1.34,3.71,3.71,0,0,1-.1.88h-.78a3.14,3.14,0,0,0,.07-.72,1.48,1.48,0,0,0-1.12-1.43l-.92-.36Z" fill="#546e7a"/><path d="M20.64,159.82a2.77,2.77,0,0,0,.94,2.23,3.79,3.79,0,0,0,2.58.82,3.82,3.82,0,0,0,2.59-.79,2.76,2.76,0,0,0,.92-2.24,7.91,7.91,0,0,0-.32-2.05h.87a6.36,6.36,0,0,1,.34,2.2,3.74,3.74,0,0,1-1.15,2.92,4.78,4.78,0,0,1-3.27,1,5.18,5.18,0,0,1-2.32-.5A3.53,3.53,0,0,1,20.29,162a4.3,4.3,0,0,1-.54-2.2,5.25,5.25,0,0,1,.49-2.35l.86.42A4.48,4.48,0,0,0,20.64,159.82Z" fill="#546e7a"/><path d="M25.22,150.53a3.51,3.51,0,0,1,2.45.79,2.76,2.76,0,0,1,.89,2.18,2.87,2.87,0,0,1-.41,1.53,2.59,2.59,0,0,1-1.16,1,4.05,4.05,0,0,1-1.77.37,3.53,3.53,0,0,1-2.44-.79,2.75,2.75,0,0,1-.88-2.18,2.71,2.71,0,0,1,.9-2.14A3.49,3.49,0,0,1,25.22,150.53Zm0,4.89a3.12,3.12,0,0,0,1.88-.49,2,2,0,0,0,0-2.9,3,3,0,0,0-1.88-.5,3,3,0,0,0-1.86.5,1.75,1.75,0,0,0-.63,1.46,1.69,1.69,0,0,0,.62,1.44A3,3,0,0,0,25.22,155.42Z" fill="#546e7a"/><path d="M28.44,140.63H24.26a1.73,1.73,0,0,0-1.15.33,1.26,1.26,0,0,0-.38,1,1.62,1.62,0,0,0,.52,1.34,2.45,2.45,0,0,0,1.6.44h3.59v1H24.26a1.73,1.73,0,0,0-1.15.33,1.26,1.26,0,0,0-.38,1,1.6,1.6,0,0,0,.54,1.34,2.94,2.94,0,0,0,1.8.43h3.37v1H22V148l.88-.16v-.05a1.89,1.89,0,0,1-.74-.77,2.46,2.46,0,0,1-.26-1.12A1.9,1.9,0,0,1,23,144v-.05a2.07,2.07,0,0,1-.8-.83,2.67,2.67,0,0,1-.29-1.24,2.22,2.22,0,0,1,.56-1.64,2.5,2.5,0,0,1,1.79-.54h4.19Z" fill="#546e7a"/><path d="M28.44,129.47H24.26a1.73,1.73,0,0,0-1.15.33,1.26,1.26,0,0,0-.38,1,1.63,1.63,0,0,0,.52,1.34,2.45,2.45,0,0,0,1.6.44h3.59v1H24.26a1.73,1.73,0,0,0-1.15.33,1.26,1.26,0,0,0-.38,1,1.6,1.6,0,0,0,.54,1.34,3,3,0,0,0,1.8.43h3.37v1H22v-.79l.88-.16v-.05a1.89,1.89,0,0,1-.74-.77,2.47,2.47,0,0,1-.26-1.13,1.91,1.91,0,0,1,1.09-2v0a2.07,2.07,0,0,1-.8-.83,2.68,2.68,0,0,1-.29-1.25,2.19,2.19,0,0,1,.56-1.63,2.5,2.5,0,0,1,1.79-.54h4.19Z" fill="#546e7a"/><path d="M20.28,126.58a.63.63,0,0,1-.49-.17.54.54,0,0,1-.16-.41.55.55,0,0,1,.16-.4.79.79,0,0,1,1,0,.59.59,0,0,1,.16.4.58.58,0,0,1-.16.41A.66.66,0,0,1,20.28,126.58Zm8.16-1.06v1H22v-1Z" fill="#546e7a"/><path d="M26.69,119.32a1.6,1.6,0,0,1,1.38.67,3.15,3.15,0,0,1,.49,1.87,4,4,0,0,1-.41,2h-.9a4.69,4.69,0,0,0,.37-1,4.08,4.08,0,0,0,.13-1,2.32,2.32,0,0,0-.24-1.17.79.79,0,0,0-.74-.41.78.78,0,0,0-.64.32,5,5,0,0,0-.63,1.27,6.81,6.81,0,0,1-.59,1.27,1.7,1.7,0,0,1-.56.57,1.5,1.5,0,0,1-.76.18,1.45,1.45,0,0,1-1.24-.64,3,3,0,0,1-.45-1.75,5.16,5.16,0,0,1,.42-2l.79.35a4.76,4.76,0,0,0-.4,1.75,2,2,0,0,0,.22,1,.67.67,0,0,0,.6.36.72.72,0,0,0,.44-.14,1.26,1.26,0,0,0,.34-.42,9.8,9.8,0,0,0,.48-1.13,4.12,4.12,0,0,1,.84-1.54A1.46,1.46,0,0,1,26.69,119.32Z" fill="#546e7a"/><path d="M26.69,113.59a1.62,1.62,0,0,1,1.38.67,3.18,3.18,0,0,1,.49,1.88,4.07,4.07,0,0,1-.41,2h-.9a4.69,4.69,0,0,0,.37-1,4.21,4.21,0,0,0,.13-1,2.35,2.35,0,0,0-.24-1.17.81.81,0,0,0-.74-.41.79.79,0,0,0-.64.33,4.84,4.84,0,0,0-.63,1.27,7.14,7.14,0,0,1-.59,1.27,1.66,1.66,0,0,1-.56.56,1.5,1.5,0,0,1-.76.19,1.47,1.47,0,0,1-1.24-.64,3,3,0,0,1-.45-1.75,5.13,5.13,0,0,1,.42-2l.79.34a4.8,4.8,0,0,0-.4,1.76,2.06,2.06,0,0,0,.22,1,.68.68,0,0,0,.6.35.72.72,0,0,0,.44-.13,1.32,1.32,0,0,0,.34-.43,9.41,9.41,0,0,0,.48-1.12,4,4,0,0,1,.84-1.54A1.46,1.46,0,0,1,26.69,113.59Z" fill="#546e7a"/><path d="M20.28,112.09a.63.63,0,0,1-.49-.16.56.56,0,0,1-.16-.41.54.54,0,0,1,.16-.4.79.79,0,0,1,1,0,.58.58,0,0,1,.16.4.6.6,0,0,1-.16.41A.66.66,0,0,1,20.28,112.09Zm8.16-1v1H22v-1Z" fill="#546e7a"/><path d="M25.22,103.43a3.55,3.55,0,0,1,2.45.79,2.8,2.8,0,0,1,.89,2.19,2.92,2.92,0,0,1-.41,1.53A2.65,2.65,0,0,1,27,109a4.05,4.05,0,0,1-1.77.36,3.52,3.52,0,0,1-2.44-.78,2.75,2.75,0,0,1-.88-2.18,2.71,2.71,0,0,1,.9-2.14A3.5,3.5,0,0,1,25.22,103.43Zm0,4.9a3.05,3.05,0,0,0,1.88-.5,1.69,1.69,0,0,0,.64-1.44,1.71,1.71,0,0,0-.64-1.45,3,3,0,0,0-1.88-.5,3,3,0,0,0-1.86.5,1.74,1.74,0,0,0-.63,1.46,1.69,1.69,0,0,0,.62,1.44A3,3,0,0,0,25.22,108.33Z" fill="#546e7a"/><path d="M28.44,97.33H24.28a1.67,1.67,0,0,0-1.17.36,1.45,1.45,0,0,0-.38,1.12,1.88,1.88,0,0,0,.54,1.48,2.76,2.76,0,0,0,1.8.47h3.37v1H22v-.79l.88-.16v0a2,2,0,0,1-.74-.84,2.75,2.75,0,0,1-.26-1.2A2.44,2.44,0,0,1,22.46,97a2.38,2.38,0,0,1,1.79-.59h4.19Z" fill="#546e7a"/><path d="M437.44,285.79a2.42,2.42,0,0,1-.89,2,4.06,4.06,0,0,1-2.54.7h-1v3.37h-1v-8.57h2.22C436.36,283.29,437.44,284.12,437.44,285.79ZM433,287.63h.9a3.27,3.27,0,0,0,1.91-.43,1.55,1.55,0,0,0,.59-1.37,1.46,1.46,0,0,0-.55-1.26,2.89,2.89,0,0,0-1.74-.42H433Z" fill="#546e7a"/><path d="M444.62,288.64a3.52,3.52,0,0,1-.79,2.45,2.75,2.75,0,0,1-2.18.88,2.86,2.86,0,0,1-1.53-.4,2.65,2.65,0,0,1-1-1.16,4.05,4.05,0,0,1-.37-1.77,3.57,3.57,0,0,1,.79-2.45,2.78,2.78,0,0,1,2.18-.87,2.73,2.73,0,0,1,2.14.89A3.54,3.54,0,0,1,444.62,288.64Zm-4.89,0a3.09,3.09,0,0,0,.49,1.87,2,2,0,0,0,2.9,0,3.05,3.05,0,0,0,.5-1.88,3,3,0,0,0-.5-1.86,1.75,1.75,0,0,0-1.46-.64,1.7,1.7,0,0,0-1.44.63A3,3,0,0,0,439.73,288.64Z" fill="#546e7a"/><path d="M447.3,291.86h-1v-9.12h1Z" fill="#546e7a"/><path d="M449.28,283.69a.62.62,0,0,1,.17-.48.54.54,0,0,1,.41-.16.55.55,0,0,1,.4.16.64.64,0,0,1,.17.48.65.65,0,0,1-.17.49.55.55,0,0,1-.4.16.54.54,0,0,1-.41-.16A.65.65,0,0,1,449.28,283.69Zm1.06,8.17h-1v-6.43h1Z" fill="#546e7a"/><path d="M455,292a2.75,2.75,0,0,1-2.16-.85,3.56,3.56,0,0,1-.77-2.43,3.61,3.61,0,0,1,.78-2.49,2.78,2.78,0,0,1,2.21-.88,4.2,4.2,0,0,1,.93.1,2.65,2.65,0,0,1,.72.23l-.3.83a4.12,4.12,0,0,0-.7-.22,3.56,3.56,0,0,0-.67-.08c-1.31,0-2,.83-2,2.49a3,3,0,0,0,.48,1.82,1.66,1.66,0,0,0,1.41.63,4.31,4.31,0,0,0,1.65-.34v.86A3.54,3.54,0,0,1,455,292Z" fill="#546e7a"/><path d="M457.09,285.43h1.05l1.4,3.67a14.71,14.71,0,0,1,.58,1.81h0c0-.2.16-.54.32-1l1.59-4.45h1.05l-2.76,7.32a3.85,3.85,0,0,1-1,1.54,2.06,2.06,0,0,1-1.35.45,3.63,3.63,0,0,1-.87-.1v-.78a3.14,3.14,0,0,0,.72.07,1.49,1.49,0,0,0,1.43-1.12l.35-.92Z" fill="#546e7a"/><path d="M472.2,291.86h-4.78v-8.57h4.78v.88h-3.78v2.76H472v.88h-3.55V291h3.78Z" fill="#546e7a"/><path d="M476.85,286.19h-1.64v5.67h-1v-5.67h-1.15v-.44l1.15-.35V285q0-2.37,2.07-2.37a4.15,4.15,0,0,1,1.19.21l-.25.78a3.3,3.3,0,0,0-1-.18,1,1,0,0,0-.82.36,2.13,2.13,0,0,0-.26,1.18v.41h1.64Zm4.06,0h-1.63v5.67h-1v-5.67h-1.14v-.44l1.14-.35V285q0-2.37,2.07-2.37a4.21,4.21,0,0,1,1.2.21l-.25.78a3.3,3.3,0,0,0-1-.18,1,1,0,0,0-.81.36,2,2,0,0,0-.26,1.18v.41h1.63Z" fill="#546e7a"/><path d="M484.8,292a3,3,0,0,1-2.24-.86,3.36,3.36,0,0,1-.83-2.41,3.73,3.73,0,0,1,.77-2.47,2.53,2.53,0,0,1,2.05-.91,2.42,2.42,0,0,1,1.91.79,3,3,0,0,1,.7,2.1v.61h-4.42a2.55,2.55,0,0,0,.57,1.72,2,2,0,0,0,1.53.58,5.17,5.17,0,0,0,2.05-.43v.87a5.57,5.57,0,0,1-1,.32A5.78,5.78,0,0,1,484.8,292Zm-.26-5.84a1.56,1.56,0,0,0-1.23.51,2.32,2.32,0,0,0-.55,1.39h3.36a2.17,2.17,0,0,0-.41-1.41A1.42,1.42,0,0,0,484.54,286.13Z" fill="#546e7a"/><path d="M491.39,292a2.75,2.75,0,0,1-2.16-.85,3.56,3.56,0,0,1-.77-2.43,3.61,3.61,0,0,1,.78-2.49,2.79,2.79,0,0,1,2.21-.88,4.2,4.2,0,0,1,.93.1,2.86,2.86,0,0,1,.73.23l-.3.83a4.55,4.55,0,0,0-.71-.22,3.47,3.47,0,0,0-.67-.08c-1.31,0-2,.83-2,2.49a3,3,0,0,0,.48,1.82,1.67,1.67,0,0,0,1.42.63,4.3,4.3,0,0,0,1.64-.34v.86A3.54,3.54,0,0,1,491.39,292Z" fill="#546e7a"/><path d="M496.61,291.17a2.74,2.74,0,0,0,.5,0,2.25,2.25,0,0,0,.38-.08v.75a1.75,1.75,0,0,1-.47.12,2.8,2.8,0,0,1-.55.05c-1.24,0-1.86-.65-1.86-2v-3.82h-.92v-.47l.92-.4L495,284h.56v1.48h1.86v.76h-1.86V290a1.32,1.32,0,0,0,.27.89A1,1,0,0,0,496.61,291.17Z" fill="#546e7a"/><path d="M498.69,283.69a.62.62,0,0,1,.16-.48.56.56,0,0,1,.41-.16.57.57,0,0,1,.41.16.64.64,0,0,1,.17.48.65.65,0,0,1-.17.49.57.57,0,0,1-.41.16.56.56,0,0,1-.41-.16A.64.64,0,0,1,498.69,283.69Zm1.05,8.17h-1v-6.43h1Z" fill="#546e7a"/><path d="M503.21,291.86l-2.43-6.43h1l1.38,3.81a16.82,16.82,0,0,1,.55,1.74h.05a11.9,11.9,0,0,1,.41-1.29c.22-.65.74-2.07,1.53-4.26h1.05l-2.44,6.43Z" fill="#546e7a"/><path d="M510.53,292a3,3,0,0,1-2.25-.86,3.4,3.4,0,0,1-.82-2.41,3.73,3.73,0,0,1,.77-2.47,2.53,2.53,0,0,1,2-.91,2.42,2.42,0,0,1,1.91.79,3,3,0,0,1,.7,2.1v.61h-4.42a2.55,2.55,0,0,0,.57,1.72,2,2,0,0,0,1.53.58,5.17,5.17,0,0,0,2.05-.43v.87a5.57,5.57,0,0,1-1,.32A5.93,5.93,0,0,1,510.53,292Zm-.26-5.84a1.59,1.59,0,0,0-1.24.51,2.38,2.38,0,0,0-.54,1.39h3.36a2.17,2.17,0,0,0-.41-1.41A1.42,1.42,0,0,0,510.27,286.13Z" fill="#546e7a"/><path d="M524.65,287.49a4.29,4.29,0,0,1-1.15,3.24,4.55,4.55,0,0,1-3.31,1.13h-2.38v-8.57h2.63a3.85,3.85,0,0,1,4.21,4.2Zm-1,0a3.46,3.46,0,0,0-.84-2.53,3.37,3.37,0,0,0-2.5-.85h-1.45V291H520a3.71,3.71,0,0,0,2.68-.88A3.45,3.45,0,0,0,523.6,287.53Z" fill="#546e7a"/><path d="M530.37,291.86l-.2-.92h0a2.79,2.79,0,0,1-1,.82,3,3,0,0,1-1.2.21,2.13,2.13,0,0,1-1.49-.49,1.79,1.79,0,0,1-.54-1.4c0-1.3,1-2,3.11-2l1.09,0v-.4a1.61,1.61,0,0,0-.33-1.12,1.34,1.34,0,0,0-1-.36,4.32,4.32,0,0,0-1.81.49l-.3-.74a4.16,4.16,0,0,1,1-.4,4.33,4.33,0,0,1,1.13-.15,2.43,2.43,0,0,1,1.7.51,2.11,2.11,0,0,1,.56,1.63v4.39Zm-2.2-.69a2,2,0,0,0,1.42-.5,1.81,1.81,0,0,0,.52-1.39v-.58l-1,0a3.6,3.6,0,0,0-1.67.36,1.08,1.08,0,0,0-.51,1,1,1,0,0,0,.31.81A1.38,1.38,0,0,0,528.17,291.17Z" fill="#546e7a"/><path d="M535.16,291.17a2.67,2.67,0,0,0,.5,0,2,2,0,0,0,.38-.08v.75a1.66,1.66,0,0,1-.46.12,2.9,2.9,0,0,1-.56.05c-1.24,0-1.86-.65-1.86-2v-3.82h-.92v-.47l.92-.4.41-1.37h.56v1.48H536v.76h-1.87V290a1.27,1.27,0,0,0,.28.89A.93.93,0,0,0,535.16,291.17Z" fill="#546e7a"/><path d="M540,292a3,3,0,0,1-2.25-.86,3.35,3.35,0,0,1-.82-2.41,3.72,3.72,0,0,1,.76-2.47,2.55,2.55,0,0,1,2.06-.91,2.42,2.42,0,0,1,1.91.79,3,3,0,0,1,.7,2.1v.61H538a2.55,2.55,0,0,0,.57,1.72,2,2,0,0,0,1.52.58,5.18,5.18,0,0,0,2.06-.43v.87a5.57,5.57,0,0,1-1,.32A5.93,5.93,0,0,1,540,292Zm-.26-5.84a1.59,1.59,0,0,0-1.24.51A2.31,2.31,0,0,0,538,288h3.36a2.17,2.17,0,0,0-.41-1.41A1.45,1.45,0,0,0,539.78,286.13Z" fill="#546e7a"/><path d="M372.19,317.49l-1.07-2.72h-3.43l-1.06,2.72h-1l3.38-8.6h.84l3.37,8.6Zm-1.38-3.62-1-2.65c-.12-.34-.26-.75-.39-1.24a11.84,11.84,0,0,1-.37,1.24l-1,2.65Z" fill="#546e7a"/><path d="M376.82,317.61a2.75,2.75,0,0,1-2.16-.86,3.52,3.52,0,0,1-.77-2.43,3.64,3.64,0,0,1,.78-2.49,2.81,2.81,0,0,1,2.21-.88,4.9,4.9,0,0,1,.93.1,3,3,0,0,1,.72.24l-.3.82a5.31,5.31,0,0,0-.7-.21,3,3,0,0,0-.67-.09c-1.31,0-2,.84-2,2.5a3,3,0,0,0,.48,1.82,1.66,1.66,0,0,0,1.41.63,4.33,4.33,0,0,0,1.65-.35v.87A3.54,3.54,0,0,1,376.82,317.61Z" fill="#546e7a"/><path d="M382,316.81a4,4,0,0,0,.5,0l.38-.08v.74a1.7,1.7,0,0,1-.47.13,3.86,3.86,0,0,1-.55.05c-1.25,0-1.87-.65-1.87-2v-3.82h-.92v-.47L380,311l.41-1.37H381v1.49h1.86v.76H381v3.78a1.33,1.33,0,0,0,.27.89A1,1,0,0,0,382,316.81Z" fill="#546e7a"/><path d="M384.12,309.33a.64.64,0,0,1,.16-.49.59.59,0,0,1,.41-.15.61.61,0,0,1,.41.15.79.79,0,0,1,0,1,.57.57,0,0,1-.41.16.56.56,0,0,1-.41-.16A.66.66,0,0,1,384.12,309.33Zm1.05,8.16h-1v-6.42h1Z" fill="#546e7a"/><path d="M388.64,317.49l-2.44-6.42h1.05l1.38,3.81a17.8,17.8,0,0,1,.55,1.73h.05c0-.2.18-.63.4-1.28s.75-2.07,1.54-4.26h1.05l-2.44,6.42Z" fill="#546e7a"/><path d="M396,317.61a3,3,0,0,1-2.25-.87,3.35,3.35,0,0,1-.82-2.41,3.71,3.71,0,0,1,.76-2.46,2.55,2.55,0,0,1,2.06-.92,2.43,2.43,0,0,1,1.91.8,3,3,0,0,1,.7,2.09v.62H393.9a2.54,2.54,0,0,0,.57,1.71,2,2,0,0,0,1.52.59,5.18,5.18,0,0,0,2.06-.43v.86a4.85,4.85,0,0,1-1,.32A5.13,5.13,0,0,1,396,317.61Zm-.26-5.84a1.62,1.62,0,0,0-1.24.5,2.41,2.41,0,0,0-.54,1.4h3.36a2.14,2.14,0,0,0-.41-1.41A1.45,1.45,0,0,0,395.7,311.77Z" fill="#546e7a"/><line x1="110" y1="40.58" x2="950" y2="40.58" fill="none" stroke="#cfd8dc" stroke-miterlimit="10"/><line x1="110" y1="93.63" x2="950" y2="93.63" fill="none" stroke="#cfd8dc" stroke-miterlimit="10"/><line x1="110" y1="146.68" x2="950" y2="146.68" fill="none" stroke="#cfd8dc" stroke-miterlimit="10"/><line x1="110" y1="199.73" x2="950" y2="199.73" fill="none" stroke="#cfd8dc" stroke-miterlimit="10"/><line x1="110" y1="252.78" x2="950" y2="252.78" fill="none" stroke="#cfd8dc" stroke-miterlimit="10"/><path d="M156.74,270h-1v-6.11c0-.5,0-1,.05-1.44a3.38,3.38,0,0,1-.27.26l-1.4,1.14-.51-.66,2.26-1.76h.82Z" fill="#546e7a"/><path d="M165.63,265.09c0,3.35-1.29,5-3.89,5a3.92,3.92,0,0,1-1.08-.12v-.84a3.55,3.55,0,0,0,1.07.15,2.57,2.57,0,0,0,2.12-.87,4.43,4.43,0,0,0,.79-2.66h-.07a2.13,2.13,0,0,1-.86.74,2.71,2.71,0,0,1-1.2.25,2.4,2.4,0,0,1-1.8-.68,2.56,2.56,0,0,1-.67-1.9,3,3,0,0,1,.74-2.11,2.87,2.87,0,0,1,3.5-.32,2.81,2.81,0,0,1,1,1.31A5.18,5.18,0,0,1,165.63,265.09Zm-2.88-2.95a1.58,1.58,0,0,0-1.29.54,2.22,2.22,0,0,0-.46,1.5,2,2,0,0,0,.42,1.33,1.62,1.62,0,0,0,1.28.48,2.24,2.24,0,0,0,1-.21,1.83,1.83,0,0,0,.71-.6,1.37,1.37,0,0,0,.26-.78,2.71,2.71,0,0,0-.24-1.14,2,2,0,0,0-.67-.82A1.7,1.7,0,0,0,162.75,262.14Z" fill="#546e7a"/><path d="M172.49,265.09c0,3.35-1.29,5-3.89,5a3.8,3.8,0,0,1-1.07-.12v-.84a3.43,3.43,0,0,0,1.06.15,2.61,2.61,0,0,0,2.13-.87,4.43,4.43,0,0,0,.78-2.66h-.07a2.13,2.13,0,0,1-.86.74,2.71,2.71,0,0,1-1.2.25,2.4,2.4,0,0,1-1.8-.68,2.56,2.56,0,0,1-.67-1.9,2.91,2.91,0,0,1,.75-2.11,2.61,2.61,0,0,1,2-.77,2.65,2.65,0,0,1,1.53.45,2.81,2.81,0,0,1,1,1.31A5.18,5.18,0,0,1,172.49,265.09Zm-2.88-2.95a1.58,1.58,0,0,0-1.29.54,2.22,2.22,0,0,0-.46,1.5,2,2,0,0,0,.42,1.33,1.62,1.62,0,0,0,1.28.48,2.31,2.31,0,0,0,1-.21,1.87,1.87,0,0,0,.7-.6,1.37,1.37,0,0,0,.26-.78,2.71,2.71,0,0,0-.24-1.14,2,2,0,0,0-.67-.82A1.7,1.7,0,0,0,169.61,262.14Z" fill="#546e7a"/><path d="M179.4,265.71a6.2,6.2,0,0,1-.7,3.31,2.58,2.58,0,0,1-4.24,0,6.15,6.15,0,0,1-.72-3.29,6.34,6.34,0,0,1,.69-3.33,2.6,2.6,0,0,1,4.25.05A6.14,6.14,0,0,1,179.4,265.71Zm-4.68,0a6.33,6.33,0,0,0,.44,2.72,1.58,1.58,0,0,0,2.81,0,8.57,8.57,0,0,0,0-5.42,1.58,1.58,0,0,0-2.81,0A6.27,6.27,0,0,0,174.72,265.71Z" fill="#546e7a"/><line x1="167.75" y1="259" x2="167.75" y2="253" fill="none" stroke="#cfd8dc" stroke-miterlimit="10"/><path d="M387.94,270H382.3v-.84l2.26-2.27a16.94,16.94,0,0,0,1.36-1.48,3.87,3.87,0,0,0,.49-.87,2.46,2.46,0,0,0,.17-.91,1.44,1.44,0,0,0-.42-1.09,1.62,1.62,0,0,0-1.15-.4,2.88,2.88,0,0,0-1,.18,4.19,4.19,0,0,0-1.06.64l-.51-.67a3.94,3.94,0,0,1,2.57-1,2.75,2.75,0,0,1,1.9.62,2.13,2.13,0,0,1,.68,1.66,3.16,3.16,0,0,1-.46,1.61,10.16,10.16,0,0,1-1.71,2l-1.87,1.83v.05h4.41Z" fill="#546e7a"/><path d="M394.84,265.71a6.2,6.2,0,0,1-.7,3.31,2.58,2.58,0,0,1-4.24,0,6.15,6.15,0,0,1-.72-3.29,6.34,6.34,0,0,1,.69-3.33,2.6,2.6,0,0,1,4.25.05A6.14,6.14,0,0,1,394.84,265.71Zm-4.68,0a6.33,6.33,0,0,0,.44,2.72,1.58,1.58,0,0,0,2.81,0,8.57,8.57,0,0,0,0-5.42,1.58,1.58,0,0,0-2.81,0A6.27,6.27,0,0,0,390.16,265.71Z" fill="#546e7a"/><path d="M401.7,265.71A6.2,6.2,0,0,1,401,269a2.58,2.58,0,0,1-4.24,0,6.15,6.15,0,0,1-.72-3.29,6.23,6.23,0,0,1,.7-3.33,2.59,2.59,0,0,1,4.24.05A6.14,6.14,0,0,1,401.7,265.71Zm-4.68,0a6.33,6.33,0,0,0,.44,2.72,1.58,1.58,0,0,0,2.81,0,8.57,8.57,0,0,0,0-5.42,1.58,1.58,0,0,0-2.81,0A6.27,6.27,0,0,0,397,265.71Z" fill="#546e7a"/><path d="M408.57,265.71a6.3,6.3,0,0,1-.7,3.31,2.59,2.59,0,0,1-4.25,0,6.15,6.15,0,0,1-.72-3.29,6.23,6.23,0,0,1,.7-3.33,2.59,2.59,0,0,1,4.24.05A6.13,6.13,0,0,1,408.57,265.71Zm-4.69,0a6.33,6.33,0,0,0,.44,2.72,1.58,1.58,0,0,0,2.81,0,8.57,8.57,0,0,0,0-5.42,1.58,1.58,0,0,0-2.81,0A6.27,6.27,0,0,0,403.88,265.71Z" fill="#546e7a"/><line x1="397.75" y1="259" x2="397.75" y2="253" fill="none" stroke="#cfd8dc" stroke-miterlimit="10"/><path d="M617.1,270h-5.63v-.84l2.25-2.27a15.42,15.42,0,0,0,1.36-1.48,3.93,3.93,0,0,0,.5-.87,2.45,2.45,0,0,0,.16-.91,1.44,1.44,0,0,0-.42-1.09,1.61,1.61,0,0,0-1.15-.4,2.83,2.83,0,0,0-1,.18,4,4,0,0,0-1.06.64l-.52-.67a4,4,0,0,1,2.58-1,2.74,2.74,0,0,1,1.89.62,2.11,2.11,0,0,1,.69,1.66,3.26,3.26,0,0,1-.46,1.61,10.91,10.91,0,0,1-1.71,2l-1.88,1.83v.05h4.41Z" fill="#546e7a"/><path d="M624,265.71a6.3,6.3,0,0,1-.7,3.31,2.59,2.59,0,0,1-4.25,0,6.15,6.15,0,0,1-.72-3.29,6.23,6.23,0,0,1,.7-3.33,2.59,2.59,0,0,1,4.24.05A6,6,0,0,1,624,265.71Zm-4.68,0a6.18,6.18,0,0,0,.44,2.72,1.46,1.46,0,0,0,1.4.85,1.49,1.49,0,0,0,1.41-.86,8.75,8.75,0,0,0,0-5.42,1.49,1.49,0,0,0-1.41-.86,1.46,1.46,0,0,0-1.4.85A6.12,6.12,0,0,0,619.33,265.71Z" fill="#546e7a"/><path d="M628.79,270h-.94v-6.11c0-.5,0-1,0-1.44a3.38,3.38,0,0,1-.27.26l-1.4,1.14-.51-.66,2.26-1.76h.82Z" fill="#546e7a"/><path d="M637.73,265.71A6.2,6.2,0,0,1,637,269a2.58,2.58,0,0,1-4.24,0,6.06,6.06,0,0,1-.73-3.29,6.33,6.33,0,0,1,.7-3.33,2.6,2.6,0,0,1,4.25.05A6.14,6.14,0,0,1,637.73,265.71Zm-4.68,0a6.33,6.33,0,0,0,.44,2.72,1.58,1.58,0,0,0,2.81,0,8.75,8.75,0,0,0,0-5.42,1.58,1.58,0,0,0-2.81,0A6.27,6.27,0,0,0,633.05,265.71Z" fill="#546e7a"/><line x1="627.75" y1="259" x2="627.75" y2="253" fill="none" stroke="#cfd8dc" stroke-miterlimit="10"/><path d="M846.26,270h-5.63v-.84l2.26-2.27a16.94,16.94,0,0,0,1.36-1.48,3.87,3.87,0,0,0,.49-.87,2.45,2.45,0,0,0,.16-.91,1.47,1.47,0,0,0-.41-1.09,1.63,1.63,0,0,0-1.16-.4,2.87,2.87,0,0,0-1,.18,4,4,0,0,0-1.06.64l-.52-.67a4,4,0,0,1,2.58-1,2.71,2.71,0,0,1,1.89.62,2.11,2.11,0,0,1,.69,1.66,3.16,3.16,0,0,1-.46,1.61,10.16,10.16,0,0,1-1.71,2l-1.87,1.83v.05h4.4Z" fill="#546e7a"/><path d="M853.17,265.71a6.2,6.2,0,0,1-.7,3.31,2.58,2.58,0,0,1-4.24,0,6.15,6.15,0,0,1-.73-3.29,6.33,6.33,0,0,1,.7-3.33,2.6,2.6,0,0,1,4.25.05A6.14,6.14,0,0,1,853.17,265.71Zm-4.68,0a6.33,6.33,0,0,0,.44,2.72,1.58,1.58,0,0,0,2.81,0,8.75,8.75,0,0,0,0-5.42,1.58,1.58,0,0,0-2.81,0A6.27,6.27,0,0,0,848.49,265.71Z" fill="#546e7a"/><path d="M860,270h-5.64v-.84l2.26-2.27a16.94,16.94,0,0,0,1.36-1.48,3.87,3.87,0,0,0,.49-.87,2.46,2.46,0,0,0,.17-.91,1.44,1.44,0,0,0-.42-1.09,1.62,1.62,0,0,0-1.15-.4,2.88,2.88,0,0,0-1,.18A4.19,4.19,0,0,0,855,263l-.51-.67a3.94,3.94,0,0,1,2.57-1,2.75,2.75,0,0,1,1.9.62,2.13,2.13,0,0,1,.68,1.66,3.25,3.25,0,0,1-.45,1.61,10.65,10.65,0,0,1-1.72,2l-1.87,1.83v.05H860Z" fill="#546e7a"/><path d="M866.89,265.71a6.2,6.2,0,0,1-.7,3.31,2.58,2.58,0,0,1-4.24,0,6.15,6.15,0,0,1-.72-3.29,6.34,6.34,0,0,1,.69-3.33,2.6,2.6,0,0,1,4.25.05A6.14,6.14,0,0,1,866.89,265.71Zm-4.68,0a6.33,6.33,0,0,0,.44,2.72,1.58,1.58,0,0,0,2.81,0,8.57,8.57,0,0,0,0-5.42,1.58,1.58,0,0,0-2.81,0A6.27,6.27,0,0,0,862.21,265.71Z" fill="#546e7a"/><line x1="855.75" y1="259" x2="855.75" y2="253" fill="none" stroke="#cfd8dc" stroke-miterlimit="10"/><rect x="345.35" y="307.7" width="12.55" height="12.55" fill="#004d40"/><path d="M450.87,317.49v-8.56h1v8.56Z" fill="#546e7a"/><path d="M458.46,317.49v-4.15a1.64,1.64,0,0,0-.36-1.17,1.45,1.45,0,0,0-1.12-.39,1.84,1.84,0,0,0-1.47.54,2.73,2.73,0,0,0-.47,1.8v3.37h-1v-6.42h.79l.16.88h0a2,2,0,0,1,.84-.74,2.78,2.78,0,0,1,1.2-.26,2.47,2.47,0,0,1,1.75.56,2.39,2.39,0,0,1,.58,1.79v4.19Z" fill="#546e7a"/><path d="M465.38,317.49l-.19-.91h-.05a2.81,2.81,0,0,1-1,.82,3,3,0,0,1-1.19.21,2.14,2.14,0,0,1-1.5-.49,1.81,1.81,0,0,1-.54-1.4c0-1.3,1-2,3.11-2l1.09,0v-.4a1.65,1.65,0,0,0-.32-1.11,1.35,1.35,0,0,0-1-.36,4.22,4.22,0,0,0-1.82.49l-.3-.74a4.34,4.34,0,0,1,1-.41,4.46,4.46,0,0,1,1.14-.15,2.45,2.45,0,0,1,1.7.51,2.14,2.14,0,0,1,.55,1.64v4.38Zm-2.2-.68a2,2,0,0,0,1.43-.5,1.83,1.83,0,0,0,.52-1.4v-.58l-1,.05a3.38,3.38,0,0,0-1.68.36,1.08,1.08,0,0,0-.51,1,1,1,0,0,0,.32.8A1.34,1.34,0,0,0,463.18,316.81Z" fill="#546e7a"/><path d="M470.67,317.61a2.75,2.75,0,0,1-2.16-.86,3.52,3.52,0,0,1-.76-2.43,3.69,3.69,0,0,1,.77-2.49,2.83,2.83,0,0,1,2.22-.88,4.88,4.88,0,0,1,.92.1,3.27,3.27,0,0,1,.73.24l-.3.82a6.41,6.41,0,0,0-.7-.21,3,3,0,0,0-.68-.09c-1.3,0-1.95.84-1.95,2.5a3,3,0,0,0,.47,1.82,1.67,1.67,0,0,0,1.42.63,4.32,4.32,0,0,0,1.64-.35v.87A3.54,3.54,0,0,1,470.67,317.61Z" fill="#546e7a"/><path d="M475.89,316.81a4,4,0,0,0,.5,0,3.43,3.43,0,0,0,.38-.08v.74a1.62,1.62,0,0,1-.46.13,4,4,0,0,1-.56.05c-1.24,0-1.86-.65-1.86-2v-3.82H473v-.47l.92-.41.41-1.37h.56v1.49h1.86v.76h-1.86v3.78a1.28,1.28,0,0,0,.28.89A1,1,0,0,0,475.89,316.81Z" fill="#546e7a"/><path d="M478,309.33a.65.65,0,0,1,.17-.49.58.58,0,0,1,.41-.15.59.59,0,0,1,.4.15.79.79,0,0,1,0,1,.55.55,0,0,1-.4.16.54.54,0,0,1-.41-.16A.66.66,0,0,1,478,309.33Zm1.06,8.16h-1v-6.42h1Z" fill="#546e7a"/><path d="M482.5,317.49l-2.44-6.42h1l1.38,3.81a15.24,15.24,0,0,1,.55,1.73h.05a12.78,12.78,0,0,1,.41-1.28c.23-.65.74-2.07,1.54-4.26h1l-2.44,6.42Z" fill="#546e7a"/><path d="M489.81,317.61a2.93,2.93,0,0,1-2.24-.87,3.36,3.36,0,0,1-.83-2.41,3.72,3.72,0,0,1,.77-2.46,2.53,2.53,0,0,1,2.05-.92,2.42,2.42,0,0,1,1.91.8,3,3,0,0,1,.71,2.09v.62h-4.43a2.54,2.54,0,0,0,.57,1.71,2,2,0,0,0,1.53.59,5.17,5.17,0,0,0,2-.43v.86a4.65,4.65,0,0,1-1,.32A5,5,0,0,1,489.81,317.61Zm-.26-5.84a1.58,1.58,0,0,0-1.23.5,2.35,2.35,0,0,0-.55,1.4h3.36a2.08,2.08,0,0,0-.41-1.41A1.42,1.42,0,0,0,489.55,311.77Z" fill="#546e7a"/><rect x="429.41" y="307.7" width="12.55" height="12.55" fill="#81c784"/><path d="M553.24,308.93v5.54a3,3,0,0,1-.88,2.3,3.4,3.4,0,0,1-2.44.84,3.24,3.24,0,0,1-2.39-.84,3.17,3.17,0,0,1-.85-2.32v-5.52h1v5.59a2.19,2.19,0,0,0,.59,1.64,2.37,2.37,0,0,0,1.72.58,2.3,2.3,0,0,0,1.67-.58,2.24,2.24,0,0,0,.58-1.66v-5.57Z" fill="#546e7a"/><path d="M559.76,317.49v-4.15a1.64,1.64,0,0,0-.36-1.17,1.45,1.45,0,0,0-1.12-.39,1.88,1.88,0,0,0-1.48.54,2.79,2.79,0,0,0-.47,1.8v3.37h-1v-6.42h.79l.16.88h.05a2,2,0,0,1,.84-.74,2.75,2.75,0,0,1,1.2-.26,2.44,2.44,0,0,1,1.74.56,2.4,2.4,0,0,1,.59,1.79v4.19Z" fill="#546e7a"/><path d="M563.69,314.21a9.57,9.57,0,0,1,.77-.94l2.07-2.2h1.15l-2.6,2.74,2.79,3.68h-1.18l-2.27-3-.73.63v2.4h-1v-9.11h1v4.83c0,.21,0,.55-.05,1Z" fill="#546e7a"/><path d="M573.42,317.49v-4.15a1.64,1.64,0,0,0-.36-1.17,1.45,1.45,0,0,0-1.12-.39,1.84,1.84,0,0,0-1.47.54,2.73,2.73,0,0,0-.47,1.8v3.37h-1v-6.42h.79l.15.88h0a2,2,0,0,1,.84-.74,2.78,2.78,0,0,1,1.2-.26,2.47,2.47,0,0,1,1.75.56,2.39,2.39,0,0,1,.58,1.79v4.19Z" fill="#546e7a"/><path d="M581.93,314.28a3.54,3.54,0,0,1-.79,2.45,2.75,2.75,0,0,1-2.18.88,3,3,0,0,1-1.53-.4,2.62,2.62,0,0,1-1-1.17,3.9,3.9,0,0,1-.37-1.76,3.51,3.51,0,0,1,.79-2.45A2.79,2.79,0,0,1,579,311a2.71,2.71,0,0,1,2.14.9A3.54,3.54,0,0,1,581.93,314.28Zm-4.89,0a3.09,3.09,0,0,0,.49,1.87,2,2,0,0,0,2.9,0,3,3,0,0,0,.5-1.87,3,3,0,0,0-.5-1.86,1.73,1.73,0,0,0-1.46-.64,1.7,1.7,0,0,0-1.44.63A3,3,0,0,0,577,314.28Z" fill="#546e7a"/><path d="M588.88,317.49l-1.17-3.77c-.08-.23-.22-.75-.42-1.57h0c-.15.69-.29,1.22-.41,1.59l-1.21,3.75h-1.13l-1.75-6.42h1c.42,1.61.73,2.84,1,3.69a16.08,16.08,0,0,1,.37,1.7h0c0-.22.11-.51.2-.86s.18-.64.25-.84l1.18-3.69h1.06l1.14,3.69a12.43,12.43,0,0,1,.45,1.69h.05a4.44,4.44,0,0,1,.12-.65c.07-.29.48-1.87,1.22-4.73h1L590,317.49Z" fill="#546e7a"/><path d="M597.37,317.49v-4.15a1.64,1.64,0,0,0-.36-1.17,1.45,1.45,0,0,0-1.12-.39,1.88,1.88,0,0,0-1.48.54,2.8,2.8,0,0,0-.46,1.8v3.37h-1v-6.42h.79l.16.88H594a2,2,0,0,1,.84-.74A2.78,2.78,0,0,1,596,311a2.44,2.44,0,0,1,1.74.56,2.4,2.4,0,0,1,.59,1.79v4.19Z" fill="#546e7a"/><rect x="525.32" y="307.7" width="12.55" height="12.55" fill="#009688"/><path d="M110,252.78H564.09s3.43-36.36,7.71-62.8c17.11-16.53,5,62.8,37.75,62.8h44.54S666.92,98.62,674.39,74.3c6.4-20.82,12-31.74,15.61-19.4s11.36,165.93,24.09,179.15,28.18,19.39,35.46,0,10-209.77,21.81-216.82,7.28,3.08,12.28,9.69,13.91,225.86,22.63,225.86H950" fill="#81c784"/><path d="M110,252.78H654.09s87.27,2.53,96.82-9.48C758.18,223.91,759.55,130,771.36,123s7.28,3.09,12.28,9.7,13.91,120.09,22.63,120.09H950" fill="#004d40"/><path d="M110,252.78H564.09s3.43-36.36,7.71-62.8c17.11-16.53,5,62.8,37.75,62.8h44.54S666.92,98.62,674.39,74.3c6.4-20.82,12-31.74,15.61-19.4s11.36,165.93,24.09,179.15,28.18,19.39,35.46,0,10-209.77,21.81-216.82,7.28,3.08,12.28,9.69,13.91,225.86,22.63,225.86H950" fill="none" stroke="#009688" stroke-miterlimit="10"/></svg>