<svg xmlns="http://www.w3.org/2000/svg" viewBox="0 0 350 256"><title>Logi_Widget3</title><path d="M295.56,221.72h-1.11V214.6c0-.59,0-1.15.05-1.68a3.13,3.13,0,0,1-.32.3c-.12.11-.66.55-1.62,1.33l-.6-.78,2.64-2h1Z" fill="#455a64"/><path d="M306,216.71a7.34,7.34,0,0,1-.81,3.87,2.78,2.78,0,0,1-2.5,1.28,2.73,2.73,0,0,1-2.46-1.31,9.37,9.37,0,0,1,0-7.71,2.72,2.72,0,0,1,2.48-1.27,2.75,2.75,0,0,1,2.47,1.32A7.17,7.17,0,0,1,306,216.71Zm-5.46,0a7.35,7.35,0,0,0,.51,3.18,1.85,1.85,0,0,0,3.28,0,7.42,7.42,0,0,0,.51-3.17,7.32,7.32,0,0,0-.51-3.15,1.85,1.85,0,0,0-3.28,0A7.25,7.25,0,0,0,300.52,216.71Z" fill="#455a64"/><path d="M314,216.71a7.33,7.33,0,0,1-.82,3.87,2.76,2.76,0,0,1-2.5,1.28,2.72,2.72,0,0,1-2.45-1.31,7.15,7.15,0,0,1-.84-3.84,7.29,7.29,0,0,1,.81-3.87,3,3,0,0,1,4.95,0A7.07,7.07,0,0,1,314,216.71Zm-5.46,0a7.35,7.35,0,0,0,.51,3.18,1.85,1.85,0,0,0,3.28,0,7.42,7.42,0,0,0,.51-3.17,7.32,7.32,0,0,0-.51-3.15,1.85,1.85,0,0,0-3.28,0A7.25,7.25,0,0,0,308.53,216.71Z" fill="#455a64"/><path d="M319.47,214.71a4.42,4.42,0,0,1-.52,2.36,1.72,1.72,0,0,1-1.54.79,1.66,1.66,0,0,1-1.48-.81,4.22,4.22,0,0,1-.53-2.34,4.47,4.47,0,0,1,.5-2.34,1.69,1.69,0,0,1,1.51-.78,1.73,1.73,0,0,1,1.53.81A4.24,4.24,0,0,1,319.47,214.71Zm-3.13,0a4.5,4.5,0,0,0,.25,1.74.86.86,0,0,0,.82.59c.75,0,1.12-.78,1.12-2.33s-.37-2.31-1.12-2.31a.85.85,0,0,0-.82.57A4.57,4.57,0,0,0,316.34,214.71Zm7.39-3-5.55,10h-1l5.54-10Zm1.76,7a4.27,4.27,0,0,1-.52,2.34,1.71,1.71,0,0,1-1.54.8,1.68,1.68,0,0,1-1.49-.81,5.55,5.55,0,0,1,0-4.67,1.67,1.67,0,0,1,1.5-.79,1.73,1.73,0,0,1,1.52.81A4.14,4.14,0,0,1,325.49,218.72Zm-3.14,0a4.47,4.47,0,0,0,.26,1.74.85.85,0,0,0,.82.58.89.89,0,0,0,.85-.57,5.58,5.58,0,0,0,0-3.49.89.89,0,0,0-.85-.56.85.85,0,0,0-.82.56A4.47,4.47,0,0,0,322.35,218.72Z" fill="#455a64"/><path d="M47.64,216.71a7.34,7.34,0,0,1-.81,3.87,2.78,2.78,0,0,1-2.5,1.28,2.73,2.73,0,0,1-2.45-1.31,7.05,7.05,0,0,1-.85-3.84,7.19,7.19,0,0,1,.82-3.87,3,3,0,0,1,4.95,0A7.17,7.17,0,0,1,47.64,216.71Zm-5.46,0a7.18,7.18,0,0,0,.52,3.18,1.84,1.84,0,0,0,3.27,0,7.42,7.42,0,0,0,.51-3.17,7.32,7.32,0,0,0-.51-3.15,1.84,1.84,0,0,0-3.27,0A7.08,7.08,0,0,0,42.18,216.71Z" fill="#455a64"/><path d="M53.13,214.71a4.34,4.34,0,0,1-.53,2.36,1.72,1.72,0,0,1-1.53.79,1.69,1.69,0,0,1-1.49-.81,4.31,4.31,0,0,1-.53-2.34,4.37,4.37,0,0,1,.51-2.34,1.68,1.68,0,0,1,1.51-.78,1.71,1.71,0,0,1,1.52.81A4.15,4.15,0,0,1,53.13,214.71Zm-3.13,0a4.5,4.5,0,0,0,.25,1.74.85.85,0,0,0,.82.58c.75,0,1.12-.77,1.12-2.32s-.37-2.31-1.12-2.31a.85.85,0,0,0-.82.57A4.57,4.57,0,0,0,50,214.71Zm7.39-3-5.55,10h-1l5.54-10Zm1.76,7a4.36,4.36,0,0,1-.52,2.34,1.71,1.71,0,0,1-1.54.8,1.67,1.67,0,0,1-1.49-.81,4.3,4.3,0,0,1-.52-2.33,4.42,4.42,0,0,1,.5-2.34,1.68,1.68,0,0,1,1.51-.79,1.74,1.74,0,0,1,1.52.81A4.12,4.12,0,0,1,59.15,218.72Zm-3.14,0a4.71,4.71,0,0,0,.25,1.74.86.86,0,0,0,.83.58.9.9,0,0,0,.85-.57,5.77,5.77,0,0,0,0-3.49.9.9,0,0,0-.85-.56.87.87,0,0,0-.83.56A4.71,4.71,0,0,0,56,218.72Z" fill="#455a64"/><path d="M168.76,195.07a2.28,2.28,0,0,1-.54,1.56,2.58,2.58,0,0,1-1.52.81v.06a2.89,2.89,0,0,1,1.79.76,2.31,2.31,0,0,1,.58,1.62,2.64,2.64,0,0,1-1,2.2,4.53,4.53,0,0,1-2.82.77,7.24,7.24,0,0,1-1.45-.13,4.55,4.55,0,0,1-1.28-.41v-1.09a6.54,6.54,0,0,0,2.77.66c1.73,0,2.59-.68,2.59-2S166.94,198,165,198h-1v-1h1a3,3,0,0,0,1.85-.52,1.68,1.68,0,0,0,.68-1.43,1.4,1.4,0,0,0-.5-1.15,2,2,0,0,0-1.36-.42,4.18,4.18,0,0,0-1.24.18,5.62,5.62,0,0,0-1.33.66l-.57-.77a4.71,4.71,0,0,1,1.42-.76,5,5,0,0,1,1.69-.28,3.41,3.41,0,0,1,2.26.67A2.23,2.23,0,0,1,168.76,195.07Z" fill="#455a64"/><path d="M177.2,197.7a7.38,7.38,0,0,1-.82,3.87,2.78,2.78,0,0,1-2.5,1.28,2.73,2.73,0,0,1-2.45-1.31,7.19,7.19,0,0,1-.85-3.84,7.32,7.32,0,0,1,.82-3.88,3,3,0,0,1,4.95.06A7.14,7.14,0,0,1,177.2,197.7Zm-5.47,0a7.15,7.15,0,0,0,.52,3.17,1.83,1.83,0,0,0,3.27,0,10,10,0,0,0,0-6.32,1.84,1.84,0,0,0-3.27,0A7.13,7.13,0,0,0,171.73,197.7Z" fill="#455a64"/><path d="M182.68,195.69a4.42,4.42,0,0,1-.52,2.36,1.74,1.74,0,0,1-1.54.8,1.7,1.7,0,0,1-1.49-.82,5.5,5.5,0,0,1,0-4.67,1.68,1.68,0,0,1,1.51-.79,1.71,1.71,0,0,1,1.52.81A4.2,4.2,0,0,1,182.68,195.69Zm-3.13,0a4.6,4.6,0,0,0,.25,1.75.86.86,0,0,0,.82.58c.75,0,1.12-.78,1.12-2.33s-.37-2.31-1.12-2.31a.86.86,0,0,0-.82.58A4.48,4.48,0,0,0,179.55,195.69Zm7.39-3-5.55,10h-1l5.54-10Zm1.76,7a4.31,4.31,0,0,1-.52,2.35,1.73,1.73,0,0,1-1.54.8,1.69,1.69,0,0,1-1.49-.82,4.3,4.3,0,0,1-.52-2.33,4.37,4.37,0,0,1,.51-2.34,1.67,1.67,0,0,1,1.5-.78,1.73,1.73,0,0,1,1.52.8A4.17,4.17,0,0,1,188.7,199.7Zm-3.14,0a4.56,4.56,0,0,0,.26,1.75.84.84,0,0,0,.82.57.89.89,0,0,0,.85-.57,4.28,4.28,0,0,0,.27-1.75,4.18,4.18,0,0,0-.27-1.73.89.89,0,0,0-.85-.57.84.84,0,0,0-.82.57A4.38,4.38,0,0,0,185.56,199.7Z" fill="#455a64"/><path d="M112.43,152.66l-.6.76Z" fill="none"/><path d="M122.93,141.7l-.18.16Z" fill="none"/><path d="M117.41,147l-.39.41Z" fill="none"/><path d="M129,136.94l0,0Z" fill="none"/><path d="M110.56,155.1l-.54.76Z" fill="none"/><path d="M104.22,165.26c-.29.56-.58,1.12-.86,1.69C103.64,166.38,103.93,165.82,104.22,165.26Z" fill="none"/><path d="M102.69,168.31c-.43.91-.84,1.83-1.24,2.76C101.85,170.14,102.26,169.22,102.69,168.31Z" fill="none"/><path d="M106.32,161.5c-.38.65-.76,1.3-1.12,2C105.56,162.8,105.94,162.15,106.32,161.5Z" fill="none"/><path d="M108,158.77l-.77,1.2Z" fill="none"/><path d="M153,125.3c.6-.17,1.19-.35,1.8-.51C154.2,125,153.61,125.13,153,125.3Z" fill="none"/><path d="M149.19,126.52l1.05-.35Z" fill="none"/><path d="M101,172.11c-.3.73-.59,1.46-.86,2.2C100.43,173.57,100.72,172.84,101,172.11Z" fill="none"/><path d="M142.27,129.29l.32-.14Z" fill="none"/><path d="M156.42,124.38l2-.46Z" fill="none"/><path d="M159.72,123.64c1-.21,2.06-.39,3.1-.56C161.78,123.25,160.75,123.43,159.72,123.64Z" fill="none"/><path d="M167.51,122.46c1.17-.11,2.35-.2,3.54-.26C169.86,122.26,168.68,122.35,167.51,122.46Z" fill="none"/><path d="M172,122.15c1.21-.06,2.44-.09,3.67-.09C174.42,122.06,173.19,122.09,172,122.15Z" fill="none"/><polygon points="135.59 132.72 135.59 132.72 135.59 132.72 135.59 132.72" fill="none"/><path d="M164,122.9c1-.14,2-.27,3-.37C166,122.63,165,122.76,164,122.9Z" fill="none"/><path d="M98.46,179.3c-.27.89-.52,1.78-.76,2.68C97.94,181.08,98.19,180.19,98.46,179.3Z" fill="none"/><path d="M96.57,186.82c-.2,1-.39,2.06-.55,3.1C96.18,188.88,96.37,187.84,96.57,186.82Z" fill="none"/><path d="M95.4,194.63c-.11,1.14-.19,2.29-.26,3.45C95.21,196.92,95.29,195.77,95.4,194.63Z" fill="none"/><path d="M97.43,183c-.28,1.1-.54,2.21-.77,3.33C96.89,185.24,97.15,184.13,97.43,183Z" fill="none"/><path d="M95,202.71c0-1.24,0-2.47.09-3.69C95,200.24,95,201.47,95,202.71Z" fill="none"/><path d="M95.87,190.88c-.17,1.18-.33,2.35-.45,3.54C95.54,193.23,95.7,192.06,95.87,190.88Z" fill="none"/><path d="M99.72,175.5c-.37,1-.72,2-1,3.06C99,177.53,99.35,176.51,99.72,175.5Z" fill="none"/><path d="M95.14,198.08c.07-1.16.15-2.31.26-3.45,0-.07,0-.14,0-.21.12-1.19.28-2.36.45-3.54l.15-1c.16-1,.35-2.08.55-3.1l.09-.46c.23-1.12.49-2.23.77-3.33L97.7,182c.24-.9.49-1.79.76-2.68.08-.24.14-.49.22-.74.32-1,.67-2.05,1-3.06.14-.4.29-.8.44-1.19.27-.74.56-1.47.86-2.2.15-.35.28-.7.43-1,.4-.93.81-1.85,1.24-2.76.22-.45.44-.91.67-1.36s.57-1.13.86-1.69.65-1.21,1-1.8.74-1.31,1.12-2,.62-1,.94-1.53l.77-1.2c.65-1,1.31-2,2-2.91l.54-.76c.42-.57.84-1.13,1.27-1.68l.6-.76c1.46-1.84,3-3.6,4.59-5.3l.39-.41q2.55-2.67,5.34-5.09l.18-.16q2.91-2.5,6-4.74l0,0q3.18-2.26,6.59-4.22h0l-58.26-70a170.85,170.85,0,0,0-72.74,140H95c0-1.24,0-2.47.09-3.69C95.11,198.7,95.12,198.39,95.14,198.08Z" fill="#004d40"/><path d="M95.42,194.42c0,.07,0,.14,0,.21S95.41,194.49,95.42,194.42Z" fill="#607d8b"/><path d="M135.59,132.72q-3.41,2-6.59,4.22Q132.18,134.68,135.59,132.72Z" fill="#607d8b"/><path d="M103.36,167c-.23.45-.45.91-.67,1.36C102.91,167.86,103.13,167.4,103.36,167Z" fill="#607d8b"/><path d="M117.41,147q2.55-2.67,5.34-5.09Q120,144.27,117.41,147Z" fill="#607d8b"/><path d="M100.16,174.31c-.15.39-.3.79-.44,1.19C99.86,175.1,100,174.7,100.16,174.31Z" fill="#607d8b"/><path d="M107.26,160c-.32.51-.63,1-.94,1.53C106.63,161,106.94,160.48,107.26,160Z" fill="#607d8b"/><path d="M95.14,198.08c0,.31,0,.62,0,.94C95.11,198.71,95.12,198.39,95.14,198.08Z" fill="#607d8b"/><path d="M129,137q-3.14,2.23-6,4.74Q125.84,139.2,129,137Z" fill="#607d8b"/><path d="M101.45,171.07c-.15.34-.28.69-.43,1C101.17,171.76,101.3,171.41,101.45,171.07Z" fill="#607d8b"/><path d="M111.83,153.42c-.43.55-.85,1.11-1.27,1.68C111,154.53,111.4,154,111.83,153.42Z" fill="#607d8b"/><path d="M98.68,178.56c-.08.25-.14.5-.22.74C98.54,179.06,98.6,178.81,98.68,178.56Z" fill="#607d8b"/><path d="M97.7,182,97.43,183Z" fill="#607d8b"/><path d="M110,155.86c-.68.95-1.34,1.92-2,2.91C108.68,157.78,109.34,156.81,110,155.86Z" fill="#607d8b"/><path d="M96,189.92l-.15,1Z" fill="#607d8b"/><path d="M105.2,163.46c-.33.59-.66,1.19-1,1.8C104.54,164.65,104.86,164.05,105.2,163.46Z" fill="#607d8b"/><path d="M117,147.36c-1.61,1.7-3.13,3.46-4.59,5.3C113.89,150.83,115.41,149.06,117,147.36Z" fill="#607d8b"/><path d="M96.66,186.36l-.09.46Z" fill="#607d8b"/><path d="M175.65,31.65A170.21,170.21,0,0,0,77.33,62.72l58.26,70h0c2.17-1.24,4.4-2.39,6.68-3.43l.32-.14q3.22-1.45,6.6-2.63l1.05-.35c.92-.31,1.84-.6,2.77-.87.6-.17,1.19-.35,1.8-.51l1.61-.41,2-.46c.43-.09.86-.2,1.29-.28,1-.21,2.06-.39,3.1-.56l1.19-.18c1-.14,2-.27,3-.37l.53-.07c1.17-.11,2.35-.2,3.54-.26l.93,0c1.21-.06,2.44-.09,3.67-.09a80.65,80.65,0,0,1,80.65,80.65h90.41A171.05,171.05,0,0,0,175.65,31.65Z" fill="#81c784"/><path d="M150.24,126.17c.91-.31,1.84-.6,2.77-.87C152.08,125.57,151.16,125.86,150.24,126.17Z" fill="#cfd8dc"/><path d="M142.59,129.15q3.22-1.45,6.6-2.63Q145.82,127.69,142.59,129.15Z" fill="#cfd8dc"/><path d="M135.59,132.72c2.17-1.24,4.4-2.39,6.68-3.43C140,130.33,137.76,131.48,135.59,132.72Z" fill="#cfd8dc"/><path d="M167,122.53l.53-.07Z" fill="#cfd8dc"/><path d="M154.81,124.79l1.61-.41Z" fill="#cfd8dc"/><path d="M171.05,122.2l.93,0Z" fill="#cfd8dc"/><path d="M162.82,123.08l1.19-.18Z" fill="#cfd8dc"/><path d="M158.43,123.92c.43-.1.86-.2,1.29-.28C159.29,123.72,158.86,123.83,158.43,123.92Z" fill="#cfd8dc"/></svg>