<?xml version="1.0" encoding="utf-8"?>
<!-- Generated by IcoMoon.io -->
<!DOCTYPE svg PUBLIC "-//W3C//DTD SVG 1.1//EN" "http://www.w3.org/Graphics/SVG/1.1/DTD/svg11.dtd">
<svg version="1.1" xmlns="http://www.w3.org/2000/svg" xmlns:xlink="http://www.w3.org/1999/xlink" width="1024" height="1024" viewBox="0 0 1024 1024">
<g id="icomoon-ignore">
</g>
<path fill="#000" d="M511.986 307.206c-113.090 0-204.782 91.69-204.782 204.782s91.69 204.782 204.782 204.782 204.782-91.662 204.782-204.782-91.69-204.782-204.782-204.782zM543.66 615.95h-45.844v-160.626h-0.624l-38.668 18.412-7.802-35.548 53.646-24.938h39.29v202.702zM16.746 183.298v657.376h990.484v-657.376h-990.484zM945.862 662.054c-63.71 0-115.198 51.746-115.198 115.456 0 1.822 0.26 3.38 0.26 4.94h-641.254c0-1.558 0.522-3.12 0.522-4.94 0-63.71-51.748-115.456-115.456-115.456-0.26 0-0.782 0.26-1.040 0.26l1.040-302.424c31.984 0 60.588-13.002 81.652-33.804 20.802-20.804 33.806-49.926 33.806-81.652 0-0.26 0-0.78 0-1.040l640.472 2.342c0.522 63.188 52.006 114.158 115.198 114.158 1.3 0 2.342-0.26 3.642-0.26l1.040 302.944c-1.558 0-3.12-0.522-4.682-0.522z"></path>
</svg>
