<?xml version="1.0" encoding="utf-8"?>
<!-- Generated by IcoMoon.io -->
<!DOCTYPE svg PUBLIC "-//W3C//DTD SVG 1.1//EN" "http://www.w3.org/Graphics/SVG/1.1/DTD/svg11.dtd">
<svg version="1.1" xmlns="http://www.w3.org/2000/svg" xmlns:xlink="http://www.w3.org/1999/xlink" width="1024" height="1024" viewBox="0 0 1024 1024">
<g id="icomoon-ignore">
</g>
<path fill="#000" d="M431.168 19.266c-39.124 0-71.222 31.584-71.222 70.686-0.022 39.124 32.096 70.686 71.222 70.686 39.124 0 70.686-31.562 70.686-70.686 0-39.102-31.562-70.686-70.686-70.686zM431.168 59.442c16.778 0 29.998 13.734 29.998 30.532s-13.22 30.532-29.998 30.532c-16.798 0-30.532-13.734-30.532-30.532s13.734-30.532 30.532-30.532zM598.274 109.794c-56.246 0-101.754 45.532-101.754 101.754 0 56.246 45.532 101.754 101.754 101.754 56.246 0 101.754-45.532 101.754-101.754 0-56.246-45.532-101.754-101.754-101.754zM598.274 160.124c28.432 0 51.424 22.99 51.424 51.424s-22.99 51.424-51.424 51.424c-28.432 0-51.424-22.99-51.424-51.424 0-28.432 22.99-51.424 51.424-51.424zM396.886 190.656c-39.124 0-71.222 31.584-71.222 70.686-0.022 39.124 32.096 70.686 71.222 70.686 39.124 0 70.686-31.562 70.686-70.686 0.022-39.102-31.562-70.686-70.686-70.686zM396.886 232.974c15.642 0 28.392 12.75 28.392 28.392 0 15.664-12.75 28.392-28.392 28.392-15.664 0-28.392-12.728-28.392-28.392s12.75-28.39 28.392-28.39zM384.758 353.476v223.862l-217.092 427.394h685.54l-217.092-427.394v-223.864h-251.354zM441.88 410.598h137.11v180.668l104.966 207.794h-347.046l104.966-207.794v-180.668z"></path>
</svg>
