<?xml version="1.0" encoding="utf-8"?>
<!-- Generated by IcoMoon.io -->
<!DOCTYPE svg PUBLIC "-//W3C//DTD SVG 1.1//EN" "http://www.w3.org/Graphics/SVG/1.1/DTD/svg11.dtd">
<svg version="1.1" xmlns="http://www.w3.org/2000/svg" xmlns:xlink="http://www.w3.org/1999/xlink" width="1024" height="1024" viewBox="0 0 1024 1024">
<g id="icomoon-ignore">
</g>
<path fill="#333" d="M225.854 22.918v63.11h-220.894v915.052h1009.728v-915.052h-236.662v-63.11h-110.418v63.11h-331.31v-63.11h-110.448zM68.1 149.134h157.754v47.34h110.448v-47.34h331.31v47.34h110.448v-47.34h173.552v788.836h-883.514v-788.836zM336.298 291.122v141.986h141.986v-141.986h-141.986zM525.626 291.122v141.986h141.986v-141.986h-141.986zM714.95 291.122v141.986h141.986v-141.986h-141.986zM146.978 496.214v141.988h141.986v-141.986h-141.986zM336.298 496.214v141.988h141.986v-141.986h-141.986zM525.626 496.214v141.988h141.986v-141.986h-141.986zM714.95 496.214v141.988h141.986v-141.986h-141.986zM146.978 701.31v141.986h141.986v-141.986h-141.986zM336.298 701.31v141.986h141.986v-141.986h-141.986zM525.626 701.31v141.986h141.986v-141.986h-141.986z"></path>
</svg>
