<?xml version="1.0" encoding="utf-8"?>
<!-- Generated by IcoMoon.io -->
<!DOCTYPE svg PUBLIC "-//W3C//DTD SVG 1.1//EN" "http://www.w3.org/Graphics/SVG/1.1/DTD/svg11.dtd">
<svg version="1.1" xmlns="http://www.w3.org/2000/svg" xmlns:xlink="http://www.w3.org/1999/xlink" width="1024" height="1024" viewBox="0 0 1024 1024">
<g id="icomoon-ignore">
</g>
<path fill="#777" d="M421.422 665.784l-135.572-135.59-61.228 61.21 196.8 196.798 379.932-379.88-61.246-61.226zM591.616 77.418c-0.742-42.866-35.592-77.418-78.634-77.418s-77.894 34.552-78.634 77.418l-133.806 1.358h-226.442v945.224h875.788v-945.224l-358.27-1.36zM512.98 44.456c19.826 0 35.91 16.066 35.91 35.91 0 19.826-16.084 35.91-35.91 35.91s-35.91-16.084-35.91-35.91c0.018-19.826 16.084-35.91 35.91-35.91zM871.11 945.224h-718.236v-787.69h241.96l-118.146 55.224v39.388h472.62v-39.388l-118.146-55.224h239.982v787.69z"></path>
</svg>
