<?xml version="1.0" encoding="utf-8"?>
<!-- Generated by IcoMoon.io -->
<!DOCTYPE svg PUBLIC "-//W3C//DTD SVG 1.1//EN" "http://www.w3.org/Graphics/SVG/1.1/DTD/svg11.dtd">
<svg version="1.1" xmlns="http://www.w3.org/2000/svg" xmlns:xlink="http://www.w3.org/1999/xlink" width="1132" height="1024" viewBox="0 0 1132 1024">
<g id="icomoon-ignore">
</g>
<path d="M491.942 489.831c0 0 2.111-2.111 2.111-4.223 33.781-35.893 54.895-80.231 54.895-128.792 0-120.346-122.458-217.468-274.474-217.468s-274.474 97.122-274.474 217.468c0 120.346 122.458 217.468 274.474 217.468 40.115 0 78.12-6.334 111.901-19.002 0 0 0 0 2.111 0 16.891 2.111 35.893 0 67.563 27.447 12.668 10.557 21.113 19.002 31.67 19.002 12.668 0 14.779-12.668 14.779-19.002s-4.223-25.336-10.557-42.227c-4.223-16.891-4.223-44.338 0-50.672zM390.598 468.718h-219.579c-61.229 0-27.447-86.565 69.674-105.567v0c0 0 14.779-4.223 2.111-16.891v0c-14.779-12.668-25.336-29.559-25.336-50.672 0-35.893 29.559-63.34 63.34-63.34 35.893 0 63.34 29.559 63.34 63.34 0 19.002-8.445 35.893-21.113 48.561v0c0 0-12.668 14.779-2.111 21.113v0c107.678 19.002 141.46 103.456 69.674 103.456z"></path>
<path d="M844.536 574.285c-38.004 0-73.897 6.334-107.678 19.002v0c-63.34 19.002-86.565-57.006-116.124-38.004-21.113 10.557 6.334 88.676 6.334 99.233 0 4.223-4.223 12.668-10.557 25.336-27.447 35.893-44.338 76.008-44.338 120.346 0 118.235 122.458 223.802 270.252 223.802 149.905 0 280.808-105.567 280.808-223.802 2.111-120.346-128.792-225.913-278.697-225.913zM943.769 905.765h-221.691c-61.229 0-27.447-86.565 69.674-105.567v0c0 0 14.779-4.223 2.111-16.891v0c-14.779-12.668-25.336-29.559-25.336-50.672 0-35.893 29.559-63.34 63.34-63.34 35.893 0 63.34 29.559 63.34 63.34 0 19.002-8.445 35.893-21.113 48.561v0c0 0-12.668 14.779-2.111 21.113v0c107.678 16.891 143.571 103.456 71.786 103.456z"></path>
<path d="M859.315 0c-149.905 0-272.363 97.122-272.363 215.357 0 48.561 21.113 95.010 54.895 130.903 2.111 4.223 6.334 10.557-2.111 40.115-8.445 38.004-14.779 63.34-10.557 67.563s10.557 14.779 73.897-33.781c10.557-10.557 23.225-12.668 33.781-12.668 8.445 4.223 19.002 6.334 29.559 10.557 2.111 0 2.111 2.111 4.223 2.111v0c27.447 8.445 57.006 10.557 88.676 10.557 149.905 0 272.363-97.122 272.363-217.468 0-116.124-122.458-213.245-272.363-213.245zM966.994 293.476h-221.691c-61.229 0-27.447-86.565 69.674-105.567v0c0 0 14.779-4.223 2.111-16.891v0c-14.779-12.668-25.336-29.559-25.336-50.672 0-35.893 29.559-63.34 63.34-63.34 35.893 0 63.34 29.559 63.34 63.34 0 19.002-8.445 35.893-21.113 48.561v0c0 0-12.668 14.779-2.111 21.113v0c107.678 16.891 143.571 103.456 71.786 103.456z"></path>
</svg>
