<?xml version="1.0" encoding="utf-8"?>
<!-- Generated by IcoMoon.io -->
<!DOCTYPE svg PUBLIC "-//W3C//DTD SVG 1.1//EN" "http://www.w3.org/Graphics/SVG/1.1/DTD/svg11.dtd">
<svg version="1.1" xmlns="http://www.w3.org/2000/svg" xmlns:xlink="http://www.w3.org/1999/xlink" width="1024" height="1024" viewBox="0 0 1024 1024">
<g id="icomoon-ignore">
</g>
<path fill="#000" d="M1027.294 582.462v-140.89l-128.818-18.106v4.322c-10.15-46.806-28.55-90.502-53.668-129.5l1.658 1.656 79.706-102.486-99.618-99.618-103.908 78.286 3.076 3.076c-38.996-25.088-82.722-43.52-129.5-53.668h2.308l-16.094-128.818h-140.89l-18.106 128.818h4.322c-46.806 10.15-90.502 28.55-129.5 53.668l1.656-1.658-102.486-79.706-99.618 99.618 78.286 103.908 3.076-3.076c-25.088 38.996-43.522 82.722-53.668 129.5v-2.308l-128.818 16.094v140.89l128.818 18.106v-4.322c10.15 46.806 28.55 90.502 53.668 129.5l-1.658-1.658-79.706 102.486 99.618 99.618 103.908-78.286-3.076-3.076c38.996 25.088 82.724 43.52 129.5 53.668h-2.308l16.094 128.82h140.89l18.106-128.818h-4.322c46.774-10.15 90.502-28.55 129.5-53.668l-1.658 1.658 102.486 79.706 99.618-99.618-78.286-103.908-3.076 3.076c25.088-38.996 43.52-82.722 53.668-129.5v2.308l128.82-16.094zM511.984 640.834c-71.124 0-128.82-57.664-128.82-128.818 0-71.124 57.666-128.818 128.818-128.818s128.818 57.666 128.818 128.818c0 71.154-57.692 128.818-128.818 128.818z"></path>
</svg>
