<?xml version="1.0" encoding="utf-8"?>
<!-- Generated by IcoMoon.io -->
<!DOCTYPE svg PUBLIC "-//W3C//DTD SVG 1.1//EN" "http://www.w3.org/Graphics/SVG/1.1/DTD/svg11.dtd">
<svg version="1.1" xmlns="http://www.w3.org/2000/svg" xmlns:xlink="http://www.w3.org/1999/xlink" width="1024" height="1024" viewBox="0 0 1024 1024">
<g id="icomoon-ignore">
</g>
<path fill="#000" d="M509.944 10.524c-277.226 0-501.492 224.562-501.492 501.492s224.266 501.492 501.492 501.492c276.93 0 501.194-224.562 501.194-501.492 0-276.932-224.266-501.492-501.194-501.492zM553.586 819.274h-102.962v-97.044h102.962v97.044zM664.534 470.742c-20.414 30.178-45.86 57.992-76.926 82.844-15.978 13.904-25.444 26.924-29.586 39.35-4.144 12.426-5.918 30.474-5.918 54.736h-101.478c0.296-39.646 5.326-68.048 14.202-85.212s28.404-38.462 59.172-64.202c21.596-21.008 38.168-40.83 50.888-60.060 12.722-19.23 19.23-40.83 19.23-64.204 0-26.926-6.808-47.34-21.302-62.132-14.496-15.088-35.504-22.782-62.132-22.782-23.076 0-43.194 6.214-59.172 18.932-16.272 12.722-23.668 31.658-23.668 56.214h-97.634l-1.478-2.96c-0.89-49.114 15.68-87.872 49.412-115.386 34.026-27.516 78.702-41.124 132.546-41.124 57.992 0 103.55 14.496 136.098 44.084 32.544 29.884 48.522 71.010 48.522 123.674 0 35.208-10.356 68.048-30.77 98.228z"></path>
</svg>
