<svg id="Layer_1" data-name="Layer 1" xmlns="http://www.w3.org/2000/svg" viewBox="0 0 518.57 445.58"><defs><style>.cls-1,.cls-3,.cls-4,.cls-5{fill:none;}.cls-1,.cls-2{stroke:#666;stroke-width:3px;}.cls-1,.cls-2,.cls-3,.cls-4{stroke-miterlimit:10;}.cls-2{fill:#fff;}.cls-3,.cls-4{stroke:#ccc;stroke-width:5px;}.cls-4{stroke-dasharray:11.83 11.83;}</style></defs><title>address-empty-state</title><path class="cls-1" d="M43.39,520.76" transform="translate(-40.4 -77.69)"/><path class="cls-2" d="M231.72,237.58" transform="translate(-40.4 -77.69)"/><path class="cls-2" d="M389.31,520.76" transform="translate(-40.4 -77.69)"/><path class="cls-2" d="M211.81,520.76" transform="translate(-40.4 -77.69)"/><path class="cls-2" d="M231.72,237.58" transform="translate(-40.4 -77.69)"/><path class="cls-2" d="M367,237.58" transform="translate(-40.4 -77.69)"/><ellipse class="cls-3" cx="260.77" cy="275.44" rx="34.85" ry="18.65"/><ellipse class="cls-3" cx="260.77" cy="274.01" rx="19.56" ry="10.47"/><path class="cls-3" d="M301.17,80.19a74.38,74.38,0,0,0-74.38,74.38c0,74.38,74.38,163.64,74.38,163.64s74.38-89.26,74.38-163.64A74.38,74.38,0,0,0,301.17,80.19Zm0,119a44.63,44.63,0,1,1,44.63-44.63A44.63,44.63,0,0,1,301.17,199.2Z" transform="translate(-40.4 -77.69)"/><line class="cls-3" x1="350.34" y1="443.08" x2="349.87" y2="437.09"/><line class="cls-4" x1="348.94" y1="425.3" x2="328.97" y2="171.77"/><line class="cls-3" x1="328.51" y1="165.87" x2="328.03" y2="159.89"/><line class="cls-3" x1="167.64" y1="443.08" x2="168.11" y2="437.09"/><line class="cls-4" x1="169.04" y1="425.3" x2="189.02" y2="171.77"/><line class="cls-3" x1="189.48" y1="165.87" x2="189.95" y2="159.89"/><path class="cls-5" d="M43.39,520.06" transform="translate(-40.4 -77.69)"/><polyline class="cls-3" points="312.32 159.9 467.09 159.9 515.6 442.37 3 443.07 54.69 159.89 209.23 159.9"/></svg>