<svg xmlns="http://www.w3.org/2000/svg" viewBox="0 0 100 58"><defs><style>.cls-1{fill:none;}.cls-2{fill:#9e9d9e;}</style></defs><title>logo-ezlynx--gray</title><g id="Layer_2" data-name="Layer 2"><g id="ezlynx--gray"><rect class="cls-1" width="100" height="58"/><path class="cls-2" d="M33.11,46.77H44.68l.21-1.38H37.31l2.41-13.71a10.06,10.06,0,0,0,.21-1.93,2,2,0,0,0-.54-1.61,2.71,2.71,0,0,0-1.73-.44H34l-.15.92h.31a1.73,1.73,0,0,1,1.36.44,1.84,1.84,0,0,1,.38,1.24,8.34,8.34,0,0,1-.15,1.38Zm51.37-3.09L82.4,38.84l6.28-6.37H86.63L81.75,37.4l-1-2.48a4.56,4.56,0,0,0-1.24-1.79,3.45,3.45,0,0,0-2.29-.66H74.25l-.09.61a2.63,2.63,0,0,1,1.32.74,5,5,0,0,1,1.1,1.72l2.05,4.93L74.91,44.2c-1.81,1.81-3,1.51-2.74-.05.08-.53,1-6.23,1-6.23,0-.29.08-.43.11-.7a5.73,5.73,0,0,0,0-.7,3.51,3.51,0,0,0-1.26-3,6.07,6.07,0,0,0-3.74-1,8,8,0,0,0-3,.46,6.53,6.53,0,0,0-1.73,1,2.73,2.73,0,0,0-.8-1.08,2.58,2.58,0,0,0-1.59-.47H57.77c-.33,0-.61.51-.72.7l-5.13,9.24-2.28-6.81a4.22,4.22,0,0,0-1.26-2.13,4.08,4.08,0,0,0-2.3-1h-2.7l-.09,1a2.82,2.82,0,0,1,1.49.88,4.3,4.3,0,0,1,.93,1.84L49.2,47.34,48.28,49c-.9,1.47-1.92,2-4.34,1.55l-.21,1a8.81,8.81,0,0,0,3.34,0,5.06,5.06,0,0,0,2.87-2.6c.67-1.21,8.21-14.72,8.31-14.91s.19-.25.43-.25a1.34,1.34,0,0,1,1.05.42,1.78,1.78,0,0,1,.37,1.2,6,6,0,0,1-.15,1.18l-1.7,10.18h4L64,36.33a4.51,4.51,0,0,0,.06-1.5,3.8,3.8,0,0,1,1.22-.61A5.16,5.16,0,0,1,67,34a2.38,2.38,0,0,1,1.69.62,2.77,2.77,0,0,1,.64,2.08,5.63,5.63,0,0,1-.12,1.16l-1.49,8.91h6.15c.57,0,1.22-.69,1.67-1.14,1-1,3.72-3.67,3.72-3.67l1.07,2.36a4.57,4.57,0,0,0,1.24,1.79,3.45,3.45,0,0,0,2.29.66h2.94l.09-.61a2.6,2.6,0,0,1-1.32-.73,5,5,0,0,1-1.1-1.72"/><path class="cls-2" d="M85.82,26c-1.27,0-4.15-2.06-5.42-2.44-.74-.22-8.54-3-9.28-3.23a1.94,1.94,0,0,1-1.36-1.58,1.46,1.46,0,1,1,2.91,0c0,.41,0,.49,2.34-.39.76-.29,1.53.68,2.33.56s1.78-1.41,2.08-1.89.82-.57-.37-1.84c-.86-.92-.54-1.26-1.14-2.21A7,7,0,0,0,76,11.38h0c-.9-.37-1-.45-1-.83.27-1.38-.66-1.83-1-1.64s-1.61,1.28-5.33,1.88c-1.92.31-5.24.28-8.09,1.4-6.16,2.42-16.64-.46-27.12-.46a20.47,20.47,0,0,1-6.87-1.38c-1.3-.63-2.37-1.49-2.68-1.49-.68,0-.8,1.28.55,2.7,1.61,1.7,5.92,2.08,5.46,2.49a7.5,7.5,0,0,0-1.31,1.69,7.83,7.83,0,0,1-5.21,3.55c-1,.12-2.46-.5-2.88.06a14.48,14.48,0,0,1-7.7,6.07c-1.9.73-2.56,2.28-2.36,3.32s2.14.68,2.95.61c1.78-.17,4.22-2.41,4.85-2.89,4-3,3.06-2.8,6-3.06,5.07-.46,9.51.69,13.72-2.26,6.19-4.33,11,2.1,18.32,2.64a26.7,26.7,0,0,0,7.74-.13c.4-.1.47,0,.53,0a6.45,6.45,0,0,0,4.75,1.39c2.06,0,9.91,1.22,12.58,2.54.89.45.84,1.2,1.72,1.45a6.26,6.26,0,0,0,2.26.36c1.48,0,2.8-.74,2.8-2.26,0-.72-.75-1.1-2.89-1.18"/><path class="cls-2" d="M90.75,45.13a.54.54,0,0,0-.09-.7.91.91,0,0,0-.55-.14h-.53v1.82H90v-.7h.2l.44.7H91l-.54-.79a.58.58,0,0,0,.25-.2M90.36,45a.48.48,0,0,1-.27.06H90v-.49h.12a.54.54,0,0,1,.28.05.2.2,0,0,1,.09.18.22.22,0,0,1-.09.19"/><path class="cls-2" d="M90.19,43.6a1.65,1.65,0,1,0,1.65,1.65,1.65,1.65,0,0,0-1.65-1.65m0,3a1.3,1.3,0,1,1,1.3-1.3,1.3,1.3,0,0,1-1.3,1.3"/><path class="cls-2" d="M10.81,46.81h7.93L19,45.43H12.36V39.94h5.87l.24-1.38H12.36V33.85h6.38L19,32.52H10.81Zm10.64-14.3-.26,1.34H29v.07L21.45,45.43l-.26,1.39H31l.23-1.39H23.46v-.06L31,33.85l.23-1.34Z"/></g></g></svg>