<?xml version="1.0" encoding="utf-8"?>
<!-- Generator: Adobe Illustrator 21.1.0, SVG Export Plug-In . SVG Version: 6.00 Build 0)  -->
<svg version="1.1" id="Layer_1" xmlns="http://www.w3.org/2000/svg" xmlns:xlink="http://www.w3.org/1999/xlink" x="0px" y="0px"
	 viewBox="0 0 360 90" style="enable-background:new 0 0 360 90;" xml:space="preserve">
<style type="text/css">
	.st0{fill:#9E9E9E;}
	.st1{fill:none;stroke:#E0E0E0;stroke-miterlimit:10;}
</style>
<title>Asset 1</title>
<g id="Layer_2">
	<g id="Layer_1-2">
		<path class="st0" d="M130.7,69.1c0.1-0.1,0.1-0.3,0.1-0.5c0-0.3-0.1-0.5-0.3-0.7c-0.3-0.2-0.6-0.2-0.9-0.2h-0.8v3h0.6v-1.2h0.3
			l0.7,1.1h0.7l-0.9-1.3C130.4,69.4,130.6,69.3,130.7,69.1 M130,69c-0.1,0.1-0.3,0.1-0.4,0.1h-0.2v-0.8h0.2c0.2,0,0.3,0,0.4,0.1
			c0.1,0.1,0.2,0.2,0.1,0.3C130.2,68.8,130.1,68.9,130,69"/>
		<path class="st0" d="M38.6,71.8h18.5l0.3-2.2H45.3l3.8-22.3c0.2-1,0.3-2.1,0.3-3.1c0.1-1-0.2-1.9-0.9-2.6
			c-0.8-0.6-1.8-0.8-2.8-0.7H40l-0.3,1.5h0.5c0.8-0.1,1.6,0.2,2.2,0.7c0.4,0.6,0.7,1.3,0.6,2c0,0.8-0.1,1.5-0.2,2.2L38.6,71.8z
			 M120.6,66.8l-3.3-7.9l10-10.3H124l-7.8,8l-1.7-4c-0.4-1.1-1.1-2.1-2-2.9c-1.1-0.8-2.4-1.2-3.7-1.1h-4.6l-0.2,1
			c0.8,0.2,1.5,0.6,2.1,1.2c0.8,0.8,1.4,1.7,1.8,2.8l3.3,8l-5.9,6.1c-2.9,2.9-4.8,2.5-4.4-0.1c0.1-0.9,1.7-10.1,1.7-10.1
			c0.1-0.5,0.1-0.7,0.2-1.1c0-0.4,0.1-0.8,0.1-1.1c0-2.3-0.7-3.8-2-4.9s-3.3-1.6-6-1.6c-1.6-0.1-3.2,0.2-4.8,0.8
			c-1,0.4-1.9,0.9-2.7,1.6c-0.3-0.7-0.7-1.3-1.3-1.8c-0.7-0.5-1.6-0.8-2.5-0.8H78c-0.5,0-1,0.8-1.2,1.1l-8.2,15l-3.6-11
			c-0.3-1.3-1-2.5-2-3.5c-1-0.9-2.3-1.5-3.7-1.6H55L54.9,50c0.9,0.2,1.8,0.7,2.4,1.4c0.7,0.9,1.2,1.9,1.5,3l5.5,18.2l-1.5,2.7
			c-1.4,2.4-3.1,3.2-6.9,2.5l-0.3,1.6c1.8,0.3,3.6,0.3,5.3,0c2-0.7,3.7-2.3,4.6-4.2c1.1-2,13.1-23.9,13.3-24.2s0.3-0.4,0.7-0.4
			c0.6,0,1.3,0.2,1.7,0.7c0.4,0.6,0.6,1.2,0.6,1.9c0,0.6-0.1,1.3-0.3,1.9l-2.7,16.5h6.4l2.8-16.9c0.2-0.8,0.2-1.6,0.1-2.4
			c0.6-0.5,1.3-0.8,2-1c0.9-0.3,1.8-0.4,2.8-0.4c1,0,2,0.3,2.7,1c0.8,0.9,1.1,2.2,1,3.4c0,0.6-0.1,1.3-0.2,1.9l-2.4,14.5h9.8
			c0.9,0,1.9-1.1,2.7-1.8c1.6-1.6,5.9-6,5.9-6l1.7,3.8c0.4,1.1,1.1,2.1,2,2.9c1.1,0.8,2.4,1.2,3.7,1.1h4.7l0.2-1
			c-0.8-0.2-1.5-0.6-2.1-1.2C121.7,68.7,121.1,67.8,120.6,66.8"/>
		<path class="st0" d="M122.8,38c-2-0.1-6.6-3.4-8.7-4c-1.2-0.4-13.7-4.8-14.8-5.3c-1.2-0.4-2-1.4-2.2-2.6c0-1.3,1-2.3,2.3-2.3
			c1.3,0,2.3,1,2.3,2.3c0,0,0,0,0,0c0,0.7,0.1,0.8,3.8-0.6c1.2-0.5,2.4,1.1,3.7,0.9s2.8-2.3,3.3-3.1s1.3-0.9-0.6-3
			c-1.4-1.5-0.9-2-1.8-3.6c-0.9-1.1-1.9-1.9-3.1-2.6l0,0c-1.4-0.6-1.7-0.7-1.6-1.3c0.4-2.2-1.1-3-1.5-2.7c-0.5,0.3-2.6,2.1-8.6,3.1
			c-3.1,0.5-8.4,0.5-12.9,2.3c-9.8,3.9-26.6-0.8-43.3-0.8c-2.5,0-8.1-0.8-11-2.2c-2-1-3.8-2.4-4.3-2.4c-1.1,0-1.3,2.1,0.9,4.4
			c2.6,2.8,9.5,3.4,8.7,4c-0.8,0.8-1.5,1.7-2.1,2.8c-1.8,3-4.9,5.1-8.3,5.8c-1.6,0.2-3.9-0.8-4.6,0.1s-3.4,6.4-12.3,9.9
			c-3,1.2-4.1,3.7-3.8,5.4s3.4,1.1,4.7,1c2.8-0.3,6.7-3.9,7.8-4.7c6.4-4.9,4.9-4.5,9.6-5c8.1-0.8,15.2,1.1,21.9-3.7
			c9.9-7,17.5,3.4,29.3,4.3c4.8,0.4,8.9,0.6,12.4-0.2c0.6-0.2,0.8,0,0.8,0.1c3.5,2.4,4.9,2.3,7.6,2.3c3.3,0,15.8,2,20.1,4.1
			c1.4,0.7,1.3,2,2.7,2.3c1.2,0.4,2.4,0.6,3.6,0.6c2.4,0,4.5-1.2,4.5-3.7C127.4,38.7,126.2,38.1,122.8,38"/>
		<path class="st0" d="M129.8,66.6c-1.5,0-2.7,1.2-2.7,2.6c0,1.5,1.2,2.7,2.6,2.7c1.5,0,2.7-1.2,2.7-2.6c0,0,0,0,0,0
			C132.4,67.8,131.2,66.6,129.8,66.6C129.8,66.6,129.8,66.6,129.8,66.6 M129.8,71.4c-1.2,0-2.1-0.9-2.2-2.1c0-1.2,0.9-2.1,2.1-2.2
			c1.2,0,2.1,0.9,2.2,2.1c0,0,0,0,0,0C131.9,70.5,130.9,71.4,129.8,71.4C129.8,71.4,129.8,71.4,129.8,71.4"/>
		<path class="st0" d="M3,71.8h12.7l0.4-2.3H5.4v-8.9h9.4l0.4-2.2H5.4v-7.6h10.2l0.4-2.2H3V71.8z M20,48.6l-0.4,2.2H32v0.1L20,69.6
			l-0.4,2.3h15.6l0.4-2.3H23.2v-0.1l12-18.7l0.4-2.2L20,48.6z"/>
	</g>
</g>
<g>
	<path class="st0" d="M195.5,31.8c-3.8,0-6.7,1.2-8.9,3.6c-2.2,2.4-3.2,5.7-3.2,9.9c0,4.3,1,7.6,3.1,10c2,2.4,4.9,3.5,8.7,3.5
		c2.5,0,4.8-0.3,6.9-1v1.8c-2,0.7-4.5,1-7.4,1c-4.2,0-7.5-1.4-9.9-4.1c-2.4-2.7-3.6-6.5-3.6-11.4c0-3,0.6-5.7,1.7-8.1s2.8-4.1,5-5.4
		c2.2-1.3,4.7-1.9,7.6-1.9c2.9,0,5.5,0.5,7.8,1.6l-0.8,1.9C200.2,32.4,197.9,31.8,195.5,31.8z"/>
	<path class="st0" d="M226.7,49.2c0,3.6-0.9,6.5-2.6,8.5c-1.8,2-4.2,3.1-7.3,3.1c-2,0-3.7-0.5-5.2-1.4c-1.5-0.9-2.6-2.3-3.4-4.1
		c-0.8-1.8-1.2-3.8-1.2-6.1c0-3.6,0.9-6.5,2.6-8.5c1.8-2,4.2-3,7.3-3c3.1,0,5.5,1,7.2,3.1S226.7,45.6,226.7,49.2z M209.1,49.2
		c0,3.1,0.7,5.4,2,7.2c1.3,1.7,3.2,2.6,5.7,2.6c2.5,0,4.4-0.9,5.7-2.6c1.3-1.7,2-4.1,2-7.2c0-3.1-0.7-5.5-2-7.2
		c-1.4-1.7-3.3-2.5-5.7-2.5c-2.5,0-4.4,0.8-5.7,2.5C209.8,43.7,209.1,46.1,209.1,49.2z"/>
	<path class="st0" d="M260.7,60.3V45.7c0-2.2-0.4-3.8-1.3-4.8c-0.8-1-2.1-1.5-3.9-1.5c-2.3,0-4,0.6-5.1,1.9
		c-1.1,1.3-1.6,3.2-1.6,5.9v13.1h-2.1V45.1c0-3.8-1.7-5.6-5.2-5.6c-2.3,0-4,0.7-5.1,2c-1.1,1.4-1.6,3.5-1.6,6.5v12.3h-2V38.1h1.7
		l0.4,3.1h0.1c0.6-1.1,1.5-2,2.6-2.6c1.1-0.6,2.4-0.9,3.8-0.9c3.5,0,5.8,1.3,6.8,4h0.1c0.7-1.3,1.7-2.2,2.9-2.9s2.6-1,4.2-1
		c2.4,0,4.3,0.6,5.5,1.9s1.8,3.4,1.8,6.2v14.6H260.7z"/>
	<path class="st0" d="M279.4,60.7c-3.4,0-5.9-1.3-7.5-3.9h-0.1l0.1,1.7c0.1,1,0.1,2.1,0.1,3.3v8.5h-2V38.1h1.7l0.4,3.2h0.1
		c1.5-2.4,4-3.6,7.3-3.6c3,0,5.3,1,6.9,3c1.6,2,2.4,4.8,2.4,8.6c0,3.7-0.8,6.5-2.5,8.5C284.6,59.7,282.3,60.7,279.4,60.7z
		 M279.4,58.9c2.3,0,4-0.8,5.3-2.5s1.9-4.1,1.9-7.1c0-6.5-2.4-9.8-7.1-9.8c-2.6,0-4.5,0.7-5.7,2.1c-1.2,1.4-1.8,3.8-1.8,7v0.7
		c0,3.5,0.6,6,1.8,7.5S276.8,58.9,279.4,58.9z"/>
	<path class="st0" d="M308.4,60.3l-0.5-3.5h-0.2c-1.1,1.4-2.3,2.4-3.5,3c-1.2,0.6-2.6,0.9-4.2,0.9c-2.2,0-3.9-0.6-5.1-1.7
		s-1.8-2.7-1.8-4.7c0-2.2,0.9-3.9,2.7-5.1s4.4-1.8,7.9-1.9l4.2-0.1v-1.5c0-2.1-0.4-3.7-1.3-4.8c-0.9-1.1-2.2-1.6-4.2-1.6
		c-2.1,0-4.2,0.6-6.4,1.7l-0.8-1.8c2.4-1.1,4.9-1.7,7.3-1.7c2.4,0,4.3,0.6,5.5,1.9c1.2,1.3,1.8,3.3,1.8,5.9v14.8H308.4z M300.2,58.9
		c2.4,0,4.3-0.7,5.6-2s2.1-3.2,2.1-5.7V49l-3.9,0.2c-3.1,0.2-5.4,0.6-6.7,1.5c-1.3,0.8-2,2.1-2,3.9c0,1.4,0.4,2.5,1.3,3.2
		C297.5,58.5,298.7,58.9,300.2,58.9z"/>
	<path class="st0" d="M330.9,54.5c0,2-0.8,3.5-2.3,4.6c-1.5,1.1-3.7,1.6-6.5,1.6c-3,0-5.3-0.5-7.1-1.4v-2.2c2.2,1.1,4.6,1.7,7.1,1.7
		c2.2,0,3.9-0.4,5-1.1c1.1-0.7,1.7-1.7,1.7-2.9c0-1.1-0.5-2.1-1.4-2.8c-0.9-0.8-2.4-1.5-4.5-2.3c-2.2-0.8-3.8-1.5-4.7-2.1
		c-0.9-0.6-1.6-1.2-2-2c-0.5-0.7-0.7-1.6-0.7-2.7c0-1.7,0.7-3,2.1-4c1.4-1,3.4-1.5,5.9-1.5c2.4,0,4.7,0.5,6.8,1.4l-0.8,1.8
		c-2.2-0.9-4.2-1.4-6.1-1.4c-1.8,0-3.3,0.3-4.3,0.9c-1.1,0.6-1.6,1.4-1.6,2.5c0,1.2,0.4,2.1,1.2,2.8c0.8,0.7,2.4,1.5,4.8,2.3
		c2,0.7,3.5,1.4,4.4,2c0.9,0.6,1.6,1.2,2.1,2C330.7,52.7,330.9,53.5,330.9,54.5z"/>
	<path class="st0" d="M350.5,54.5c0,2-0.8,3.5-2.3,4.6c-1.5,1.1-3.7,1.6-6.5,1.6c-3,0-5.3-0.5-7.1-1.4v-2.2c2.2,1.1,4.6,1.7,7.1,1.7
		c2.2,0,3.9-0.4,5-1.1c1.1-0.7,1.7-1.7,1.7-2.9c0-1.1-0.5-2.1-1.4-2.8c-0.9-0.8-2.4-1.5-4.5-2.3c-2.2-0.8-3.8-1.5-4.7-2.1
		c-0.9-0.6-1.6-1.2-2-2c-0.5-0.7-0.7-1.6-0.7-2.7c0-1.7,0.7-3,2.1-4c1.4-1,3.4-1.5,5.9-1.5c2.4,0,4.7,0.5,6.8,1.4l-0.8,1.8
		c-2.2-0.9-4.2-1.4-6.1-1.4c-1.8,0-3.3,0.3-4.3,0.9c-1.1,0.6-1.6,1.4-1.6,2.5c0,1.2,0.4,2.1,1.2,2.8c0.8,0.7,2.4,1.5,4.8,2.3
		c2,0.7,3.5,1.4,4.4,2c0.9,0.6,1.6,1.2,2.1,2C350.3,52.7,350.5,53.5,350.5,54.5z"/>
</g>
<line class="st1" x1="156.6" y1="0" x2="156.6" y2="90"/>
</svg>
